<svg xmlns="http://www.w3.org/2000/svg" viewBox="0 0 8.05 9.24"><g id="Слой_2" data-name="Слой 2"><g id="Слой_1-2" data-name="Слой 1"><g id="Слой_1-3" data-name="Слой_1"><g id="_1281728400" data-name=" 1281728400"><path d="M7,9.24H7a.26.26,0,0,0,.15,0h0a.32.32,0,0,0,.13-.44h0A4,4,0,0,0,4.73,6.81h0v-1H6.3A1.75,1.75,0,0,0,8.05,4h0V3.16a.32.32,0,0,0-.32-.32H5.85a1.78,1.78,0,0,0-1.12.4h0v-1A2.28,2.28,0,0,0,2.45,0H.32A.32.32,0,0,0,0,.32V1.2A2.28,2.28,0,0,0,2.28,3.48H4.09V6.72H3.84a4,4,0,0,0-2.33.75h0a.33.33,0,0,0-.07.45h0A.33.33,0,0,0,1.89,8h0a3.31,3.31,0,0,1,2-.63h0a4,4,0,0,1,.5,0h0A3.32,3.32,0,0,1,6.76,9.07h0A.32.32,0,0,0,7,9.24Zm-6.4-8V.64H2.45A1.63,1.63,0,0,1,4.09,2.28h0v.56H2.28A1.64,1.64,0,0,1,.64,1.2ZM4.73,4.6A1.12,1.12,0,0,1,5.85,3.48H7.41V4A1.12,1.12,0,0,1,6.3,5.14H4.73V4.6Z" fill="#fff" fill-rule="evenodd"/></g></g></g></g></svg>