<svg xmlns="http://www.w3.org/2000/svg" xmlns:xlink="http://www.w3.org/1999/xlink" viewBox="0 0 11.01 13.89"><defs><linearGradient id="Безымянный_градиент_470" x1="3810.63" y1="18039.8" x2="4198.96" y2="18039.8" gradientTransform="matrix(0.03, 0, 0, -0.03, -108.02, 518.31)" gradientUnits="userSpaceOnUse"><stop offset="0" stop-color="#3ca9fa"/><stop offset="1" stop-color="#84d5f7"/></linearGradient></defs><g id="Слой_2" data-name="Слой 2"><g id="Слой_1-2" data-name="Слой 1"><g id="Слой_1-3" data-name="Слой_1"><g id="_1281728400" data-name=" 1281728400"><path d="M.23,13.89H10.78a.23.23,0,1,0,0-.45H9.91A6.73,6.73,0,0,0,5.73,12h0V10.67l1-1a3.79,3.79,0,0,0,.58,0h0a3.52,3.52,0,0,0,2.44-1h0a3.43,3.43,0,0,0,1-3.13h0a.23.23,0,0,0-.17-.17h0a3.42,3.42,0,0,0-3.14.95h0a3.42,3.42,0,0,0-1,3h0L5.73,10V5.89l.67-.68a1.87,1.87,0,0,0,.4,0h0a2.59,2.59,0,0,0,1.81-.77h0a2.51,2.51,0,0,0,.71-2.33h0A.21.21,0,0,0,9.15,2h0a2.53,2.53,0,0,0-2.33.7h0A2.53,2.53,0,0,0,6.09,4.9h0l-.36.35V4.82A2.58,2.58,0,0,0,5,3H5A2.53,2.53,0,0,0,4.24.77h0A2.55,2.55,0,0,0,2.43,0h0a2.24,2.24,0,0,0-.52.06.21.21,0,0,0-.17.17h0a2.53,2.53,0,0,0,.7,2.33h0a2.59,2.59,0,0,0,1.82.77h0a1.81,1.81,0,0,0,.4,0h0a2.17,2.17,0,0,1,.62,1.53h0v3.3L4.56,7.4a3.42,3.42,0,0,0-1-3h0A3.42,3.42,0,0,0,.45,3.44h0a.23.23,0,0,0-.17.17h0a3.41,3.41,0,0,0,1,3.13h0a3.48,3.48,0,0,0,2.44,1h0a3.66,3.66,0,0,0,.57,0h0l1,1V12A6.71,6.71,0,0,0,1.1,13.44H.23a.22.22,0,0,0-.23.22H0a.23.23,0,0,0,.23.23ZM2.76,2.24A2.09,2.09,0,0,1,2.15.47h0a2.12,2.12,0,0,1,1.77.61h0a2.15,2.15,0,0,1,.64,1.48h0L3.26,1.27a.21.21,0,0,0-.31,0H3a.21.21,0,0,0,0,.31H3l1.29,1.3a2.15,2.15,0,0,1-1.48-.64ZM7.14,3a2.09,2.09,0,0,1,1.77-.61h0A2.1,2.1,0,0,1,8.3,4.16h0a2.15,2.15,0,0,1-1.48.64h0L8.11,3.5a.22.22,0,0,0,0-.32h0a.23.23,0,0,0-.31,0h0L6.5,4.48A2.15,2.15,0,0,1,7.14,3ZM1.55,6.42A3,3,0,0,1,.69,3.85h0a3,3,0,0,1,2.58.86h0A3,3,0,0,1,4.16,7h0L2.06,4.9a.22.22,0,0,0-.32,0h0a.22.22,0,0,0,0,.32h0l2.1,2.1H3.67a3,3,0,0,1-2.12-.9Zm6.19.21a3,3,0,0,1,2.58-.86h0a3,3,0,0,1-.86,2.57h0a3,3,0,0,1-2.29.89h0l2.1-2.1a.21.21,0,0,0,0-.31h0a.22.22,0,0,0-.32,0H9l-2.1,2.1a3,3,0,0,1,.89-2.29ZM5.5,12.45a6.79,6.79,0,0,1,3.65,1H1.85a6.81,6.81,0,0,1,3.65-1Z" fill-rule="evenodd" fill="url(#Безымянный_градиент_470)"/></g></g></g></g></svg>