<svg xmlns="http://www.w3.org/2000/svg" viewBox="0 0 12.58 12.37"><g id="Слой_2" data-name="Слой 2"><g id="Слой_1-2" data-name="Слой 1"><g id="Слой_1-3" data-name="Слой_1"><g id="_1281728400" data-name=" 1281728400"><path d="M6.08,4.77H5.67l0,0h0a.08.08,0,0,0,0,0h0V7a.54.54,0,0,1-.28-.47h0V5.67s0,0,0,0h0s0,0,0,0H4.84s0,0,0,0h0a.08.08,0,0,0,0,0h0V6.5A1.1,1.1,0,0,0,5.88,7.6h0a.27.27,0,0,0,.27-.27h0V4.84s0,0,0,0h0Z" fill="#fff" fill-rule="evenodd"/><path d="M7.73,8h0a3,3,0,0,0,1.8-.56h0a1.74,1.74,0,0,0,.76-1.38h0a1.59,1.59,0,0,0-.33-1h0a2.23,2.23,0,0,0-.83-.67h0a1.88,1.88,0,0,0,.12-.66h0a1.92,1.92,0,0,0-1-1.71h0s0-.1,0-.15h0A1.94,1.94,0,0,0,6.29,0h0A1.94,1.94,0,0,0,4.35,1.94h0s0,.09,0,.14H4.22A1.94,1.94,0,0,0,2.28,4h0a1.89,1.89,0,0,0,.35,1.1h0a1.58,1.58,0,0,0-.35,1h0a1.59,1.59,0,0,0,.39,1h0a2.35,2.35,0,0,0,1,.71h0a.07.07,0,0,0,.09,0h0l.14-.39a0,0,0,0,0,0,0h0a.08.08,0,0,0,0,0h0a1.79,1.79,0,0,1-.78-.52h0a1.07,1.07,0,0,1-.28-.7h0a1.05,1.05,0,0,1,.34-.76h0a.24.24,0,0,0,.08-.19h0a.26.26,0,0,0-.07-.19h0A1.34,1.34,0,0,1,2.84,4h0a1.4,1.4,0,0,1,.45-1h0a1.4,1.4,0,0,1,.93-.35h0a1.39,1.39,0,0,1,.4.06H4.7a.28.28,0,0,0,.2-.08h0A.28.28,0,0,0,5,2.42H5a.25.25,0,0,0,0-.08H5a1.39,1.39,0,0,1-.06-.4h0a1.38,1.38,0,0,1,1-1.32h0A1.51,1.51,0,0,1,6.29.56h0a1.38,1.38,0,0,1,1.32,1h0a1.4,1.4,0,0,1,.06.41h0a1.22,1.22,0,0,1,0,.26h0v0h0a.27.27,0,0,0,.18.26h0A1.39,1.39,0,0,1,8.71,3.8h0a1.37,1.37,0,0,1-.09.49h0a1.51,1.51,0,0,1-.09.18h0a.32.32,0,0,0,0,.14h0a.28.28,0,0,0,.14.24h0l0,0h0a1.86,1.86,0,0,1,.78.51h0a1,1,0,0,1,.28.7h0a1.2,1.2,0,0,1-.57,1h0a2.57,2.57,0,0,1-1.43.41h0l-.38,0h0s-.07,0-.08.06h0l0,.41a.07.07,0,0,0,0,0h0a.05.05,0,0,0,0,0h0a3.25,3.25,0,0,0,.44,0Z" fill="#fff" fill-rule="evenodd"/><path d="M10.43,8.43h0A2.25,2.25,0,0,0,12,7.87h0a1.85,1.85,0,0,0,.63-1.37h0a1.85,1.85,0,0,0-.66-1.39h0a1.86,1.86,0,0,0,.25-.89h0a2,2,0,0,0-1.25-1.75h0a1.84,1.84,0,0,0-.65-1.29h0A2.26,2.26,0,0,0,8.78.62h0a2.42,2.42,0,0,0-.47.05h0a.05.05,0,0,0-.05,0h0a.07.07,0,0,0,0,.05h0l.09.41s0,.06.08.05h0a2.19,2.19,0,0,1,.36,0h0a1.64,1.64,0,0,1,1.12.41h0a1.28,1.28,0,0,1,.47,1h0s0,0,0,0h0v0a.29.29,0,0,0,.2.27h0a1.41,1.41,0,0,1,1,1.3h0a1.2,1.2,0,0,1-.28.77h0a.27.27,0,0,0-.06.17h0a.29.29,0,0,0,.11.22h0A1.31,1.31,0,0,1,12,6.5h0a1.27,1.27,0,0,1-.46,1h0a1.69,1.69,0,0,1-1.12.41h0a1.82,1.82,0,0,1-.89-.24h0a.06.06,0,0,0-.09,0h0L9.23,8a0,0,0,0,0,0,.05h0a.05.05,0,0,0,0,0h0a2.38,2.38,0,0,0,1.17.31Z" fill="#fff" fill-rule="evenodd"/><path d="M.9,12.37H12.51l.05,0h0a.08.08,0,0,0,0,0h0v-.41a.08.08,0,0,0,0-.05h0s0,0-.05,0H9.26V10.47a1.1,1.1,0,0,0,.83-1.07h0V8.78s0,0,0,0h0s0,0-.05,0H9.61s0,0,0,0h0s0,0,0,0h0V9.4a.54.54,0,0,1-.28.47h0V8.36a.06.06,0,0,0,0,0h0l-.05,0H8.78l0,0h0a.06.06,0,0,0,0,0h0v3.46H8.43V8.36a.06.06,0,0,0,0,0h0l-.05,0H8l0,0h0s0,0,0,0h0v3.46H7v-7s0,0,0,0H7l0,0H6.5l0,0h0s0,0,0,0h0v7H6.15V8.16a.27.27,0,0,0-.27-.28h0A1.39,1.39,0,0,1,4.49,6.5h0V5.67s0,0,0,0h0s0,0,0,0H4s0,0,0,0H4a.08.08,0,0,0,0,0h0V6.5A1.94,1.94,0,0,0,5.6,8.41h0v3.41H4.7V8.36s0,0,0,0h0l0,0H4.22l0,0h0a.06.06,0,0,0,0,0h0v3.46H3.87V8.36a.06.06,0,0,0,0,0h0l-.05,0H3.39l-.05,0h0a.06.06,0,0,0,0,0h0v1.1A.56.56,0,0,1,3,9H3v-.2s0,0,0,0H3s0,0,0,0H2.56s0,0-.05,0h0a.08.08,0,0,0,0,0h0V9a1.11,1.11,0,0,0,.83,1.08h0v1.76H.9s0,0-.05,0h0a.08.08,0,0,0,0,.05h0v.41h0a.08.08,0,0,0,0,0h0l.05,0Z" fill="#fff" fill-rule="evenodd"/><path d="M2.14,8.43h0a2.35,2.35,0,0,0,1.17-.31h0a.1.1,0,0,0,0,0h0a.07.07,0,0,0,0-.05h0l-.21-.36a.08.08,0,0,0-.1,0H3a1.82,1.82,0,0,1-.89.24h0A1.71,1.71,0,0,1,1,7.47H1a1.27,1.27,0,0,1-.46-1h0a1.31,1.31,0,0,1,.62-1.1h0a.27.27,0,0,0,.12-.23h0A.33.33,0,0,0,1.26,5h0A1.2,1.2,0,0,1,1,4.22H1A1.41,1.41,0,0,1,2,2.92H2a.29.29,0,0,0,.2-.27h0v0a.43.43,0,0,0,0,0h0a1.28,1.28,0,0,1,.47-1h0A1.64,1.64,0,0,1,3.8,1.18h0a2.19,2.19,0,0,1,.36,0h0s.08,0,.08-.05h0L4.33.75a.07.07,0,0,0,0-.05h0a.05.05,0,0,0-.05,0h0A2.42,2.42,0,0,0,3.8.62h0a2.26,2.26,0,0,0-1.49.55h0a1.84,1.84,0,0,0-.65,1.29h0A1.93,1.93,0,0,0,.42,4.21h0a1.75,1.75,0,0,0,.24.89h0A1.85,1.85,0,0,0,0,6.5H0A1.85,1.85,0,0,0,.63,7.87h0a2.27,2.27,0,0,0,1.51.56Z" fill="#fff" fill-rule="evenodd"/><path d="M.56,12.3h0v-.41h0a.08.08,0,0,0,0-.05h0a.06.06,0,0,0-.05,0H.07s0,0,0,0H0a.08.08,0,0,0,0,.05H0v.41a.08.08,0,0,0,0,0H0s0,0,.05,0H.49a.06.06,0,0,0,.05,0h0a.08.08,0,0,0,0,0Z" fill="#fff" fill-rule="evenodd"/></g></g></g></g></svg>