<svg xmlns="http://www.w3.org/2000/svg" xmlns:xlink="http://www.w3.org/1999/xlink" viewBox="0 0 211.21 186.15"><defs><linearGradient id="New_Gradient_Swatch_copy_4" y1="70.55" x2="89.75" y2="70.55" gradientUnits="userSpaceOnUse"><stop offset="0" stop-color="#f67b80"/><stop offset="1" stop-color="#f1b267"/></linearGradient><linearGradient id="New_Gradient_Swatch_copy_4-2" x1="140.07" y1="176.74" x2="211.21" y2="176.74" xlink:href="#New_Gradient_Swatch_copy_4"/><linearGradient id="New_Gradient_Swatch_copy_4-3" y1="176.74" x2="80.58" y2="176.74" xlink:href="#New_Gradient_Swatch_copy_4"/><linearGradient id="New_Gradient_Swatch_copy_3" x1="57.96" y1="74.8" x2="210.89" y2="74.8" gradientUnits="userSpaceOnUse"><stop offset="0" stop-color="#724bcc"/><stop offset="1" stop-color="#3253a1"/></linearGradient><linearGradient id="New_Gradient_Swatch_copy_6" x1="140.07" y1="138.28" x2="184.32" y2="138.28" gradientUnits="userSpaceOnUse"><stop offset="0" stop-color="#3ca9fa"/><stop offset="1" stop-color="#84d5f7"/></linearGradient><linearGradient id="New_Gradient_Swatch_copy_6-2" x1="123.62" y1="88.82" x2="145.24" y2="88.82" xlink:href="#New_Gradient_Swatch_copy_6"/><linearGradient id="New_Gradient_Swatch_copy_3-2" x1="120.82" y1="88.82" x2="148.03" y2="88.82" xlink:href="#New_Gradient_Swatch_copy_3"/><linearGradient id="New_Gradient_Swatch_copy_4-4" x1="16.13" y1="165.39" x2="22.58" y2="165.39" xlink:href="#New_Gradient_Swatch_copy_4"/><linearGradient id="New_Gradient_Swatch_copy_4-5" x1="5.77" y1="165.39" x2="12.22" y2="165.39" xlink:href="#New_Gradient_Swatch_copy_4"/><linearGradient id="New_Gradient_Swatch_copy_4-6" x1="61.59" y1="165.39" x2="68.04" y2="165.39" xlink:href="#New_Gradient_Swatch_copy_4"/></defs><g id="Слой_2" data-name="Слой 2"><g id="Layer_1" data-name="Layer 1"><polyline points="54.12 131.42 54.12 175.51 35.63 175.51 35.63 131.41" style="fill:#f1b267"/><polyline points="43.88 131.42 43.88 175.51 35.63 175.51 35.63 131.41" style="fill:#be8e52"/><ellipse cx="44.87" cy="70.55" rx="44.87" ry="70.55" style="fill:url(#New_Gradient_Swatch_copy_4)"/><path d="M44.87,141.09C20.09,141.09,0,109.51,0,70.55S20.09,0,44.87,0C33.9,0,25,31.59,25,70.55S33.9,141.09,44.87,141.09Z" style="fill:#ec8c5e"/><polygon points="193.35 96.32 193.35 186.15 75.51 186.15 75.51 96.32 134.76 38.85 193.35 96.32" style="fill:#e9eaef"/><polyline points="164.51 64.61 164.51 48.02 193.97 48.02 193.97 92.67" style="fill:#c8c6db"/><polyline points="164.51 64.61 164.51 48.02 171.59 48.02 171.59 92.67" style="fill:#a7a6c4"/><path d="M146.12,167.32h59a6.05,6.05,0,0,1,6.05,6.05v12.78H140.07V173.37A6,6,0,0,1,146.12,167.32Z" style="fill:url(#New_Gradient_Swatch_copy_4-2)"/><path d="M6.05,167.32H74.54a6,6,0,0,1,6,6.05v12.78H0V173.37A6.05,6.05,0,0,1,6.05,167.32Z" style="fill:url(#New_Gradient_Swatch_copy_4-3)"/><polygon points="193.35 99.85 193.35 116.64 134.43 60.38 75.51 116.64 75.51 99.85 129.75 48.19 134.43 43.85 139.1 48.19 193.35 99.85" style="fill:#d2d4d8"/><polygon points="134.43 51.04 67.34 115.09 57.96 107.21 129.75 38.85 134.43 34.5 139.1 38.85 210.89 107.21 201.51 115.09 134.43 51.04" style="fill:url(#New_Gradient_Swatch_copy_3)"/><rect x="89.92" y="118.85" width="38.86" height="67.29" style="fill:#f1b267"/><path d="M131.58,186.15H126V121.64H92.72v64.51H87.13v-67.3a2.79,2.79,0,0,1,2.79-2.8h38.87a2.79,2.79,0,0,1,2.79,2.8v67.3Z" style="fill:#be8e52"/><rect x="140.07" y="118.85" width="44.26" height="38.86" style="fill:url(#New_Gradient_Swatch_copy_6)"/><rect x="140.07" y="118.85" width="44.26" height="11.81" style="fill:#f1b267"/><path d="M184.32,160.51H140.07a2.8,2.8,0,0,1-2.8-2.8V118.85a2.8,2.8,0,0,1,2.8-2.8h44.25a2.8,2.8,0,0,1,2.8,2.8v38.86A2.8,2.8,0,0,1,184.32,160.51Zm-41.46-5.6h38.67V121.65H142.86Z" style="fill:#be8e52"/><path d="M120.05,155.08h-5.64a2.8,2.8,0,0,1,0-5.59h5.64a2.8,2.8,0,1,1,0,5.59Z" style="fill:#be8e52"/><circle cx="134.43" cy="88.82" r="10.81" style="fill:url(#New_Gradient_Swatch_copy_6-2)"/><rect x="140.07" y="127.86" width="44.26" height="5.59" style="fill:#be8e52"/><path d="M134.43,102.43A13.61,13.61,0,1,1,148,88.82,13.62,13.62,0,0,1,134.43,102.43Zm0-21.62a8,8,0,1,0,8,8A8,8,0,0,0,134.43,80.81Z" style="fill:url(#New_Gradient_Swatch_copy_3-2)"/><path d="M19.36,172.7a3.23,3.23,0,0,1-3.23-3.23v-8.16a3.23,3.23,0,0,1,6.45,0v8.16A3.22,3.22,0,0,1,19.36,172.7Z" style="fill:url(#New_Gradient_Swatch_copy_4-4)"/><path d="M9,172.7a3.22,3.22,0,0,1-3.22-3.23v-8.16a3.23,3.23,0,0,1,6.45,0v8.16A3.22,3.22,0,0,1,9,172.7Z" style="fill:url(#New_Gradient_Swatch_copy_4-5)"/><path d="M64.81,172.7a3.22,3.22,0,0,1-3.22-3.23v-8.16a3.23,3.23,0,0,1,6.45,0v8.16A3.22,3.22,0,0,1,64.81,172.7Z" style="fill:url(#New_Gradient_Swatch_copy_4-6)"/></g></g></svg>