<svg xmlns="http://www.w3.org/2000/svg" viewBox="0 0 3.39 3.16"><g id="Слой_2" data-name="Слой 2"><g id="Слой_1-2" data-name="Слой 1"><g id="Слой_1-3" data-name="Слой_1"><g id="_1281728400" data-name=" 1281728400"><path d="M1.73.34A1.31,1.31,0,0,0,.39,1.69h.5A.34.34,0,0,1,1.24,2v.84a.32.32,0,0,1-.35.31H.39C.2,3.16,0,3,0,2.85V1.68a1.7,1.7,0,0,1,3.39,0V2.85a.3.3,0,0,1-.32.31h-.5a.29.29,0,0,1-.31-.31V2a.3.3,0,0,1,.31-.32h.5A1.31,1.31,0,0,0,1.73.34ZM.34,2.82H.9V2H.34Zm2.26,0h.45V2H2.6Zm0-.8V2Z" fill="#a7a6c4"/></g></g></g></g></svg>