<svg xmlns="http://www.w3.org/2000/svg" viewBox="0 0 32.39 32.39"><g id="Слой_2" data-name="Слой 2"><g id="Слой_1-2" data-name="Слой 1"><g id="Слой_1-3" data-name="Слой_1"><g id="_1281728400" data-name=" 1281728400"><path d="M10.14,27.77a.48.48,0,0,0,.65-.13l.09-.12a.48.48,0,0,0-.11-.66.46.46,0,0,0-.65.1l-.11.15A.47.47,0,0,0,10.14,27.77Z" fill="#fff"/><path d="M24.89,31.71h-.17V28.48l.76-.19a.34.34,0,0,0,.26-.33.28.28,0,0,0,0-.09.35.35,0,0,0-.33-.26h-.08l-7.88,2-.06-.12a2.33,2.33,0,0,0-2.11-1.34,2.12,2.12,0,0,0-1.07.26,11.5,11.5,0,0,0-1.07.69l-.07,0-6-1.5H7a.35.35,0,0,0-.33.26.28.28,0,0,0,0,.09.34.34,0,0,0,.26.33l.76.19v3.23H7.25a3.53,3.53,0,0,1-2.48-1,3.49,3.49,0,0,1,2.48-6h1l0,.06a2.62,2.62,0,0,0,2,1H22.07a2.64,2.64,0,0,0,2-1l.05-.06h.63a5.26,5.26,0,0,1,1.39.16,3.23,3.23,0,0,1,1.43.87,3.41,3.41,0,0,1,1,2.44,3.62,3.62,0,0,1-1,2.44,3.44,3.44,0,0,1-2.54,1.09Zm-.85,0H11.48a.57.57,0,0,1-.42-.19.58.58,0,0,1-.15-.39.56.56,0,0,1,.09-.31.6.6,0,0,1,.27-.22l2-.78.08,0h0l.91-.61a2,2,0,0,1,.61-.3,1.49,1.49,0,0,1,.43-.05,1.67,1.67,0,0,1,1.57,1.13l.05.17a.35.35,0,0,0,.33.23h.08L24,28.65v3.06Zm-13.76-.22.06.22h-2V28.65l3.16.79.51.13L11,30a1.23,1.23,0,0,0-.79,1.16,1.12,1.12,0,0,0,0,.36ZM13,10.06V7.3A2.66,2.66,0,0,1,13,7l0-.13h.14a1.25,1.25,0,0,0,1-.7h0a.52.52,0,0,1,.21-.23h0l0,0,.06,0a.33.33,0,0,1,.15,0c.11,0,.3,0,.7,0h2.32a.57.57,0,0,1,.27.06.47.47,0,0,1,.18.16,3.9,3.9,0,0,0,.25.36,1.07,1.07,0,0,0,.29.25,1.29,1.29,0,0,0,.57.19h.14l0,.13a2.9,2.9,0,0,1,0,.34c0,.14,0,.34,0,.7s0,1.05,0,2.06a3.24,3.24,0,1,1-6.47,0Zm-.33-3.9-.1.07a.82.82,0,0,0-.16.35,7.35,7.35,0,0,0-.1,1.5v2L12,9.48a4.49,4.49,0,0,1-.53-2.11,4.62,4.62,0,0,1,.47-2,4.66,4.66,0,0,1,1.83-2,5,5,0,0,1,5,0,4.66,4.66,0,0,1,1.83,2,4.62,4.62,0,0,1,.47,2,4.49,4.49,0,0,1-.53,2.11l-.3.56,0-.63h0V8.11c0-.43,0-.81,0-1.11a1.55,1.55,0,0,0-.16-.67.38.38,0,0,0-.16-.17l-.13,0h-.21a1,1,0,0,1-.24,0A.5.5,0,0,1,18.93,6a.83.83,0,0,1-.13-.18h0a1.27,1.27,0,0,0-1.13-.7H15.42c-.38,0-.63,0-.81,0a.9.9,0,0,0-.36.07l-.2.1a1.07,1.07,0,0,0-.34.33c-.08.1-.13.21-.21.31a.53.53,0,0,1-.24.17.58.58,0,0,1-.19,0h-.31l-.13,0ZM15,1.9v0a1.2,1.2,0,1,1,2.39,0v0a.08.08,0,0,1,0,0,.12.12,0,0,1,0,.09.19.19,0,0,1-.07.06.18.18,0,0,1-.09,0h-.11l-.15,0a4.12,4.12,0,0,0-.67,0H16a4.08,4.08,0,0,0-.68.06l-.09,0h-.12A.14.14,0,0,1,15,2S15,2,15,2V1.9Zm17,29.81H27.48l.35-.3a4.08,4.08,0,0,0,1.49-3.16,4.33,4.33,0,0,0-1.13-2.91A4.1,4.1,0,0,0,25.14,24h-.58l.06-.21a2.21,2.21,0,0,0,.1-.66A5.92,5.92,0,0,0,24.54,22c-.11-.55-.3-1.31-.54-2.43a8,8,0,0,0-5.57-5.93l-.35-.11.3-.2a3.93,3.93,0,0,0,1.48-1.86l0,0,.05,0,0,0h0l.07-.09c.09-.11.25-.33.57-.77a5.18,5.18,0,0,0,1-3.1,5.36,5.36,0,0,0-3.47-5l-.11,0V1.88a1.88,1.88,0,1,0-3.75,0v.47l-.11,0a5.36,5.36,0,0,0-3.47,5,5.18,5.18,0,0,0,1,3.1l.45.61.17.23,0,0,0,0,0,0,0,0A3.93,3.93,0,0,0,14,13.31l.3.2-.35.11A8.1,8.1,0,0,0,11,15.18a.34.34,0,0,0-.12.26.35.35,0,0,0,.08.22.34.34,0,0,0,.26.12.3.3,0,0,0,.22-.08,7.32,7.32,0,0,1,7.07-1.33l.15.05,0,.16a7.53,7.53,0,0,1-6,5.5l-.64.11.42-1.88s0,0,0-.07a.33.33,0,0,0-.27-.33H12.1a.35.35,0,0,0-.33.27c-.12.53-.78,3.51-.93,4.2l0,.13h-.75a.34.34,0,1,0,0,.68H12a5.58,5.58,0,0,0,3.95-1.63.37.37,0,0,0,.1-.24.34.34,0,0,0-.35-.34.34.34,0,0,0-.24.1A4.86,4.86,0,0,1,12,22.5h-.47l.35-1.58.11,0a13.18,13.18,0,0,0,2.33-.57,7.88,7.88,0,0,0,2.83-1.81,8.33,8.33,0,0,0,2.16-3.63l.05-.2.19.1a7.28,7.28,0,0,1,3.27,3.38l.12.24H20.67l0-.13,0-.11a.35.35,0,0,0-.33-.27h-.08a.33.33,0,0,0-.27.33s0,.05,0,.07l.93,4.19h-.47A4.86,4.86,0,0,1,17,21.07a.34.34,0,0,0-.24-.1.34.34,0,0,0-.35.34.37.37,0,0,0,.1.24,5.31,5.31,0,0,0,2.3,1.39,9.08,9.08,0,0,0,2.48.25h1.09a.34.34,0,1,0,0-.68h-.75l-.75-3.41h2.34l0,.12c0,.09,0,.15.07.23s0,.19.09.4c.09.4.26,1.18.63,2.83a2.1,2.1,0,0,1,.05.43,2,2,0,0,1-2,2H17.54l.12-.24a1.62,1.62,0,0,0,.16-.7A1.65,1.65,0,0,0,17.35,23a1.59,1.59,0,0,0-1.16-.49.34.34,0,1,0,0,.68.94.94,0,1,1,0,1.88H10.32a2,2,0,0,1-2-2v0a2.06,2.06,0,0,1,0-.21c0-.09,0-.21.08-.42.09-.41.27-1.19.61-2.74a6.38,6.38,0,0,1,.29-1,.5.5,0,0,0,0-.12.33.33,0,0,0-.22-.32l-.12,0a.33.33,0,0,0-.32.22,7.63,7.63,0,0,0-.32,1.06C8.15,20.67,8,21.43,7.84,22a5.66,5.66,0,0,0-.17,1.17,2.21,2.21,0,0,0,.1.66l.06.21H7.25a4.06,4.06,0,0,0-3,1.31,4.34,4.34,0,0,0-1.14,2.92,4.06,4.06,0,0,0,1.48,3.15l.36.3H.34a.34.34,0,0,0,0,.68H32.05a.34.34,0,0,0,0-.68Z" fill="#fff"/></g></g></g></g></svg>