<svg xmlns="http://www.w3.org/2000/svg" viewBox="0 0 4.89 4.66"><g id="Слой_2" data-name="Слой 2"><g id="Слой_1-2" data-name="Слой 1"><g id="Слой_1-3" data-name="Слой_1"><g id="_1281728400" data-name=" 1281728400"><path d="M2.12,3.06h.15V1.87H2.12L1.8,2.1v.15L2.12,2h0v1Zm.86,0a.4.4,0,0,0,.43-.4.39.39,0,0,0-.4-.4.33.33,0,0,0-.27.12h0l0-.4h.56V1.87H2.66l-.07.68h.14A.26.26,0,0,1,3,2.41a.26.26,0,0,1,.27.27A.26.26,0,0,1,3,3a.25.25,0,0,1-.26-.21H2.57A.38.38,0,0,0,3,3.08Z" fill="#fff"/><path d="M4.75,1.55a2.35,2.35,0,0,0-3-1.42A2.31,2.31,0,0,0,.46,1.31L.4,1.44.24,1A.12.12,0,0,0,.12.93h0A.13.13,0,0,0,0,1.05a.06.06,0,0,0,0,0l.27.75a.11.11,0,0,0,.06.07h.1l.7-.24a.12.12,0,0,0,.08-.11.09.09,0,0,0,0-.05.11.11,0,0,0-.11-.08h0L.6,1.59l.06-.12A2.07,2.07,0,0,1,1.86.37,2.08,2.08,0,0,1,4.52,1.64a2,2,0,0,1,.12.69A2.09,2.09,0,0,1,1,3.75a.12.12,0,0,0-.09,0,.16.16,0,0,0-.09,0,.18.18,0,0,0,0,.09.12.12,0,0,0,0,.09,2.33,2.33,0,0,0,3.81-.59,2.29,2.29,0,0,0,.23-1A2.38,2.38,0,0,0,4.75,1.55Z" fill="#fff"/></g></g></g></g></svg>