<svg xmlns="http://www.w3.org/2000/svg" viewBox="0 0 3.02 3.39"><g id="Слой_2" data-name="Слой 2"><g id="Слой_1-2" data-name="Слой 1"><g id="Слой_1-3" data-name="Слой_1"><g id="_1281728400" data-name=" 1281728400"><path d="M2.56,2.89a.31.31,0,0,1-.31.31H.77a.31.31,0,0,1-.32-.31V.68H2.56V2.89ZM1,.37A.18.18,0,0,1,1.17.19h.67A.18.18,0,0,1,2,.37V.49H1ZM2.92.49h-.7V.37A.38.38,0,0,0,1.84,0H1.17A.38.38,0,0,0,.8.37V.49H.09A.09.09,0,0,0,0,.58a.1.1,0,0,0,.09.1H.26V2.89a.5.5,0,0,0,.51.5H2.25a.5.5,0,0,0,.5-.5V.68h.17A.11.11,0,0,0,3,.58a.1.1,0,0,0-.1-.09Z" fill="#735ee6"/><path d="M1.51,2.87a.1.1,0,0,0,.09-.1V1.11A.1.1,0,0,0,1.51,1a.11.11,0,0,0-.1.1V2.77A.11.11,0,0,0,1.51,2.87Z" fill="#735ee6"/><path d="M.89,2.76A.09.09,0,0,0,1,2.67V1.21a.09.09,0,0,0-.1-.09.09.09,0,0,0-.09.09V2.67A.09.09,0,0,0,.89,2.76Z" fill="#735ee6"/><path d="M2.12,2.76a.1.1,0,0,0,.1-.09V1.21a.1.1,0,0,0-.1-.09A.09.09,0,0,0,2,1.21V2.67A.09.09,0,0,0,2.12,2.76Z" fill="#735ee6"/></g></g></g></g></svg>