<svg xmlns="http://www.w3.org/2000/svg" viewBox="0 0 113.56 113.56"><g id="Слой_2" data-name="Слой 2"><g id="Слой_1-2" data-name="Слой 1"><g id="Слой_1-3" data-name="Слой_1"><path d="M35.31,97.47l-4.53,7.84a1.75,1.75,0,0,1-3-1.75l4.52-7.84a1.75,1.75,0,1,1,3,1.75ZM18.47,78.89a1.74,1.74,0,0,1-.64,2.39L10,85.81a1.75,1.75,0,0,1-1.75-3l7.83-4.53a1.76,1.76,0,0,1,2.39.64ZM106,85.17a1.74,1.74,0,0,1-2.39.64l-7.83-4.52a1.75,1.75,0,1,1,1.75-3l7.83,4.52a1.75,1.75,0,0,1,.64,2.39ZM85.81,103.56a1.75,1.75,0,1,1-3,1.75l-4.52-7.83a1.76,1.76,0,0,1,0-1.76,1.78,1.78,0,0,1,1.53-.88,1.73,1.73,0,0,1,1.51.89l4.53,7.83Zm-75-45h-9a1.75,1.75,0,0,1,0-3.5h9a1.75,1.75,0,0,1,0,3.5Zm102.77-1.75a1.75,1.75,0,0,1-1.75,1.75h-9a1.75,1.75,0,0,1,0-3.5h9A1.76,1.76,0,0,1,113.56,56.78Zm-55,46v9a1.75,1.75,0,0,1-3.5,0v-9a1.75,1.75,0,0,1,3.5,0ZM78.25,16.08l4.52-7.83a1.76,1.76,0,0,1,2.39-.63A1.74,1.74,0,0,1,85.81,10l-4.52,7.83a1.76,1.76,0,0,1-3,0,1.76,1.76,0,0,1,0-1.76ZM95.08,34.67a1.75,1.75,0,0,1,.65-2.39l7.83-4.53a1.75,1.75,0,0,1,1.75,3l-7.83,4.52a1.73,1.73,0,0,1-1.33.18,1.8,1.8,0,0,1-1.07-.82ZM7.6,28.39a1.76,1.76,0,0,1,2.4-.64l7.83,4.52a1.77,1.77,0,0,1,.89,1.52,1.75,1.75,0,0,1-2.63,1.51L8.25,30.78a1.75,1.75,0,0,1-.64-2.39ZM27.75,10a1.75,1.75,0,0,1,3-1.75l4.53,7.83a1.75,1.75,0,1,1-3,1.75L27.75,10ZM55,10.8v-9a1.75,1.75,0,0,1,3.5,0V10.8a1.75,1.75,0,0,1-3.5,0Zm27.1,31.35a1.75,1.75,0,1,1-3,1.75A25.87,25.87,0,0,0,56.78,31a1.75,1.75,0,0,1,0-3.5A29.38,29.38,0,0,1,82.13,42.15ZM32,68.8a1.73,1.73,0,0,1-2.28-1,29,29,0,0,1-2.17-11.06,1.75,1.75,0,0,1,3.5,0,25.59,25.59,0,0,0,1.9,9.73A1.76,1.76,0,0,1,32,68.8Zm4.3,3.56a1.75,1.75,0,1,1-2.79,2.12c-.31-.41-.6-.81-.88-1.23a1.75,1.75,0,0,1,2.89-2q.38.54.78,1.08ZM56.78,92.25A35.47,35.47,0,1,1,92.25,56.78,35.47,35.47,0,0,1,56.78,92.25Zm0-74.44a39,39,0,1,0,39,39A39,39,0,0,0,56.78,17.81Z" style="fill:#fff"/></g></g></g></svg>