<svg xmlns="http://www.w3.org/2000/svg" viewBox="0 0 96.59 85.94"><g id="Слой_2" data-name="Слой 2"><g id="Слой_1-2" data-name="Слой 1"><g id="Слой_1-3" data-name="Слой_1"><path d="M69.9,17.69a1.52,1.52,0,0,0,1.18.15,1.49,1.49,0,0,0,.93-.72L76.42,9.5A1.55,1.55,0,0,0,73.74,8l-4.4,7.63a1.54,1.54,0,0,0,.56,2.11ZM87.07,34.28a1.61,1.61,0,0,0,.77-.2l7.63-4.41A1.54,1.54,0,0,0,93.92,27L86.3,31.41a1.54,1.54,0,0,0,.77,2.88ZM1.12,29.67l7.62,4.41a1.55,1.55,0,0,0,1.55-2.68L2.66,27a1.51,1.51,0,0,0-1.55,0,1.53,1.53,0,0,0-.77,1.34A1.55,1.55,0,0,0,1.12,29.67ZM24.57,17.12a1.55,1.55,0,0,0,2.68,0,1.56,1.56,0,0,0,0-1.55L22.84,8a1.55,1.55,0,0,0-2.68,1.54l4.4,7.63ZM48.29,11.9a1.56,1.56,0,0,0,1.55-1.55V1.54a1.55,1.55,0,0,0-3.09,0v8.81A1.55,1.55,0,0,0,48.29,11.9ZM14,63.48H7.25a1.55,1.55,0,0,0,0,3.09H14a1.55,1.55,0,0,0,0-3.09Zm55.46,3.09a1.55,1.55,0,0,0,0-3.09H63.78a1.55,1.55,0,0,0,0,3.09Zm19.91-3.09H75a1.55,1.55,0,1,0,0,3.09H89.34a1.55,1.55,0,0,0,0-3.09ZM35,82.85H30.08a1.55,1.55,0,0,0,0,3.09H35a1.55,1.55,0,0,0,0-3.09Zm31.5,0H41.29a1.55,1.55,0,0,0,0,3.09H66.51a1.55,1.55,0,0,0,0-3.09Zm11.65-9.47H59.36a1.55,1.55,0,0,0,0,3.09h18.8a1.55,1.55,0,1,0,0-3.09Zm-42.62,0H26.85a1.55,1.55,0,0,0,0,3.09h8.69a1.55,1.55,0,0,0,0-3.09Zm-14,0H18.43a1.55,1.55,0,1,0,0,3.09H21.5a1.55,1.55,0,0,0,0-3.09Zm22.35-.5,4.44,4.44,4.45-4.44H51.23a1.55,1.55,0,0,1-1.55-1.54V66.57H46.9v4.77a1.54,1.54,0,0,1-1.54,1.54ZM47.2,80.6,39,72.43a1.55,1.55,0,0,1,1.1-2.64h3.69V66.57h-24a1.54,1.54,0,1,1,0-3.08H57.44a1.54,1.54,0,0,1,0,3.08H52.78v3.22h3.7a1.55,1.55,0,0,1,1.09,2.64L49.4,80.6a1.56,1.56,0,0,1-2.19,0h0ZM83,53.58a34.7,34.7,0,0,0-69.33,0Zm13.63,1.55a1.54,1.54,0,0,1-1.54,1.54H1.54a1.55,1.55,0,0,1,0-3.09h9a37.78,37.78,0,0,1,75.49,0h9A1.54,1.54,0,0,1,96.59,55.13ZM72.84,41a1.54,1.54,0,1,1-2.67,1.54A25.39,25.39,0,0,0,48.29,29.87a1.54,1.54,0,1,1,0-3.08A28.45,28.45,0,0,1,72.84,41Z" style="fill:#fff"/></g></g></g></svg>