<svg xmlns="http://www.w3.org/2000/svg" viewBox="0 0 35.31 35.31"><g id="Слой_2" data-name="Слой 2"><g id="Layer_1" data-name="Layer 1"><path d="M7.82,21.34,6.6,25.92,2.1,26A17.73,17.73,0,0,1,2,9.53H2l4,.74,1.76,4a10.57,10.57,0,0,0,.09,7.1Z" style="fill:#fbbb00"/><path d="M35,14.35a17.68,17.68,0,0,1-.08,7A17.68,17.68,0,0,1,28.7,31.42h0l-5-.26L23,26.71a10.48,10.48,0,0,0,4.53-5.37H18v-7H35Z" style="fill:#518ef8"/><path d="M28.7,31.42h0A17.65,17.65,0,0,1,2.1,26l5.72-4.68A10.49,10.49,0,0,0,23,26.71Z" style="fill:#28b446"/><path d="M28.92,4.06,23.2,8.75A10.49,10.49,0,0,0,7.73,14.24L2,9.53H2a17.67,17.67,0,0,1,27-5.47Z" style="fill:#735ee6"/></g></g></svg>