<svg xmlns="http://www.w3.org/2000/svg" viewBox="0 0 4.74 5.71"><g id="Слой_2" data-name="Слой 2"><g id="Слой_1-2" data-name="Слой 1"><g id="Слой_1-3" data-name="Слой_1"><g id="_1281728400" data-name=" 1281728400"><path d="M3,4.59,3,4.76a1.84,1.84,0,0,0,1.2-.57,1.78,1.78,0,0,0,.14-2.31,1.7,1.7,0,0,0-.91-.64l-.05.16.17,0a1.34,1.34,0,0,0,0-.2A1.19,1.19,0,0,0,3.24.36a1.23,1.23,0,0,0-2.09.87v.15a.15.15,0,0,0,0,.06s0,0,0,.06l.05,0a.14.14,0,0,0,.09,0h0l0-.17-.05-.16a1.76,1.76,0,0,0-.92.64A1.82,1.82,0,0,0,0,3,1.79,1.79,0,0,0,.49,4.19a1.86,1.86,0,0,0,1.18.59l0,0H3.07l0,0L3,4.59V4.46H1.63v.13l0-.17A1.44,1.44,0,0,1,.72,4,1.42,1.42,0,0,1,.33,3a1.51,1.51,0,0,1,.3-.88,1.53,1.53,0,0,1,.75-.52.16.16,0,0,0,.12-.2.2.2,0,0,0-.21-.13v0h0l0,.16v0l.08-.14-.08,0v.16l.11-.14-.08.14.14-.1,0,0-.09.14.13-.1-.12.09.15,0s0,0,0,0l-.11.09.14,0-.1,0,.1,0v0l-.1,0,.1,0h0V1.23a.89.89,0,1,1,1.77,0,.71.71,0,0,1,0,.14.17.17,0,0,0,.12.19,1.53,1.53,0,0,1,.75.52A1.5,1.5,0,0,1,4.41,3,1.47,1.47,0,0,1,4,4a1.61,1.61,0,0,1-1,.46l0,.17v0Z" fill="#a7a6c4"/><path d="M2.08,1.74v3.8a.17.17,0,0,0,.17.17.18.18,0,0,0,.17-.17V1.74c0-.1,0-.17-.14-.17a.18.18,0,0,0-.18.17Z" fill="#a7a6c4"/></g></g></g></g></svg>