<svg xmlns="http://www.w3.org/2000/svg" viewBox="0 0 7.69 6.38"><g id="Слой_2" data-name="Слой 2"><g id="Слой_1-2" data-name="Слой 1"><g id="Слой_1-3" data-name="Слой_1"><g id="_1281728400" data-name=" 1281728400"><path d="M7.11,3.78A2.32,2.32,0,0,1,5.53,5a3.33,3.33,0,0,1-1.1.08,4,4,0,0,0,.76-.88A2.64,2.64,0,0,0,5.44,2h0a1.19,1.19,0,0,0,0-.14A3.91,3.91,0,0,1,7,1.54h.25a.2.2,0,0,1,.19.19,3.8,3.8,0,0,1-.34,2v0Zm.17,1.45c0,.15-.2.33-.54.48a.57.57,0,0,1-.29,0l-.33-.09a.53.53,0,0,0-.57.23.48.48,0,0,1-.32.2,10.25,10.25,0,0,1-1.38.08,9,9,0,0,1-2.48-.3c-.6-.17-1-.41-1-.62s.23-.36.62-.52a2.51,2.51,0,0,0,1.08.54,3.38,3.38,0,0,0,.81.1,3.17,3.17,0,0,0,.59,0l.09.06a.44.44,0,0,0,.25.08.46.46,0,0,0,.25-.08l.08-.06a3.28,3.28,0,0,0,.6,0,3.51,3.51,0,0,0,.81-.1,2.52,2.52,0,0,0,1.07-.54c.4.16.62.34.62.52ZM.59,3.78l0,0a3.8,3.8,0,0,1-.34-2,.2.2,0,0,1,.2-.19,4.17,4.17,0,0,1,1.87.27c0,.07,0,.12,0,.14h0a2.81,2.81,0,0,0-.1,1.34,3,3,0,0,0,.32.86h0l0,0,.08.14h0a2.44,2.44,0,0,0,.32.41h0L3,4.85H3l.26.25A3.35,3.35,0,0,1,2.16,5,2.32,2.32,0,0,1,.59,3.78ZM1.81.54A.17.17,0,0,1,2,.47L2,.49A4.24,4.24,0,0,1,2.77,1a4,4,0,0,0-.38.63A3.75,3.75,0,0,0,2,1.47a3.5,3.5,0,0,0-.58-.11A5.64,5.64,0,0,1,1.81.54ZM3.7.28a.24.24,0,0,1,.3,0A3.88,3.88,0,0,1,5.22,2V2A2.43,2.43,0,0,1,5,4.11,3.63,3.63,0,0,1,4,5.18a.23.23,0,0,1-.25,0,5,5,0,0,1-.58-.5A6.46,6.46,0,0,1,2.64,4a2.45,2.45,0,0,1-.17-2V2A4,4,0,0,1,3.7.28ZM5.55.56h0L5.67.49a.16.16,0,0,1,.21.05,4.93,4.93,0,0,1,.42.82,3.6,3.6,0,0,0-1,.25A3.51,3.51,0,0,0,4.92,1S5.49.6,5.55.56ZM7.31,3.88h0a2.21,2.21,0,0,0,.23-.59,5.33,5.33,0,0,0,.15-1.55.44.44,0,0,0-.42-.42,5.82,5.82,0,0,0-.74,0A4.93,4.93,0,0,0,6.07.42a.38.38,0,0,0-.5-.13L5.42.37l0,0-.6.4A5.39,5.39,0,0,0,4.15.12a.45.45,0,0,0-.61,0A7.46,7.46,0,0,0,2.91.8,5.26,5.26,0,0,0,2.13.29a.39.39,0,0,0-.51.13,4.5,4.5,0,0,0-.45.92,6.15,6.15,0,0,0-.75,0A.44.44,0,0,0,0,1.74,4.05,4.05,0,0,0,.38,3.88h0a2.61,2.61,0,0,0,.46.65c-.43.2-.66.43-.66.69s.38.62,1.12.84a9.38,9.38,0,0,0,2.54.31,10.4,10.4,0,0,0,1.4-.09A.66.66,0,0,0,5.74,6a.3.3,0,0,1,.32-.13L6.4,6a.71.71,0,0,0,.43,0c.45-.19.68-.42.68-.68s-.23-.49-.67-.69a2.64,2.64,0,0,0,.47-.65Z" fill="#fff"/></g></g></g></g></svg>