<svg xmlns="http://www.w3.org/2000/svg" viewBox="0 0 4.36 4.61"><g id="Слой_2" data-name="Слой 2"><g id="Слой_1-2" data-name="Слой 1"><g id="Слой_1-3" data-name="Слой_1"><g id="_1281728400" data-name=" 1281728400"><path d="M1.13.79H4A.17.17,0,0,0,4.18.63.17.17,0,0,0,4,.46H1.2A.17.17,0,0,0,1,.62c0,.1,0,.17.14.17Z" fill="#a7a6c4"/><path d="M1.14.68H1A.25.25,0,0,1,.88.89.3.3,0,0,1,.66,1,.36.36,0,0,1,.43.88.36.36,0,0,1,.34.65.32.32,0,0,1,.43.43.33.33,0,0,1,.66.33.33.33,0,0,1,.88.44.31.31,0,0,1,1,.68h.34A.62.62,0,0,0,1.12.2.65.65,0,0,0,.66,0,.67.67,0,0,0,.19.19.64.64,0,0,0,0,.65a.63.63,0,0,0,.19.46.67.67,0,0,0,.47.2.63.63,0,0,0,.46-.18A.76.76,0,0,0,1.31.68Z" fill="#a7a6c4"/><path d="M1.13,4.07H4a.17.17,0,0,0,.17-.16A.17.17,0,0,0,4,3.74H1.2A.17.17,0,0,0,1,3.9c0,.1,0,.17.14.17Z" fill="#a7a6c4"/><path d="M1.14,4H1a.27.27,0,0,1-.09.22.31.31,0,0,1-.22.09.32.32,0,0,1-.23-.09A.36.36,0,0,1,.34,4a.36.36,0,0,1,.09-.23.36.36,0,0,1,.23-.09.32.32,0,0,1,.22.1A.25.25,0,0,1,1,4h.34a.6.6,0,0,0-.19-.47A.69.69,0,0,0,.66,3.3a.67.67,0,0,0-.47.19A.67.67,0,0,0,0,4a.64.64,0,0,0,.19.46.67.67,0,0,0,.47.19.64.64,0,0,0,.46-.19A.57.57,0,0,0,1.31,4Z" fill="#a7a6c4"/><path d="M3.06,2.15H.35a.18.18,0,0,0-.17.17.17.17,0,0,0,.17.17h2.8a.17.17,0,0,0,.17-.17.2.2,0,0,0-.2-.17Z" fill="#a7a6c4"/><path d="M3.21,2.26H3a.64.64,0,0,0,.2.49A.65.65,0,0,0,3.7,3a.67.67,0,0,0,.47-.19.69.69,0,0,0,.19-.46.69.69,0,0,0-.19-.46.63.63,0,0,0-.47-.19.59.59,0,0,0-.46.17.75.75,0,0,0-.2.44h.34a.58.58,0,0,1,.1-.2A.29.29,0,0,1,3.7,2a.32.32,0,0,1,.22.09A.33.33,0,0,1,4,2.3a.29.29,0,0,1-.1.22.29.29,0,0,1-.22.1.36.36,0,0,1-.22-.11.32.32,0,0,1-.1-.25Z" fill="#a7a6c4"/></g></g></g></g></svg>