<svg xmlns="http://www.w3.org/2000/svg" viewBox="0 0 7.69 6.91"><g id="Слой_2" data-name="Слой 2"><g id="Слой_1-2" data-name="Слой 1"><g id="Слой_1-3" data-name="Слой_1"><g id="_1281728400" data-name=" 1281728400"><path d="M7,6.28a1.13,1.13,0,0,1-.83.35,1.19,1.19,0,0,1-.72-.25L7.11,4.74a1.09,1.09,0,0,1,.25.72A1.15,1.15,0,0,1,7,6.28Zm-1.8,0a.11.11,0,0,1-.09,0,.13.13,0,0,1-.1,0L4.81,6a.14.14,0,0,1,0-.19L6.56,4.08a.13.13,0,0,1,.1,0,.11.11,0,0,1,.09,0L7,4.29a.13.13,0,0,1,0,.1.11.11,0,0,1,0,.09L5.22,6.23ZM.58,4.74,2.22,6.38a1.17,1.17,0,0,1-.72.25,1.14,1.14,0,0,1-.83-.35A1.16,1.16,0,0,1,.58,4.74Zm.14-.45.22-.21A.13.13,0,0,1,1,4a.11.11,0,0,1,.09,0L2.88,5.83a.14.14,0,0,1,0,.19l-.22.21a.11.11,0,0,1-.09,0,.13.13,0,0,1-.1,0L.72,4.48a.15.15,0,0,1,0-.09.18.18,0,0,1,0-.1Zm7-.44A3.85,3.85,0,1,0,.15,4.92,1.46,1.46,0,0,0,.47,6.48a1.44,1.44,0,0,0,1,.43,1.41,1.41,0,0,0,1-.37h.11a.4.4,0,0,0,.29-.12l.22-.22a.41.41,0,0,0,0-.58L1.33,3.88A.4.4,0,0,0,1,3.76a.42.42,0,0,0-.3.12L.53,4.1a.39.39,0,0,0-.13.29.36.36,0,0,0,0,.1l-.07.08a3.51,3.51,0,0,1-.07-.72A3.57,3.57,0,0,1,1.61,1.07L1.83.9a3.58,3.58,0,0,1,4,0l.22.17A3.57,3.57,0,0,1,7.41,3.85a3.51,3.51,0,0,1-.07.72l-.06-.08s0-.07,0-.1a.38.38,0,0,0-.12-.29L7,3.88a.42.42,0,0,0-.59,0L4.62,5.63a.39.39,0,0,0,0,.58l.21.22a.41.41,0,0,0,.3.12h.1a1.44,1.44,0,0,0,2-.06,1.45,1.45,0,0,0,.42-1,1.4,1.4,0,0,0-.1-.54,3.89,3.89,0,0,0,.15-1.07Z" fill="#fff"/></g></g></g></g></svg>