<svg xmlns="http://www.w3.org/2000/svg" viewBox="0 0 7.8 5.01"><g id="Слой_2" data-name="Слой 2"><g id="Слой_1-2" data-name="Слой 1"><g id="Слой_1-3" data-name="Слой_1"><g id="_1281728400" data-name=" 1281728400"><path d="M2.88,2.47a2.13,2.13,0,0,1,.18-.83,3.84,3.84,0,0,1,.6-1c.1-.12.19-.21.26-.28L4,.32l0,0H4L3.91.17,3.8.3l0,0,0,0h0l0,0,0,0A4.17,4.17,0,0,1,4.38,1a3.32,3.32,0,0,1,.38.7,2.37,2.37,0,0,1,.17.83h.34a2.79,2.79,0,0,0-.19-1A4.5,4.5,0,0,0,4.42.45,5.23,5.23,0,0,0,4,0,.18.18,0,0,0,3.8,0,4.09,4.09,0,0,0,2.74,1.51a2.69,2.69,0,0,0-.2,1,2.74,2.74,0,0,0,.2,1A4,4,0,0,0,3.4,4.49a5.23,5.23,0,0,0,.4.41A.18.18,0,0,0,4,4.9a4.86,4.86,0,0,0,.63-.7,4.3,4.3,0,0,0,.43-.77,2.68,2.68,0,0,0,.19-1H4.93a1.87,1.87,0,0,1-.17.82,3.84,3.84,0,0,1-.6,1c-.1.12-.19.21-.26.28l-.08.07,0,0h0l.12.13L4,4.64l0,.09H4l0-.06A6.06,6.06,0,0,1,3.44,4" fill="#a7a6c4"/><path d="M6.16.86h0l0-.17L6,.75H6A4.29,4.29,0,0,1,6.21,2,2.41,2.41,0,0,1,5.94,3.2a2.16,2.16,0,0,1-.55.65,3.83,3.83,0,0,1-1,.55L4,4.52l-.1,0h0A.17.17,0,0,0,4,4.89a3.94,3.94,0,0,0,.89-.31,4.18,4.18,0,0,0,.75-.47,2.45,2.45,0,0,0,.63-.75A2.69,2.69,0,0,0,6.55,2,4.55,4.55,0,0,0,6.31.63a.17.17,0,0,0-.2-.1,4.22,4.22,0,0,0-1.42.62.17.17,0,0,0,0,.24.16.16,0,0,0,.23,0h0A4.13,4.13,0,0,1,5.77,1" fill="#a7a6c4"/><path d="M7.59,2.15h0L7.66,2H7.52c-.11,0-.06.4-.2.87A3.59,3.59,0,0,1,7,3.57a2.33,2.33,0,0,1-.55.63,2.37,2.37,0,0,1-.84.38,3.59,3.59,0,0,1-.84.09c-.22,0-.4,0-.54,0l-.15,0H4c-.09,0-.18,0-.2.12a.16.16,0,0,0,.13.19A4.77,4.77,0,0,0,4.75,5a3.8,3.8,0,0,0,.92-.1,2.68,2.68,0,0,0,1-.44,2.63,2.63,0,0,0,.64-.74,4,4,0,0,0,.44-1.16A3.13,3.13,0,0,0,7.8,2a.17.17,0,0,0-.13-.18,4.77,4.77,0,0,0-.82-.07l-.49,0A.16.16,0,0,0,6.21,2a.17.17,0,0,0,.19.15h0l.45,0c.22,0,.41,0,.54,0" fill="#a7a6c4"/><path d="M1.86,3.21A2.53,2.53,0,0,1,1.6,2a3.84,3.84,0,0,1,.11-.91L1.78.85a.24.24,0,0,1,0-.07v0h0L1.66.69l0,.17h0a3.94,3.94,0,0,1,1.3.57.17.17,0,1,0,.2-.28h0A4.23,4.23,0,0,0,1.69.53a.16.16,0,0,0-.19.1A4.24,4.24,0,0,0,1.26,2a2.69,2.69,0,0,0,.31,1.32,2.45,2.45,0,0,0,.63.75,3.92,3.92,0,0,0,1.09.61,4,4,0,0,0,.54.17c.1,0,.19,0,.21-.1a.13.13,0,0,0-.14-.16h0a5.55,5.55,0,0,1-.83-.34,2.92,2.92,0,0,1-.66-.44" fill="#a7a6c4"/><path d="M1.39,4.2a2.27,2.27,0,0,1-.56-.64A3.88,3.88,0,0,1,.42,2.49c0-.15,0-.28-.06-.37A.49.49,0,0,1,.35,2l0,0H.2v.16h0A4.66,4.66,0,0,1,1,2.08l.45,0A.15.15,0,0,0,1.58,2a.16.16,0,0,0-.16-.18h0a3.53,3.53,0,0,0-.48,0,4.58,4.58,0,0,0-.81.07A.18.18,0,0,0,0,2a4.39,4.39,0,0,0,.19.92,3.31,3.31,0,0,0,.35.81,2.63,2.63,0,0,0,.64.74,2.68,2.68,0,0,0,1,.44,3.8,3.8,0,0,0,.92.1,4.77,4.77,0,0,0,.82-.07A.16.16,0,0,0,4,4.75c0-.1-.11-.12-.21-.12h0a5.51,5.51,0,0,1-.74,0" fill="#a7a6c4"/></g></g></g></g></svg>