<svg xmlns="http://www.w3.org/2000/svg" viewBox="0 0 5.52 6.73"><g id="Слой_2" data-name="Слой 2"><g id="Слой_1-2" data-name="Слой 1"><g id="Слой_1-3" data-name="Слой_1"><g id="_1281728400" data-name=" 1281728400"><path d="M2.76,4.56a.3.3,0,0,1-.23-.11.32.32,0,0,1,0-.32h0a1.72,1.72,0,0,1,.27-.53A1.61,1.61,0,0,1,3,4.13H3a.34.34,0,0,1,0,.32.3.3,0,0,1-.23.11ZM4.39,5.65a.21.21,0,0,1-.22.21H3.92v-.6a.37.37,0,0,0-.37-.37H2.86V4.74a.47.47,0,0,0,.28-.16.53.53,0,0,0,.08-.5,2.09,2.09,0,0,0-.34-.65.15.15,0,0,0-.24,0,1.86,1.86,0,0,0-.34.65.51.51,0,0,0,.08.5.45.45,0,0,0,.28.16v.15H2a.37.37,0,0,0-.37.37v.6H1.35a.21.21,0,0,1-.22-.21V3.83a1.63,1.63,0,0,1,3.26,0Zm-.67.21H1.8v-.6h0A.18.18,0,0,1,2,5.08H3.55a.18.18,0,0,1,.17.18v.6ZM2.76,2A1.83,1.83,0,0,0,.93,3.83V5.65a.41.41,0,0,0,.42.41H4.17a.41.41,0,0,0,.41-.41V3.83A1.82,1.82,0,0,0,2.76,2Z" fill="#fff"/><path d="M5.32,6a.51.51,0,0,1-.5.51H.7A.5.5,0,0,1,.2,6V2.77A1.55,1.55,0,0,1,1,1.44H4.55a1.34,1.34,0,0,1,.39.32,1.4,1.4,0,0,1,.24.36v0l0,.06a.06.06,0,0,0,0,0,1.5,1.5,0,0,1,.09.52V6ZM.63.84V.41A.21.21,0,0,1,.84.2H4.68a.21.21,0,0,1,.21.21V.84a.41.41,0,0,1-.41.41H1A.41.41,0,0,1,.63.84ZM5.42,2.21h0a.69.69,0,0,0,0-.13l0,0A1.78,1.78,0,0,0,5,1.55H5a1.37,1.37,0,0,0-.23-.19A.6.6,0,0,0,5.08.84V.41A.4.4,0,0,0,4.68,0H.84A.41.41,0,0,0,.43.41V.84a.61.61,0,0,0,.3.52A1.73,1.73,0,0,0,0,2.77V6a.7.7,0,0,0,.7.7H4.82a.7.7,0,0,0,.7-.7V2.77a1.54,1.54,0,0,0-.1-.56Z" fill="#fff"/></g></g></g></g></svg>