<svg xmlns="http://www.w3.org/2000/svg" viewBox="0 0 7.86 9.29"><g id="Слой_2" data-name="Слой 2"><g id="Слой_1-2" data-name="Слой 1"><g id="Слой_1-3" data-name="Слой_1"><g id="_1281728400" data-name=" 1281728400"><path d="M6.11,3.17H1.76A1.75,1.75,0,0,0,0,4.92V7.53A1.76,1.76,0,0,0,1.76,9.29H6.11A1.76,1.76,0,0,0,7.86,7.53V4.92A1.75,1.75,0,0,0,6.11,3.17ZM7.26,7.53A1.15,1.15,0,0,1,6.11,8.68H1.76A1.15,1.15,0,0,1,.6,7.53V4.92A1.16,1.16,0,0,1,1.76,3.77H6.11A1.16,1.16,0,0,1,7.26,4.92Z" fill="#fff"/><path d="M3.93,0A2.77,2.77,0,0,0,1.16,2.76v.71a.31.31,0,0,0,.3.3.3.3,0,0,0,.3-.3V2.76a2.17,2.17,0,0,1,4.34,0v.71a.3.3,0,0,0,.6,0V2.76A2.77,2.77,0,0,0,3.93,0Z" fill="#fff"/><path d="M4,4.87a.88.88,0,1,0,.88.88A.88.88,0,0,0,4,4.87ZM4,6a.27.27,0,0,1-.28-.28A.28.28,0,0,1,4,5.47a.29.29,0,0,1,.28.28A.28.28,0,0,1,4,6Z" fill="#fff"/><path d="M4,6.07a.3.3,0,0,0-.3.3V7.53a.3.3,0,0,0,.6,0V6.37A.3.3,0,0,0,4,6.07Z" fill="#fff"/></g></g></g></g></svg>