<svg xmlns="http://www.w3.org/2000/svg" viewBox="0 0 113 113"><g id="Слой_2" data-name="Слой 2"><g id="Layer_1" data-name="Layer 1"><path d="M71.36,73.54a1.61,1.61,0,1,0-3.21,0v3.78a1.61,1.61,0,1,0,3.21,0Z" style="fill:#735ee6"/><path d="M69.75,94.9v-.25a1.6,1.6,0,0,0-1.6,1.6v7.57a1.61,1.61,0,1,0,3.21,0V96.25a1.6,1.6,0,0,0-1.61-1.6Z" style="fill:#735ee6"/><path d="M78.93,50.82a1.6,1.6,0,0,0-1.61-1.6v0a1.6,1.6,0,0,0-1.6,1.6v3.79a1.6,1.6,0,0,0,.47,1.13,1.58,1.58,0,0,0,2.27,0,1.6,1.6,0,0,0,.47-1.13Z" style="fill:#735ee6"/><path d="M71.36,62.18A1.64,1.64,0,0,0,70.89,61a1.6,1.6,0,0,0-1.14-.47v0a1.6,1.6,0,0,0-1.13.47,1.64,1.64,0,0,0-.47,1.14V66a1.61,1.61,0,0,0,3.21,0Z" style="fill:#735ee6"/><path d="M70.89,83.76a1.61,1.61,0,0,0-2.74,1.14v3.78a1.62,1.62,0,0,0,.47,1.14,1.61,1.61,0,0,0,2.27,0,1.62,1.62,0,0,0,.47-1.14V84.89h0A1.6,1.6,0,0,0,70.89,83.76Z" style="fill:#735ee6"/><path d="M78.93,62.18A1.64,1.64,0,0,0,78.46,61a1.6,1.6,0,0,0-1.14-.47v0a1.6,1.6,0,0,0-1.13.47,1.64,1.64,0,0,0-.47,1.14V66a1.61,1.61,0,0,0,3.21,0Z" style="fill:#735ee6"/><path d="M63.79,50.82a1.6,1.6,0,0,0-.47-1.13,1.62,1.62,0,0,0-1.14-.47v0a1.64,1.64,0,0,0-1.14.47,1.6,1.6,0,0,0-.47,1.13v3.79a1.61,1.61,0,0,0,3.22,0Z" style="fill:#735ee6"/><path d="M71.36,50.82a1.6,1.6,0,0,0-1.61-1.6v0a1.6,1.6,0,0,0-1.6,1.6v3.79a1.6,1.6,0,0,0,.47,1.13,1.58,1.58,0,0,0,2.27,0,1.6,1.6,0,0,0,.47-1.13Z" style="fill:#735ee6"/><path d="M78.46,33a1.6,1.6,0,0,0,.47-1.14V28.11a1.61,1.61,0,1,0-3.21,0v3.78A1.61,1.61,0,0,0,78.46,33Z" style="fill:#735ee6"/><path d="M63.79,62.18A1.64,1.64,0,0,0,63.32,61a1.62,1.62,0,0,0-1.14-.47v0a1.6,1.6,0,0,0-1.61,1.61V66A1.6,1.6,0,0,0,61,67.1a1.64,1.64,0,0,0,1.14.47,1.62,1.62,0,0,0,1.14-.47A1.6,1.6,0,0,0,63.79,66Z" style="fill:#735ee6"/><path d="M86.5,28.11a1.61,1.61,0,1,0-3.21,0v3.78a1.61,1.61,0,1,0,3.21,0Z" style="fill:#735ee6"/><path d="M61,72.4a1.6,1.6,0,0,0-.47,1.14v3.78A1.6,1.6,0,0,0,61,78.46a1.64,1.64,0,0,0,1.14.47,1.62,1.62,0,0,0,1.14-.47,1.6,1.6,0,0,0,.47-1.14V73.54a1.6,1.6,0,0,0-.47-1.14,1.62,1.62,0,0,0-1.14-.47A1.64,1.64,0,0,0,61,72.4Z" style="fill:#735ee6"/><path d="M93.6,83.76a1.61,1.61,0,0,0-2.74,1.14v3.78a1.62,1.62,0,0,0,.47,1.14,1.61,1.61,0,0,0,2.27,0,1.62,1.62,0,0,0,.47-1.14V84.89h0A1.6,1.6,0,0,0,93.6,83.76Z" style="fill:#735ee6"/><path d="M92.47,94.9v-.25a1.6,1.6,0,0,0-1.61,1.6v7.57a1.61,1.61,0,1,0,3.21,0V96.25a1.6,1.6,0,0,0-1.6-1.6Z" style="fill:#735ee6"/><path d="M98.9,72.4a1.6,1.6,0,0,0-.47,1.14v3.78a1.6,1.6,0,0,0,.47,1.14,1.62,1.62,0,0,0,1.14.47,1.6,1.6,0,0,0,1.13-.47,1.57,1.57,0,0,0,.48-1.14V73.54a1.6,1.6,0,0,0-.47-1.14,1.64,1.64,0,0,0-1.14-.47A1.62,1.62,0,0,0,98.9,72.4Z" style="fill:#735ee6"/><path d="M69.75,33.5a1.6,1.6,0,0,0,1.61-1.61V23.68l19.5-4.87v32a1.63,1.63,0,0,0,1,1.5h0L106,57.61V77.32a1.6,1.6,0,0,0,.47,1.14,1.64,1.64,0,0,0,1.14.47,1.62,1.62,0,0,0,1.14-.47,1.6,1.6,0,0,0,.47-1.14V56.5a1.62,1.62,0,0,0-1-1.49h0l-14.1-5.29V13a1.61,1.61,0,0,0-3.21,0v2.53l-21.5,5.38a1.61,1.61,0,0,0-1.21,1.56v9.46a1.6,1.6,0,0,0,1.6,1.61Z" style="fill:#735ee6"/><path d="M101.65,62.18A1.6,1.6,0,0,0,100,60.57v0A1.62,1.62,0,0,0,98.9,61a1.64,1.64,0,0,0-.47,1.14V66a1.6,1.6,0,0,0,.47,1.13,1.62,1.62,0,0,0,1.14.47,1.6,1.6,0,0,0,1.13-.47,1.56,1.56,0,0,0,.48-1.13Z" style="fill:#735ee6"/><path d="M94.07,62.18A1.64,1.64,0,0,0,93.6,61a1.6,1.6,0,0,0-1.13-.47v0a1.6,1.6,0,0,0-1.14.47,1.64,1.64,0,0,0-.47,1.14V66a1.61,1.61,0,0,0,3.21,0Z" style="fill:#735ee6"/><path d="M78.93,84.9a1.61,1.61,0,1,0-3.21,0v3.78a1.62,1.62,0,0,0,.47,1.14,1.61,1.61,0,0,0,2.27,0,1.62,1.62,0,0,0,.47-1.14Z" style="fill:#735ee6"/><path d="M94.07,73.54a1.61,1.61,0,1,0-3.21,0v3.78a1.61,1.61,0,1,0,3.21,0Z" style="fill:#735ee6"/><path d="M77.32,94.9v-.25a1.6,1.6,0,0,0-1.6,1.6v7.57a1.61,1.61,0,1,0,3.21,0V96.25a1.6,1.6,0,0,0-1.61-1.6Z" style="fill:#735ee6"/><path d="M78.93,73.54a1.61,1.61,0,1,0-3.21,0v3.78a1.61,1.61,0,1,0,3.21,0Z" style="fill:#735ee6"/><path d="M83.29,103.82a1.61,1.61,0,1,0,3.21,0V43.25a1.61,1.61,0,0,0-1.21-1.56L55,34.12h0a1.74,1.74,0,0,0-.39,0,1.65,1.65,0,0,0-1,.34h0A1.6,1.6,0,0,0,53,35.68V77.32a1.6,1.6,0,0,0,.47,1.14,1.62,1.62,0,0,0,1.14.47,1.6,1.6,0,0,0,1.13-.47,1.57,1.57,0,0,0,.48-1.14V37.74l27.07,6.77Z" style="fill:#735ee6"/><path d="M41.07,39.47a1.6,1.6,0,0,0-1.6-1.61v0a1.6,1.6,0,0,0-1.61,1.6v3.79a1.62,1.62,0,0,0,.47,1.14,1.61,1.61,0,0,0,2.27,0,1.62,1.62,0,0,0,.47-1.14Z" style="fill:#735ee6"/><path d="M41.07,28.11a1.61,1.61,0,1,0-3.21,0v3.78a1.61,1.61,0,1,0,3.21,0Z" style="fill:#735ee6"/><path d="M25.46,83.76a1.61,1.61,0,0,0-2.74,1.14v3.78a1.62,1.62,0,0,0,.47,1.14,1.61,1.61,0,0,0,2.27,0,1.62,1.62,0,0,0,.47-1.14V84.89h0A1.6,1.6,0,0,0,25.46,83.76Z" style="fill:#735ee6"/><path d="M9.18,67.57v0a1.6,1.6,0,0,0,1.13-.47A1.56,1.56,0,0,0,10.79,66V56.22h19.5v47.6a1.61,1.61,0,1,0,3.21,0V54.61A1.62,1.62,0,0,0,33,53.47,1.6,1.6,0,0,0,31.89,53H9.18a1.6,1.6,0,0,0-1.61,1.61V66a1.6,1.6,0,0,0,1.61,1.6Z" style="fill:#735ee6"/><path d="M31.89,38.11v-.25a1.6,1.6,0,0,0-1.6,1.6v3.79a1.62,1.62,0,0,0,.47,1.14,1.61,1.61,0,0,0,2.27,0,1.62,1.62,0,0,0,.47-1.14V39.47a1.6,1.6,0,0,0-1.61-1.61Z" style="fill:#735ee6"/><path d="M41.07,16.75a1.64,1.64,0,0,0-.47-1.14,1.61,1.61,0,0,0-2.27,0,1.64,1.64,0,0,0-.47,1.14v3.79a1.61,1.61,0,0,0,3.21,0Z" style="fill:#735ee6"/><path d="M24.32,94.9v-.25a1.6,1.6,0,0,0-1.6,1.6v7.57a1.56,1.56,0,0,0,.47,1.14,1.61,1.61,0,0,0,2.74-1.14V96.25a1.6,1.6,0,0,0-1.61-1.6Z" style="fill:#735ee6"/><path d="M112.36,110.44l.17-.18a1.6,1.6,0,0,0-1.13-.47h-4.08V97.66l.22-.06a7.39,7.39,0,0,0,3.91-2.55,7.29,7.29,0,1,0-11.46,0,7.35,7.35,0,0,0,3.91,2.55l.21.06v12.13H56.22v-8.28l.22-.05a9.18,9.18,0,1,0-3.67,0l.23.05v8.28H10.79V90.15L11,90.1a9.18,9.18,0,1,0-3.67,0l.23.05v19.64h-6a1.61,1.61,0,1,0,0,3.21H111.4a1.61,1.61,0,0,0,1.13-2.74Zm-6.64-15.79a4.08,4.08,0,1,1,4.07-4.08A4.08,4.08,0,0,1,105.72,94.65ZM54.61,98.43a6,6,0,1,1,6-6A6,6,0,0,1,54.61,98.43ZM9.18,87.07a6,6,0,1,1,6-6A6,6,0,0,1,9.18,87.07Z" style="fill:#735ee6"/><path d="M16.75,94.9v-.25a1.64,1.64,0,0,0-1.14.47,1.6,1.6,0,0,0-.47,1.13v7.57a1.6,1.6,0,0,0,.47,1.14,1.64,1.64,0,0,0,1.14.47,1.62,1.62,0,0,0,1.14-.47,1.6,1.6,0,0,0,.47-1.14V96.25a1.6,1.6,0,0,0-.47-1.13,1.62,1.62,0,0,0-1.14-.47Z" style="fill:#735ee6"/><path d="M25.93,62.18A1.64,1.64,0,0,0,25.46,61a1.6,1.6,0,0,0-1.14-.47v0a1.6,1.6,0,0,0-1.13.47,1.64,1.64,0,0,0-.47,1.14V66a1.61,1.61,0,0,0,3.21,0Z" style="fill:#735ee6"/><path d="M25.93,73.54a1.61,1.61,0,1,0-3.21,0v3.78a1.61,1.61,0,1,0,3.21,0Z" style="fill:#735ee6"/><path d="M16.75,60.82v-.25a1.6,1.6,0,0,0-1.61,1.61V66a1.6,1.6,0,0,0,.47,1.13,1.64,1.64,0,0,0,1.14.47,1.62,1.62,0,0,0,1.14-.47A1.6,1.6,0,0,0,18.36,66V62.18A1.64,1.64,0,0,0,17.89,61a1.62,1.62,0,0,0-1.14-.47Z" style="fill:#735ee6"/><path d="M41.07,73.54a1.61,1.61,0,1,0-3.21,0v3.78a1.61,1.61,0,1,0,3.21,0Z" style="fill:#735ee6"/><path d="M48.64,50.82a1.6,1.6,0,0,0-1.6-1.6v0a1.6,1.6,0,0,0-1.61,1.6v3.79a1.6,1.6,0,0,0,.47,1.13,1.58,1.58,0,0,0,2.27,0,1.6,1.6,0,0,0,.47-1.13Z" style="fill:#735ee6"/><path d="M48.64,39.47A1.6,1.6,0,0,0,47,37.86v0a1.6,1.6,0,0,0-1.61,1.6v3.79a1.62,1.62,0,0,0,.47,1.14,1.61,1.61,0,0,0,2.27,0,1.62,1.62,0,0,0,.47-1.14Z" style="fill:#735ee6"/><path d="M48.64,62.18A1.64,1.64,0,0,0,48.17,61,1.6,1.6,0,0,0,47,60.57v0A1.6,1.6,0,0,0,45.9,61a1.64,1.64,0,0,0-.47,1.14V66a1.61,1.61,0,0,0,3.21,0Z" style="fill:#735ee6"/><path d="M45.9,72.4a1.6,1.6,0,0,0-.47,1.14v3.78a1.61,1.61,0,1,0,3.21,0V73.54A1.61,1.61,0,0,0,45.9,72.4Z" style="fill:#735ee6"/><path d="M48.64,28.11a1.61,1.61,0,1,0-3.21,0v3.78a1.61,1.61,0,1,0,3.21,0Z" style="fill:#735ee6"/><path d="M41.07,84.9a1.61,1.61,0,1,0-3.21,0v3.78a1.62,1.62,0,0,0,.47,1.14,1.61,1.61,0,0,0,2.27,0,1.62,1.62,0,0,0,.47-1.14Z" style="fill:#735ee6"/><path d="M24.32,48.64v0A1.6,1.6,0,0,0,25.93,47V32.89l6.68-3.34a1.61,1.61,0,0,0,.89-1.44v-16l9.75-4.87L53,12.06v16a1.6,1.6,0,0,0,.47,1.13,1.62,1.62,0,0,0,1.14.47,1.6,1.6,0,0,0,1.13-.47,1.56,1.56,0,0,0,.48-1.13v-17a1.63,1.63,0,0,0-.89-1.44L44.86,4.4V1.61A1.6,1.6,0,0,0,44.39.47,1.62,1.62,0,0,0,43.25,0a1.6,1.6,0,0,0-1.13.47,1.57,1.57,0,0,0-.48,1.14V4.4L31.18,9.63a1.61,1.61,0,0,0-.89,1.44v16L23.6,30.45a1.62,1.62,0,0,0-.88,1.44V47a1.6,1.6,0,0,0,1.6,1.6Z" style="fill:#735ee6"/><path d="M41.07,62.18A1.64,1.64,0,0,0,40.6,61a1.6,1.6,0,0,0-1.13-.47v0a1.6,1.6,0,0,0-1.14.47,1.64,1.64,0,0,0-.47,1.14V66a1.61,1.61,0,0,0,3.21,0Z" style="fill:#735ee6"/><path d="M39.47,94.9v-.25a1.6,1.6,0,0,0-1.61,1.6v7.57a1.61,1.61,0,1,0,3.21,0V96.25a1.6,1.6,0,0,0-1.6-1.6Z" style="fill:#735ee6"/><path d="M48.64,16.75a1.64,1.64,0,0,0-.47-1.14,1.61,1.61,0,0,0-2.27,0,1.64,1.64,0,0,0-.47,1.14v3.79a1.61,1.61,0,0,0,3.21,0Z" style="fill:#735ee6"/><text/></g></g></svg>