<svg xmlns="http://www.w3.org/2000/svg" viewBox="0 0 96.59 85.94"><g id="Слой_2" data-name="Слой 2"><g id="Слой_1-2" data-name="Слой 1"><g id="Слой_1-3" data-name="Слой_1"><path d="M69.91,17.68a1.5,1.5,0,0,0,1.17.16,1.58,1.58,0,0,0,.94-.72l4.4-7.63A1.54,1.54,0,0,0,73.75,8l-4.41,7.62a1.55,1.55,0,0,0,.56,2.11Zm17.17,16.6a1.45,1.45,0,0,0,.76-.21l7.63-4.4A1.54,1.54,0,0,0,93.93,27L86.3,31.39a1.56,1.56,0,0,0-.72,1.74,1.54,1.54,0,0,0,1.5,1.15Zm-86-4.61,7.63,4.4a1.54,1.54,0,0,0,2.1-.57,1.56,1.56,0,0,0-.56-2.11L2.67,27a1.51,1.51,0,0,0-1.55,0,1.54,1.54,0,0,0,0,2.68ZM24.58,17.12a1.54,1.54,0,0,0,2.67,0,1.56,1.56,0,0,0,0-1.55L22.85,8a1.55,1.55,0,0,0-2.68,1.54l4.4,7.63ZM48.3,11.9a1.55,1.55,0,0,0,1.54-1.55V1.54a1.54,1.54,0,1,0-3.08,0v8.81A1.55,1.55,0,0,0,48.3,11.9ZM14,63.48H7.26a1.55,1.55,0,1,0,0,3.09H14a1.55,1.55,0,0,0,0-3.09Zm5.84,3.09H35.54a1.55,1.55,0,1,0,0-3.09H19.81a1.55,1.55,0,0,0,0,3.09Zm49.62,0a1.55,1.55,0,1,0,0-3.09H61.72a1.55,1.55,0,1,0,0,3.09Zm19.91-3.09H75a1.55,1.55,0,1,0,0,3.09H89.35a1.55,1.55,0,0,0,0-3.09h0ZM35,82.85H30.09a1.55,1.55,0,0,0,0,3.09H35a1.55,1.55,0,0,0,0-3.09Zm31.5,0H41.3a1.55,1.55,0,0,0,0,3.09H66.52a1.55,1.55,0,0,0,0-3.09ZM49.69,73.38V68.62a1.55,1.55,0,0,1,1.54-1.55h1.51L48.3,62.63l-4.45,4.44h1.51a1.55,1.55,0,0,1,1.54,1.55v4.76h2.79Zm21.6,1.54a1.54,1.54,0,0,1-1.54,1.55H18.43a1.55,1.55,0,0,1,0-3.09H43.82V70.16H40.13A1.55,1.55,0,0,1,39,67.52l8.17-8.17a1.6,1.6,0,0,1,2.19,0l8.17,8.17a1.55,1.55,0,0,1-1.09,2.64h-3.7v3.22h17a1.53,1.53,0,0,1,1.54,1.54Zm6.88-1.54H75.09a1.55,1.55,0,0,0,0,3.09h3.08a1.55,1.55,0,0,0,0-3.09ZM83,53.58a34.7,34.7,0,0,0-69.34,0Zm13.62,1.54a1.54,1.54,0,0,1-1.54,1.54H1.54a1.54,1.54,0,0,1,0-3.08h9a37.78,37.78,0,0,1,75.49,0h9a1.54,1.54,0,0,1,1.54,1.54ZM72.84,41a1.54,1.54,0,1,1-2.67,1.54A25.38,25.38,0,0,0,48.29,29.87a1.55,1.55,0,0,1,0-3.09A28.46,28.46,0,0,1,72.84,41Z" style="fill:#fff"/></g></g></g></svg>