<svg xmlns="http://www.w3.org/2000/svg" viewBox="0 0 109.98 102.29"><g id="Слой_2" data-name="Слой 2"><g id="Layer_1" data-name="Layer 1"><path d="M72.93,42.54h0a1.83,1.83,0,0,0,1.82-1.82,1.81,1.81,0,0,0-.54-1.28h0l0,0h0a1.81,1.81,0,0,0-2.5,0h0l0,0h0a1.82,1.82,0,0,0,1.29,3.1Z" style="fill:#735ee6"/><path d="M14.13,11.72h0l0,0h0a1.84,1.84,0,0,0,1.28.53h.06a1.82,1.82,0,0,0,1.23-.52l0,0h0a1.84,1.84,0,0,0,.51-1.26,1.82,1.82,0,0,0-3.63,0,1.79,1.79,0,0,0,.51,1.26Z" style="fill:#735ee6"/><path d="M108.18,32.06a6.15,6.15,0,0,0-4.34-1.8H65.45V6.14A6.15,6.15,0,0,0,59.31,0H6.14A6.15,6.15,0,0,0,0,6.14V32.36H0C0,48.4,10.06,63,24.9,69.6l-.14.32,0,.1v.16l.07.18.12.12.17.08h.17l.18-.07.12-.12,0,0,0,0,.11-.25,0-.07,2.84,1.22a10.55,10.55,0,0,0,8.25,0l3.27-1.4a43.06,43.06,0,0,0,4.25-2.11l.44-.26.07.51c1.9,13.93,11.4,26.3,25,32.12l3.27,1.4a10.52,10.52,0,0,0,8.24,0l3.28-1.4C99.75,93.58,110,78.8,110,62.63h0V36.4A6.13,6.13,0,0,0,108.18,32.06ZM35.42,67.85h0a7,7,0,0,1-5.39,0l-3.27-1.41C12.93,60.52,3.64,46.84,3.63,32.36V6.14A2.51,2.51,0,0,1,6.14,3.63H59.31a2.51,2.51,0,0,1,2.51,2.51V32.36a36.14,36.14,0,0,1-6.45,20.45A38.91,38.91,0,0,1,38.69,66.45Zm70.93-5.23c0,14.48-9.3,28.16-23.13,34.09l-3.28,1.41a6.85,6.85,0,0,1-5.38,0l-3.27-1.41c-13.07-5.6-22-17.8-23-31.33v-.2l.15-.11a42.57,42.57,0,0,0,8-7.63l.22-.27.27.22a10.46,10.46,0,0,0,13.63-.17,1.84,1.84,0,0,0,.16-2.57A1.8,1.8,0,0,0,69.35,54h0a1.8,1.8,0,0,0-1.19.45h0a6.82,6.82,0,0,1-9,0h0l-.34-.27L59,54A39.8,39.8,0,0,0,65.4,34.22l0-.33h38.42a2.52,2.52,0,0,1,2.51,2.51Z" style="fill:#735ee6"/><path d="M45.7,38.91H19.76a1.81,1.81,0,0,0-1.82,1.81,14.79,14.79,0,0,0,29.57,0A1.81,1.81,0,0,0,45.7,38.91Zm-2.05,4h0A11.15,11.15,0,0,1,21.8,43l-.09-.41h22Z" style="fill:#735ee6"/><path d="M24.27,27h0a1.81,1.81,0,0,0,1.2.46h0a1.79,1.79,0,0,0,1.34-.59h0l0,0h0a1.81,1.81,0,0,0,.45-1.2,1.83,1.83,0,0,0-.61-1.36,10.45,10.45,0,0,0-13.84,0,1.81,1.81,0,0,0-.62,1.36,1.77,1.77,0,0,0,.46,1.2,1.79,1.79,0,0,0,1.36.62,1.85,1.85,0,0,0,1.2-.45,6.83,6.83,0,0,1,9,0Z" style="fill:#735ee6"/><path d="M39.14,23.94l-.08-.1-.16-.18a.48.48,0,0,0-.35-.16h0a.46.46,0,0,0-.3.12h0a.42.42,0,0,0-.11.16.43.43,0,0,0,0,.19.41.41,0,0,0,0,.16.05.05,0,0,0,0,0l.06.11h0l.28.31a1.81,1.81,0,0,0-.31,1h0A1.82,1.82,0,0,0,40,27.41h0a1.81,1.81,0,0,0,1.2-.46,6.85,6.85,0,0,1,9,0,1.81,1.81,0,0,0,1.2.46h0a1.81,1.81,0,0,0,1.37-.62h0a1.82,1.82,0,0,0-.16-2.56,10.42,10.42,0,0,0-13.48-.29Z" style="fill:#735ee6"/><path d="M24.08,12.28H50a1.82,1.82,0,0,0,0-3.63H24.08a1.82,1.82,0,1,0,0,3.63Z" style="fill:#735ee6"/><path d="M77.25,69.17A14.78,14.78,0,0,0,62.47,84a1.81,1.81,0,0,0,1.81,1.82H90.22A1.82,1.82,0,0,0,92,84,14.8,14.8,0,0,0,77.25,69.17ZM66.32,81.72a11.16,11.16,0,0,1,21.86,0l.09.42h-22Z" style="fill:#735ee6"/><path d="M97.34,54.7h0l0,0h0A1.8,1.8,0,0,0,95.94,54h0a1.85,1.85,0,0,0-.8.19l-.28-.31,0,0-.06,0h0a.45.45,0,0,0-.27-.1.48.48,0,0,0-.31.12h0l0,.07h0a.37.37,0,0,0-.07.14h0a.53.53,0,0,0,0,.12.47.47,0,0,0,.12.31h0l.21.25a6.82,6.82,0,0,1-8.67-.3,1.82,1.82,0,0,0-2.56.16h0a1.81,1.81,0,0,0,.17,2.54,10.45,10.45,0,0,0,13.84,0,1.79,1.79,0,0,0,.2-2.51Z" style="fill:#735ee6"/><path d="M81.57,42.54h13a1.82,1.82,0,1,0,0-3.63h-13a1.82,1.82,0,1,0,0,3.63Z" style="fill:#735ee6"/></g></g></svg>