<svg xmlns="http://www.w3.org/2000/svg" viewBox="0 0 319.1 319.1"><g id="Слой_2" data-name="Слой 2"><g id="Layer_1" data-name="Layer 1"><path d="M207.6,159.5a48,48,0,1,1-48-48,48,48,0,0,1,48,48M159.6,0C71.6,0,0,71.6,0,159.6S71.6,319.1,159.6,319.1a158.58,158.58,0,0,0,89.9-27.8l.5-.3-21.5-25-.4.2a126.85,126.85,0,0,1-68.5,20.1c-69.9,0-126.8-56.9-126.8-126.8S89.7,32.7,159.6,32.7,286.4,89.6,286.4,159.5a126.84,126.84,0,0,1-3,27.3c-4,16.5-15.5,21.5-24.2,20.8s-18.9-6.9-19-22.1v-26a80.75,80.75,0,1,0-23.5,56.9,51.93,51.93,0,0,0,39.9,23.8c1.4.1,2.9.2,4.3.2a54.25,54.25,0,0,0,32.4-10.9c9.6-7.3,16.7-17.8,20.6-30.4.6-2,1.8-6.7,1.8-6.7v-.2a142.21,142.21,0,0,0,3.4-32.7C319.2,71.6,247.6,0,159.6,0" style="fill:#fc2c38"/></g></g></svg>