<svg xmlns="http://www.w3.org/2000/svg" viewBox="0 0 74.09 69.44"><g id="Слой_2" data-name="Слой 2"><g id="Слой_1-2" data-name="Слой 1"><g id="Слой_1-3" data-name="Слой_1"><path d="M13.64,41l-2.48-.21c0,.33-.62,8,3.72,12.74a11.29,11.29,0,0,0,8.68,3.49V54.57a8.91,8.91,0,0,1-6.85-2.68C13.12,48,13.62,41.1,13.63,41Z" style="fill:#fff"/><polygon points="47.12 35.97 63.25 35.97 63.25 38.45 47.12 38.45 47.12 35.97" style="fill:#fff"/><polygon points="42.16 35.97 44.64 35.97 44.64 38.45 42.16 38.45 42.16 35.97" style="fill:#fff"/><path d="M2.48,6.25A16.13,16.13,0,0,1,17.36,22.32V27.5A25.9,25.9,0,0,1,8.6,15.68l-2.32.87A27.57,27.57,0,0,0,17.36,30.48V31A16.14,16.14,0,0,1,2.48,14.88V6.24ZM19.84,18.6A16.16,16.16,0,0,1,36,2.47H37.2V14.88A16.14,16.14,0,0,1,21.08,31H19.84v-.6c2.33-1.7,11.25-8.81,12.4-19.11L29.78,11c-.85,7.67-6.8,13.59-9.93,16.21V18.59ZM65.73,33.48V47.12a12.41,12.41,0,0,1-12.4,12.4H21.08a12.4,12.4,0,0,1-12.4-12.4V33.48ZM44.65,25.32,50.33,31H39l5.68-5.68Zm6.2-6.21L57.78,26l-4.45,4.45L46.4,23.56Zm3.72-3.72,6.93,6.93-2,2L52.6,17.36Zm7.07-8.32a5.57,5.57,0,0,1,7.88-.29,4,4,0,0,1,.29.29,5.52,5.52,0,0,1,.36,7.81l-.36.36c-.73.73-4.37,3.7-6.48,5.41l-7.1-7.1c1.71-2.11,4.68-5.75,5.41-6.48ZM52.09,67H32.25V64.48H29.76V67H27.28V64.48H24.8V67H22.32V62H52.09v5ZM9.36,31H6.2V47.12A14.87,14.87,0,0,0,19.84,61.93v7.51H54.56V61.93A14.87,14.87,0,0,0,68.2,47.12V31H56.31l7.76-7.76c.83-.67,6.42-5.17,7.49-6.25a8,8,0,0,0,.38-11.28c-.12-.14-.25-.26-.38-.39a8,8,0,0,0-11.27-.4c-.14.13-.28.26-.41.4-1.08,1.07-5.6,6.69-6.25,7.5L35.44,31H30.32a18.61,18.61,0,0,0,9.36-16.12V1.24A1.25,1.25,0,0,0,38.44,0H36a18.62,18.62,0,0,0-18,14.15A18.59,18.59,0,0,0,1.24,3.72,1.24,1.24,0,0,0,0,5v9.92A18.61,18.61,0,0,0,9.36,31Z" style="fill:#fff"/><polygon points="64.85 10.29 67.33 7.81 69.09 9.56 66.61 12.04 64.85 10.29" style="fill:#fff"/><polygon points="61.13 14.01 63.61 11.53 65.36 13.28 62.88 15.76 61.13 14.01" style="fill:#fff"/></g></g></g></svg>