<svg xmlns="http://www.w3.org/2000/svg" viewBox="0 0 4.89 4.66"><g id="Слой_2" data-name="Слой 2"><g id="Слой_1-2" data-name="Слой 1"><g id="Слой_1-3" data-name="Слой_1"><g id="_1281728400" data-name=" 1281728400"><path d="M1.9,3.06H2V1.87H1.9l-.32.23v.15L1.89,2h0v1Zm.86,0a.39.39,0,0,0,.42-.4.38.38,0,0,0-.39-.4.34.34,0,0,0-.28.12h0l0-.4h.56V1.87H2.43l-.06.68H2.5a.28.28,0,0,1,.26-.14.27.27,0,0,1,0,.54.26.26,0,0,1-.27-.21H2.35a.38.38,0,0,0,.41.34Z" fill="#fff"/><path d="M.14,1.55A2.33,2.33,0,0,1,2.33,0a2.36,2.36,0,0,1,.78.13A2.33,2.33,0,0,1,4.43,1.31l.06.13L4.64,1A.13.13,0,0,1,4.76.93h0a.14.14,0,0,1,.09.12s0,0,0,0l-.27.75a.14.14,0,0,1-.06.07h-.1l-.7-.24a.13.13,0,0,1-.09-.11s0,0,0-.05a.13.13,0,0,1,.12-.08h0l.45.15,0-.12A2.1,2.1,0,0,0,3,.37a2.15,2.15,0,0,0-.7-.12,2.08,2.08,0,0,0-2,1.39,2,2,0,0,0-.12.69,2.07,2.07,0,0,0,1.39,2,2,2,0,0,0,.69.12,2.09,2.09,0,0,0,1.53-.66.11.11,0,0,1,.09,0,.11.11,0,0,1,.08,0,.12.12,0,0,1,0,.09.16.16,0,0,1,0,.09,2.34,2.34,0,0,1-1.71.74,2.36,2.36,0,0,1-.78-.13A2.32,2.32,0,0,1,.23,3.33a2.29,2.29,0,0,1-.23-1,2.14,2.14,0,0,1,.14-.78Z" fill="#fff"/></g></g></g></g></svg>