<svg xmlns="http://www.w3.org/2000/svg" viewBox="0 0 83.83 64.59"><g id="Слой_2" data-name="Слой 2"><g id="Слой_1-2" data-name="Слой 1"><g id="Слой_1-3" data-name="Слой_1"><path d="M79.71,38.48H68.14a2.66,2.66,0,0,1-2.63-2.33l-1.25-10L50.21,38.4l10.5,10.5a3.86,3.86,0,0,1-1.07,6.21l-14.8,6.53A1.45,1.45,0,0,1,43,61a1.49,1.49,0,0,1-.07-1.17A1.46,1.46,0,0,1,43.7,59l11.68-4.86a2.23,2.23,0,0,0,.34-3.92l-13.6-8.75a7.94,7.94,0,0,1-.61-12.93L58.4,15.24l-2.87-2.87H37.1a1.38,1.38,0,1,1,0-2.75H56a3.16,3.16,0,0,1,2.05.75l8,6.83L68.9,35.73H79.7a1.38,1.38,0,0,1,0,2.75ZM74.21,2.74a6.87,6.87,0,1,1-6.87,6.87A6.88,6.88,0,0,1,74.21,2.74ZM79.71,33H71.27L68.91,17.64a9.61,9.61,0,1,0-4.32-8,9.77,9.77,0,0,0,.55,3.17l-5.26-4.5a5.9,5.9,0,0,0-3.83-1.41H37.11a4.12,4.12,0,1,0,0,8.24h17L39.82,26.35a10.69,10.69,0,0,0,.82,17.4L53.39,52,42.64,56.43a4.22,4.22,0,0,0-2.33,2.43,4.2,4.2,0,0,0,3.95,5.65A4,4,0,0,0,46,64.15l14.82-6.54A6.6,6.6,0,0,0,62.64,47l-8.42-8.42,7.94-6.95.61,4.9a5.42,5.42,0,0,0,5.36,4.74H79.69a4.12,4.12,0,1,0,0-8.24Z" style="fill:#fff"/><path d="M20.22,61.15a2,2,0,0,1-3.08-2.63L35.41,36.6,33.3,34.84,15,56.76a4.77,4.77,0,0,0,3.67,7.83A4.74,4.74,0,0,0,22.29,63L38.13,44.88l-2.06-1.81L20.22,61.15Z" style="fill:#fff"/><polygon points="11 17.86 41.22 17.86 41.22 20.62 11 20.62 11 17.86" style="fill:#fff"/><polygon points="2.75 17.86 8.24 17.86 8.24 20.62 2.75 20.62 2.75 17.86" style="fill:#fff"/><polygon points="13.74 23.36 34.35 23.36 34.35 26.11 13.74 26.11 13.74 23.36" style="fill:#fff"/><polygon points="5.5 23.36 11 23.36 11 26.11 5.5 26.11 5.5 23.36" style="fill:#fff"/><polygon points="15.12 28.86 32.98 28.86 32.98 31.61 15.12 31.61 15.12 28.86" style="fill:#fff"/><polygon points="8.24 28.86 12.37 28.86 12.37 31.61 8.24 31.61 8.24 28.86" style="fill:#fff"/><polygon points="8.24 12.37 31.61 12.37 31.61 15.12 8.24 15.12 8.24 12.37" style="fill:#fff"/><polygon points="0 12.37 5.5 12.37 5.5 15.12 0 15.12 0 12.37" style="fill:#fff"/></g></g></g></svg>