<svg xmlns="http://www.w3.org/2000/svg" viewBox="0 0 69.49 62.71"><g id="Слой_2" data-name="Слой 2"><g id="Слой_1-2" data-name="Слой 1"><g id="Слой_1-3" data-name="Слой_1"><path d="M6.79,35.57a1.36,1.36,0,1,0,1.35,1.36A1.36,1.36,0,0,0,6.79,35.57Z" style="fill:#fff"/><path d="M65.2,47.5l0,0S39.78,58.69,39.78,58.7a14.63,14.63,0,0,1-13.55-.78l-7.1-4.26A15.1,15.1,0,0,0,13.58,52V35.57H23a6.77,6.77,0,0,1,3.32.87l7.18,4a4,4,0,0,0,2,.52h8.79a2.72,2.72,0,1,1,0,5.43H30.46a1.36,1.36,0,1,0,0,2.71H44.25a5.5,5.5,0,0,0,2.55-.63l16.51-5.68a2.59,2.59,0,0,1,3.13,1A2.56,2.56,0,0,1,65.2,47.5ZM10.86,53.22A1.36,1.36,0,0,1,9.5,54.57H2.71V32.86H9.5a1.36,1.36,0,0,1,1.36,1.35ZM62.39,40.28l-12.8,4.39a5,5,0,0,0,.09-1,5.44,5.44,0,0,0-5.43-5.43H35.46a1.39,1.39,0,0,1-.67-.17l-7.17-4A9.48,9.48,0,0,0,23,32.85H13.34A4.08,4.08,0,0,0,9.5,30.14H1.36A1.35,1.35,0,0,0,0,31.49V55.93a1.35,1.35,0,0,0,1.36,1.35H9.5a4.07,4.07,0,0,0,3.8-2.61A12.31,12.31,0,0,1,17.73,56l7.1,4.25a17.29,17.29,0,0,0,16.06.92L66.22,50a5.23,5.23,0,0,0-3.84-9.74Z" style="fill:#fff"/><path d="M39.53,32.92a1.38,1.38,0,0,0,.89.33,1.36,1.36,0,0,0,.89-.33c11.08-9.6,17.93-14.46,17.93-22C59.24,5,55,0,49.07,0c-3.9,0-6.89,2.25-8.81,5.62C38.34,2.26,35.36,0,31.45,0a10,10,0,0,0-9.68,7.51,1.35,1.35,0,1,0,2.6.76,7.38,7.38,0,0,1,7.08-5.56c3.88,0,6.6,3.44,7.51,6.64a1.35,1.35,0,0,0,2.61,0c0-.06,1.91-6.64,7.5-6.64,4.25,0,7.46,3.53,7.46,8.21,0,6-5.91,10.39-16.11,19.18-6.21-5.33-11.15-9.09-14-12.76A1.36,1.36,0,1,0,24.31,19c3.16,4.15,8.5,8.11,15.22,13.94Z" style="fill:#fff"/><path d="M22.94,12a1.36,1.36,0,1,0,1.36,1.35A1.35,1.35,0,0,0,22.94,12Z" style="fill:#fff"/></g></g></g></svg>