<svg xmlns="http://www.w3.org/2000/svg" viewBox="0 0 73.97 62.82"><g id="Слой_2" data-name="Слой 2"><g id="Слой_1-2" data-name="Слой 1"><g id="Слой_1-3" data-name="Слой_1"><path d="M14.66,36.81a2.58,2.58,0,0,1,2.57-2.57H28.66a2.56,2.56,0,0,1,2.56,2.57v2.48H14.66Zm53.87,2.52V27.13a4.78,4.78,0,0,0-4.77-4.77H21.33a1.09,1.09,0,0,0,0,2.17H63.76a2.61,2.61,0,0,1,2.6,2.6V39.29H61.48V36.8a4.74,4.74,0,0,0-4.74-4.73H45.31a4.73,4.73,0,0,0-4.73,4.73v2.49H33.4V36.8a4.74,4.74,0,0,0-4.74-4.73H17.23a4.74,4.74,0,0,0-4.74,4.73v2.49H7.61V27.13a2.6,2.6,0,0,1,2.6-2.6H17a1.09,1.09,0,0,0,0-2.17H10.21a4.78,4.78,0,0,0-4.77,4.77v12.2A6.13,6.13,0,0,0,0,45.41V61.74a1.08,1.08,0,0,0,1.08,1.08H17a1.09,1.09,0,0,0,0-2.17H2.18V49.33h55.5a1.09,1.09,0,0,0,0-2.17H2.18V45.41a3.94,3.94,0,0,1,3.93-3.94H67.85a4,4,0,0,1,3.94,3.94v1.75H62a1.09,1.09,0,0,0,0,2.17h9.77V60.65H21.33a1.09,1.09,0,0,0,0,2.17H72.88A1.08,1.08,0,0,0,74,61.74V45.41A6.14,6.14,0,0,0,68.53,39.33Z" style="fill:#fff"/><path d="M28.3,18.86h5.82a1.09,1.09,0,1,0,0-2.17H30.77l4.15-4.52a1.09,1.09,0,0,0-.8-1.82H28.85a1.09,1.09,0,1,0,0,2.17h2.8L27.5,17A1.1,1.1,0,0,0,28.3,18.86Z" style="fill:#fff"/><path d="M40.92,12.4H50.3a1.09,1.09,0,1,0,0-2.17H43.39L51.1,1.82A1.09,1.09,0,0,0,50.3,0H41.47a1.1,1.1,0,0,0-1.08,1.08,1.1,1.1,0,0,0,1.08,1.09h6.36l-7.71,8.41a1.1,1.1,0,0,0,.8,1.82Z" style="fill:#fff"/></g></g></g></svg>