<svg xmlns="http://www.w3.org/2000/svg" viewBox="0 0 71.25 72.44"><g id="Слой_2" data-name="Слой 2"><g id="Слой_1-2" data-name="Слой 1"><g id="Слой_1-3" data-name="Слой_1"><path d="M45.76,4.45A7.1,7.1,0,0,0,39.16,0h0a7.3,7.3,0,0,0-2.22.35,7.21,7.21,0,0,0-2,1.06,7,7,0,0,0-2-1.06A7.26,7.26,0,0,0,30.64,0h0A7,7,0,0,0,28,.52,7.07,7.07,0,0,0,25.6,2.09a8.67,8.67,0,0,0-.64.72,1.15,1.15,0,0,0-.22.82,1.07,1.07,0,0,0,.43.73,1.08,1.08,0,0,0,1.54-.21c.13-.17.29-.34.44-.5a4.94,4.94,0,0,1,7,0,1.1,1.1,0,0,0,1.55,0,4.93,4.93,0,1,1,7,7L34.9,18.35l-7.74-7.74a4.94,4.94,0,0,1-1.43-3.08,1.12,1.12,0,0,0-.35-.72,1.08,1.08,0,0,0-.84-.28,1.1,1.1,0,0,0-1,1.18h0a7.14,7.14,0,0,0,2.07,4.46l8.52,8.52a1.12,1.12,0,0,0,.78.32,1.08,1.08,0,0,0,.78-.32l7.17-7.17v0h0l1.34-1.33a6.89,6.89,0,0,0,1.56-2.36,7.07,7.07,0,0,0,0-5.37Z" style="fill:#fff"/><path d="M32.32,59.58V70.24H27.18V66.93a1.1,1.1,0,1,0-2.2,0v3.31H9.55V66.93a1.1,1.1,0,1,0-2.2,0v3.31H2.21V59.58a3.3,3.3,0,0,1,3.3-3.3h4L12.91,59l0,0,.09.07.06,0,.1,0,.07,0,.11,0h.36l.09,0h0l.07,0,0,0h0l3.21-1.28,2.48,1.23h0l0,0,.05,0,.06,0,.08,0H20l.12,0h.29l.07,0h.08l.07,0,.08,0,.06,0,.08,0,0,0L25,56.29H29a3.31,3.31,0,0,1,3.3,3.31h0ZM16.16,54.76V55.9l-2.38,1L11,54.65V53.18a12.66,12.66,0,0,0,5.14,1.58Zm7.35-1.58v1.41l-3.39,2.25L18.36,56v-1.2A12.76,12.76,0,0,0,23.51,53.18ZM6.61,42V37.9L9,34.68a16.72,16.72,0,0,0,7.17,1.82c3.27,0,8.12-1.32,10.13-1.92l1.59,3.19V42a10.65,10.65,0,0,1-21.3,0ZM8.76,26.08c2.93-3.33,8.34-3.61,13.17-3.61H23.5v4.78a1.08,1.08,0,0,0,1.16,1.09,3.43,3.43,0,0,1,2.58,1.22,6.46,6.46,0,0,1,1.11,4.15l-.48-1a1.1,1.1,0,0,0-1.32-.55c-.06,0-6.59,2.09-10.36,2.09a15.17,15.17,0,0,1-6.91-2,1.1,1.1,0,0,0-1.46.27L6.37,34.53c-.09-3.72.71-6.56,2.38-8.46ZM29,54.07h-3.3V51.64A12.83,12.83,0,0,0,30.11,42V37.73c.87-4.33.47-7.54-1.17-9.54a5.42,5.42,0,0,0-3.24-1.92V21.39a1.11,1.11,0,0,0-1.1-1.11H21.93c-5.31,0-11.28.34-14.83,4.35-2.55,2.89-3.43,7.16-2.7,13.05V42a12.84,12.84,0,0,0,4.41,9.68v2.43H5.51A5.51,5.51,0,0,0,0,59.58V71.34a1.1,1.1,0,0,0,1.1,1.1H33.43a1.1,1.1,0,0,0,1.1-1.1V59.58h0A5.51,5.51,0,0,0,29,54.07Z" style="fill:#fff"/><path d="M69.05,56.65a5.42,5.42,0,0,0-3.3-1.11H59.5v-2A12.87,12.87,0,0,0,66.85,42V36.07a1.1,1.1,0,0,0-1.1-1.1H63.91V33.13a1.1,1.1,0,1,0-2.2,0V35h-2.2V33.13a1.1,1.1,0,1,0-2.2,0V35H55.1V33.13a1.1,1.1,0,1,0-2.2,0V35H50.7V33.13a1.1,1.1,0,0,0-2.2,0V35H46.29V33.13a1.1,1.1,0,1,0-2.2,0V35H42.25a1.1,1.1,0,0,0-1.1,1.1V42A12.87,12.87,0,0,0,48.5,53.56v2H42.25A5.44,5.44,0,0,0,39,56.65v-22a15.07,15.07,0,0,1,30.13,0h0v22ZM43.34,42V37.17h21.3V42a10.65,10.65,0,1,1-21.3,0Zm6.24,15.8a1.1,1.1,0,0,0,1.1-1.1V54.38a13,13,0,0,0,3.31.43,12.81,12.81,0,0,0,3.3-.43v2.27a.11.11,0,0,0,0,.05.07.07,0,0,0,0,0v0a.15.15,0,0,1,0,.06.11.11,0,0,1,0,0s0,0,0,.06,0,0,0,.06,0,0,0,0a.2.2,0,0,0,0,.08v0a1.14,1.14,0,0,0,.74.56h2a6.24,6.24,0,0,1-12.29,0h1.73Zm19.47,3.3v9.19H63.91V66.93a1.11,1.11,0,0,0-2.21,0v3.31H46.28V66.93a1.11,1.11,0,0,0-2.21,0v3.31H38.93V61.05a3.31,3.31,0,0,1,3.31-3.3h3.38a8.44,8.44,0,0,0,16.74,0h3.38a3.3,3.3,0,0,1,3.31,3.3h0Zm2.2-26.46a17.27,17.27,0,0,0-34.53,0V71.33a1.1,1.1,0,0,0,1.1,1.1H70.15a1.1,1.1,0,0,0,1.1-1.1V61.05h0V34.59h0Z" style="fill:#fff"/></g></g></g></svg>