<svg xmlns="http://www.w3.org/2000/svg" viewBox="0 0 74.07 74.05"><g id="Слой_2" data-name="Слой 2"><g id="Слой_1-2" data-name="Слой 1"><g id="Слой_1-3" data-name="Слой_1"><path d="M49.62,62.92a1.44,1.44,0,1,0,0,2A1.43,1.43,0,0,0,49.62,62.92Z" style="fill:#fff"/><path d="M70.32,50.36a2.88,2.88,0,0,1-3.49.46c-.32-.2-5-3.2-8-4.86a20.8,20.8,0,0,1-5.2-4.09c-1.09-1.2-2.45-2.67-3.54-3.86V26.59a3.06,3.06,0,0,1,.79.85l7.22,12a1.39,1.39,0,0,0,.6.55c2.24,1.11,10,5.41,11.47,6.15A2.9,2.9,0,0,1,70.32,50.36ZM61.4,63.2a4.21,4.21,0,0,1-2,8H35.59V65.38h7.23a1.45,1.45,0,0,0,0-2.89H26.91a5.78,5.78,0,0,0-5,8.68H14.65A4.21,4.21,0,0,1,10.87,69a4.15,4.15,0,0,1-.34-3.27,4.2,4.2,0,0,1,2.14-2.51L25.81,56.7H48.28l13.13,6.49Zm-28.71,8H26.91a2.9,2.9,0,1,1,0-5.79h5.78ZM20.51,41.82h0A21,21,0,0,1,15.27,46c-3,1.63-7.74,4.67-8,4.85a2.89,2.89,0,0,1-3.31-4.72c1.48-.75,9.23-5,11.49-6.15a1.46,1.46,0,0,0,.58-.55c1.4-2.3,7.23-11.95,7.23-11.95a2.68,2.68,0,0,1,.79-.85V38s-3.49,3.79-3.5,3.81ZM26.91,26H29.8v4.35a7.24,7.24,0,0,0,14.47,0V26h2.89V53.81H26.91V26Zm5.78,0h8.68v4.35a4.34,4.34,0,0,1-8.68,0V26ZM71.8,43.72s-9.55-5.19-11.48-6.18l-7-11.6a5.8,5.8,0,0,0-4.44-2.77,1.29,1.29,0,0,0-.38,0H25.3A5.83,5.83,0,0,0,20.75,26l-7,11.59c-2.69,1.38-10.35,5.61-11.22,6a2.26,2.26,0,0,0-.26.16A5.79,5.79,0,0,0,8.71,53.3c.24-.14,5-3.18,8-4.81a23.6,23.6,0,0,0,6-4.72c.75-.81,1-1.06,1.37-1.49V54.35L11.38,60.59a7.11,7.11,0,0,0,3.26,13.46H59.42A7.1,7.1,0,0,0,62.69,60.6L50.05,54.35V42.28l1.42,1.54a23.76,23.76,0,0,0,5.92,4.67c3,1.63,7.72,4.66,8,4.81a5.79,5.79,0,0,0,6.45-9.58Z" style="fill:#fff"/><path d="M37,17.36a7.24,7.24,0,1,1,7.23-7.24A7.24,7.24,0,0,1,37,17.36ZM37,0A10.13,10.13,0,1,0,47.15,10.13,10.13,10.13,0,0,0,37,0Z" style="fill:#fff"/></g></g></g></svg>