<svg xmlns="http://www.w3.org/2000/svg" viewBox="0 0 4.74 4.4"><g id="Слой_2" data-name="Слой 2"><g id="Слой_1-2" data-name="Слой 1"><g id="Слой_1-3" data-name="Слой_1"><g id="_1281728400" data-name=" 1281728400"><path d="M4.55,2.09a.16.16,0,0,0-.13.06.16.16,0,0,0-.06.13V3.49a.51.51,0,0,1-.16.37A.53.53,0,0,1,3.82,4H.92a.53.53,0,0,1-.38-.16.51.51,0,0,1-.16-.38V2.26a.16.16,0,0,0-.06-.13.16.16,0,0,0-.13-.06.16.16,0,0,0-.13.06A.16.16,0,0,0,0,2.26V3.48a.92.92,0,0,0,.92.92h2.9a.92.92,0,0,0,.92-.92V2.28a.19.19,0,0,0-.19-.19Z" fill="#fff"/><path d="M2.24,3.33a.17.17,0,0,0,.26,0h0l.85-.84a.24.24,0,0,0,0-.13.24.24,0,0,0,0-.14.19.19,0,0,0-.14-.05.15.15,0,0,0-.13.05l-.52.52V.19A.16.16,0,0,0,2.5.06a.17.17,0,0,0-.26,0,.16.16,0,0,0-.06.13V2.74l-.52-.52a.17.17,0,0,0-.13-.05.19.19,0,0,0-.14.05.24.24,0,0,0,0,.14.24.24,0,0,0,0,.13Z" fill="#fff"/></g></g></g></g></svg>