<svg xmlns="http://www.w3.org/2000/svg" xmlns:xlink="http://www.w3.org/1999/xlink" viewBox="0 0 32.14 36.46"><defs><linearGradient id="New_Gradient_Swatch_copy_3" y1="18.23" x2="32.14" y2="18.23" gradientUnits="userSpaceOnUse"><stop offset="0" stop-color="#724bcc"/><stop offset="1" stop-color="#3253a1"/></linearGradient></defs><g id="Слой_2" data-name="Слой 2"><g id="Layer_1" data-name="Layer 1"><path d="M31.08,16.39l-.64,1.11.64-1.11-13.95-8L3.18.28A2.08,2.08,0,0,0,2.12,0,2.11,2.11,0,0,0,0,2.12V34.33a2.12,2.12,0,0,0,1.06,1.84,2.14,2.14,0,0,0,1.06.29,2.09,2.09,0,0,0,1.06-.29l14-8,14-8a2.13,2.13,0,0,0,0-3.68Z" fill="url(#New_Gradient_Swatch_copy_3)"/></g></g></svg>