<svg xmlns="http://www.w3.org/2000/svg" viewBox="0 0 4.02 4.4"><g id="Слой_2" data-name="Слой 2"><g id="Слой_1-2" data-name="Слой 1"><g id="Слой_1-3" data-name="Слой_1"><g id="_1281728400" data-name=" 1281728400"><path d="M3.26,4.09A.44.44,0,0,1,2.94,4a.46.46,0,0,1-.13-.32.44.44,0,0,1,.13-.31.42.42,0,0,1,.32-.14.41.41,0,0,1,.31.14.44.44,0,0,1,.13.31A.46.46,0,0,1,3.57,4,.44.44,0,0,1,3.26,4.09ZM.76,2.65a.46.46,0,0,1-.32-.13A.46.46,0,0,1,.31,2.2a.48.48,0,0,1,.13-.32.46.46,0,0,1,.32-.13.48.48,0,0,1,.32.13.48.48,0,0,1,.13.32.46.46,0,0,1-.13.32A.48.48,0,0,1,.76,2.65ZM3.26.31a.44.44,0,0,1,.31.13A.48.48,0,0,1,3.7.76a.48.48,0,0,1-.13.32.44.44,0,0,1-.31.13.44.44,0,0,1-.32-.13A.48.48,0,0,1,2.81.76.48.48,0,0,1,2.94.44.44.44,0,0,1,3.26.31Zm0,2.57a.75.75,0,0,0-.57.26l-1.21-.7a.67.67,0,0,0,0-.24.67.67,0,0,0,0-.24l1.21-.69a.78.78,0,0,0,.57.25A.77.77,0,0,0,4,.76.76.76,0,1,0,2.5.76a1,1,0,0,0,0,.24l-1.21.69a.77.77,0,0,0-.56-.25A.76.76,0,0,0,.76,3a.77.77,0,0,0,.56-.25l1.21.7a.85.85,0,0,0,0,.23.76.76,0,1,0,.76-.76Z" fill="#fff"/></g></g></g></g></svg>