<svg xmlns="http://www.w3.org/2000/svg" xmlns:xlink="http://www.w3.org/1999/xlink" viewBox="0 0 2.96 4.74"><defs><linearGradient id="Безымянный_градиент_317" x1="17236.34" y1="-2710.61" x2="17267.1" y2="-2710.61" gradientTransform="matrix(0.03, 0, 0, -0.03, -488.59, -74.47)" gradientUnits="userSpaceOnUse"><stop offset="0" stop-color="#724bcc"/><stop offset="1" stop-color="#3253a1"/></linearGradient><linearGradient id="Безымянный_градиент_317-2" x1="17310.11" y1="-2710.61" x2="17340.88" y2="-2710.61" xlink:href="#Безымянный_градиент_317"/></defs><g id="Слой_2" data-name="Слой 2"><g id="Слой_1-2" data-name="Слой 1"><g id="Слой_1-3" data-name="Слой_1"><g id="_1281728400" data-name=" 1281728400"><path d="M.87,4.3V.44A.44.44,0,0,0,.44,0h0A.44.44,0,0,0,0,.44H0V4.3a.44.44,0,0,0,.44.44A.44.44,0,0,0,.87,4.3Z" fill-rule="evenodd" fill="url(#Безымянный_градиент_317)"/><path d="M2.09.44V4.3a.44.44,0,0,0,.44.44A.44.44,0,0,0,3,4.3H3V.44A.44.44,0,0,0,2.53,0h0A.44.44,0,0,0,2.09.44Z" fill-rule="evenodd" fill="url(#Безымянный_градиент_317-2)"/></g></g></g></g></svg>