<svg xmlns="http://www.w3.org/2000/svg" viewBox="0 0 5.66 6.01"><g id="Слой_2" data-name="Слой 2"><g id="Слой_1-2" data-name="Слой 1"><g id="Слой_1-3" data-name="Слой_1"><g id="_1281728400" data-name=" 1281728400"><path d="M1.47.93H5.2A.22.22,0,0,0,5.42.71.23.23,0,0,0,5.2.48H1.56c-.12,0-.22.16-.22.28s0,.2.18.2Z" fill="#fff"/><path d="M1.48.82H1.26a.43.43,0,0,1-.12.31.38.38,0,0,1-.29.13.44.44,0,0,1-.29-.11A.45.45,0,0,1,.44.86.45.45,0,0,1,.56.57.45.45,0,0,1,.85.45a.39.39,0,0,1,.29.1c.08.08.12,0,.12.27H1.7A.65.65,0,0,0,1.46.24.88.88,0,0,0,.85,0a.86.86,0,0,0-.6.25A.91.91,0,0,0,0,.86a.86.86,0,0,0,.25.6.82.82,0,0,0,.6.25.86.86,0,0,0,.61-.27A1.19,1.19,0,0,0,1.7.82Z" fill="#fff"/><path d="M1.47,5.23H5.2A.22.22,0,0,0,5.42,5a.22.22,0,0,0-.22-.23H1.56A.26.26,0,0,0,1.34,5c0,.12,0,.21.18.21Z" fill="#fff"/><path d="M1.48,5H1.26c0,.22,0,.29-.12.36a.41.41,0,0,1-.29.16.43.43,0,0,1-.29-.1.42.42,0,0,1-.12-.28.43.43,0,0,1,.12-.29.45.45,0,0,1,.29-.12c.12,0,.22,0,.29,0s.12.1.12.22H1.7a.7.7,0,0,0-.24-.53.86.86,0,0,0-.61-.21.84.84,0,0,0-.6.27A.87.87,0,0,0,0,5.15a.91.91,0,0,0,.25.61A.86.86,0,0,0,.85,6a.93.93,0,0,0,.61-.33A.86.86,0,0,0,1.7,5Z" fill="#fff"/><path d="M4,2.74H.46c-.12,0-.22,0-.22.17s.1.17.22.17H4.09c.13,0,.23,0,.23-.14S4.17,2.73,4,2.73Z" fill="#fff"/><path d="M4.17,2.86H4a1.11,1.11,0,0,0,.25.68.92.92,0,0,0,.61.28A.82.82,0,0,0,5.66,3a.88.88,0,0,0-.25-.6.87.87,0,0,0-.6-.24.84.84,0,0,0-.61.17A.94.94,0,0,0,4,2.86h.44a.82.82,0,0,1,.12-.22.43.43,0,0,1,.3-.08A.45.45,0,0,1,5.22,3a.47.47,0,0,1-.12.3.45.45,0,0,1-.29.12c-.12,0-.22-.12-.3-.2a.62.62,0,0,1-.12-.36Z" fill="#fff"/></g></g></g></g></svg>