<svg xmlns="http://www.w3.org/2000/svg" viewBox="0 0 108.06 96.57"><g id="Слой_2" data-name="Слой 2"><g id="Layer_1" data-name="Layer 1"><path d="M105.87,48.79l-.17.18.17-.18a7.42,7.42,0,0,0-5.26-2.19h0a7.4,7.4,0,0,0-3.95,1.15l-.22.06-.15,0a.44.44,0,0,1-.25-.25,9.72,9.72,0,0,0-9.14-6.49H36.48a9.64,9.64,0,0,0-6.2,2.25.46.46,0,0,1-.26.1l-.12,0a.46.46,0,0,1-.28-.25,9.34,9.34,0,0,0-14.06-4.45l-.24.07-.19,0a.41.41,0,0,1-.23-.37V18.94a7.45,7.45,0,0,0-14.9,0V94.87a1.68,1.68,0,0,0,.5,1.2h0a1.71,1.71,0,0,0,1.21.5H13.19a1.69,1.69,0,0,0,1.21-.5h0a1.68,1.68,0,0,0,.5-1.2V85.51a.45.45,0,0,1,.12-.3h0a.43.43,0,0,1,.29-.12H46.16a1.71,1.71,0,0,0,1.21-.5h0a1.71,1.71,0,0,0,0-2.42h0a1.71,1.71,0,0,0-1.21-.5H15.32a.38.38,0,0,1-.29-.12.39.39,0,0,1-.13-.3V56.18a.45.45,0,0,1,.12-.29h0a.36.36,0,0,1,.29-.12H26.38a.39.39,0,0,1,.3.12.45.45,0,0,1,.12.29V66.41a4.4,4.4,0,0,0,4.39,4.39,4.43,4.43,0,0,0,2.38-.7l0,0,.05,0h0a5.79,5.79,0,0,1,6.25,0l.18.11a9.27,9.27,0,0,0,10,0l.12-.08a5.83,5.83,0,0,1,6.3,0l.18.11a9.27,9.27,0,0,0,10,0l.12-.08a5.83,5.83,0,0,1,6.3,0l.18.11a9.27,9.27,0,0,0,10,0l.12-.08a5.83,5.83,0,0,1,6.3,0l.12.08h0a4.35,4.35,0,0,0,2.36.69,4.19,4.19,0,0,0,.5,0h.06a.42.42,0,0,1,.28.1.47.47,0,0,1,.14.32v10a.48.48,0,0,1-.13.3.4.4,0,0,1-.29.12H62a1.71,1.71,0,0,0-1.21.5h0a1.71,1.71,0,0,0,0,2.42h0a1.71,1.71,0,0,0,1.21.5H92.74a.43.43,0,0,1,.29.12h0a.42.42,0,0,1,.13.3v9.36a1.68,1.68,0,0,0,.5,1.2h0a1.68,1.68,0,0,0,1.2.5h11.49a1.71,1.71,0,0,0,1.21-.5h0a1.68,1.68,0,0,0,.5-1.2V54.06A7.43,7.43,0,0,0,105.87,48.79Zm-1.23,43.95a.4.4,0,0,1-.12.29.46.46,0,0,1-.3.13H97a.45.45,0,0,1-.42-.42V54.06a4,4,0,1,1,8.07,0ZM93.16,50.84a.43.43,0,0,1-.13.3.38.38,0,0,1-.29.12H71.56a1.69,1.69,0,0,0-1.21.5l0,0h0a1.7,1.7,0,0,0,0,2.35h0l0,0a1.68,1.68,0,0,0,1.21.49H92.74a.45.45,0,0,1,.42.42V66.43h0v0A1,1,0,0,1,93,67h0a.87.87,0,0,1-.33.29h0a1,1,0,0,1-.46.12h0a1,1,0,0,1-.51-.16h0l-.13-.08h0a9.27,9.27,0,0,0-10,0l-.12.08a5.83,5.83,0,0,1-6.3,0l-.18-.11a9.27,9.27,0,0,0-10,0l-.12.08a5.83,5.83,0,0,1-6.3,0l-.18-.11a9.27,9.27,0,0,0-10,0l-.12.08a5.83,5.83,0,0,1-6.3,0l-.17-.11a9.29,9.29,0,0,0-10,0h0l-.05,0h0a1,1,0,0,1-.5.16h0a.93.93,0,0,1-.46-.13h0a1,1,0,0,1-.34-.29h0a1,1,0,0,1-.16-.54h0V50.73a6.27,6.27,0,0,1,6.26-6.26H86.89a6.28,6.28,0,0,1,6.27,6.26ZM26.8,46.4a5.95,5.95,0,1,1-5.95-5.95A6,6,0,0,1,26.8,46.4ZM11.49,54.06V92.74a.45.45,0,0,1-.42.42H3.84a.46.46,0,0,1-.3-.13.4.4,0,0,1-.12-.29V18.94a4,4,0,1,1,8.07,0Z" style="fill:#735ee6"/><path d="M55.25,82.19h0v0h0l-.07-.06,0,0h0a1.76,1.76,0,0,0-1.07-.41H54a1.77,1.77,0,0,0-1.15.49h0l0,0h0a1.73,1.73,0,0,0-.48,1.18,1.7,1.7,0,0,0,.5,1.2h0a1.7,1.7,0,0,0,1.09.48h.13a1.76,1.76,0,0,0,1.18-.5h0a1.73,1.73,0,0,0,.48-1.18A1.69,1.69,0,0,0,55.25,82.19Z" style="fill:#735ee6"/><path d="M62.73,13.85a1.71,1.71,0,0,0,1.58,1.05H75.8a1.67,1.67,0,0,0,1.2-.5h0a1.73,1.73,0,0,0,.5-1.21A1.71,1.71,0,0,0,77,12h0a1.68,1.68,0,0,0-1.2-.5H69.45a.39.39,0,0,1-.38-.25l0-.18a.39.39,0,0,1,.12-.28L77,2.92a1.75,1.75,0,0,0,.5-1.21,1.94,1.94,0,0,0-.13-.66A1.73,1.73,0,0,0,75.8,0H64.31a1.68,1.68,0,0,0-1.2.5h0a1.71,1.71,0,0,0,0,2.42h0a1.71,1.71,0,0,0,1.21.5h6.35a.42.42,0,0,1,.38.25l0,.18a.5.5,0,0,1-.12.28L63.1,12h0a1.71,1.71,0,0,0-.5,1.2A1.69,1.69,0,0,0,62.73,13.85Z" style="fill:#735ee6"/><path d="M43.94,22.36a1.73,1.73,0,0,0,1.58,1.05H54a1.71,1.71,0,0,0,1.21-.5h0a1.71,1.71,0,0,0,.5-1.21,1.67,1.67,0,0,0-.47-1.17h0l0,0A1.71,1.71,0,0,0,54,20H50.66a.41.41,0,0,1-.38-.25l0-.18a.5.5,0,0,1,.12-.28l4.88-4.88a1.68,1.68,0,0,0,.5-1.21,1.64,1.64,0,0,0-.13-.65A1.72,1.72,0,0,0,54,11.48H45.52a1.68,1.68,0,0,0-1.2.5h0a1.67,1.67,0,0,0-.5,1.2,1.71,1.71,0,0,0,.5,1.21h0a1.71,1.71,0,0,0,1.21.5H48.9a.4.4,0,0,1,.37.25l0,.18a.4.4,0,0,1-.12.29l-4.88,4.87h0a1.75,1.75,0,0,0-.5,1.21A1.94,1.94,0,0,0,43.94,22.36Z" style="fill:#735ee6"/><path d="M27.84,30a1.72,1.72,0,0,0,1.58,1.06h6.81a1.68,1.68,0,0,0,1.2-.5h0a1.71,1.71,0,0,0,0-2.42h0a1.72,1.72,0,0,0-1.2-.49H34.56a.42.42,0,0,1-.38-.25l0-.18a.45.45,0,0,1,.12-.28l3.18-3.18a1.74,1.74,0,0,0,.5-1.21,1.64,1.64,0,0,0-.13-.65,1.72,1.72,0,0,0-1.58-1.06H29.42a1.68,1.68,0,0,0-1.2.5h0a1.75,1.75,0,0,0-.5,1.21,1.67,1.67,0,0,0,.47,1.17h0l0,0a1.71,1.71,0,0,0,1.21.5h1.67a.41.41,0,0,1,.38.25l0,.18a.38.38,0,0,1-.12.28l-3.18,3.18h0a1.74,1.74,0,0,0-.5,1.21A1.84,1.84,0,0,0,27.84,30Z" style="fill:#735ee6"/><path d="M65.54,51.78h0a1.71,1.71,0,0,0-1.16-.5H64.3a1.71,1.71,0,0,0-1.19.49h0s0,0,0,0h0a1.69,1.69,0,0,0,0,2.38,1.78,1.78,0,0,0,1.12.5h.12a1.71,1.71,0,0,0,1.16-.48h0l0,0s0,0,0,0h0a1.7,1.7,0,0,0,0-2.37Z" style="fill:#735ee6"/></g></g></svg>