<svg xmlns="http://www.w3.org/2000/svg" viewBox="0 0 3.36 3.19"><g id="Слой_2" data-name="Слой 2"><g id="Слой_1-2" data-name="Слой 1"><g id="Слой_1-3" data-name="Слой_1"><g id="_1281728400" data-name=" 1281728400"><path d="M1.68.34A1.34,1.34,0,0,0,.34,1.68h.5A.34.34,0,0,1,1.18,2v.84a.34.34,0,0,1-.34.34H.34A.34.34,0,0,1,0,2.85V1.68a1.68,1.68,0,0,1,3.36,0V2.85A.34.34,0,0,1,3,3.19h-.5a.34.34,0,0,1-.34-.34V2a.34.34,0,0,1,.34-.33H3A1.34,1.34,0,0,0,1.68.34ZM.34,2.85h.5V2H.34Zm2.18,0H3V2h-.5Zm0-.84V2Z" fill="#a7a6c4"/></g></g></g></g></svg>