<svg xmlns="http://www.w3.org/2000/svg" viewBox="0 0 99.55 105.84"><g id="Слой_2" data-name="Слой 2"><g id="Layer_1" data-name="Layer 1"><path d="M57.42,64.53,73.86,41.81a2.07,2.07,0,0,0,.38-1.18,2,2,0,0,0-2-2,2,2,0,0,0-1.17.38L48.33,55.45a6.5,6.5,0,0,0-2.66,4.75c0,.17,0,.34,0,.51a6.5,6.5,0,0,0,6.5,6.51l.51,0,0-.25,0,.25A6.5,6.5,0,0,0,57.42,64.53Zm-7.75-4a2.51,2.51,0,0,1,1-1.83l12.61-9.11-9.12,12.6a2.5,2.5,0,0,1-1.82,1h-.18a2.5,2.5,0,0,1-1.78-.73,2.47,2.47,0,0,1-.73-1.76v-.19l-.25,0Z" style="fill:#735ee6"/><path d="M91.67,24.85l.18.07.18-.07,7.45-7.45.07-.18L99.48,17,92,9.59a.27.27,0,0,0-.36,0L84.23,17l-.08.18.08.18,2.3,2.3L83.1,23.13A47.9,47.9,0,0,0,74.82,17L74.75,17l-.09-.05-.09,0a47.22,47.22,0,0,0-17.89-6V9.28h2.39a4.64,4.64,0,1,0,0-9.28H43.27a4.64,4.64,0,0,0,0,9.28h2.38v1.56a48.75,48.75,0,0,0-5.47.91,2,2,0,0,0-1.56,2,1.86,1.86,0,0,0,.06.45,2,2,0,0,0,2,1.55,1.73,1.73,0,0,0,.45-.05,44.26,44.26,0,0,1,4.85-.83l1.88-.14,1.35-.09v3.21a2,2,0,0,0,4,0V14.62a43.28,43.28,0,0,1,17.76,4.83l-1.6,2.76a2.07,2.07,0,0,0-.27,1,2,2,0,0,0,1,1.74,2,2,0,0,0,1,.26,2,2,0,0,0,1.74-1l1.59-2.76A44.11,44.11,0,0,1,87.6,34.67l-2.75,1.59a2,2,0,0,0-1,1.74,2,2,0,0,0,2,2,2,2,0,0,0,1-.27l2.76-1.59a43.25,43.25,0,0,1,4.84,18h-3.2a2,2,0,0,0,0,4h3.2a43.3,43.3,0,0,1-4.84,18l-2.77-1.6a2,2,0,0,0-1-.27,2,2,0,0,0-2,2,2,2,0,0,0,1,1.74l2.76,1.6A44.11,44.11,0,0,1,74.4,94.91l-1.59-2.76a2,2,0,0,0-1.74-1,1.91,1.91,0,0,0-1,.27,2,2,0,0,0-1,1.74,1.93,1.93,0,0,0,.27,1l1.59,2.76a43.28,43.28,0,0,1-17.75,4.84V98.57a2,2,0,0,0-4,0v3.21a43.55,43.55,0,0,1-8.08-1.07h0a2.3,2.3,0,0,0-.45,0,2,2,0,0,0-2,1.56,2.3,2.3,0,0,0,0,.45,2,2,0,0,0,1.56,2,47.77,47.77,0,0,0,10.69,1.22h.36a47.39,47.39,0,0,0,23.28-6.29l.16-.07.07,0,.07-.06A48.08,48.08,0,0,0,92,82.17l.1-.13,0-.07,0-.09a47.49,47.49,0,0,0,0-47.38l0-.09,0-.09-.06-.07A47.9,47.9,0,0,0,85.94,26l3.43-3.43ZM94,17.22l-2.13,2.13-2.13-2.13,2.13-2.13ZM52.67,5.52v5.05c-.51,0-1,0-1.5,0h-.29c-.3,0-.59,0-.87,0h-.35V5.52l-.07-.18-.18-.07H43.27a.63.63,0,1,1,0-1.26h15.8a.63.63,0,0,1,0,1.26H52.92l-.18.07Z" style="fill:#735ee6"/><polygon points="70.07 91.42 70.07 91.42 70.07 91.42 70.07 91.42" style="fill:#735ee6"/><path d="M35.36,24.58H26.59a2,2,0,1,0,0,4h8.77a2,2,0,1,0,0-4Z" style="fill:#735ee6"/><path d="M35.36,36.87H17.81a2,2,0,1,0,0,4H35.36a2,2,0,1,0,0-4Z" style="fill:#735ee6"/><path d="M35.36,49.16H9a2,2,0,1,0,0,4H35.36a2,2,0,1,0,0-4Z" style="fill:#735ee6"/><path d="M35.36,61.45H2a2,2,0,1,0,0,4H35.36a2,2,0,1,0,0-4Z" style="fill:#735ee6"/><path d="M35.36,73.74H12.54a2,2,0,1,0,0,4H35.36a2,2,0,1,0,0-4Z" style="fill:#735ee6"/><path d="M35.36,86H23.07a2,2,0,0,0,0,4H35.36a2,2,0,1,0,0-4Z" style="fill:#735ee6"/></g></g></svg>