<svg xmlns="http://www.w3.org/2000/svg" viewBox="0 0 35.3 35.3"><g id="Слой_2" data-name="Слой 2"><g id="Layer_1" data-name="Layer 1"><path d="M17.65,0A17.65,17.65,0,1,0,35.3,17.65,17.65,17.65,0,0,0,17.65,0ZM27.77,25.39l-3.1.05A2.21,2.21,0,0,1,23.13,25c-1.16-.8-2.25-2.86-3.1-2.59s-.84,2.13-.84,2.13a1,1,0,0,1-.19.61,1.13,1.13,0,0,1-.63.27H17a7.93,7.93,0,0,1-5.75-2.61c-2.94-3.06-5.53-9.13-5.53-9.13s-.15-.4,0-.59.68-.23.68-.23l3.31,0a1.42,1.42,0,0,1,.54.22,1.07,1.07,0,0,1,.29.39A21.46,21.46,0,0,0,11.78,16c1.38,2.39,2,2.92,2.5,2.66.68-.37.48-3.38.48-3.38a3.37,3.37,0,0,0-.35-1.58,1.57,1.57,0,0,0-1-.51c-.18,0,.12-.46.52-.65a7.41,7.41,0,0,1,2.89-.3,6.09,6.09,0,0,1,1.63.16c1.14.28.75,1.34.75,3.9,0,.81-.15,2,.44,2.35.26.16.88,0,2.43-2.62a19.38,19.38,0,0,0,1.29-2.71,1,1,0,0,1,.31-.38.84.84,0,0,1,.45-.08l3.48,0s1.05-.12,1.22.35S28.4,14.83,27,16.73c-2.34,3.12-2.6,2.83-.65,4.63A10.73,10.73,0,0,1,28.62,24C29.39,25.29,27.77,25.39,27.77,25.39Z" style="fill:#fff"/></g></g></svg>