<svg xmlns="http://www.w3.org/2000/svg" viewBox="0 0 298.54 353"><g id="Слой_2" data-name="Слой 2"><g id="Layer_1" data-name="Layer 1"><path d="M4.08,223A4.15,4.15,0,0,0,7,221.79,4.08,4.08,0,0,0,7,216a4.15,4.15,0,0,0-2.88-1.19A4.08,4.08,0,0,0,0,218.9a4.19,4.19,0,0,0,1.2,2.89A4.15,4.15,0,0,0,4.08,223Z" style="fill:#735ee6"/><path d="M294.46,47.41a4.08,4.08,0,0,0,4.08-4.08V4.08a4,4,0,0,0-1.2-2.88A4,4,0,0,0,294.46,0H11.31A4,4,0,0,0,8.42,1.2a4.07,4.07,0,0,0-1.2,2.88V43.33a4.12,4.12,0,0,0,1.2,2.89,4.06,4.06,0,0,0,2.89,1.19H24.05v138.9a4.08,4.08,0,0,0,8.16,0V47.41H54.89V305.59H32.21v-56.9a4.08,4.08,0,1,0-8.16,0v56.9H11.31a4,4,0,0,0-2.89,1.2,4.09,4.09,0,0,0-1.2,2.88v39.25a4.12,4.12,0,0,0,1.2,2.89A4.06,4.06,0,0,0,11.31,353H294.46a4.08,4.08,0,0,0,4.08-4.08V309.67a4.1,4.1,0,0,0-4.08-4.08H281.72V167.85a4.08,4.08,0,1,0-8.16,0V305.59H250.88V47.41h22.68v57.83a4.08,4.08,0,0,0,8.16,0V47.41Zm-7,266.34h2.93v31.09h-275V313.75Zm-124-74.35a16.19,16.19,0,0,0-20,0l-80.4,62.78.7-6.83a143.31,143.31,0,0,1,56.62-100l17.08-12.73a7.65,7.65,0,0,0,0-12.25L120.4,157.64A142.71,142.71,0,0,1,77.79,106.3l-2.08-4.22H230.05L228,106.3a142.71,142.71,0,0,1-42.61,51.34l-17.07,12.73a7.65,7.65,0,0,0,0,12.25L166.54,185l1.75-2.35,17.07,12.73a143.32,143.32,0,0,1,56.52,99l.75,6.9ZM235,305.58H72l76.52-59.75a8.06,8.06,0,0,1,9.93,0Zm2.18-58.79q-1.09-2.4-2.26-4.74a151.51,151.51,0,0,0-44.63-53.24l-16.51-12.32,16.51-12.31a151.51,151.51,0,0,0,44.63-53.24q1.17-2.34,2.26-4.73L242.72,94V259Zm5.41-196.3A142.31,142.31,0,0,1,234.08,92l-.7,1.93h-161L71.68,92a142.3,142.3,0,0,1-8.45-41.5l-.16-3.08H242.69ZM68.64,106.21c.73,1.6,1.48,3.18,2.25,4.72l-2,1h0l2-1a151.48,151.48,0,0,0,44.62,53.24L132,176.49l-16.52,12.32A151.43,151.43,0,0,0,70.9,242.06q-1.17,2.33-2.26,4.73L63.05,259V94Zm-50.33-67H15.39V8.16h275V39.25Z" style="fill:#735ee6"/><path d="M253.59,141.6a4.08,4.08,0,0,0,4.08-4.08,4.08,4.08,0,0,0-7-2.89h0a4.11,4.11,0,0,0-1.2,2.88,4.08,4.08,0,0,0,4.08,4.08Z" style="fill:#735ee6"/><path d="M129.51,195.54a4.1,4.1,0,0,0-4.09,4.08v12.85a4.09,4.09,0,0,0,8.17,0V199.62a4.1,4.1,0,0,0-4.08-4.08Z" style="fill:#735ee6"/></g></g></svg>