<svg xmlns="http://www.w3.org/2000/svg" xmlns:xlink="http://www.w3.org/1999/xlink" viewBox="0 0 65.85 66.11"><defs><linearGradient id="Безымянный_градиент_324" x1="2712.91" y1="26799.09" x2="4267.09" y2="26799.09" gradientTransform="matrix(0.03, 0, 0, -0.03, -65.21, 763.85)" gradientUnits="userSpaceOnUse"><stop offset="0" stop-color="#381a96"/><stop offset="1" stop-color="#350e71"/></linearGradient><linearGradient id="Безымянный_градиент_277" x1="3488.84" y1="26841.03" x2="3745.72" y2="26841.03" gradientTransform="matrix(0.03, 0, 0, -0.03, -65.21, 763.85)" gradientUnits="userSpaceOnUse"><stop offset="0" stop-color="#fbab3d"/><stop offset="1" stop-color="#dd5db6"/></linearGradient><linearGradient id="Безымянный_градиент_277-2" x1="3486.67" y1="26819.51" x2="3662.18" y2="26819.51" xlink:href="#Безымянный_градиент_277"/><linearGradient id="Безымянный_градиент_324-2" x1="3518.2" y1="26689.74" x2="3767.46" y2="26689.74" xlink:href="#Безымянный_градиент_324"/><linearGradient id="Безымянный_градиент_324-3" x1="2578.87" y1="26324.31" x2="4058.93" y2="26324.31" xlink:href="#Безымянный_градиент_324"/><linearGradient id="Безымянный_градиент_277-3" x1="2828.08" y1="26683.68" x2="3260.83" y2="26683.68" xlink:href="#Безымянный_градиент_277"/><linearGradient id="Безымянный_градиент_277-4" x1="3253.62" y1="26758.45" x2="3374.23" y2="26758.45" xlink:href="#Безымянный_градиент_277"/><linearGradient id="Безымянный_градиент_277-5" x1="3120.48" y1="26739.21" x2="3166.51" y2="26739.21" xlink:href="#Безымянный_градиент_277"/><linearGradient id="Безымянный_градиент_277-6" x1="3114.39" y1="26657.2" x2="3237.09" y2="26657.2" xlink:href="#Безымянный_градиент_277"/><linearGradient id="Безымянный_градиент_277-7" x1="2950.57" y1="26696.94" x2="3032.46" y2="26696.94" xlink:href="#Безымянный_градиент_277"/><linearGradient id="Безымянный_градиент_277-8" x1="2950.74" y1="26607.28" x2="3063.75" y2="26607.28" xlink:href="#Безымянный_градиент_277"/><linearGradient id="Безымянный_градиент_277-9" x1="3891.92" y1="26836.69" x2="4066.03" y2="26836.69" xlink:href="#Безымянный_градиент_277"/><linearGradient id="Безымянный_градиент_324-4" x1="3945.4" y1="26790.34" x2="4046.83" y2="26790.34" xlink:href="#Безымянный_градиент_324"/><linearGradient id="Безымянный_градиент_324-5" x1="1903.05" y1="26589.37" x2="3066.51" y2="26589.37" xlink:href="#Безымянный_градиент_324"/><linearGradient id="Безымянный_градиент_324-6" x1="3634.93" y1="26567.52" x2="4762.32" y2="26567.52" xlink:href="#Безымянный_градиент_324"/><linearGradient id="Безымянный_градиент_324-7" x1="4327.44" y1="26834.04" x2="5132.4" y2="26834.04" xlink:href="#Безымянный_градиент_324"/><linearGradient id="Безымянный_градиент_324-8" x1="3909.87" y1="26391.91" x2="3961.47" y2="26409.22" xlink:href="#Безымянный_градиент_324"/><linearGradient id="Безымянный_градиент_324-9" x1="3879.18" y1="26246.36" x2="4054.99" y2="26305.3" xlink:href="#Безымянный_градиент_324"/><linearGradient id="Безымянный_градиент_324-10" x1="3828.51" y1="26487.05" x2="3979.12" y2="26537.49" xlink:href="#Безымянный_градиент_324"/><linearGradient id="Безымянный_градиент_324-11" x1="3740.93" y1="26143.22" x2="3940.81" y2="26210.34" xlink:href="#Безымянный_градиент_324"/><linearGradient id="Безымянный_градиент_277-10" x1="3953.93" y1="26449.23" x2="4166.1" y2="26449.23" xlink:href="#Безымянный_градиент_277"/><linearGradient id="Безымянный_градиент_277-11" x1="2411.93" y1="26843.22" x2="2448.43" y2="26843.22" xlink:href="#Безымянный_градиент_277"/><linearGradient id="Безымянный_градиент_277-12" x1="2409.22" y1="26893.01" x2="2507.79" y2="26893.01" xlink:href="#Безымянный_градиент_277"/><linearGradient id="Безымянный_градиент_277-13" x1="2319.64" y1="26882.01" x2="2415.97" y2="26882.01" xlink:href="#Безымянный_градиент_277"/><linearGradient id="Безымянный_градиент_324-12" x1="2840.96" y1="26440.41" x2="2998.51" y2="26440.41" xlink:href="#Безымянный_градиент_324"/><linearGradient id="Безымянный_градиент_324-13" x1="2864.6" y1="26430.79" x2="2925.62" y2="26430.79" xlink:href="#Безымянный_градиент_324"/><linearGradient id="Безымянный_градиент_324-14" x1="2908.51" y1="26295.66" x2="3081.22" y2="26295.66" xlink:href="#Безымянный_градиент_324"/><linearGradient id="Безымянный_градиент_324-15" x1="2946.26" y1="26476.07" x2="3058.12" y2="26476.07" xlink:href="#Безымянный_градиент_324"/><linearGradient id="Безымянный_градиент_324-16" x1="2939.86" y1="26440.41" x2="3065.94" y2="26440.41" xlink:href="#Безымянный_градиент_324"/><linearGradient id="Безымянный_градиент_324-17" x1="2790.33" y1="26280.7" x2="2888.88" y2="26280.7" xlink:href="#Безымянный_градиент_324"/><linearGradient id="Безымянный_градиент_324-18" x1="2785.59" y1="26247.45" x2="2882.79" y2="26247.45" xlink:href="#Безымянный_градиент_324"/><linearGradient id="Безымянный_градиент_324-19" x1="4501.04" y1="26850.67" x2="4526.68" y2="26850.67" xlink:href="#Безымянный_градиент_324"/><linearGradient id="Безымянный_градиент_324-20" x1="4442.45" y1="26907.76" x2="4525.97" y2="26907.76" xlink:href="#Безымянный_градиент_324"/><linearGradient id="Безымянный_градиент_324-21" x1="4524.65" y1="26853.21" x2="4632.14" y2="26853.21" xlink:href="#Безымянный_градиент_324"/><linearGradient id="Безымянный_градиент_324-22" x1="4522.31" y1="26936.52" x2="4599.78" y2="26936.52" xlink:href="#Безымянный_градиент_324"/><linearGradient id="Безымянный_градиент_324-23" x1="4422.39" y1="26827.53" x2="4517.14" y2="26827.53" xlink:href="#Безымянный_градиент_324"/><linearGradient id="Безымянный_градиент_324-24" x1="4432.47" y1="26784.53" x2="4519.22" y2="26784.53" xlink:href="#Безымянный_градиент_324"/><linearGradient id="Безымянный_градиент_277-14" x1="2651.59" y1="26459.22" x2="2902.74" y2="26459.22" xlink:href="#Безымянный_градиент_277"/><linearGradient id="Безымянный_градиент_277-15" x1="2750.23" y1="26380.45" x2="2813.55" y2="26380.45" xlink:href="#Безымянный_градиент_277"/><linearGradient id="Безымянный_градиент_324-25" x1="2405.16" y1="26742.91" x2="2726" y2="26742.91" xlink:href="#Безымянный_градиент_324"/><linearGradient id="Безымянный_градиент_318" x1="3639.48" y1="24887.37" x2="4433.48" y2="24887.37" gradientTransform="matrix(0.03, 0, 0, -0.03, -65.21, 763.85)" gradientUnits="userSpaceOnUse"><stop offset="0" stop-color="#8e61ea"/><stop offset="1" stop-color="#735ee6"/></linearGradient><linearGradient id="Безымянный_градиент_321" x1="3648.44" y1="25155.68" x2="4207.29" y2="25155.68" gradientTransform="matrix(0.03, 0, 0, -0.03, -65.21, 763.85)" gradientUnits="userSpaceOnUse"><stop offset="0" stop-color="#724bcc"/><stop offset="1" stop-color="#3253a1"/></linearGradient><linearGradient id="Безымянный_градиент_318-2" x1="3914.66" y1="25604.22" x2="3976.93" y2="25604.22" xlink:href="#Безымянный_градиент_318"/><linearGradient id="Безымянный_градиент_318-3" x1="3890.34" y1="25525.08" x2="3980.71" y2="25525.08" xlink:href="#Безымянный_градиент_318"/><linearGradient id="Безымянный_градиент_318-4" x1="3862.37" y1="25554.83" x2="3890.06" y2="25554.83" xlink:href="#Безымянный_градиент_318"/><linearGradient id="Безымянный_градиент_318-5" x1="3860.71" y1="25464.04" x2="3948.44" y2="25464.04" xlink:href="#Безымянный_градиент_318"/><linearGradient id="Безымянный_градиент_318-6" x1="3828.4" y1="25491" x2="3860.71" y2="25491" xlink:href="#Безымянный_градиент_318"/><linearGradient id="Безымянный_градиент_318-7" x1="3827.42" y1="25390.26" x2="3927.53" y2="25390.26" xlink:href="#Безымянный_градиент_318"/><linearGradient id="Безымянный_градиент_318-8" x1="3788.84" y1="25420.39" x2="3827.42" y2="25420.39" xlink:href="#Безымянный_градиент_318"/><linearGradient id="Безымянный_градиент_318-9" x1="3795.84" y1="25312.09" x2="3893.4" y2="25312.09" xlink:href="#Безымянный_градиент_318"/><linearGradient id="Безымянный_градиент_318-10" x1="3753.29" y1="25339.64" x2="3795.84" y2="25339.64" xlink:href="#Безымянный_градиент_318"/><linearGradient id="Безымянный_градиент_318-11" x1="3761.33" y1="25222.48" x2="3869.74" y2="25222.48" xlink:href="#Безымянный_градиент_318"/><linearGradient id="Безымянный_градиент_318-12" x1="3706.84" y1="25250.4" x2="3761.33" y2="25250.4" xlink:href="#Безымянный_градиент_318"/><linearGradient id="Безымянный_градиент_318-13" x1="3731.7" y1="25131.29" x2="3834.05" y2="25131.29" xlink:href="#Безымянный_градиент_318"/><linearGradient id="Безымянный_градиент_318-14" x1="3669.67" y1="25153.42" x2="3731.69" y2="25153.42" xlink:href="#Безымянный_градиент_318"/><linearGradient id="Безымянный_градиент_318-15" x1="2957.65" y1="25309.47" x2="3365.49" y2="25309.47" xlink:href="#Безымянный_градиент_318"/><linearGradient id="Безымянный_градиент_321-2" x1="2554.6" y1="24945.74" x2="3182.7" y2="24945.74" xlink:href="#Безымянный_градиент_321"/><linearGradient id="Безымянный_градиент_318-16" x1="2683.1" y1="25407.75" x2="2781.29" y2="25407.75" xlink:href="#Безымянный_градиент_318"/><linearGradient id="Безымянный_градиент_318-17" x1="2717.11" y1="25333.36" x2="2820.36" y2="25333.36" xlink:href="#Безымянный_градиент_318"/><linearGradient id="Безымянный_градиент_318-18" x1="2798.76" y1="25387.06" x2="2820.36" y2="25387.06" xlink:href="#Безымянный_градиент_318"/><linearGradient id="Безымянный_градиент_318-19" x1="2769.92" y1="25290.57" x2="2872.05" y2="25290.57" xlink:href="#Безымянный_градиент_318"/><linearGradient id="Безымянный_градиент_318-20" x1="2854.51" y1="25340.48" x2="2873.86" y2="25340.48" xlink:href="#Безымянный_градиент_318"/><linearGradient id="Безымянный_градиент_318-21" x1="2815.65" y1="25232.83" x2="2932.78" y2="25232.83" xlink:href="#Безымянный_градиент_318"/><linearGradient id="Безымянный_градиент_318-22" x1="2913.86" y1="25289.08" x2="2935.82" y2="25289.08" xlink:href="#Безымянный_градиент_318"/><linearGradient id="Безымянный_градиент_318-23" x1="2876.81" y1="25174.66" x2="2992.74" y2="25174.66" xlink:href="#Безымянный_градиент_318"/><linearGradient id="Безымянный_градиент_318-24" x1="2977.35" y1="25227.49" x2="2998.78" y2="25227.49" xlink:href="#Безымянный_градиент_318"/><linearGradient id="Безымянный_градиент_318-25" x1="2930.47" y1="25104.56" x2="3061.83" y2="25104.56" xlink:href="#Безымянный_градиент_318"/><linearGradient id="Безымянный_градиент_318-26" x1="3048.98" y1="25160.5" x2="3073.64" y2="25160.5" xlink:href="#Безымянный_градиент_318"/><linearGradient id="Безымянный_градиент_318-27" x1="2997.79" y1="25034.96" x2="3125.78" y2="25034.96" xlink:href="#Безымянный_градиент_318"/><linearGradient id="Безымянный_градиент_318-28" x1="3119.31" y1="25084.06" x2="3145.6" y2="25084.06" xlink:href="#Безымянный_градиент_318"/><linearGradient id="Безымянный_градиент_321-3" x1="2890.13" y1="25491.62" x2="2938.44" y2="25491.62" xlink:href="#Безымянный_градиент_321"/><linearGradient id="Безымянный_градиент_318-29" x1="4049.41" y1="25452.99" x2="4096.62" y2="25452.99" xlink:href="#Безымянный_градиент_318"/><linearGradient id="Безымянный_градиент_318-30" x1="2821.32" y1="25623.76" x2="2859.15" y2="25623.76" xlink:href="#Безымянный_градиент_318"/><linearGradient id="Безымянный_градиент_318-31" x1="4222.95" y1="25250.53" x2="4264.59" y2="25250.53" xlink:href="#Безымянный_градиент_318"/><linearGradient id="Безымянный_градиент_318-32" x1="2794.15" y1="25547.45" x2="2820.36" y2="25547.45" xlink:href="#Безымянный_градиент_318"/><linearGradient id="Безымянный_градиент_321-4" x1="4181.52" y1="25174.64" x2="4208.85" y2="25174.64" xlink:href="#Безымянный_градиент_321"/><linearGradient id="Безымянный_градиент_321-5" x1="3851.01" y1="25700.53" x2="3871.91" y2="25700.53" xlink:href="#Безымянный_градиент_321"/><linearGradient id="Безымянный_градиент_321-6" x1="2625.78" y1="25197.63" x2="2657.77" y2="25197.63" xlink:href="#Безымянный_градиент_321"/><linearGradient id="Безымянный_градиент_318-33" x1="4059.25" y1="25566.06" x2="4081.98" y2="25566.06" xlink:href="#Безымянный_градиент_318"/><linearGradient id="Безымянный_градиент_321-7" x1="3239.14" y1="24822.98" x2="3725.18" y2="24822.98" xlink:href="#Безымянный_градиент_321"/><linearGradient id="Безымянный_градиент_321-8" x1="2992.44" y1="24793.48" x2="3557.87" y2="24793.48" xlink:href="#Безымянный_градиент_321"/><linearGradient id="Безымянный_градиент_321-9" x1="3436.16" y1="24802.95" x2="4001.49" y2="24802.95" xlink:href="#Безымянный_градиент_321"/><linearGradient id="Безымянный_градиент_323" x1="3298.33" y1="25308.95" x2="3673.98" y2="25308.95" gradientTransform="matrix(0.03, 0, 0, -0.03, -65.21, 763.85)" gradientUnits="userSpaceOnUse"><stop offset="0" stop-color="#f85982"/><stop offset="1" stop-color="#f981ac"/></linearGradient><linearGradient id="Безымянный_градиент_323-2" x1="3395.42" y1="25135.43" x2="3545.44" y2="25135.43" xlink:href="#Безымянный_градиент_323"/><linearGradient id="Безымянный_градиент_324-26" x1="3315.25" y1="25848.74" x2="3653.12" y2="25848.74" xlink:href="#Безымянный_градиент_324"/></defs><g id="Слой_2" data-name="Слой 2"><g id="Слой_1-2" data-name="Слой 1"><g id="Слой_1-3" data-name="Слой_1"><g id="_13005128368" data-name=" 13005128368"><path d="M33.55,0c0,1.36.2,2.83.29,4h0c.2,2.53,4.7,4,7.57,4.35h0a16.05,16.05,0,0,0,2,.07h0c2-.86,4.14-1.35,6.14-2.15h0c2.38-1,4.69-2.61,5.06-4.87h0a4.07,4.07,0,0,0,0-1.35h-21Z" style="fill-rule:evenodd;fill:url(#Безымянный_градиент_324)"/><path d="M40,0l.06.1h0c.24.38.48.77.33,1.06h0c-.1.19-.31.25-.56.31h0a1.39,1.39,0,0,0-.86.46h0a1.36,1.36,0,0,0-.14,1.21h0a2,2,0,0,1,0,1.15h0a2.75,2.75,0,0,1-1.43,1.27h0a2.67,2.67,0,0,1-2.29.05h0A2.47,2.47,0,0,1,33.84,4h0A1.76,1.76,0,0,1,34,2.69h0A2,2,0,0,1,35.24,2h0c.51-.15,1-.3,1.28-.8h0a1.42,1.42,0,0,0,0-1.16h-.17a1.36,1.36,0,0,1,.08,1.11h0c-.2.42-.67.56-1.17.7h0a2.12,2.12,0,0,0-1.38.82h0A1.91,1.91,0,0,0,33.69,4h0a2.75,2.75,0,0,0,.85,1.43h0a2.13,2.13,0,0,0,.47.31h0a2.83,2.83,0,0,0,2.41,0h0A2.9,2.9,0,0,0,39,4.33h0a2.11,2.11,0,0,0,0-1.24h0A1.21,1.21,0,0,1,39.08,2h0a1.26,1.26,0,0,1,.76-.4h0a.91.91,0,0,0,.68-.4h0c.2-.38-.07-.8-.33-1.21H40Z" style="fill-rule:evenodd;fill:url(#Безымянный_градиент_277)"/><path d="M38.24,0a18.59,18.59,0,0,1-4.62,7.1h0l.09.12A18.84,18.84,0,0,0,38.39,0Z" style="fill-rule:evenodd;fill:url(#Безымянный_градиент_277-2)"/><path d="M41.6,0c-.14.45.16,1-.16,1.33-.64.67-2.47-.61-3.12,0-.44.45.25,1.26-.2,2s-1.88.26-2.77,1c-1.06.92-1.27,3.61.33,5,1.3,1.15,3.48,1.17,4.27.25s-.37-2.71.52-3.57,2.79.23,3.26-.52-.89-1.62-.45-2.78c.27-.72.91-.75,1-1.52A1.67,1.67,0,0,0,44,0Z" style="fill:#573aa4"/><path d="M41.5,2.92h-.06s-5.24,3.72-6.93,8.6h0a.09.09,0,0,0,.06.12h0a.09.09,0,0,0,.1,0h0s0,0,0,0h0c1.67-4.81,6.81-8.46,6.87-8.5h0a.09.09,0,0,0,0-.13h0A.09.09,0,0,0,41.5,2.92Z" style="fill-rule:evenodd;fill:url(#Безымянный_градиент_324-2)"/><path d="M15.21,0c1,1.59,3.62,1.27,1.8,2.76h0c-1.08.88-1.54,2.59-2.46,3.63h0c-1.57,1.77-3.17,6.66-2.88,9h0c.2,1.62,2.82,3.24,2.95,4.86h0c2.13.69,4.44,1.39,6.31,3.94h0c2.67,3.67,1.28,6.8,4.45,9.29h0a9.45,9.45,0,0,0,6,1.78h0a20.78,20.78,0,0,0,3.73-.18h0c2-.28,4.39-.52,5.94-1.85h0c2.58-2.22,1-4.74,3.31-8h0c1.83-2.63,4-2.74,5.95-3.72h0c-.82-1.06.44-4.26-.77-4.83h0c-1.74-.82-4.56-.93-6.38-1.53h0c-1.83-.6-3.15.25-3.65-1.61h0c-.61-2.21.36-3,2.29-4.24h0c.31-.2-.78-1.66-.46-1.82h0a12.17,12.17,0,0,1-1.71-.07h0A5.77,5.77,0,0,1,34.8,2.27h0A8.25,8.25,0,0,1,35,0H15.21Z" style="fill-rule:evenodd;fill:url(#Безымянный_градиент_324-3)"/><path d="M18,0a2.24,2.24,0,0,0-.34,1A3.29,3.29,0,0,0,18.4,3.4a3.11,3.11,0,0,0,2.39,1,2.59,2.59,0,0,0,1.9-.68,2.14,2.14,0,0,0,.4-1.22c.05-.49.11-1,.54-1.22a1.39,1.39,0,0,1,1.05-.09c.28.05.52.09.68-.07s.15-.67.05-1.14h.17c.11.5.19,1-.1,1.27s-.52.16-.84.1a1.28,1.28,0,0,0-.92.07c-.36.22-.41.63-.46,1.1a2.27,2.27,0,0,1-.44,1.31,2.78,2.78,0,0,1-2,.74,3.27,3.27,0,0,1-2.51-1.08A2.69,2.69,0,0,1,17.89,3,3.59,3.59,0,0,1,17.48,1a2.45,2.45,0,0,1,.31-1Z" style="fill:#9763f0"/><path d="M16.44,4.47l-.05-.17A16.06,16.06,0,0,0,22.54,0h.23A16.31,16.31,0,0,1,16.44,4.47Z" style="fill:#9763f0"/><path d="M27.14,6.09h0c-.09,0-9.47,3.55-12,2.24h0a.12.12,0,0,0-.1,0h0l0,0h0a.11.11,0,0,0,0,.13h0c1.11.57,3.5.37,7.1-.61h0c2.68-.72,5.06-1.61,5.08-1.62h0a.1.1,0,0,0,.06-.13h0a.1.1,0,0,0-.09-.06Z" style="fill-rule:evenodd;fill:url(#Безымянный_градиент_277-3)"/><path d="M28.3,4.74A4.38,4.38,0,0,0,27,6.13h0a.08.08,0,0,0,0,.08h0a.11.11,0,0,0,.07.06h0a3.16,3.16,0,0,0,3.34-1.61h0a.11.11,0,0,0,0-.08h0s0,0-.05,0h0a2,2,0,0,0-.85-.2h0A2.21,2.21,0,0,0,28.3,4.74Zm-1,1.37c.29-.45,1.44-2.05,2.95-1.45h0a3,3,0,0,1-2.43,1.49h0a3.12,3.12,0,0,1-.52,0Z" style="fill-rule:evenodd;fill:url(#Безымянный_градиент_277-4)"/><path d="M24.71,4.17h0a1.94,1.94,0,0,0-.7.29h0c-1.29.85-.93,3-.92,3.06h0s0,.05.05.07h.08c2.07-.88,1.61-3.32,1.6-3.34h0a.07.07,0,0,0,0-.06h0l-.05,0Zm-.08.22a3.87,3.87,0,0,1,0,1.16h0a2.38,2.38,0,0,1-1.36,1.81h0c-.06-.53-.19-2.57,1.39-3Z" style="fill-rule:evenodd;fill:url(#Безымянный_градиент_277-5)"/><path d="M23.14,7.41h0s0,0,0,0h0a.08.08,0,0,0,0,.09h0A3.14,3.14,0,0,0,26.48,9h0a.08.08,0,0,0,.06,0h0a.11.11,0,0,0,0-.08h0A2.42,2.42,0,0,0,24,7.33h0A3.76,3.76,0,0,0,23.14,7.41Zm.17.16c.53-.07,2.49-.25,3,1.28h0a3.29,3.29,0,0,1-.57.05h0a2.71,2.71,0,0,1-2.45-1.33Z" style="fill-rule:evenodd;fill:url(#Безымянный_градиент_277-6)"/><path d="M20.65,5.49a1.85,1.85,0,0,0-1,.31h0c-1.17.78-1.22,2.75-1.22,2.78h0a.08.08,0,0,0,0,.07h0a.1.1,0,0,0,.09,0h0c2.18-.53,2.2-3.06,2.2-3.08h0a.08.08,0,0,0,0-.07h0a.09.09,0,0,0-.07,0Zm-.1.2a3,3,0,0,1-1.92,2.76h0c0-.54.3-2.61,1.92-2.76Z" style="fill-rule:evenodd;fill:url(#Безымянный_градиент_277-7)"/><path d="M18.52,8.48h0l-.05,0,0,0h0a.1.1,0,0,0,0,.09h0a3.4,3.4,0,0,0,3.11,2.16h0a.08.08,0,0,0,.07,0h0a.11.11,0,0,0,0-.07h0c-.25-2.13-3.09-2.18-3.12-2.18Zm.14.2c.55,0,2.49.29,2.77,1.89h0a3.19,3.19,0,0,1-2.77-1.89Z" style="fill-rule:evenodd;fill:url(#Безымянный_градиент_277-8)"/><path d="M56.18,3.79a.05.05,0,0,1,0,0s0,.08-.05.08c-.95.08-2.77-.83-5.39-2.72C50.19.78,49.65.38,49.16,0h.24c2.16,1.66,5.33,3.87,6.71,3.75A.1.1,0,0,1,56.18,3.79Z" style="fill:#9763f0"/><path d="M50,.41A3.19,3.19,0,0,0,50.08,0h.16a3.85,3.85,0,0,1-.17.59.05.05,0,0,1,0,0A.07.07,0,0,1,50,.6a3,3,0,0,1-.5-.6h.16A3.31,3.31,0,0,0,50,.41Z" style="fill:#9763f0"/><path d="M47.32.56a2.16,2.16,0,0,0,2.55,0C49.47.33,48-.43,47.32.56ZM48.94,0H47.75a1.13,1.13,0,0,0-.6.53.07.07,0,0,0,0,.06.21.21,0,0,0,0,.06S48.92,1.79,50.06.6a.06.06,0,0,0,0-.06.08.08,0,0,0,0,0s0,0,0,0A4.25,4.25,0,0,0,48.94,0Z" style="fill:#9763f0"/><path d="M53.35,2.71c.06-.43.2-2.08-1-2.71h.28a1.78,1.78,0,0,1,.4.37,3.44,3.44,0,0,1,.48,2.5,0,0,0,0,1,0,0,.06.06,0,0,1-.07,0A3,3,0,0,1,52.16,0h.16A2.86,2.86,0,0,0,53.35,2.71Z" style="fill:#9763f0"/><path d="M50.83,3.42a2.16,2.16,0,0,0,2.45-.55C52.86,2.73,51.31,2.3,50.83,3.42Zm2.63-.63,0,0a.06.06,0,0,1,0,.07c-.89,1.4-2.74.66-2.76.65a.12.12,0,0,1-.05,0,.13.13,0,0,1,0-.06c.55-1.54,2.75-.67,2.77-.67Z" style="fill:#9763f0"/><path d="M47,0H45.29V0h0c0,.47.34.58.4,1h0c.08.74-.81,1.12-.67,1.56h0c.16.5,1.42.14,1.82.77h0c.39.63-.57,1.44-.21,2.15h0A2,2,0,0,0,49.13,6h0a2.21,2.21,0,0,0,.92-2.88h0c-.4-.57-1.26-.41-1.45-1h0c-.16-.48.36-.85.16-1.18h0C48.48.49,47.23,1,47,.48h0c-.09-.16,0-.31,0-.48Z" style="fill-rule:evenodd;fill:url(#Безымянный_градиент_277-9)"/><path d="M46.68,1.39h0a.08.08,0,0,0,0,.09h0a12.37,12.37,0,0,1,2.76,5.94h0a0,0,0,0,0,0,0h0a.05.05,0,0,0,.05,0h0a.05.05,0,0,0,0-.06h0a12.55,12.55,0,0,0-2.78-6h0Z" style="fill-rule:evenodd;fill:url(#Безымянный_градиент_324-4)"/><path d="M5,0A5.11,5.11,0,0,0,0,4c2,2.27,5.65.85,8,3.64H8c2.28,2.78-.4,5.39,1.52,9h0c1.2,2.26,3.1,2.9,5.15,3.56-.13-1.62-.5-3.23-.7-4.85h0c-.29-2.35-.13-5,1.44-6.73h0a26.63,26.63,0,0,1,3.31-2.54h0a8.5,8.5,0,0,0,3-6.14H5Z" style="fill-rule:evenodd;fill:url(#Безымянный_градиент_324-5)"/><path d="M51.15,0c0,.15,0,.29,0,.44h0c-.33,2.27-2.35,3.92-4.43,4.87h0c-2.08,1-4.37,1.47-6.3,2.69h0c-1.94,1.23-3.49,3.52-2.88,5.73h0c.5,1.85,2.34,3,4.17,3.63h0c1.83.6,3.79.8,5.53,1.63h0a8.55,8.55,0,0,1,3.09,2.51,5.65,5.65,0,0,0,2.32-2.13h0c2.18-3.51-.58-6,1.37-9.51h0C55.54,7,58.15,7,60.79,6.12h0c-.17-2,.5-4.1.49-6.12H51.15Z" style="fill-rule:evenodd;fill:url(#Безымянный_градиент_324-6)"/><path d="M58,0c.59.8,1.52,1,2.26,2.6h0c.62,1.32-.29,2.9-.37,3.79a12.47,12.47,0,0,0,5-2.75h0a8.59,8.59,0,0,0,1-1.39A5.09,5.09,0,0,0,61.62,0H58Z" style="fill-rule:evenodd;fill:url(#Безымянный_градиент_324-7)"/><path d="M17.86,2.52c.31-.16,1.44-.86,1.07-1.85a1.94,1.94,0,0,0-.61.45A1.56,1.56,0,0,0,17.86,2.52Z" style="fill:#9763f0"/><path d="M41,9.52c-.27.21-1.29,1.07-.77,2a2.22,2.22,0,0,0,.53-.54A1.53,1.53,0,0,0,41,9.52Z" style="fill:#9763f0"/><path d="M28.65,0c.21.45.74,1.31,1.63,1.1A2.41,2.41,0,0,0,29.9.44,1.62,1.62,0,0,0,29.39,0Z" style="fill:#9763f0"/><path d="M32.72,8.91c.14.32.75,1.5,1.77,1.2a2.61,2.61,0,0,0-.41-.64A1.55,1.55,0,0,0,32.72,8.91Z" style="fill:#9763f0"/><path d="M24.05,24.71c.12.32.67,1.53,1.7,1.28a2.45,2.45,0,0,0-.37-.66A1.52,1.52,0,0,0,24.05,24.71Z" style="fill:#9763f0"/><path d="M34.92,20.61c-.28.21-1.31,1.05-.8,2a2.29,2.29,0,0,0,.54-.53,1.56,1.56,0,0,0,.26-1.45Z" style="fill:#9763f0"/><path d="M38.85,29.37c.12.33.67,1.54,1.7,1.29a2.45,2.45,0,0,0-.37-.66A1.56,1.56,0,0,0,38.85,29.37Z" style="fill:#9763f0"/><path d="M29.92,21.15c-.33.1-1.57.57-1.39,1.62a2.47,2.47,0,0,0,.68-.33,1.55,1.55,0,0,0,.71-1.29Z" style="fill:#9763f0"/><path d="M29.34,10.51c-.34.05-1.65.29-1.66,1.35a2.37,2.37,0,0,0,.73-.2,1.57,1.57,0,0,0,.93-1.15Z" style="fill:#9763f0"/><path d="M32.07,5.93c.32-.13,1.53-.71,1.26-1.73a2.15,2.15,0,0,0-.65.38,1.56,1.56,0,0,0-.61,1.35Z" style="fill:#9763f0"/><path d="M44.38,6.62a2.3,2.3,0,0,1,2.53,1c.24.61-.47.91-.31,1.53.25,1,2.12.78,2.68,1.73s-1.1,1.75-.94,3.13c.19,1.69,2.82,1.64,3.39,3.32s-1,4.32-3.65,4.87c-2.36.47-4.82-.9-5.15-2.38-.39-1.74,2.29-2.86,1.7-4.45-.53-1.42-3-1.26-3.08-2.57-.09-1.1,1.59-1.56,1.55-3,0-.95-.76-1.28-.37-2a2.43,2.43,0,0,1,1.65-1.1Z" style="fill:#744ddb"/><path d="M44.76,8.51h0a.09.09,0,0,0-.08.11h0s.55,3.69,1.43,7.54h0a46.66,46.66,0,0,0,1.8,6.31h0l.18-.07h0c-1.85-4.78-3.21-13.69-3.22-13.8h0A.11.11,0,0,0,44.76,8.51Z" style="fill-rule:evenodd;fill:url(#Безымянный_градиент_324-8)"/><path d="M49.23,17.12l-2.11,2.95-2.56-1.25a.1.1,0,0,0-.13.05h0a.09.09,0,0,0,0,.12h0l2.63,1.29a.1.1,0,0,0,.12,0h0l2.15-3v0h0a.1.1,0,0,0,0-.12h0l0,0h0a.12.12,0,0,0-.08,0Z" style="fill-rule:evenodd;fill:url(#Безымянный_градиент_324-9)"/><path d="M47.41,11.28h0a.07.07,0,0,0-.06,0h0l-1.81,1.78-2.39-1a.1.1,0,0,0-.13.05h0a.1.1,0,0,0,.06.13h0l2.45,1a.12.12,0,0,0,.1,0h0l1.85-1.83,0,0h0a.09.09,0,0,0,0-.11h0a.09.09,0,0,0-.07,0Z" style="fill-rule:evenodd;fill:url(#Безымянный_градиент_324-10)"/><path d="M36.44,16.63A1.83,1.83,0,0,0,36.19,19c.52.56,1.33,0,1.76.52.7.78-.92,2.73-.24,3.52.47.55,1.44-.15,2.21.43.93.7.11,2.15.88,3.23a3.39,3.39,0,0,0,2.35,1.15,7.8,7.8,0,0,1,1.19-2.6h0A7.16,7.16,0,0,1,47.6,22.6a1.8,1.8,0,0,0-.38-.61c-1.06-1.08-3.1.15-4-.94s.53-3.14-.27-3.74-1.92.85-3.19.24c-.78-.38-.75-1.11-1.61-1.34a1.85,1.85,0,0,0-1.73.42Z" style="fill:#573aa4"/><path d="M39.81,19.49a.11.11,0,0,0,0,.15h0a28.12,28.12,0,0,0,4.56,5.6v0h0l.11-.16h0A28.15,28.15,0,0,1,40,19.53h0a.1.1,0,0,0-.09-.06h0l-.06,0Z" style="fill-rule:evenodd;fill:url(#Безымянный_градиент_324-11)"/><path d="M51.5,6.5A3.16,3.16,0,0,0,50.41,10h0c0,.14-.3,1.48-.55,3.24h0A2.39,2.39,0,0,0,47.92,11h0a.08.08,0,0,0-.07,0h0a.1.1,0,0,0,0,.07h0a3.17,3.17,0,0,0,1.92,3.09h0l-.12,1.06h0c-.12,1.09-.18,2.07-.2,2.94h0A2.64,2.64,0,0,0,47,16.13h0a.09.09,0,0,0-.07,0h0a.11.11,0,0,0,0,.08h0A3.4,3.4,0,0,0,49.41,19h0a8.82,8.82,0,0,0,.39,2.78l.18-.08h0A8.75,8.75,0,0,1,49.6,19h0a3.7,3.7,0,0,0,2.47-1.63h0a1.8,1.8,0,0,0,.15-1h0a.1.1,0,0,0,0-.07h0l-.07,0h0A3.54,3.54,0,0,0,49.61,18h0a36.92,36.92,0,0,1,.32-3.81h0c.41,0,2.21-.15,2.78-1.39h0a1.87,1.87,0,0,0,.17-.74h0a.19.19,0,0,0,0-.07h0a.09.09,0,0,0-.07,0h0A3.26,3.26,0,0,0,50,13.37h0c.23-1.65.48-2.95.55-3.28h0a4.72,4.72,0,0,0,1.17-1.48h0a2.06,2.06,0,0,0-.12-2.09h0a.1.1,0,0,0-.07,0h0l-.06,0Zm0,.22c.83,1.39-.56,2.78-1,3.13h0A2.87,2.87,0,0,1,51.53,6.72ZM48,11.21c1.6.28,1.74,2.24,1.74,2.77h0A2.88,2.88,0,0,1,48,11.21Zm3.54,1.19a3.92,3.92,0,0,1,1.14-.22h0C52.53,13.81,50.5,14,50,14h0A2.42,2.42,0,0,1,51.54,12.4Zm-4.46,3.92c1.62,0,2.18,1.9,2.3,2.43h0A3.17,3.17,0,0,1,47.08,16.32Zm5,.09c.11,1.63-1.9,2.21-2.43,2.34h0A3,3,0,0,1,52,16.41Z" style="fill-rule:evenodd;fill:url(#Безымянный_градиент_277-10)"/><path d="M3.18.33a14.05,14.05,0,0,0,.26,5.24h0l.22,0A14.33,14.33,0,0,1,3.38.26h0l-.2.07Z" style="fill-rule:evenodd;fill:url(#Безымянный_градиент_277-11)"/><path d="M5.78.14S3.26.56,3.08,2.8h0a.11.11,0,0,0,0,.08h0a.16.16,0,0,0,.09,0h0s2-.37,2.54-1.65h0a1.82,1.82,0,0,0,.15-1h0a.09.09,0,0,0,0-.07h0L5.8.14h0ZM5.71.35C5.82,2,3.82,2.56,3.29,2.69h0A3,3,0,0,1,5.71.35Z" style="fill-rule:evenodd;fill:url(#Безымянный_градиент_277-12)"/><path d="M2.14.87a4.17,4.17,0,0,1,.91,1.82h0A2.73,2.73,0,0,1,1.34,1.54h0l-.14.15h0a3,3,0,0,0,2,1.22h0a.16.16,0,0,0,.09,0h0l0,0h0s0,0,0-.05h0a4.46,4.46,0,0,0-1-2h0l-.16.1Z" style="fill-rule:evenodd;fill:url(#Безымянный_градиент_277-13)"/><path d="M53,0a1.47,1.47,0,0,0,.28.42,1.58,1.58,0,0,1,.4.7,1.92,1.92,0,0,1-.43,1.52c-.2.33-.38.61-.27.85s.58.29,1.1.3a2.12,2.12,0,0,1,1.68.49,1.75,1.75,0,0,1,.07,1.61,1.91,1.91,0,0,0,0,1.57,1,1,0,0,0,.22.24l-.16.1-.2-.24a2.08,2.08,0,0,1,0-1.71c.15-.55.28-1.07,0-1.46A2,2,0,0,0,54.09,4c-.55,0-1.08,0-1.26-.4s.06-.66.29-1a1.81,1.81,0,0,0,.41-1.39,1.41,1.41,0,0,0-.37-.63A1.41,1.41,0,0,1,52.83,0ZM60.6,6.18a3.72,3.72,0,0,0,.17-.75,2.59,2.59,0,0,0-.47-2,2.12,2.12,0,0,0-1.16-.54c-.48-.11-.94-.21-1.16-.67a1.45,1.45,0,0,1,0-1c.09-.27.16-.51,0-.69S57.28.29,56.76.35,55.59.49,55.31.12A.67.67,0,0,1,55.25,0h.19V0c.21.29.76.23,1.29.16s1.15-.13,1.43.23.1.53,0,.84a1.22,1.22,0,0,0,0,.92c.18.39.58.48,1,.59a2.22,2.22,0,0,1,1.25.58,2.76,2.76,0,0,1,.51,2.11,4.54,4.54,0,0,1-.14.66l-.2.07Z" style="fill:#9763f0"/><path d="M59,6.63a21.23,21.23,0,0,0-3.87-5l.11-.12a21.11,21.11,0,0,1,3.93,5.11Z" style="fill:#9763f0"/><path d="M19.71,7.71s4,7.64,1.43,11.78A15.14,15.14,0,0,1,19,22.23,17.13,17.13,0,0,0,13.85,20a10.63,10.63,0,0,1,.3-4.25c1.37-4.68,2.8-5.61,2.8-5.61l.8,1,.32-2.39A3.28,3.28,0,0,1,19.71,7.71Z" style="fill:#573aa4"/><path d="M19.62,7.69A129.54,129.54,0,0,1,16.78,21l.16.07q.7-2.41,1.49-6.09h0c.8-3.8,1.36-7.24,1.36-7.28h0a.09.09,0,0,0-.07-.1h0a.1.1,0,0,0-.09.07Z" style="fill-rule:evenodd;fill:url(#Безымянный_градиент_324-12)"/><path d="M16.07,11.07h0a.08.08,0,0,0-.08.09h0s.09,1.67.33,3.35h0c.33,2.32.76,3.52,1.3,3.67h0a.1.1,0,0,0,.09-.07h0a.09.09,0,0,0-.06-.1h0c-.94-.27-1.41-5-1.51-6.87h0a.08.08,0,0,0-.09-.08Z" style="fill-rule:evenodd;fill:url(#Безымянный_градиент_324-13)"/><path d="M22.06,16.72h0a.09.09,0,0,0-.07,0h0C19.19,20,17.34,20,17.32,20h0a.11.11,0,0,0-.09.08h0a.09.09,0,0,0,.09.09h0c.19,0,2-.08,4.79-3.33h0a.08.08,0,0,0,0-.12h0l-.05,0Z" style="fill-rule:evenodd;fill:url(#Безымянный_градиент_324-14)"/><path d="M21.4,11.77h0a.1.1,0,0,0-.08.05h0s-1.1,2.45-3,2.93h0a.08.08,0,0,0-.06.1h0a.08.08,0,0,0,.08.06h0a4.46,4.46,0,0,0,2.28-1.7h0a6.76,6.76,0,0,0,.8-1.32h0a.08.08,0,0,0,0-.11h0Z" style="fill-rule:evenodd;fill:url(#Безымянный_градиент_324-15)"/><path d="M21.55,13s-1.85,2.93-3.33,2.62h0a.08.08,0,0,0-.1.06h0a.09.09,0,0,0,.06.11h0l.27,0h0a3.18,3.18,0,0,0,2.11-1.26h0a10.89,10.89,0,0,0,1.14-1.47h0a.08.08,0,0,0,0-.11h-.05a.09.09,0,0,0-.07,0Z" style="fill-rule:evenodd;fill:url(#Безымянный_градиент_324-16)"/><path d="M13.94,17.15a.08.08,0,0,0-.06.1h0a13.48,13.48,0,0,0,.71,1.91h0a6.87,6.87,0,0,0,.8,1.35h0l.31.11A10.4,10.4,0,0,1,14,17.21h0a.08.08,0,0,0-.08-.06h0Z" style="fill-rule:evenodd;fill:url(#Безымянный_градиент_324-17)"/><path d="M13.81,19.56a.09.09,0,0,0-.06.1h0a1.69,1.69,0,0,0,.11.35h0l.22.08a2,2,0,0,1-.17-.46h0a.08.08,0,0,0-.08-.07h0Z" style="fill-rule:evenodd;fill:url(#Безымянный_градиент_324-18)"/><path d="M4.32,0s0,0,0,0c-.2.26,0,.67.25,1.15A2.16,2.16,0,0,1,4.89,3c-.24.55-.85.69-1.44.82A2,2,0,0,0,2,4.56a1.4,1.4,0,0,0-.17.63l-.17-.06a1.54,1.54,0,0,1,.19-.65,2.12,2.12,0,0,1,1.54-.84c.57-.13,1.11-.25,1.32-.72A2,2,0,0,0,4.39,1.3C4.17.85,4,.41,4.1.08l.22,0Zm3.2,7.17a1.73,1.73,0,0,0,.27-.47,2.17,2.17,0,0,0-.06-1.31A1.49,1.49,0,0,1,7.8,4.05a1.42,1.42,0,0,1,1-.47c.29-.05.54-.09.64-.31S9.25,2.48,9,2,8.27,1,8.48.61a.89.89,0,0,1,.64-.4A1.23,1.23,0,0,0,9.6,0h.24a1.14,1.14,0,0,1-.68.38c-.23.06-.43.11-.52.3s.15.8.46,1.25.67,1,.47,1.42-.44.35-.77.41a1.22,1.22,0,0,0-.86.4c-.27.35-.16.75,0,1.22A2.32,2.32,0,0,1,8,6.81a1.79,1.79,0,0,1-.31.52l-.12-.12Z" style="fill:#9763f0"/><path d="M5,5.89A22.33,22.33,0,0,0,7,1.1l.17,0a22.29,22.29,0,0,1-2.05,4.8Z" style="fill:#9763f0"/><path d="M61.4,5.9A8.41,8.41,0,0,1,60.11,1c0-.36.06-.69.09-1h1.42a5.09,5.09,0,0,1,4.23,2.25h0a8.59,8.59,0,0,1-1,1.39h0A8.6,8.6,0,0,1,61.4,5.9Z" style="fill:#744ddb"/><path d="M62.78,5.27l.14-.08h0c.13-1.25.19-2.91.19-5h0L63,.18h0c0,1.78,0,3.64-.2,5.09Z" style="fill-rule:evenodd;fill:url(#Безымянный_градиент_324-19)"/><path d="M61.59,0c.56,1.46,1,2.19,1.43,2.21h0s0,0,.05-.06h0A.06.06,0,0,0,63,2.09h0c-.39,0-.88-1-1.3-2.09h-.14Z" style="fill-rule:evenodd;fill:url(#Безымянный_градиент_324-20)"/><path d="M63.09,3.6a.08.08,0,0,0-.05.07h0a.08.08,0,0,0,.08.06h0c.11,0,1.07-.28,2.27-2l-.09-.1h0c-1.23,1.81-2.21,2-2.22,2Z" style="fill-rule:evenodd;fill:url(#Безымянный_градиент_324-21)"/><path d="M63,.23A.06.06,0,0,0,63,.29h0A.07.07,0,0,0,63,.36a.64.64,0,0,0,.2,0h0a.27.27,0,0,0,.12,0h0L63.12.23H63Z" style="fill-rule:evenodd;fill:url(#Безымянный_градиент_324-22)"/><path d="M60.17,2.05a.05.05,0,0,0,0,.08h0A9,9,0,0,0,61,3.41h0c.65.86,1.26,1.3,1.8,1.31h0s0,0,.06-.06h0a.07.07,0,0,0-.07-.06h0c-1.2,0-2.5-2.5-2.51-2.53h0a.06.06,0,0,0-.06,0h0Z" style="fill-rule:evenodd;fill:url(#Безымянный_градиент_324-23)"/><path d="M60.49,3.82h0a.07.07,0,0,0,0,.08h0a2.89,2.89,0,0,0,2.13,1.48h0l.18-.09a2.83,2.83,0,0,1-2.19-1.44h0a.07.07,0,0,0-.06,0Z" style="fill-rule:evenodd;fill:url(#Безымянный_градиент_324-24)"/><path d="M12.42,8.44a1.35,1.35,0,0,0-1,.88,1.11,1.11,0,0,0,.06.81,1.61,1.61,0,0,1,.11.79,2,2,0,0,1-1,1.26c-.31.23-.58.42-.57.68s.44.49.92.69,1.19.49,1.38,1.08-.19,1-.54,1.52a1.93,1.93,0,0,0-.57,1.46,1.85,1.85,0,0,0,.87,1.09,3.3,3.3,0,0,0,2.43.46,3.15,3.15,0,0,0,2-1.62,2.59,2.59,0,0,0,.29-2,2.06,2.06,0,0,0-.88-.92c-.41-.28-.79-.55-.82-1.06a1.35,1.35,0,0,1,.41-1c.18-.22.33-.41.27-.64s-.62-.48-1.13-.61-1.14-.3-1.25-.75a.83.83,0,0,1,.21-.69.84.84,0,0,0,.21-.67,1.32,1.32,0,0,0-1.51-.79ZM14,19.4a3.55,3.55,0,0,1-1.89-.55,2,2,0,0,1-.94-1.2,2,2,0,0,1,.59-1.6c.34-.46.66-.89.51-1.37s-.75-.76-1.27-1-1-.42-1-.84.3-.58.64-.83a1.78,1.78,0,0,0,.89-1.14,1.39,1.39,0,0,0-.1-.72,1.2,1.2,0,0,1-.06-.91,1.49,1.49,0,0,1,2.8-.08,1,1,0,0,1-.24.8.7.7,0,0,0-.19.56c.09.35.62.49,1.14.62s1.12.3,1.24.74-.1.54-.3.79a1.23,1.23,0,0,0-.37.84c0,.43.36.66.75.93a2.23,2.23,0,0,1,.94,1,2.75,2.75,0,0,1-.3,2.15,3.32,3.32,0,0,1-2.14,1.71A3,3,0,0,1,14,19.4Z" style="fill:#fdd848"/><path d="M14.57,20.25a19.55,19.55,0,0,0-1.82-8.37l.15-.07a19.66,19.66,0,0,1,1.83,8.49Z" style="fill:#fdd848"/><path d="M12.38,8.28a1.5,1.5,0,0,0-1.08,1h0a1.2,1.2,0,0,0,.06.91h0a1.39,1.39,0,0,1,.1.72h0A1.78,1.78,0,0,1,10.57,12h0c-.34.25-.66.48-.64.83h0c0,.42.51.62,1,.84h0c.52.21,1.11.46,1.27,1h0c.15.48-.17.91-.51,1.37h0a2,2,0,0,0-.59,1.6h0a2,2,0,0,0,.94,1.2h0A3.55,3.55,0,0,0,14,19.4a3,3,0,0,0,.67-.07h0a3.32,3.32,0,0,0,2.14-1.71h0a2.75,2.75,0,0,0,.3-2.15h0a2.23,2.23,0,0,0-.94-1h0c-.39-.27-.73-.5-.75-.93h0a1.23,1.23,0,0,1,.37-.84h0c.2-.25.39-.49.3-.79h0c-.12-.44-.69-.59-1.24-.74h0c-.52-.13-1.05-.27-1.14-.62h0a.7.7,0,0,1,.19-.56h0a1,1,0,0,0,.24-.8h0a1.48,1.48,0,0,0-1.41-.95h0a1.1,1.1,0,0,0-.31,0ZM12.16,18.7a1.85,1.85,0,0,1-.87-1.09h0a1.93,1.93,0,0,1,.57-1.46h0c.35-.47.71-1,.54-1.52h0c-.19-.59-.82-.85-1.38-1.08h0c-.48-.2-.9-.37-.92-.69h0c0-.26.26-.45.57-.68h0a2,2,0,0,0,1-1.26h0a1.6,1.6,0,0,0-.11-.79h0a1.11,1.11,0,0,1-.06-.81h0a1.35,1.35,0,0,1,1-.88h0a1.32,1.32,0,0,1,1.51.79h0a.84.84,0,0,1-.21.67h0a.83.83,0,0,0-.21.69h0c.11.45.69.6,1.25.75h0c.51.13,1,.27,1.13.61h0c.06.23-.09.42-.27.64h0a1.35,1.35,0,0,0-.41,1h0c0,.51.41.78.82,1.06h0a2.06,2.06,0,0,1,.88.92h0a2.59,2.59,0,0,1-.29,2h0a3.15,3.15,0,0,1-2,1.62h0a2.59,2.59,0,0,1-.63.07h0a3.32,3.32,0,0,1-1.8-.53Z" style="fill-rule:evenodd;fill:url(#Безымянный_градиент_277-14)"/><path d="M12.75,11.88a19.55,19.55,0,0,1,1.82,8.37h0l.16.05h0a19.7,19.7,0,0,0-1.83-8.49Z" style="fill-rule:evenodd;fill:url(#Безымянный_градиент_277-15)"/><path d="M17.91,21.55a27.45,27.45,0,0,0,5.67-1.86c3-1.25,5.54-2.66,5.57-2.68a.11.11,0,1,0-.11-.19c-.09.05-7.31,4-11.47,4.56l.34.17Z" style="fill:#9763f0"/><path d="M32.37,14.68c-1.82-.45-2.89,1.56-3.15,2.12A3.35,3.35,0,0,0,32.37,14.68Zm.18-.19a.11.11,0,0,1,.07.06.14.14,0,0,1,0,.09A3.67,3.67,0,0,1,29.05,17,.15.15,0,0,1,29,17a.12.12,0,0,1,0-.1,5.16,5.16,0,0,1,1.24-1.79A2.37,2.37,0,0,1,32.55,14.49Z" style="fill:#9763f0"/><path d="M26.08,16.59a4.44,4.44,0,0,0-.15-1.34c-1.75.72-1.27,3-1.12,3.63A2.76,2.76,0,0,0,26.08,16.59ZM26,15h.09s.05,0,.06.07.93,2.74-1.31,4.08a.11.11,0,0,1-.1,0,.11.11,0,0,1-.06-.07s-.77-2.47.56-3.65A2.24,2.24,0,0,1,26,15Z" style="fill:#9763f0"/><path d="M24.93,19.12a3.35,3.35,0,0,0,3.66,1C27.74,18.43,25.52,18.94,24.93,19.12ZM24.71,19s3.13-1.09,4.14,1.18a.11.11,0,0,1,0,.08.13.13,0,0,1-.06.07,3.67,3.67,0,0,1-4.14-1.16.11.11,0,0,1,0-.1s0,0,0-.05l0,0Z" style="fill:#9763f0"/><path d="M21.46,17.4c-1.84.42-1.81,2.84-1.77,3.47A3.44,3.44,0,0,0,21.46,17.4Zm.08-.25a.11.11,0,0,1,.08,0,.14.14,0,0,1,.05.08s.39,2.93-2,3.89a.1.1,0,0,1-.09,0,.16.16,0,0,1-.06-.08s-.26-2.3,1-3.38A2.18,2.18,0,0,1,21.54,17.15Z" style="fill:#9763f0"/><path d="M19.77,21.13a3.66,3.66,0,0,0,3.47,1.72C22.67,21.07,20.4,21.09,19.77,21.13Zm-.19-.21s3.29-.39,3.92,2a.13.13,0,0,1,0,.09.09.09,0,0,1-.08,0,4,4,0,0,1-3.91-2,.17.17,0,0,1,0-.1l0,0s0,0,.06,0Z" style="fill:#9763f0"/><path d="M15.08,2.08a1.59,1.59,0,0,0-2-.58c-.57.35-.25,1.14-.74,1.44-.79.48-2.22-1.24-3-.78-.55.32-.1,1.28-.73,1.86s-1.87-.25-2.93.24a2.77,2.77,0,0,0-1.25,1.5A5.86,5.86,0,0,1,8,7.66H8a4.19,4.19,0,0,1,1,2.73c.79-.85.23-2.57,1.24-3.12s2.63,1,3.28.37-.43-1.8.31-2.81c.45-.61,1.08-.47,1.41-1.18A1.63,1.63,0,0,0,15.08,2.08Z" style="fill:#573aa4"/><path d="M11.94,4.49A25.55,25.55,0,0,0,7.22,6.94h0l.15.13A23.56,23.56,0,0,1,12,4.68h0a.1.1,0,0,0,.06-.13h0A.1.1,0,0,0,12,4.49h0Z" style="fill-rule:evenodd;fill:url(#Безымянный_градиент_324-25)"/><path d="M50.51,53.14l-.74,1.6,0-1.53q-.59.06-1,.15h0c-4.39.88-9.84,3.14-11.11,7.92h0c-.53,2,1.71,2.38,3.2,2.43h0c3,.11,6.21-1.29,9.21-3.11h0l-1.42-1.22,2.34.64c4-2.59,7.55-5.76,9.54-6.76h0c-.36,0-3.5-.22-6.6-.22-1.17,0-2.34,0-3.35.1Z" style="fill-rule:evenodd;fill:url(#Безымянный_градиент_318)"/><path d="M54,54.91a22.76,22.76,0,0,0,3,.75" style="fill:none;stroke:#e5f4f1;stroke-miterlimit:10;stroke-width:0.21599999595134278px"/><path d="M37.79,62.72a48.92,48.92,0,0,1,9.9-5.63,80.58,80.58,0,0,1,12.77-3.83" style="fill:none;stroke:#e5f4f1;stroke-miterlimit:10;stroke-width:0.21599999595134278px"/><path d="M50.85,55.88a26.16,26.16,0,0,1,1.57-2.83" style="fill:none;stroke:#e5f4f1;stroke-miterlimit:10;stroke-width:0.21599999595134278px"/><path d="M46.6,57.57a32.5,32.5,0,0,1,1.32-4" style="fill:none;stroke:#e5f4f1;stroke-miterlimit:10;stroke-width:0.21599999595134278px"/><path d="M48.27,56.85a42.61,42.61,0,0,0,4.41,2" style="fill:none;stroke:#e5f4f1;stroke-miterlimit:10;stroke-width:0.21599999595134278px"/><path d="M42.87,59.45a30.4,30.4,0,0,0,4.94,2.37" style="fill:none;stroke:#e5f4f1;stroke-miterlimit:10;stroke-width:0.21599999595134278px"/><path d="M41.87,60c.33-1.41.64-3.16,1.18-4.77" style="fill:none;stroke:#e5f4f1;stroke-miterlimit:10;stroke-width:0.21599999595134278px"/><path d="M52,44a5.85,5.85,0,0,0-2.1,1.36h0a2.87,2.87,0,0,1-.81.58h0a.87.87,0,0,1-.94-.16h0c-.2-.21-.23-.53-.43-.73h0a.83.83,0,0,0-.76-.16h0c-1.24.3-1.65,2-2.29,2.91h0a.62.62,0,0,1-.44.3h0c-.52,0-.68-.7-1.16-.78h0c-.71-.12-1.26.88-1.48,1.41h0c-.3.72-.44,1.74-1,2.28h0c-.33.31-.54.05-.86-.09h0a.85.85,0,0,0-.94.29h0a2.2,2.2,0,0,0-.39,1h0a8.8,8.8,0,0,0,0,3.43h0a3,3,0,0,0,.49,1.25h0c.88,1.1,2.85.89,4.08.78h0a3.47,3.47,0,0,0,1.49-.42h0a1.47,1.47,0,0,0,.73-1.29h0a2.6,2.6,0,0,1-.06-.78h0c.1-.42.6-.59,1-.68h0l1.17-.28h0a2.57,2.57,0,0,0,1.12-.45h0a.9.9,0,0,0,.29-1.08h0c-.18-.31-.61-.49-.62-.85h0c0-.34.36-.56.7-.64h0c.46-.1.93-.09,1.39-.15h0a2.18,2.18,0,0,0,1.28-.52h0a1,1,0,0,0,.24-1.27h0a3.24,3.24,0,0,0-.48-.5h0c-.85-.87,1-1.45,1.55-1.66h0a2.51,2.51,0,0,0,1.58-1.17h0c.55-1.3-.46-2-1.56-2h0A2.33,2.33,0,0,0,52,44Z" style="fill-rule:evenodd;fill:url(#Безымянный_градиент_321)"/><path d="M54.06,44.31A55.55,55.55,0,0,0,47.23,49c-.59.49-1.16,1-1.73,1.52-1.37,1.23-2.76,2.36-4,3.69-.87.89-1.72,1.79-2.56,2.7" style="fill:none;stroke:#2a2182;stroke-miterlimit:10;stroke-width:0.21599999595134278px"/><path d="M43.11,47.3A29.72,29.72,0,0,0,42.74,53a40.29,40.29,0,0,0,5.94.21" style="fill:none;stroke:#2a2182;stroke-miterlimit:10;stroke-width:0.21599999595134278px"/><path d="M47.45,44.87c-.73,2.3-1.28,5.07-1.28,5.07s3.23.05,5.57-.14" style="fill:none;stroke:#2a2182;stroke-miterlimit:10;stroke-width:0.21599999595134278px"/><path d="M39.16,50.88a10.09,10.09,0,0,0,1,4.67,20.51,20.51,0,0,0,4.61,1.24" style="fill:none;stroke:#2a2182;stroke-miterlimit:10;stroke-width:0.21599999595134278px"/><path d="M45.91,39.47c-1.58,2.37-5.45,11.64-6.37,17.71" style="fill:none;stroke:#735ee6;stroke-miterlimit:10;stroke-width:0.21599999595134278px"/><path d="M47,36.78a3.63,3.63,0,0,0-.53,1h0c-.26.62-.74,1.91-.74,1.91s.58-.64.9-.93h0c.27-.24,1.84-1.87,1.1-2.28h0a.28.28,0,0,0-.15,0h0a.92.92,0,0,0-.58.35Z" style="fill-rule:evenodd;fill:url(#Безымянный_градиент_318-2)"/><path d="M47.43,39.69h0a.66.66,0,0,0-.21,0h0a2.68,2.68,0,0,0-.79.36h0c-.45.26-1.36.83-1.36.83h0s.66-.12,1-.15h0c.28,0,2-.29,1.75-.89h0a.39.39,0,0,0-.39-.18Z" style="fill-rule:evenodd;fill:url(#Безымянный_градиент_318-3)"/><path d="M44.52,38c-.21,0-.26.38-.25.56h0a2.73,2.73,0,0,0,.21.84h0c.18.49.59,1.49.59,1.49h0s0-.68,0-1h0c0-.27.07-1.89-.49-1.89h-.08Z" style="fill-rule:evenodd;fill:url(#Безымянный_градиент_318-4)"/><path d="M46.57,41.36h0a.83.83,0,0,0-.24,0h0a2.91,2.91,0,0,0-.78.41h0c-.43.28-1.31.9-1.31.9s.65-.15,1-.2h0c.27,0,2-.4,1.7-1h0a.37.37,0,0,0-.35-.16Z" style="fill-rule:evenodd;fill:url(#Безымянный_градиент_318-5)"/><path d="M43.53,39.84c-.22.07-.25.4-.23.58h0a3.08,3.08,0,0,0,.26.83h0c.21.48.67,1.45.67,1.45s0-.67,0-1h0c0-.26,0-1.86-.58-1.86h-.09Z" style="fill-rule:evenodd;fill:url(#Безымянный_градиент_318-6)"/><path d="M46,43.33h0a1.28,1.28,0,0,0-.3,0h0a3.43,3.43,0,0,0-.88.48h0l-1.5,1.07s.76-.19,1.14-.25h0c.32-.06,2.29-.5,1.94-1.17h0a.42.42,0,0,0-.39-.17Z" style="fill-rule:evenodd;fill:url(#Безымянный_градиент_318-7)"/><path d="M42.43,41.64c-.24.08-.27.46-.25.66h0a3.29,3.29,0,0,0,.32,1h0c.24.54.78,1.66.78,1.66s-.05-.78-.05-1.17h0c0-.3-.08-2.13-.69-2.13h0l-.11,0Z" style="fill-rule:evenodd;fill:url(#Безымянный_градиент_318-8)"/><path d="M44.7,45.55a3.42,3.42,0,0,0-.86.51h0c-.48.36-1.45,1.13-1.45,1.13h0s.74-.22,1.12-.3h0c.32-.06,2.27-.59,1.89-1.24h0a.39.39,0,0,0-.36-.16,1.15,1.15,0,0,0-.34.06Z" style="fill-rule:evenodd;fill:url(#Безымянный_градиент_318-9)"/><path d="M41.4,44c-.24.09-.26.47-.23.67h0a3.58,3.58,0,0,0,.36.94h0c.27.54.86,1.63.86,1.63s-.09-.77-.1-1.16h0c0-.31-.17-2.1-.77-2.1h0a.25.25,0,0,0-.12,0Z" style="fill-rule:evenodd;fill:url(#Безымянный_градиент_318-10)"/><path d="M44,47.91a4.12,4.12,0,0,0-1,.64h0c-.53.44-1.6,1.38-1.6,1.38s.84-.29,1.27-.41h0c.36-.09,2.57-.81,2.1-1.54h0a.43.43,0,0,0-.38-.16h0a1.36,1.36,0,0,0-.43.09Z" style="fill-rule:evenodd;fill:url(#Безымянный_градиент_318-11)"/><path d="M40.23,46.24h0a.4.4,0,0,0-.15,0h0c-.27.12-.27.56-.22.79h0a3.86,3.86,0,0,0,.47,1.06h0c.34.6,1.08,1.81,1.08,1.81s-.15-.88-.18-1.32h0c0-.35-.31-2.37-1-2.37Z" style="fill-rule:evenodd;fill:url(#Безымянный_градиент_318-12)"/><path d="M43,50.42a3.67,3.67,0,0,0-.91.71h0c-.5.48-1.49,1.5-1.49,1.5s.82-.36,1.24-.5h0c.35-.12,2.5-1,2-1.7h0a.4.4,0,0,0-.33-.14,1.17,1.17,0,0,0-.48.13Z" style="fill-rule:evenodd;fill:url(#Безымянный_градиент_318-13)"/><path d="M39.14,49h0a.31.31,0,0,0-.18.05h0c-.26.13-.22.57-.15.8h0a3.65,3.65,0,0,0,.54,1h0c.39.58,1.22,1.73,1.22,1.73h0s-.21-.87-.28-1.31h0C40.23,51,39.8,49,39.14,49Z" style="fill-rule:evenodd;fill:url(#Безымянный_градиент_318-14)"/><path d="M21.37,46.75l2.19,1.06-1.87,0c1,3.36,2.56,6.54,4.9,8.45h0c1.16.94,3.1,2.15,4,.28h0c2.21-4.46-.42-9.78-3.16-13.34h0q-.28-.37-.69-.81h0l-1,1.14.51-1.69a89.15,89.15,0,0,0-7.61-6.49c.84,2.07,1.42,6.8,2.74,11.42Z" style="fill-rule:evenodd;fill:url(#Безымянный_градиент_318-15)"/><path d="M22.42,40.85a25.89,25.89,0,0,1-2.73-1.38" style="fill:none;stroke:#e5f4f1;stroke-miterlimit:10;stroke-width:0.21599999595134278px"/><path d="M29.51,57.47a48.71,48.71,0,0,0-3.76-10.8,81,81,0,0,0-7.12-11.34" style="fill:none;stroke:#e5f4f1;stroke-miterlimit:10;stroke-width:0.21599999595134278px"/><path d="M24.16,43.66a24.45,24.45,0,0,0,.69-3.17" style="fill:none;stroke:#e5f4f1;stroke-miterlimit:10;stroke-width:0.21599999595134278px"/><path d="M26.25,47.75a33,33,0,0,0,1.68-3.92" style="fill:none;stroke:#e5f4f1;stroke-miterlimit:10;stroke-width:0.21599999595134278px"/><path d="M25.48,46.1a41.39,41.39,0,0,1-4.65-1.41" style="fill:none;stroke:#e5f4f1;stroke-miterlimit:10;stroke-width:0.21599999595134278px"/><path d="M27.84,51.64a30.56,30.56,0,0,1-5.31-1.48" style="fill:none;stroke:#e5f4f1;stroke-miterlimit:10;stroke-width:0.21599999595134278px"/><path d="M28.21,52.73a48,48,0,0,0,2.26-4.38" style="fill:none;stroke:#e5f4f1;stroke-miterlimit:10;stroke-width:0.21599999595134278px"/><path d="M13.66,51.16a.79.79,0,0,0-.68.37h0c-.13.25-.07.57-.2.82h0a.87.87,0,0,1-.85.42h0a2.67,2.67,0,0,1-.95-.32h0a5.88,5.88,0,0,0-2.4-.7h0c-1.35,0-2.77,1.14-1.66,2.47h0a2.5,2.5,0,0,0,1.85.67h0c.62,0,2.52.07,2,1.15h0a3.6,3.6,0,0,0-.33.61h0A1.06,1.06,0,0,0,11,57.8h0a2.14,2.14,0,0,0,1.37.13h0a12.87,12.87,0,0,1,1.38-.25h0c.34,0,.77.07.86.4h0c.09.35-.28.65-.35,1h0a.9.9,0,0,0,.59,1h0a2.55,2.55,0,0,0,1.2.11h0l1.2-.08h0c.43,0,.95,0,1.17.36h0a2.78,2.78,0,0,1,.16.77h0a1.45,1.45,0,0,0,1.08,1h0a3.21,3.21,0,0,0,1.54,0h0c1.21-.24,3.16-.61,3.68-1.92h0A2.71,2.71,0,0,0,25,58.93h0a8.81,8.81,0,0,0-1-3.28h0a2.16,2.16,0,0,0-.65-.81h0a.84.84,0,0,0-1,0h0c-.27.22-.39.53-.8.34h0c-.74-.36-1.17-1.29-1.67-1.89h0c-.36-.44-1.17-1.24-1.82-.92h0c-.43.21-.37,1-.88,1.08h0a.62.62,0,0,1-.51-.17h0c-.86-.69-1.72-2.13-2.94-2.13h-.09Z" style="fill-rule:evenodd;fill:url(#Безымянный_градиент_321-2)"/><path d="M6.69,52.68a55.41,55.41,0,0,1,7.89,2.55c.7.3,1.4.62,2.09,1,1.67.79,3.32,1.47,4.93,2.37,1.09.6,2.16,1.22,3.23,1.85" style="fill:none;stroke:#000;stroke-miterlimit:10;stroke-width:0.21599999595134278px"/><path d="M18,52.4a29.77,29.77,0,0,1,2,5.33,40.49,40.49,0,0,1-5.63,1.92" style="fill:none;stroke:#000;stroke-miterlimit:10;stroke-width:0.21599999595134278px"/><path d="M13.18,51.32c1.36,2,2.67,4.48,2.67,4.48s-3.07,1-5.37,1.46" style="fill:none;stroke:#000;stroke-miterlimit:10;stroke-width:0.21599999595134278px"/><path d="M22.84,54.69a10.15,10.15,0,0,1,.36,4.77A20.83,20.83,0,0,1,19.14,62" style="fill:none;stroke:#000;stroke-miterlimit:10;stroke-width:0.21599999595134278px"/><path d="M13.41,44.65c2.37,1.58,9.5,8.65,12.68,13.9" style="fill:none;stroke:#735ee6;stroke-miterlimit:10;stroke-width:0.21599999595134278px"/><path d="M10.54,42.59c-.52.66,1.55,1.56,1.89,1.68h0c.41.15,1.2.52,1.2.52h0s-1-1-1.42-1.49h0a4,4,0,0,0-.88-.71h0a1.09,1.09,0,0,0-.48-.12h0a.39.39,0,0,0-.31.12Z" style="fill-rule:evenodd;fill:url(#Безымянный_градиент_318-16)"/><path d="M12.58,45.36h0a1.37,1.37,0,0,0-.29,0h0c-.18,0-.49.15-.49.37h0c0,.66,1.69.24,2,.15h0c.32-.1,1-.25,1-.25h0l-1.58-.24h0A3.79,3.79,0,0,0,12.58,45.36Z" style="fill-rule:evenodd;fill:url(#Безымянный_градиент_318-17)"/><path d="M14.16,42.77h0c-.65.1.06,1.7.19,1.95h0c.16.3.42.92.42.92h0s0-1.07,0-1.59h0a2.82,2.82,0,0,0-.12-.87h0c-.06-.15-.22-.42-.42-.42Z" style="fill-rule:evenodd;fill:url(#Безымянный_градиент_318-18)"/><path d="M14,46.57h-.19c-.18,0-.49.13-.51.35h0c0,.65,1.68.32,2,.25h0c.33-.08,1-.19,1-.19s-1-.24-1.56-.33h0A3.26,3.26,0,0,0,14,46.57Z" style="fill-rule:evenodd;fill:url(#Безымянный_градиент_318-19)"/><path d="M15.75,44.08c-.65.07,0,1.71.09,2h0c.14.31.36,1,.36,1s.05-1.08.06-1.6h0a3.17,3.17,0,0,0-.08-.87h0c-.05-.16-.2-.44-.41-.44h0Z" style="fill-rule:evenodd;fill:url(#Безымянный_градиент_318-20)"/><path d="M15.13,48.16c-.2,0-.57.13-.59.39h0c-.07.75,1.92.4,2.24.32h0c.38-.09,1.14-.2,1.14-.2s-1.2-.29-1.79-.41h0a4.5,4.5,0,0,0-.81-.11h-.19Z" style="fill-rule:evenodd;fill:url(#Безымянный_градиент_318-21)"/><path d="M17.45,45.31c-.75.07-.06,2,.07,2.27h0c.15.35.4,1.09.4,1.09s.08-1.24.09-1.84h0a3.35,3.35,0,0,0-.07-1h0c-.06-.19-.22-.52-.46-.52h0Z" style="fill-rule:evenodd;fill:url(#Безымянный_градиент_318-22)"/><path d="M17,49.79h-.11c-.2,0-.57.11-.6.36h0c-.1.74,1.9.48,2.22.42h0c.38-.08,1.15-.16,1.15-.16h0s-1.19-.34-1.77-.48h0A3.85,3.85,0,0,0,17,49.79Z" style="fill-rule:evenodd;fill:url(#Безымянный_градиент_318-23)"/><path d="M19.29,47.05c-.75,0-.14,2,0,2.26h0c.14.37.35,1.11.35,1.11s.13-1.23.17-1.83h0a3.71,3.71,0,0,0,0-1h0c-.05-.2-.21-.54-.45-.54h0Z" style="fill-rule:evenodd;fill:url(#Безымянный_градиент_318-24)"/><path d="M18.44,51.7c-.23,0-.67.09-.72.38h0c-.16.85,2.16.66,2.53.61h0c.44-.06,1.33-.11,1.33-.11h0s-1.35-.46-2-.66h0a3.91,3.91,0,0,0-1.12-.22h0Z" style="fill-rule:evenodd;fill:url(#Безымянный_градиент_318-25)"/><path d="M21.24,51.29c.14.42.34,1.29.34,1.29s.22-1.41.3-2.09h0a3.77,3.77,0,0,0,0-1.16h0c0-.23-.2-.64-.49-.64h0c-.86,0-.28,2.24-.16,2.6Z" style="fill-rule:evenodd;fill:url(#Безымянный_градиент_318-26)"/><path d="M19.58,54c-.22.83,2.11.83,2.48.81h0c.44,0,1.33,0,1.33,0s-1.31-.56-1.95-.81h0a3.6,3.6,0,0,0-1.11-.31h-.08c-.24,0-.6.07-.67.33Z" style="fill-rule:evenodd;fill:url(#Безымянный_градиент_318-27)"/><path d="M23.15,53.43c.11.44.24,1.32.24,1.32s.33-1.39.46-2.06h0A3.76,3.76,0,0,0,24,51.54h0c0-.24-.16-.66-.45-.68h0c-.81,0-.41,2.23-.33,2.58Z" style="fill-rule:evenodd;fill:url(#Безымянный_градиент_318-28)"/><path d="M16.8,40.58a.51.51,0,0,0-.09.44h0c.08.51.58,1.15,1,1.1h0a.53.53,0,0,0,.42-.43h0a1.14,1.14,0,0,0-.07-.63h0a1,1,0,0,0-.82-.68h0a.52.52,0,0,0-.4.2Z" style="fill-rule:evenodd;fill:url(#Безымянный_градиент_321-3)"/><path d="M50.45,41.59h0a1.11,1.11,0,0,0-.56.17h0c-.4.21-.85.94-.27,1.28h0a.5.5,0,0,0,.45,0h0c.48-.16,1-.76.92-1.13h0a.54.54,0,0,0-.5-.34h0Z" style="fill-rule:evenodd;fill:url(#Безымянный_градиент_318-29)"/><path d="M14.83,37a.45.45,0,0,0-.07.35h0c.06.39.46.89.75.85h0a.4.4,0,0,0,.33-.33h0a1,1,0,0,0-.05-.5h0a.81.81,0,0,0-.64-.53h0a.43.43,0,0,0-.32.16Z" style="fill-rule:evenodd;fill:url(#Безымянный_градиент_318-30)"/><path d="M54.88,47.59c-.34.08-.82.54-.45.92h0a.4.4,0,0,0,.33.1h0c.4,0,.94-.37.92-.67h0a.4.4,0,0,0-.3-.36h0l-.21,0h0a1.55,1.55,0,0,0-.29,0Z" style="fill-rule:evenodd;fill:url(#Безымянный_градиент_318-31)"/><path d="M14,39.3a.32.32,0,0,0,0,.24h0c0,.28.32.62.52.6h0a.29.29,0,0,0,.23-.24h0a.57.57,0,0,0,0-.34h0a.56.56,0,0,0-.44-.37h0a.31.31,0,0,0-.22.11Z" style="fill-rule:evenodd;fill:url(#Безымянный_градиент_318-32)"/><path d="M53.54,49.9c-.23.08-.52.44-.24.67h0a.32.32,0,0,0,.24,0h0c.27-.06.61-.34.58-.55h0a.32.32,0,0,0-.24-.22H53.8a.75.75,0,0,0-.26,0Z" style="fill-rule:evenodd;fill:url(#Безымянный_градиент_321-4)"/><path d="M44.15,34.9a.68.68,0,0,0-.2.27h0c-.1.22-.05.68.31.64h0a.25.25,0,0,0,.2-.14h0c.16-.23.19-.67,0-.79h0a.23.23,0,0,0-.14,0h0a.33.33,0,0,0-.19.06Z" style="fill-rule:evenodd;fill:url(#Безымянный_градиент_321-5)"/><path d="M9.63,49.25h0c-.23,0-.53.13-.45.42h0a.3.3,0,0,0,.17.18h0c.26.12.7.08.79-.11h0a.28.28,0,0,0-.07-.31h0a.59.59,0,0,0-.3-.16h0Z" style="fill-rule:evenodd;fill:url(#Безымянный_градиент_321-6)"/><path d="M50.22,38.69a.68.68,0,0,0-.29.18h0c-.18.17-.31.61,0,.71h0a.27.27,0,0,0,.24,0h0c.23-.16.43-.55.32-.73h0a.29.29,0,0,0-.24-.11h-.07Z" style="fill-rule:evenodd;fill:url(#Безымянный_градиент_318-33)"/><path d="M35.32,63.56a4.74,4.74,0,0,0,1.38.36,6.65,6.65,0,0,0,1.77-.21,5.92,5.92,0,0,1,.93-.12,5.59,5.59,0,0,1,1.07.13,1.39,1.39,0,0,1,.84.45.39.39,0,0,1,.09.22c0,.28-.39.33-.58.35a5,5,0,0,1-.87,0c.24,0,1.33,0,1.31.36s-.47.24-.66.25c.15,0,.57,0,.55.22s-.21.25-.29.25-.12,0-.24,0a1,1,0,0,1,.24,0c.12,0,.25,0,.26.17s-.62.13-.74.11a2.35,2.35,0,0,1-.45-.14,2.17,2.17,0,0,0-.83-.18c-.34,0-.68,0-1,0a15.29,15.29,0,0,1-2.14,0,3.51,3.51,0,0,1-2.27-.85l.89-1.68.76.34Z" style="fill:#fdb88e"/><path d="M28,57.44l-1.35,1.65L33.16,63l7.22-4.23a19.77,19.77,0,0,0-1.5-1.3h0c-7.21,2-10.92,0-10.92,0Z" style="fill-rule:evenodd;fill:url(#Безымянный_градиент_321-7)"/><path d="M17.79,57.44c-2.54,4.14,17.35,8.48,17.35,8.48h0l.5-2.25s-9.9-7.51-15.18-7.51a2.88,2.88,0,0,0-2.67,1.28Z" style="fill-rule:evenodd;fill:url(#Безымянный_градиент_321-8)"/><path d="M32.19,63.67l.36,1.72s20-3.81,17.5-8h0a2.9,2.9,0,0,0-2.68-1.28h0c-5.28,0-15.18,7.51-15.18,7.51Z" style="fill-rule:evenodd;fill:url(#Безымянный_градиент_321-9)"/><path d="M40,58.43c-2.2.85-10.73,2-12.82-.12,1.94-1.78,2-4.56,1.6-6.79h9A6.62,6.62,0,0,0,40,58.43Z" style="fill:#fdb88e"/><path d="M35.36,64.94l-.22,1s-19.89-4.34-17.35-8.48a2.28,2.28,0,0,1,.77-.8c0,.14.08.29.13.44,1,2.46,4,4.32,6.3,5.33A36,36,0,0,0,34.1,64.7a10.77,10.77,0,0,1,1.26.24Z" style="fill:#443f9e"/><path d="M32.47,64.22l.18,1s20-3.64,17.65-7.87a2.48,2.48,0,0,0-.75-.82,3.66,3.66,0,0,1-.15.43c-1,2.43-4.15,4.18-6.48,5.11a35.88,35.88,0,0,1-9.19,2c-.42,0-.85.1-1.26.19Z" style="fill:#443f9e"/><path d="M39.29,58.66c-2.73.73-9.15,1.42-11.59,0a.83.83,0,0,0,.5-.67,4.7,4.7,0,0,0,1.3-1.44c.76-1.54-.22-3.62.81-5l.05-.06h5.91a7,7,0,0,1,.55,2.58,15.83,15.83,0,0,0,.38,1.79,5.35,5.35,0,0,0,.82,2,2.05,2.05,0,0,0,1.27.75Z" style="fill:#fdb88e"/><path d="M30.31,51.58c-1,1.37,0,3.45-.81,5A4.7,4.7,0,0,1,28.2,58a.83.83,0,0,1-.5.67,2.1,2.1,0,0,1-.49-.37c1.94-1.78,2-4.56,1.6-6.79h1.55Z" style="fill:#ffa67c"/><path d="M40,58.42h0c-.2.07-.44.15-.73.23A2.05,2.05,0,0,1,38,57.91a5.35,5.35,0,0,1-.82-2,15.83,15.83,0,0,1-.38-1.79,7,7,0,0,0-.55-2.58h1.51A6.61,6.61,0,0,0,40,58.42Z" style="fill:#ffa67c"/><path d="M32.4,63.31a4.74,4.74,0,0,1-1.38.36,7.16,7.16,0,0,1-1.78-.21,5.65,5.65,0,0,0-.92-.12,5.59,5.59,0,0,0-1.08.13,1.34,1.34,0,0,0-.83.45.49.49,0,0,0-.1.22c0,.28.39.33.58.35a5.19,5.19,0,0,0,.88,0c-.25,0-1.33-.06-1.31.36s.47.24.65.25c-.15,0-.57,0-.55.22s.22.24.29.25l.25,0a1,1,0,0,0-.25,0c-.11,0-.24,0-.25.17s.61.13.74.11a2.25,2.25,0,0,0,.44-.14,2.18,2.18,0,0,1,.84-.18c.34,0,.68,0,1,0a16.83,16.83,0,0,0,2.13,0A3.49,3.49,0,0,0,34,64.65L33.16,63l-.76.34Z" style="fill:#fdb88e"/><path d="M39,47.83a74.38,74.38,0,0,0,1.33,7.44c.38,1.39,3.36,1.84,4.31,1.91s2.53.27,2.93.33.32.2.56.35a.43.43,0,0,0,.53,0,1.35,1.35,0,0,1,.5-.17,1.84,1.84,0,0,0,.46.06.52.52,0,0,0,.26-.15h.49c.19,0,1-.88,1.09-1.07s-.11-1.87-.52-1.82-.14,1.4-.13,1.5-.23.36-.23.36a1.87,1.87,0,0,0,.1-.55c0-.09-.36-1.28-.49-1.75s-.35-.1-.42-.23-.57,1-.57,1l-.2.13a1.32,1.32,0,0,1-.16.51,1.43,1.43,0,0,1-1.33.59,4.41,4.41,0,0,1-1.45-.47l-2.49-1.17a2.46,2.46,0,0,1-1.21-.9,2.73,2.73,0,0,1-.16-1.58,18.25,18.25,0,0,0-.09-3.22,34.13,34.13,0,0,0-.72-4.26,2.87,2.87,0,0,0-.33-.9c-.38-.56-1.23-.68-1.56-1.21a.42.42,0,0,1-.06-.14c-.78-.25-1.83-.5-3.17-.8,0,0-1.8,6.77,2.73,6.27Z" style="fill:#fdb88e"/><path d="M38.93,47.84H39a74.38,74.38,0,0,0,1.33,7.44c.38,1.39,3.36,1.84,4.31,1.91s2.53.27,2.93.33.32.2.56.35a.43.43,0,0,0,.53,0l.08,0a23,23,0,0,0-3-1.27c-1.14-.24-2.42,0-3.42-.55a4.2,4.2,0,0,1-1.63-3,35.74,35.74,0,0,1-.79-6.1c0-.31-.18-.74-.48-.64a.47.47,0,0,0-.23.28,3,3,0,0,0-.27,1.31Z" style="fill:#ffa67c"/><path d="M39.45,42.36a.42.42,0,0,0,.06.14c.33.53,1.19.65,1.56,1.21a2.87,2.87,0,0,1,.33.9,34.13,34.13,0,0,1,.72,4.26,18.25,18.25,0,0,1,.09,3.22,2.73,2.73,0,0,0,.16,1.58,2.46,2.46,0,0,0,1.21.9l2.49,1.17a4.41,4.41,0,0,0,1.45.47,1.43,1.43,0,0,0,1.33-.59,1.32,1.32,0,0,0,.16-.51,4.94,4.94,0,0,1-1.73.81,20.9,20.9,0,0,1-4.45-2.45c-.43-.41-.32-7.77-1.7-10.15-.21-.37-.76-.66-1.68-1Z" style="fill:#ffa67c"/><path d="M28.71,42.11a26.94,26.94,0,0,0,4.46-1.3c4.26,1,5.93,1.6,5.93,1.6l-.17,5.42s-1.59,1.88-1.15,3.69L29,51.43a23.65,23.65,0,0,0-.55-3.91C28.21,47.32,28.71,42.11,28.71,42.11Z" style="fill:#fdb88e"/><path d="M35.32,41.32s-.26,2.17-1.82,2.17-1.57-2.23-1.57-2.23l.33-2.07a1.61,1.61,0,0,0,1.29.43,3.31,3.31,0,0,0,1.35-.44Z" style="fill:#fdb88e"/><path d="M28.28,47.83A71.42,71.42,0,0,1,27,55.27c-.38,1.39-3.36,1.84-4.31,1.91s-2.53.27-2.93.33-.32.2-.56.35a.43.43,0,0,1-.53,0,1.35,1.35,0,0,0-.5-.17,1.84,1.84,0,0,1-.46.06.52.52,0,0,1-.26-.15h-.49c-.19,0-1-.88-1.09-1.07s.11-1.87.52-1.82.14,1.4.13,1.5.23.36.23.36a1.87,1.87,0,0,1-.1-.55c0-.09.36-1.28.49-1.75s.35-.1.42-.23.57,1,.57,1l.19.13a1.54,1.54,0,0,0,.17.51,1.43,1.43,0,0,0,1.33.59,4.41,4.41,0,0,0,1.45-.47l2.49-1.17a2.46,2.46,0,0,0,1.21-.9,2.73,2.73,0,0,0,.16-1.58,18.25,18.25,0,0,1,.09-3.22,34.13,34.13,0,0,1,.72-4.26,2.64,2.64,0,0,1,.33-.9c.37-.56,1.23-.68,1.56-1.21a.42.42,0,0,0,.06-.14c.78-.25,1.83-.5,3.17-.8,0,0,1.8,6.77-2.73,6.27Z" style="fill:#fdb88e"/><path d="M28.37,47.84h-.09A71.42,71.42,0,0,1,27,55.27c-.38,1.39-3.36,1.84-4.31,1.91s-2.53.27-2.93.33-.32.2-.56.35a.43.43,0,0,1-.53,0l-.08,0a23,23,0,0,1,3-1.27c1.14-.24,2.42,0,3.42-.55a4.2,4.2,0,0,0,1.63-3,35.74,35.74,0,0,0,.79-6.1c0-.31.18-.74.48-.64a.47.47,0,0,1,.23.28,3,3,0,0,1,.27,1.31Z" style="fill:#ffa67c"/><path d="M40,58.42h0Z" style="fill:#fdb88e"/><path d="M28.81,51.52h9a11.42,11.42,0,0,1,1.15-3.69h0l-1.7-6-1.61-.46s-3.45,5.28-7.34,6.49C28.28,47.83,28.45,49.14,28.81,51.52Z" style="fill-rule:evenodd;fill:url(#Безымянный_градиент_323)"/><path d="M33.31,39.11a2,2,0,0,1-1.05-.42v0l2.65-.12h0a2.38,2.38,0,0,1-1.25.56Z" style="fill:#fdb88e"/><path d="M37.76,34.55a.89.89,0,0,1-.46.79,1.26,1.26,0,0,1-.54.08,3.85,3.85,0,0,1-.16,1.08,2.61,2.61,0,0,1-.9,1.3l-.47.46a6.06,6.06,0,0,1-.6.49,2,2,0,0,1-1.1.49h-.3a1.82,1.82,0,0,1-.93-.36l0,0a9,9,0,0,1-1.22-1.06,2.55,2.55,0,0,1-.9-1.3A3.68,3.68,0,0,1,30,35.42a1.27,1.27,0,0,1-.54-.08.9.9,0,0,1-.46-.79c-.06-.54.29-.85.84-.84,0-.59,0-4.21,3.19-4.21h.71c3.21,0,3.24,3.62,3.2,4.21.55,0,.9.3.83.84Z" style="fill:#fdb88e"/><path d="M33.36,39.24h-.13c-.75,0-1.77-1-2.17-1.44a2.55,2.55,0,0,1-.9-1.3A3.68,3.68,0,0,1,30,35.42a1.27,1.27,0,0,1-.54-.08.9.9,0,0,1-.46-.79c-.06-.54.29-.85.84-.84,0-.59,0-4.21,3.19-4.21h.32c-.69.67-2.87,3-2.78,6a4.51,4.51,0,0,0,2.8,3.73Z" style="fill:#ffa67c"/><path d="M33.47,29.55h0Z" style="fill:#231f20"/><path d="M34.9,39.18a3.31,3.31,0,0,1-1.35.44,1.61,1.61,0,0,1-1.29-.43v-.5a2,2,0,0,0,1.05.42h.34a2.38,2.38,0,0,0,1.25-.56Z" style="fill:#ef936f"/><path d="M31.61,40.59l-.12.25Z"/><path d="M27.85,42.36a.42.42,0,0,1-.06.14c-.34.53-1.19.65-1.56,1.21a2.64,2.64,0,0,0-.33.9,34.13,34.13,0,0,0-.72,4.26,18.25,18.25,0,0,0-.09,3.22,2.82,2.82,0,0,1-.16,1.58,2.46,2.46,0,0,1-1.21.9l-2.49,1.17a4.41,4.41,0,0,1-1.45.47,1.43,1.43,0,0,1-1.33-.59,1.54,1.54,0,0,1-.17-.51,5.07,5.07,0,0,0,1.74.81,20.9,20.9,0,0,0,4.45-2.45c.43-.41.32-7.77,1.7-10.15.21-.37.76-.66,1.68-1Z" style="fill:#ffa67c"/><path d="M33.38,56.1a.3.3,0,1,0,.3.3A.3.3,0,0,0,33.38,56.1Zm0,.61a.31.31,0,0,1-.3-.31.31.31,0,0,1,.61,0A.31.31,0,0,1,33.38,56.71Z" style="fill:#eb9e74"/><path d="M38.85,47.82a2.77,2.77,0,0,1-.26.73,13.13,13.13,0,0,0-.81,3c-.05.25-8.09,0-9,0-.19-1.24-.36-2.47-.53-3.71.27.14.26.52.27.82a2,2,0,0,0,1.41,2c1.56.51,3-.4,3.56-.4.9,0,1.45.86,3.76.25C38.28,50.21,38.85,47.83,38.85,47.82Z" style="fill:#f85982"/><path d="M31,51.57l4.25.07a3.56,3.56,0,0,0-2-.59h0A5.55,5.55,0,0,0,31,51.57Z" style="fill-rule:evenodd;fill:url(#Безымянный_градиент_323-2)"/><path d="M33.94,27.45a3.87,3.87,0,0,0-1.35.5h0a14.3,14.3,0,0,1-1.44.48h0a4.22,4.22,0,0,0-1.52.74h0a2.77,2.77,0,0,0-.71,1h0a3,3,0,0,0-.16,1.46h0A3.94,3.94,0,0,0,29,32.85h0a1.92,1.92,0,0,0,.88.76h0a3.21,3.21,0,0,1,0-.7h0a4.65,4.65,0,0,1,.18-1.53h0A2.06,2.06,0,0,1,31,30.31h0a3.39,3.39,0,0,0,.46-.39h0c.06-.07.36-.41.31-.52h0a3.51,3.51,0,0,0,1,1.35h0a11.54,11.54,0,0,0,2.74,1.43h0l.21.09h0a2.14,2.14,0,0,1,.73.42h0a2.09,2.09,0,0,1,.5,1.72h0a.62.62,0,0,0,0,.19h0c.1.3.58.24.77.1h0a1.36,1.36,0,0,0,.44-.61h0a7.08,7.08,0,0,0,.2-2.48h0a6.35,6.35,0,0,0-.16-1.38h0A3.51,3.51,0,0,0,37.48,29h0a4.21,4.21,0,0,0-3.2-1.51h-.34Z" style="fill-rule:evenodd;fill:url(#Безымянный_градиент_324-26)"/></g></g></g></g></svg>