<svg xmlns="http://www.w3.org/2000/svg" xmlns:xlink="http://www.w3.org/1999/xlink" viewBox="0 0 65.23 40.28"><defs><linearGradient id="Безымянный_градиент_384" x1="12494.07" y1="7404.42" x2="14658.16" y2="7404.42" gradientTransform="matrix(0.03, 0, 0, -0.03, -352.85, 227.3)" gradientUnits="userSpaceOnUse"><stop offset="0" stop-color="#381a96"/><stop offset="1" stop-color="#350e71"/></linearGradient><linearGradient id="Безымянный_градиент_403" x1="12965.33" y1="7820.87" x2="12971.45" y2="7466.9" gradientTransform="matrix(0.03, 0, 0, -0.03, -352.85, 227.3)" gradientUnits="userSpaceOnUse"><stop offset="0" stop-color="#3ca9fa"/><stop offset="1" stop-color="#84d5f7"/></linearGradient><linearGradient id="Безымянный_градиент_403-2" x1="12935.86" y1="7709.78" x2="13010.53" y2="7418.85" xlink:href="#Безымянный_градиент_403"/><linearGradient id="Безымянный_градиент_403-3" x1="12952.45" y1="7606.36" x2="13043.45" y2="7386.13" xlink:href="#Безымянный_градиент_403"/><linearGradient id="Безымянный_градиент_390" x1="12969.15" y1="7903.62" x2="12678.16" y2="7406.37" gradientTransform="matrix(0.03, 0, 0, -0.03, -352.85, 227.3)" gradientUnits="userSpaceOnUse"><stop offset="0" stop-color="#7ae2f3"/><stop offset="1" stop-color="#0060d3"/></linearGradient><linearGradient id="Безымянный_градиент_391" x1="12968.35" y1="7906.26" x2="12677.38" y2="7401.86" gradientTransform="matrix(0.03, 0, 0, -0.03, -352.85, 227.3)" gradientUnits="userSpaceOnUse"><stop offset="0" stop-color="#7ad6f3"/><stop offset="1" stop-color="#0045b4"/></linearGradient><linearGradient id="Безымянный_градиент_390-2" x1="12985.52" y1="7866.62" x2="12744.65" y2="7436.88" xlink:href="#Безымянный_градиент_390"/><linearGradient id="Безымянный_градиент_391-2" x1="12989.82" y1="7882.75" x2="12726.42" y2="7378.49" xlink:href="#Безымянный_градиент_391"/><linearGradient id="Безымянный_градиент_392" x1="12863.29" y1="7591.57" x2="12816.25" y2="7451.26" gradientTransform="matrix(0.03, 0, 0, -0.03, -352.85, 227.3)" gradientUnits="userSpaceOnUse"><stop offset="0" stop-color="#7ae7ff"/><stop offset="1" stop-color="#0082c8"/></linearGradient><linearGradient id="Безымянный_градиент_395" x1="12864.9" y1="7590.9" x2="12815.77" y2="7451.75" gradientTransform="matrix(0.03, 0, 0, -0.03, -352.85, 227.3)" gradientUnits="userSpaceOnUse"><stop offset="0" stop-color="#63e0f8"/><stop offset="1" stop-color="#0074c2"/></linearGradient><linearGradient id="Безымянный_градиент_403-4" x1="12920.89" y1="7529.94" x2="12888.99" y2="7451.71" xlink:href="#Безымянный_градиент_403"/><linearGradient id="Безымянный_градиент_395-2" x1="12920.32" y1="7530.74" x2="12887.45" y2="7452.54" xlink:href="#Безымянный_градиент_395"/><linearGradient id="Безымянный_градиент_398" x1="13069.58" y1="7385.9" x2="13118.47" y2="7385.9" gradientTransform="matrix(0.03, 0, 0, -0.03, -352.85, 227.3)" gradientUnits="userSpaceOnUse"><stop offset="0" stop-color="#9bc4fc"/><stop offset="0.99" stop-color="#6188fd"/><stop offset="1" stop-color="#6188fd"/></linearGradient><linearGradient id="Безымянный_градиент_398-2" x1="13006.13" y1="7346.92" x2="13043.55" y2="7346.92" xlink:href="#Безымянный_градиент_398"/><linearGradient id="Безымянный_градиент_398-3" x1="13138.54" y1="7429.44" x2="13163.11" y2="7429.44" xlink:href="#Безымянный_градиент_398"/><linearGradient id="Безымянный_градиент_403-5" x1="12977.5" y1="7510.98" x2="13085.66" y2="7335.02" xlink:href="#Безымянный_градиент_403"/><linearGradient id="Безымянный_градиент_402" x1="13090.11" y1="7492.43" x2="13080.72" y2="7354.26" gradientTransform="matrix(0.03, 0, 0, -0.03, -352.85, 227.3)" gradientUnits="userSpaceOnUse"><stop offset="0" stop-color="#3ba4ff"/><stop offset="1" stop-color="#0070b3"/></linearGradient><linearGradient id="Безымянный_градиент_402-2" x1="13043.52" y1="7411.15" x2="13026.97" y2="7336.56" xlink:href="#Безымянный_градиент_402"/><linearGradient id="Безымянный_градиент_402-3" x1="13140.34" y1="7468.19" x2="13140.34" y2="7413.21" xlink:href="#Безымянный_градиент_402"/><linearGradient id="Безымянный_градиент_403-6" x1="13471.86" y1="7114.18" x2="13696.49" y2="6932.61" xlink:href="#Безымянный_градиент_403"/></defs><g id="Слой_2" data-name="Слой 2"><g id="Слой_1-2" data-name="Слой 1"><g id="Слой_1-3" data-name="Слой_1"><g id="_1281728400" data-name=" 1281728400"><path d="M64.15,6C63,8.17,61.43,10.15,60.68,12.5c-.6,1.89-.64,4-1.78,5.64-1.48,2.1-4.29,2.7-6.4,4.15a8.92,8.92,0,0,0-3.75,6c-.33,2.17.15,4.39,0,6.59s-1.17,4.62-3.27,5.25a5.88,5.88,0,0,1-3.44-.24c-4-1.23-7.35-3.75-11.14-5.4a44.92,44.92,0,0,0-12.47-2.94c-3.74-.45-7.85-.92-10.46-3.64-3-3.16-2.9-8.15-4.71-12.14C2.39,13.8,1,12.07.39,10a12.16,12.16,0,0,1,.93-8.36c.15-.32.3-.64.46-1A5.17,5.17,0,0,1,4.37,0H60.84a5.19,5.19,0,0,1,4.39,2.43A10.13,10.13,0,0,1,64.15,6Z" fill="#efefef"/><path d="M4.37,0a5.07,5.07,0,0,0-.55,0h0a12.93,12.93,0,0,0-2.58,6.2h0a7.47,7.47,0,0,0,1.21,5.56h0c.66.83,1.57,1.43,2.32,2.2h0c2.33,2.39,2.82,6,4.47,8.9h0a12.42,12.42,0,0,0,10,6.15h0a24.65,24.65,0,0,0,4.19-.27h0a22.74,22.74,0,0,1,4.64-.23h0a8.53,8.53,0,0,1,2,.43h0A13.88,13.88,0,0,1,34,31.28h0c2.17,1.7,4.23,3.57,6.89,3.55h0a3.93,3.93,0,0,0,2.22-.63h0c2.2-1.5,1.71-4.87.74-7.35h0c-1-2.49-2.11-5.46-.55-7.64h0c2.15-3,7-1.38,10.32-3h0c2.12-1.07,3.3-3.35,4.72-5.27h0C60.34,8.14,63.31,5.41,63,2h0A5.32,5.32,0,0,0,62.47.26h0A5.2,5.2,0,0,0,60.84,0H4.37Z" fill-rule="evenodd" fill="url(#Безымянный_градиент_384)"/><path d="M14.51,6.07a7.1,7.1,0,0,0-6.67,7h0a7,7,0,0,0,7,7h0a7,7,0,0,0,7-7,10.63,10.63,0,0,0-.42-2.5h0a4.07,4.07,0,0,0-1.11-2.13h0A14.08,14.08,0,0,0,18.9,7.33h0a2.61,2.61,0,0,0-1.27-.59h0a2.85,2.85,0,0,0-.5,0h0a1.46,1.46,0,0,1-.83,0h0c-.28-.14-.46-.41-.75-.54h0a1.73,1.73,0,0,0-.72-.12h-.32Z" fill-rule="evenodd" fill="url(#Безымянный_градиент_403)"/><path d="M8.66,9.5c-.47.4-.35.92-.51,1.45h0a6.15,6.15,0,0,0-.31,2.13h0a7.12,7.12,0,0,0,7,7,7,7,0,0,0,7-7h0a7.41,7.41,0,0,0-.23-1.7h0a6,6,0,0,1-.15-.71h0c0-.31.13-.59,0-.87h0a1,1,0,0,0-.69-.44h0a1.9,1.9,0,0,0-1.15.3h0a8.3,8.3,0,0,1-1.06.57h0a2.29,2.29,0,0,1-1.27.07h0c-.33-.08-.65-.24-1-.32h0a4.91,4.91,0,0,0-2.15.1h0a4.62,4.62,0,0,1-2.21.09h0a13.79,13.79,0,0,1-1.55-.75h0a2.23,2.23,0,0,0-.84-.19h0a1.14,1.14,0,0,0-.78.27Z" fill-rule="evenodd" fill="url(#Безымянный_градиент_403-2)"/><path d="M20.65,11.06a6.52,6.52,0,0,0-.84.41h0a2.36,2.36,0,0,1-1.55.28h0c-.4-.08-.75-.32-1.14-.43h0c-1.48-.43-2.62.9-4,1.24h0a3.61,3.61,0,0,1-1.39,0h0A6.72,6.72,0,0,1,10,12h0a3.93,3.93,0,0,0-1-.39H9a1.14,1.14,0,0,0-1.32.88h0a2.19,2.19,0,0,0,.15.84h0a6.43,6.43,0,0,1,0,.68h0a6.43,6.43,0,0,0,.5,1.74h0a7,7,0,0,0,6.42,4.29h0a7,7,0,0,0,7-7h0a4.76,4.76,0,0,1,.06-1.2h0a.66.66,0,0,0-.26-.76h0a.91.91,0,0,0-.48-.13h0a1.55,1.55,0,0,0-.43.07Z" fill-rule="evenodd" fill="url(#Безымянный_градиент_403-3)"/><path d="M11.11,8a1.41,1.41,0,0,0-.35.34h0a.54.54,0,0,0-.13.44h0a.52.52,0,0,0,.42.36h0a1.42,1.42,0,0,0,.58-.06h0a2.67,2.67,0,0,0,.86-.34h0A1.17,1.17,0,0,0,13,8h0a.35.35,0,0,0,0-.25h0a.46.46,0,0,0-.16-.11h0a1.23,1.23,0,0,0-.5-.09A2.23,2.23,0,0,0,11.11,8Z" fill-rule="evenodd" fill="url(#Безымянный_градиент_390)"/><path d="M11.11,8a1.41,1.41,0,0,0-.35.34h0a.54.54,0,0,0-.13.44h0a.37.37,0,0,0,.12.2h0c0-.43.77-.81.92-.88h0A1.89,1.89,0,0,1,13,8h0V8h0a.35.35,0,0,0,0-.25h0a.46.46,0,0,0-.16-.11h0a1.23,1.23,0,0,0-.5-.09A2.23,2.23,0,0,0,11.11,8Z" fill-rule="evenodd" fill="url(#Безымянный_градиент_391)"/><path d="M13.21,7.24l0,.06h0c.22.25,1,.12.91-.32h0a.37.37,0,0,0-.39-.27c-.33,0-.72.27-.57.53Z" fill-rule="evenodd" fill="url(#Безымянный_градиент_390-2)"/><path d="M13.21,7.24l0,0h0a.45.45,0,0,1,.31-.33h0a.65.65,0,0,1,.34,0h0a.53.53,0,0,1,.31.17h0a.25.25,0,0,0,0-.12h0a.37.37,0,0,0-.39-.27c-.33,0-.72.27-.57.53Z" fill-rule="evenodd" fill="url(#Безымянный_градиент_391-2)"/><path d="M11,14.27h0A1.37,1.37,0,0,0,9.86,15h0v0h0A.79.79,0,0,0,10,16h0a1.2,1.2,0,0,0,1.45-.31h0a1.51,1.51,0,0,0,.22-.44h0a.76.76,0,0,0-.63-1H11Z" fill-rule="evenodd" fill="url(#Безымянный_градиент_392)"/><path d="M9.86,15v0h0A.79.79,0,0,0,10,16h0a1.2,1.2,0,0,0,1.45-.31h0a1.35,1.35,0,0,0,.15-.26,1.3,1.3,0,0,1-.22.19h0a.92.92,0,0,1-1,.13h0a.81.81,0,0,1-.2-1.09h0a1,1,0,0,1,.15-.2h0a1.54,1.54,0,0,0-.49.53Z" fill-rule="evenodd" fill="url(#Безымянный_градиент_395)"/><path d="M12.72,15.18a.58.58,0,0,0-.56.42h0c-.05.19,0,.44.23.47h0a.76.76,0,0,0,.47-.06h0a.78.78,0,0,0,.24-.16h0a.42.42,0,0,0,.11-.46h0a.45.45,0,0,0-.42-.22h-.07Z" fill-rule="evenodd" fill="url(#Безымянный_градиент_403-4)"/><path d="M12.16,15.6c-.05.19,0,.44.23.47h0a.76.76,0,0,0,.47-.06h0a.6.6,0,0,0,.15-.09.54.54,0,0,1-.45,0h0c-.3-.17-.21-.48,0-.7a.52.52,0,0,0-.38.38Z" fill-rule="evenodd" fill="url(#Безымянный_градиент_395-2)"/><path d="M18.31,16.94c-.36.18-.49.77-.63,1.11h0a1.07,1.07,0,0,0,0,.94h0a.87.87,0,0,0,.74-.26h0a2.24,2.24,0,0,0,.45-.68h0a1.76,1.76,0,0,0,.16-.49h0a.58.58,0,0,0-.5-.68h0a.42.42,0,0,0-.23.06Z" fill-rule="evenodd" fill="url(#Безымянный_градиент_398)"/><path d="M15.73,19.4a.27.27,0,0,0,.19.1h0c.34.05,1.2-.24,1.06-.72h0a.3.3,0,0,0-.31-.2c-.44,0-1.15.52-.94.82Z" fill-rule="evenodd" fill="url(#Безымянный_градиент_398-2)"/><path d="M19.57,17a.35.35,0,0,0,.2,0h0a.58.58,0,0,0,.5-.43h0a.21.21,0,0,0,0-.19h0l-.07-.05h0a.59.59,0,0,0-.22-.05h0c-.41,0-.81.47-.39.69Z" fill-rule="evenodd" fill="url(#Безымянный_градиент_398-3)"/><path d="M19.85,12.83a4.2,4.2,0,0,0-1.31.94h0c-.32.37-.53.82-1,1.07h0c-.72.42-1.68.14-2.39.57h0c-.51.3-.77.89-1.2,1.29h0a2,2,0,0,1-1.64.52h0c-.51-.08-1-.34-1.47-.43h0A1.72,1.72,0,0,0,9.63,17h0a.69.69,0,0,0-.1,1h0c.33.41.68.42,1,.69h0a7,7,0,0,0,1.25.77h0a7,7,0,0,0,3,.68h0a7,7,0,0,0,4.8-1.93h0a7.16,7.16,0,0,0,1.51-2.1h0a11.29,11.29,0,0,0,.44-1.23h0c.08-.23.28-.56.38-.78h0a.94.94,0,0,0-.3-1.21h0a2.32,2.32,0,0,0-.91-.19,2.1,2.1,0,0,0-.87.19Z" fill-rule="evenodd" fill="url(#Безымянный_градиент_403-5)"/><path d="M18.16,16.9a1,1,0,0,0-.64.47h0c-.18.29-.53,1.3.05,1.4h0a.36.36,0,0,0,.23-.06h0a2.32,2.32,0,0,0,.81-.89h0a.85.85,0,0,0,.16-.5h0a.53.53,0,0,0-.54-.42h-.07Z" fill-rule="evenodd" fill="url(#Безымянный_градиент_402)"/><path d="M16.58,18.66h0A.77.77,0,0,0,16,19h0c-.14.19,0,.35.21.37h0a.94.94,0,0,0,.37,0h0c.16-.06.41-.23.39-.42h0a.25.25,0,0,0-.16-.2h0a.47.47,0,0,0-.17,0h-.09Z" fill-rule="evenodd" fill="url(#Безымянный_градиент_402-2)"/><path d="M19.41,16.41a.53.53,0,0,0-.15.37h0a.52.52,0,0,0,0,.28h0a.26.26,0,0,0,.44.09h0c.17-.14.37-.53.18-.74h0a.28.28,0,0,0-.24-.1h0a.45.45,0,0,0-.28.1Z" fill-rule="evenodd" fill="url(#Безымянный_градиент_402-3)"/><path d="M24.06,19.1a1.09,1.09,0,0,1-.33-.29,3.45,3.45,0,0,1-.34-.7,2.9,2.9,0,0,1-.34.69,1,1,0,0,1-.33.3,1,1,0,0,1,.33.3,3.08,3.08,0,0,1,.34.7,3.45,3.45,0,0,1,.34-.7A1.22,1.22,0,0,1,24.06,19.1Z" fill="#fff"/><path d="M19.85,21.79a.54.54,0,0,1-.16-.15,1.57,1.57,0,0,1-.17-.35,1.83,1.83,0,0,1-.17.35.54.54,0,0,1-.16.15.54.54,0,0,1,.16.15,1.57,1.57,0,0,1,.17.35,1.38,1.38,0,0,1,.17-.35.54.54,0,0,1,.16-.15Z" fill="#fff"/><path d="M53,10.49a.65.65,0,0,1-.17-.15,1.62,1.62,0,0,1-.16-.35,1.57,1.57,0,0,1-.17.35.51.51,0,0,1-.17.15.51.51,0,0,1,.17.15,1.83,1.83,0,0,1,.17.35,1.88,1.88,0,0,1,.16-.35,1,1,0,0,1,.17-.15Z" fill="#fff"/><path d="M37.26,21.79a.51.51,0,0,1-.17-.15,2.3,2.3,0,0,1-.17-.35,1.53,1.53,0,0,1-.16.35.51.51,0,0,1-.17.15.51.51,0,0,1,.17.15,1.35,1.35,0,0,1,.16.35,1.9,1.9,0,0,1,.17-.35.51.51,0,0,1,.17-.15Z" fill="#fff"/><path d="M21.83,6.56a.51.51,0,0,1-.17-.15,1.38,1.38,0,0,1-.17-.35,1.33,1.33,0,0,1-.17.35.54.54,0,0,1-.16.15.54.54,0,0,1,.16.15,1.33,1.33,0,0,1,.17.35,1.38,1.38,0,0,1,.17-.35.51.51,0,0,1,.17-.15Z" fill="#fff"/><path d="M28.08,28.54a8.53,8.53,0,0,1,2,.43h0A13.88,13.88,0,0,1,34,31.28h0a3.54,3.54,0,0,0,1.2-2.65h0a3.59,3.59,0,0,0-1-2.45h0a3.24,3.24,0,0,0-.89-.68h0a3.52,3.52,0,0,0-5.21,3Z" fill-rule="evenodd" fill="url(#Безымянный_градиент_403-6)"/></g></g></g></g></svg>