<svg xmlns="http://www.w3.org/2000/svg" xmlns:xlink="http://www.w3.org/1999/xlink" viewBox="0 0 211.18 221.92"><defs><linearGradient id="New_Gradient_Swatch_copy_3" y1="184.34" x2="182.55" y2="184.34" gradientUnits="userSpaceOnUse"><stop offset="0" stop-color="#724bcc"/><stop offset="1" stop-color="#3253a1"/></linearGradient><linearGradient id="New_Gradient_Swatch_copy_3-2" x1="71.59" y1="10.74" x2="96.64" y2="10.74" xlink:href="#New_Gradient_Swatch_copy_3"/><linearGradient id="New_Gradient_Swatch_copy_7" x1="71.59" y1="10.74" x2="96.64" y2="10.74" gradientUnits="userSpaceOnUse"><stop offset="0" stop-color="#381a96"/><stop offset="1" stop-color="#350e71"/></linearGradient><linearGradient id="New_Gradient_Swatch_copy_3-3" x1="50.11" y1="42.95" x2="118.12" y2="42.95" xlink:href="#New_Gradient_Swatch_copy_3"/><linearGradient id="New_Gradient_Swatch_copy_7-2" x1="50.11" y1="42.95" x2="118.12" y2="42.95" xlink:href="#New_Gradient_Swatch_copy_7"/><linearGradient id="New_Gradient_Swatch_copy_7-3" x1="35.79" y1="127.07" x2="132.44" y2="127.07" xlink:href="#New_Gradient_Swatch_copy_7"/><linearGradient id="New_Gradient_Swatch_copy_6" x1="75.17" y1="59.06" x2="93.06" y2="59.06" gradientUnits="userSpaceOnUse"><stop offset="0" stop-color="#3ca9fa"/><stop offset="1" stop-color="#84d5f7"/></linearGradient><linearGradient id="New_Gradient_Swatch_copy_6-2" x1="75.17" y1="84.11" x2="93.06" y2="84.11" xlink:href="#New_Gradient_Swatch_copy_6"/><linearGradient id="New_Gradient_Swatch_copy_6-3" x1="75.17" y1="109.17" x2="93.06" y2="109.17" xlink:href="#New_Gradient_Swatch_copy_6"/><linearGradient id="New_Gradient_Swatch_copy_6-4" x1="75.17" y1="134.23" x2="93.06" y2="134.23" xlink:href="#New_Gradient_Swatch_copy_6"/><linearGradient id="New_Gradient_Swatch_copy_6-5" x1="75.17" y1="159.28" x2="93.06" y2="159.28" xlink:href="#New_Gradient_Swatch_copy_6"/><linearGradient id="New_Gradient_Swatch_copy_6-6" x1="50.11" y1="84.11" x2="68.01" y2="84.11" xlink:href="#New_Gradient_Swatch_copy_6"/><linearGradient id="New_Gradient_Swatch_copy_6-7" x1="50.11" y1="109.17" x2="68.01" y2="109.17" xlink:href="#New_Gradient_Swatch_copy_6"/><linearGradient id="New_Gradient_Swatch_copy_6-8" x1="50.11" y1="134.23" x2="68.01" y2="134.23" xlink:href="#New_Gradient_Swatch_copy_6"/><linearGradient id="New_Gradient_Swatch_copy_6-9" x1="50.11" y1="159.28" x2="68.01" y2="159.28" xlink:href="#New_Gradient_Swatch_copy_6"/><linearGradient id="New_Gradient_Swatch_copy_6-10" x1="50.11" y1="59.06" x2="68.01" y2="59.06" xlink:href="#New_Gradient_Swatch_copy_6"/><linearGradient id="New_Gradient_Swatch_copy_6-11" x1="100.22" y1="59.06" x2="118.12" y2="59.06" xlink:href="#New_Gradient_Swatch_copy_6"/><linearGradient id="New_Gradient_Swatch_copy_6-12" x1="100.22" y1="84.11" x2="118.12" y2="84.11" xlink:href="#New_Gradient_Swatch_copy_6"/><linearGradient id="New_Gradient_Swatch_copy_6-13" x1="100.22" y1="109.17" x2="118.12" y2="109.17" xlink:href="#New_Gradient_Swatch_copy_6"/><linearGradient id="New_Gradient_Swatch_copy_6-14" x1="100.22" y1="134.23" x2="118.12" y2="134.23" xlink:href="#New_Gradient_Swatch_copy_6"/><linearGradient id="New_Gradient_Swatch_copy_6-15" x1="100.22" y1="159.28" x2="118.12" y2="159.28" xlink:href="#New_Gradient_Swatch_copy_6"/><linearGradient id="New_Gradient_Swatch_copy_4" x1="71.59" y1="202.23" x2="96.64" y2="202.23" gradientUnits="userSpaceOnUse"><stop offset="0" stop-color="#f67b80"/><stop offset="1" stop-color="#f1b267"/></linearGradient><linearGradient id="New_Gradient_Swatch_copy_3-4" x1="143.17" y1="155.7" x2="211.18" y2="155.7" xlink:href="#New_Gradient_Swatch_copy_3"/><linearGradient id="New_Gradient_Swatch_copy_3-5" x1="153.91" y1="93.06" x2="200.44" y2="93.06" xlink:href="#New_Gradient_Swatch_copy_3"/><linearGradient id="New_Gradient_Swatch_copy_3-6" x1="164.65" y1="66.22" x2="189.71" y2="66.22" xlink:href="#New_Gradient_Swatch_copy_3"/><linearGradient id="New_Gradient_Swatch_copy_3-7" x1="162.86" y1="55.48" x2="191.5" y2="55.48" xlink:href="#New_Gradient_Swatch_copy_3"/><linearGradient id="New_Gradient_Swatch_copy_6-16" x1="157.49" y1="155.7" x2="161.07" y2="155.7" xlink:href="#New_Gradient_Swatch_copy_6"/><linearGradient id="New_Gradient_Swatch_copy_6-17" x1="175.39" y1="155.7" x2="178.97" y2="155.7" xlink:href="#New_Gradient_Swatch_copy_6"/><linearGradient id="New_Gradient_Swatch_copy_6-18" x1="189.71" y1="155.7" x2="193.29" y2="155.7" xlink:href="#New_Gradient_Swatch_copy_6"/></defs><g id="Слой_2" data-name="Слой 2"><g id="Layer_1" data-name="Layer 1"><polygon points="182.55 221.92 0 221.92 0 172.88 26.84 146.75 182.55 146.75 182.55 221.92" style="fill:url(#New_Gradient_Swatch_copy_3)"/><rect x="71.59" width="25.06" height="21.48" style="fill:url(#New_Gradient_Swatch_copy_3-2)"/><polyline points="71.59 0 96.64 0 96.64 21.48" style="fill:url(#New_Gradient_Swatch_copy_7)"/><rect x="50.11" y="7.16" width="68.01" height="71.59" style="fill:url(#New_Gradient_Swatch_copy_3-3)"/><polyline points="50.11 7.16 118.12 7.16 118.12 78.75" style="fill:url(#New_Gradient_Swatch_copy_7-2)"/><rect x="35.79" y="32.21" width="96.64" height="189.71" style="fill:url(#New_Gradient_Swatch_copy_7-3)"/><rect x="75.17" y="50.11" width="17.9" height="17.9" style="fill:url(#New_Gradient_Swatch_copy_6)"/><polyline points="93.06 50.11 93.06 68.01 75.17 68.01" style="fill:#00cbf8"/><rect x="75.17" y="75.17" width="17.9" height="17.9" style="fill:url(#New_Gradient_Swatch_copy_6-2)"/><polyline points="93.06 75.17 93.06 93.06 75.17 93.06" style="fill:#00cbf8"/><rect x="75.17" y="100.22" width="17.9" height="17.9" style="fill:url(#New_Gradient_Swatch_copy_6-3)"/><polyline points="93.06 100.22 93.06 118.12 75.17 118.12" style="fill:#00cbf8"/><rect x="75.17" y="125.28" width="17.9" height="17.9" style="fill:url(#New_Gradient_Swatch_copy_6-4)"/><polyline points="93.06 125.28 93.06 143.17 75.17 143.17" style="fill:#00cbf8"/><rect x="75.17" y="150.33" width="17.9" height="17.9" style="fill:url(#New_Gradient_Swatch_copy_6-5)"/><polyline points="93.06 150.33 93.06 168.23 75.17 168.23" style="fill:#00cbf8"/><rect x="50.11" y="75.17" width="17.9" height="17.9" style="fill:url(#New_Gradient_Swatch_copy_6-6)"/><polyline points="68.01 75.17 68.01 93.06 50.11 93.06" style="fill:#00cbf8"/><rect x="50.11" y="100.22" width="17.9" height="17.9" style="fill:url(#New_Gradient_Swatch_copy_6-7)"/><polyline points="68.01 100.22 68.01 118.12 50.11 118.12" style="fill:#00cbf8"/><rect x="50.11" y="125.28" width="17.9" height="17.9" style="fill:url(#New_Gradient_Swatch_copy_6-8)"/><polyline points="68.01 125.28 68.01 143.17 50.11 143.17" style="fill:#00cbf8"/><rect x="50.11" y="150.33" width="17.9" height="17.9" style="fill:url(#New_Gradient_Swatch_copy_6-9)"/><polyline points="68.01 150.33 68.01 168.23 50.11 168.23" style="fill:#00cbf8"/><rect x="50.11" y="50.11" width="17.9" height="17.9" style="fill:url(#New_Gradient_Swatch_copy_6-10)"/><polyline points="68.01 50.11 68.01 68.01 50.11 68.01" style="fill:#00cbf8"/><rect x="100.22" y="50.11" width="17.9" height="17.9" style="fill:url(#New_Gradient_Swatch_copy_6-11)"/><polyline points="118.12 50.11 118.12 68.01 100.22 68.01" style="fill:#00cbf8"/><rect x="100.22" y="75.17" width="17.9" height="17.9" style="fill:url(#New_Gradient_Swatch_copy_6-12)"/><polyline points="118.12 75.17 118.12 93.06 100.22 93.06" style="fill:#00cbf8"/><rect x="100.22" y="100.22" width="17.9" height="17.9" style="fill:url(#New_Gradient_Swatch_copy_6-13)"/><polyline points="118.12 100.22 118.12 118.12 100.22 118.12" style="fill:#00cbf8"/><rect x="100.22" y="125.28" width="17.9" height="17.9" style="fill:url(#New_Gradient_Swatch_copy_6-14)"/><polyline points="118.12 125.28 118.12 143.17 100.22 143.17" style="fill:#00cbf8"/><rect x="100.22" y="150.33" width="17.9" height="17.9" style="fill:url(#New_Gradient_Swatch_copy_6-15)"/><polyline points="118.12 150.33 118.12 168.23 100.22 168.23" style="fill:#00cbf8"/><path d="M96.64,218.34V190.06c0-2.5-2.5-3.93-5-3.93H76.24c-2.51,0-4.65,1.79-4.65,3.93v28.28Z" style="fill:url(#New_Gradient_Swatch_copy_4)"/><rect x="143.17" y="89.48" width="68.01" height="132.44" style="fill:url(#New_Gradient_Swatch_copy_3-4)"/><rect x="153.91" y="68.01" width="46.53" height="50.11" style="fill:url(#New_Gradient_Swatch_copy_3-5)"/><rect x="164.65" y="42.95" width="25.06" height="46.53" style="fill:url(#New_Gradient_Swatch_copy_3-6)"/><polygon points="162.86 91.99 177.18 4.65 191.5 91.99 177.18 106.31 162.86 91.99" style="fill:url(#New_Gradient_Swatch_copy_3-7)"/><rect x="157.49" y="103.8" width="3.58" height="103.8" style="fill:url(#New_Gradient_Swatch_copy_6-16)"/><rect x="175.39" y="103.8" width="3.58" height="103.8" style="fill:url(#New_Gradient_Swatch_copy_6-17)"/><rect x="189.71" y="103.8" width="3.58" height="103.8" style="fill:url(#New_Gradient_Swatch_copy_6-18)"/></g></g></svg>