<svg xmlns="http://www.w3.org/2000/svg" viewBox="0 0 187.87 187.87"><g id="Слой_2" data-name="Слой 2"><g id="Layer_1" data-name="Layer 1"><path d="M175.2,93.94c0-8,14.46-17.76,12.49-25.12-2-7.62-19.51-8.84-23.36-15.51s3.71-22.5-1.78-28-21.22,2.14-28-1.77S126.67,2.22,119.05.18c-7.36-2-17.13,12.5-25.11,12.5S76.18-1.78,68.82.18C61.2,2.22,60,19.69,53.31,23.55s-22.5-3.72-28,1.77,2.14,21.22-1.77,28S2.22,61.2.18,68.82c-2,7.36,12.5,17.14,12.5,25.12S-1.78,111.69.18,119.05c2,7.62,19.51,8.85,23.37,15.52s-3.72,22.49,1.77,28,21.22-2.14,28,1.78,7.89,21.32,15.51,23.36c7.36,2,17.14-12.49,25.12-12.49s17.75,14.46,25.11,12.49c7.62-2,8.85-19.51,15.52-23.36s22.49,3.71,28-1.78-2.14-21.22,1.78-28,21.32-7.9,23.36-15.52C189.66,111.69,175.2,101.92,175.2,93.94Z" style="fill:#f7de71"/><path d="M156.67,93.94a62.66,62.66,0,1,1-54-62.13A62.73,62.73,0,0,1,156.67,93.94Z" style="fill:#f28f44"/><path d="M156.67,93.94a62.73,62.73,0,0,1-54,62.12,62.73,62.73,0,0,1,0-124.25A62.74,62.74,0,0,1,156.67,93.94Z" style="fill:#f1b267"/><path d="M57.2,84.21a2.88,2.88,0,0,1-2-4.91,16.53,16.53,0,0,1,23.34,0,2.88,2.88,0,1,1-4.07,4.07,10.74,10.74,0,0,0-15.2,0A2.87,2.87,0,0,1,57.2,84.21Z" style="fill:#f7de71"/><path d="M130.68,84.21a2.88,2.88,0,0,1-2-.84,10.75,10.75,0,0,0-15.2,0,2.87,2.87,0,1,1-4.06-4.07,16.52,16.52,0,0,1,23.33,0,2.88,2.88,0,0,1-2,4.91Z" style="fill:#f7de71"/><path d="M93.94,114a23.23,23.23,0,0,1-16.53-6.85,2.87,2.87,0,0,1,4.06-4.07,17.64,17.64,0,0,0,24.93,0,2.88,2.88,0,0,1,4.07,4.07A23.26,23.26,0,0,1,93.94,114Z" style="fill:#f7de71"/></g></g></svg>