<svg xmlns="http://www.w3.org/2000/svg" viewBox="0 0 210.8 178.68"><g id="Слой_2" data-name="Слой 2"><g id="Layer_1" data-name="Layer 1"><path d="M25.79,50.51A36.46,36.46,0,0,1,96.32,40,24.63,24.63,0,0,1,96,89.2H26.47a19.35,19.35,0,0,1-.68-38.69Z" style="fill:#d3dfe2"/><path d="M120.64,64.57a24.62,24.62,0,0,1-14.12,22.28,24.63,24.63,0,0,0-22-35.13A36.47,36.47,0,0,0,31.19,33.53,36.47,36.47,0,0,1,96.32,40,24.62,24.62,0,0,1,120.64,64.57Z" style="fill:#a7a6c4;opacity:0.54"/><path d="M189.78,96.57a41,41,0,0,0-79.36-11.88,27.71,27.71,0,0,0,.33,55.42H189a21.78,21.78,0,0,0,.76-43.54Z" style="fill:#d3dfe2"/><path d="M210.8,118.33A21.78,21.78,0,0,1,189,140.11h-1.69a21.79,21.79,0,0,0-18.54-31.85,41.05,41.05,0,0,0-49.52-37.6,41,41,0,0,1,70.51,25.91A21.77,21.77,0,0,1,210.8,118.33Z" style="fill:#a7a6c4;opacity:0.54"/><path d="M161.47,132.73a3.19,3.19,0,0,1-3.09-2.44,27.52,27.52,0,0,0-1.5-4.49,3.18,3.18,0,1,1,5.84-2.52,34.75,34.75,0,0,1,1.85,5.52,3.19,3.19,0,0,1-3.1,3.93Z" style="fill:#f0f5f7"/><path d="M153.72,118.58a3.13,3.13,0,0,1-2.29-1,27.56,27.56,0,0,0-20-8.56,3.18,3.18,0,1,1,0-6.36A33.87,33.87,0,0,1,156,113.2a3.17,3.17,0,0,1-2.3,5.38Z" style="fill:#f0f5f7"/><path d="M191.08,69.29c0-5.89,10.67-13.1,9.22-18.53-1.5-5.61-14.39-6.52-17.23-11.44s2.74-16.59-1.31-20.64-15.66,1.58-20.65-1.31S155.29,1.64,149.67.14C144.24-1.32,137,9.35,131.14,9.35S118.05-1.32,112.62.14c-5.62,1.5-6.53,14.38-11.45,17.23s-16.59-2.74-20.64,1.31,1.58,15.65-1.31,20.64S63.49,45.15,62,50.76c-1.45,5.43,9.22,12.64,9.22,18.53S60.54,82.39,62,87.82c1.5,5.62,14.39,6.52,17.23,11.44s-2.74,16.59,1.31,20.64,15.65-1.57,20.65,1.31,5.82,15.73,11.44,17.24c5.43,1.45,12.64-9.22,18.52-9.22s13.1,10.67,18.53,9.22c5.62-1.51,6.52-14.39,11.44-17.24s16.6,2.74,20.65-1.31-1.58-15.65,1.31-20.64,15.73-5.82,17.23-11.44C201.75,82.39,191.08,75.18,191.08,69.29Z" style="fill:#f7de71"/><path d="M177.42,69.29a46.29,46.29,0,0,1-39.84,45.83,47.13,47.13,0,0,1-6.43.44,46.27,46.27,0,1,1,0-92.54,47.13,47.13,0,0,1,6.43.44A46.29,46.29,0,0,1,177.42,69.29Z" style="fill:#f28f44"/><path d="M177.42,69.29a46.29,46.29,0,0,1-39.84,45.83,46.28,46.28,0,0,1,0-91.66A46.29,46.29,0,0,1,177.42,69.29Z" style="fill:#f1b267"/><path d="M106.74,96.57A41,41,0,0,0,27.37,84.69a27.71,27.71,0,0,0,.34,55.42H106a21.78,21.78,0,0,0,.76-43.54Z" style="fill:#e6edef"/><path d="M127.76,118.33A21.79,21.79,0,0,1,106,140.11h-1.68a21.79,21.79,0,0,0-18.55-31.85,41,41,0,0,0-49.51-37.6,41,41,0,0,1,70.51,25.91A21.78,21.78,0,0,1,127.76,118.33Z" style="fill:#d9d8ea"/><path d="M172.33,135.14A41,41,0,0,0,93,123.26a27.71,27.71,0,0,0,.34,55.42h78.26a21.78,21.78,0,0,0,.76-43.54Z" style="fill:#f0f5f7"/><path d="M193.35,156.9a21.78,21.78,0,0,1-21.78,21.78h-1.69a21.77,21.77,0,0,0-18.54-31.85,41,41,0,0,0-40.95-38.5,41.66,41.66,0,0,0-8.57.89,41,41,0,0,1,70.51,25.92A21.77,21.77,0,0,1,193.35,156.9Z" style="fill:#d9d8ea"/><path d="M32.47,147.55a29.33,29.33,0,0,1,56.74-8.49A19.81,19.81,0,0,1,89,178.68H33a15.57,15.57,0,0,1-.55-31.13Z" style="fill:#f0f5f7"/><path d="M108.78,158.87a19.8,19.8,0,0,1-19.54,19.8,19.8,19.8,0,0,0-14.35-33.2,29.33,29.33,0,0,0-27.47-19,30.07,30.07,0,0,0-4.37.33,29.33,29.33,0,0,1,46.16,12.3A19.8,19.8,0,0,1,108.78,158.87Z" style="fill:#d9d8ea"/></g></g></svg>