<svg xmlns="http://www.w3.org/2000/svg" xmlns:xlink="http://www.w3.org/1999/xlink" viewBox="0 0 213.93 193.23"><defs><linearGradient id="New_Gradient_Swatch_copy_6" x1="37.6" y1="184.6" x2="47.77" y2="184.6" gradientUnits="userSpaceOnUse"><stop offset="0" stop-color="#3ca9fa"/><stop offset="1" stop-color="#84d5f7"/></linearGradient><linearGradient id="New_Gradient_Swatch_copy_6-2" x1="52.67" y1="136.58" x2="63.03" y2="136.58" xlink:href="#New_Gradient_Swatch_copy_6"/><linearGradient id="New_Gradient_Swatch_copy_6-3" x1="65.93" y1="160.44" x2="76.1" y2="160.44" xlink:href="#New_Gradient_Swatch_copy_6"/><linearGradient id="New_Gradient_Swatch_copy_6-4" x1="81.83" y1="184.6" x2="92" y2="184.6" xlink:href="#New_Gradient_Swatch_copy_6"/><linearGradient id="New_Gradient_Swatch_copy_6-5" x1="96.9" y1="136.58" x2="107.26" y2="136.58" xlink:href="#New_Gradient_Swatch_copy_6"/><linearGradient id="New_Gradient_Swatch_copy_6-6" x1="110.16" y1="160.44" x2="120.33" y2="160.44" xlink:href="#New_Gradient_Swatch_copy_6"/><linearGradient id="New_Gradient_Swatch_copy_6-7" x1="126.36" y1="184.6" x2="136.53" y2="184.6" xlink:href="#New_Gradient_Swatch_copy_6"/><linearGradient id="New_Gradient_Swatch_copy_6-8" x1="141.43" y1="136.58" x2="151.78" y2="136.58" xlink:href="#New_Gradient_Swatch_copy_6"/><linearGradient id="New_Gradient_Swatch_copy_6-9" x1="154.69" y1="160.44" x2="164.86" y2="160.44" xlink:href="#New_Gradient_Swatch_copy_6"/></defs><g id="Слой_2" data-name="Слой 2"><g id="Layer_1" data-name="Layer 1"><path d="M96.32.44a48.26,48.26,0,0,0-50.13,27,6.81,6.81,0,0,1-7,3.94,34,34,0,0,0-9.86.07A35,35,0,0,0,0,65.9,34.5,34.5,0,0,0,61.28,87.3,48.29,48.29,0,1,0,96.32.44Z" style="fill:#a7a6c4"/><path d="M192.72,45.34a6.61,6.61,0,0,1-3.6-4.85,48.27,48.27,0,0,0-81.56-26.56,7,7,0,0,1-7.13,1.6A34.1,34.1,0,0,0,95,14.21c-1.71-.27-4,.3-5.75.3C74,14.51,63.67,26.06,59.12,39.79c-.79,2.39-1.49,4.14-4,4.59C37,47.75,30.07,61.74,30.92,81.08c.9,20.48,8.41,33.08,28.91,33.08h115l22.41-3.75a37.44,37.44,0,0,0,16.63-29A37.9,37.9,0,0,0,192.72,45.34Z" style="fill:#e6e6ef"/><path d="M87.43,110.41c-18.27,0-34.26-13.71-35.58-31.94a34.29,34.29,0,0,1,9.84-26.73,15.14,15.14,0,0,0,4.24-8.48,34.42,34.42,0,0,1,29-29,33.61,33.61,0,0,0-5.25-.41A34.51,34.51,0,0,0,57,37.44a6.87,6.87,0,0,1-5.26,4.64,37.94,37.94,0,0,0-31,39c.9,20.48,18.59,36.23,39.09,36.23h115a40,40,0,0,0,22.41-6.9Z" style="fill:#c8c6db"/><path d="M41.05,193.23a3.37,3.37,0,0,1-1-.17,3.45,3.45,0,0,1-2.26-4.33L41,178.38a3.45,3.45,0,1,1,6.58,2.08l-3.27,10.35a3.45,3.45,0,0,1-3.29,2.42Z" style="fill:url(#New_Gradient_Swatch_copy_6)"/><path d="M48.68,169.07a3.45,3.45,0,0,1-3.29-4.49l3.27-10.35a3.45,3.45,0,1,1,6.58,2.08L52,166.66A3.44,3.44,0,0,1,48.68,169.07Z" style="fill:#3ca9fa"/><path d="M56.13,145.49a3.37,3.37,0,0,1-1-.16A3.44,3.44,0,0,1,52.84,141l3.45-10.92a3.44,3.44,0,1,1,6.57,2.07l-3.45,10.93A3.44,3.44,0,0,1,56.13,145.49Z" style="fill:url(#New_Gradient_Swatch_copy_6-2)"/><path d="M61.76,193.23a3.38,3.38,0,0,1-1-.17,3.44,3.44,0,0,1-2.25-4.33l3.27-10.35a3.45,3.45,0,1,1,6.57,2.08L65,190.81a3.45,3.45,0,0,1-3.28,2.42Z" style="fill:#3ca9fa"/><path d="M69.38,169.07a3.35,3.35,0,0,1-1-.16,3.44,3.44,0,0,1-2.25-4.33l3.26-10.35a3.45,3.45,0,1,1,6.58,2.08l-3.27,10.35A3.44,3.44,0,0,1,69.38,169.07Z" style="fill:url(#New_Gradient_Swatch_copy_6-3)"/><path d="M76.83,145.49a3.37,3.37,0,0,1-1-.16A3.44,3.44,0,0,1,73.54,141L77,130.08a3.45,3.45,0,1,1,6.58,2.07l-3.45,10.93A3.45,3.45,0,0,1,76.83,145.49Z" style="fill:#3ca9fa"/><path d="M85.28,193.23a3.48,3.48,0,0,1-3.29-4.5l3.27-10.35a3.45,3.45,0,1,1,6.58,2.08l-3.27,10.35a3.45,3.45,0,0,1-3.29,2.42Z" style="fill:url(#New_Gradient_Swatch_copy_6-4)"/><path d="M92.91,169.07a3.45,3.45,0,0,1-3.29-4.49l3.27-10.35a3.45,3.45,0,1,1,6.58,2.08L96.2,166.66A3.44,3.44,0,0,1,92.91,169.07Z" style="fill:#3ca9fa"/><path d="M100.35,145.49a3.35,3.35,0,0,1-1-.16A3.44,3.44,0,0,1,97.07,141l3.45-10.92a3.44,3.44,0,1,1,6.57,2.07l-3.45,10.93A3.44,3.44,0,0,1,100.35,145.49Z" style="fill:url(#New_Gradient_Swatch_copy_6-5)"/><path d="M106,193.23a3.38,3.38,0,0,1-1-.17,3.44,3.44,0,0,1-2.25-4.33L106,178.38a3.45,3.45,0,1,1,6.57,2.08l-3.27,10.35a3.45,3.45,0,0,1-3.28,2.42Z" style="fill:#3ca9fa"/><path d="M113.61,169.07a3.35,3.35,0,0,1-1-.16,3.44,3.44,0,0,1-2.25-4.33l3.26-10.35a3.45,3.45,0,1,1,6.58,2.08l-3.27,10.35A3.44,3.44,0,0,1,113.61,169.07Z" style="fill:url(#New_Gradient_Swatch_copy_6-6)"/><path d="M121.06,145.49a3.37,3.37,0,0,1-1-.16,3.44,3.44,0,0,1-2.25-4.33l3.45-10.92a3.45,3.45,0,1,1,6.58,2.07l-3.45,10.93A3.46,3.46,0,0,1,121.06,145.49Z" style="fill:#3ca9fa"/><path d="M129.81,193.23a3.48,3.48,0,0,1-1-.17,3.44,3.44,0,0,1-2.25-4.33l3.27-10.35a3.45,3.45,0,1,1,6.58,2.08l-3.27,10.35a3.45,3.45,0,0,1-3.29,2.42Z" style="fill:url(#New_Gradient_Swatch_copy_6-7)"/><path d="M137.44,169.07a3.37,3.37,0,0,1-1-.16,3.44,3.44,0,0,1-2.25-4.33l3.27-10.35a3.45,3.45,0,0,1,6.58,2.08l-3.27,10.35A3.45,3.45,0,0,1,137.44,169.07Z" style="fill:#3ca9fa"/><path d="M144.88,145.49a3.45,3.45,0,0,1-3.29-4.49L145,130.08a3.45,3.45,0,1,1,6.58,2.07l-3.45,10.93A3.44,3.44,0,0,1,144.88,145.49Z" style="fill:url(#New_Gradient_Swatch_copy_6-8)"/><path d="M150.51,193.23a3.48,3.48,0,0,1-3.29-4.5l3.27-10.35a3.45,3.45,0,1,1,6.58,2.08l-3.27,10.35a3.45,3.45,0,0,1-3.29,2.42Z" style="fill:#3ca9fa"/><path d="M158.14,169.07a3.45,3.45,0,0,1-3.29-4.49l3.27-10.35a3.45,3.45,0,0,1,6.58,2.08l-3.27,10.35A3.44,3.44,0,0,1,158.14,169.07Z" style="fill:url(#New_Gradient_Swatch_copy_6-9)"/><path d="M165.58,145.49a3.35,3.35,0,0,1-1-.16A3.44,3.44,0,0,1,162.3,141l3.45-10.92a3.44,3.44,0,1,1,6.57,2.07l-3.45,10.93A3.44,3.44,0,0,1,165.58,145.49Z" style="fill:#3ca9fa"/><path d="M198.2,28.22a6.84,6.84,0,0,1-4.6-3.68A31,31,0,0,0,169,7.08a33.29,33.29,0,0,0-3.45.06c-14.25,0-24.46,11.34-28.11,24.43-.74,2.68-2,8.27-4.73,8.5-2.14.17-6-2.64-8.36-1.4-4.81,2.58-5.8,5.24-6.54,10.65-1.45,10.61,3,17.91,13.29,17.91h61.31l16-5.12a19.94,19.94,0,0,0,5.29-11.19,20.7,20.7,0,0,0-15.57-22.7Z" style="fill:#c8c6db"/><path d="M172.52,62.11a27.62,27.62,0,0,1-3.5-55,29.3,29.3,0,0,0-3.4-.19,31.05,31.05,0,0,0-29.91,22.7,6.78,6.78,0,0,1-5.88,4.95A17.25,17.25,0,0,0,131.12,69h61.31a22.26,22.26,0,0,0,16-6.9Z" style="fill:#a7a6c4"/></g></g></svg>