<svg xmlns="http://www.w3.org/2000/svg" xmlns:xlink="http://www.w3.org/1999/xlink" viewBox="0 0 220.2 197.95"><defs><linearGradient id="New_Gradient_Swatch_copy_3" x1="78.28" y1="125.87" x2="204.94" y2="125.87" gradientUnits="userSpaceOnUse"><stop offset="0" stop-color="#724bcc"/><stop offset="1" stop-color="#3253a1"/></linearGradient><linearGradient id="New_Gradient_Swatch_copy_4" x1="12.17" y1="141.8" x2="208.13" y2="141.8" gradientUnits="userSpaceOnUse"><stop offset="0" stop-color="#f67b80"/><stop offset="1" stop-color="#f1b267"/></linearGradient><linearGradient id="New_Gradient_Swatch_copy_4-2" x1="110.09" y1="45.01" x2="155.1" y2="45.01" gradientTransform="matrix(-1, 0, 0, 1, 318.22, 0)" xlink:href="#New_Gradient_Swatch_copy_4"/><linearGradient id="New_Gradient_Swatch_copy_7" x1="72.71" y1="41.28" x2="98.34" y2="41.28" gradientUnits="userSpaceOnUse"><stop offset="0" stop-color="#381a96"/><stop offset="1" stop-color="#350e71"/></linearGradient><linearGradient id="New_Gradient_Swatch_copy_7-2" x1="60.09" y1="81.32" x2="80.68" y2="81.32" xlink:href="#New_Gradient_Swatch_copy_7"/><linearGradient id="New_Gradient_Swatch_copy_7-3" x1="188.34" y1="45.05" x2="199.08" y2="45.05" xlink:href="#New_Gradient_Swatch_copy_7"/><linearGradient id="New_Gradient_Swatch_copy_7-4" x1="127.17" y1="44.97" x2="137.9" y2="44.97" xlink:href="#New_Gradient_Swatch_copy_7"/><linearGradient id="New_Gradient_Swatch_copy_7-5" x1="159.1" y1="75.6" x2="167.07" y2="75.6" xlink:href="#New_Gradient_Swatch_copy_7"/><linearGradient id="New_Gradient_Swatch_copy_7-6" x1="146.93" y1="30.47" x2="167.14" y2="30.47" xlink:href="#New_Gradient_Swatch_copy_7"/><linearGradient id="New_Gradient_Swatch_copy_7-7" x1="0" y1="192.9" x2="220.2" y2="192.9" xlink:href="#New_Gradient_Swatch_copy_7"/></defs><g id="Слой_2" data-name="Слой 2"><g id="Layer_1" data-name="Layer 1"><circle cx="62.35" cy="125.87" r="15.93" style="fill:#f1b267"/><path d="M204.94,141.8H78.28V125.2a15.27,15.27,0,0,1,15.27-15.27h79.53a31.86,31.86,0,0,1,31.86,31.87Z" style="fill:url(#New_Gradient_Swatch_copy_3)"/><polygon points="33.67 141.8 33.67 87.63 12.16 87.63 12.16 195.97 208.13 195.97 208.13 141.8 33.67 141.8" style="fill:url(#New_Gradient_Swatch_copy_4)"/><circle cx="163.12" cy="45.01" r="45.01" style="fill:#93e7f8"/><path d="M163.12,0h0a45,45,0,0,1,0,90h0Z" style="fill:url(#New_Gradient_Swatch_copy_4-2)"/><path d="M76.7,36.43h8L73.88,47.3a4,4,0,0,0,2.82,6.8H94.36a4,4,0,0,0,0-8h-8L97.18,35.27a4,4,0,0,0-2.82-6.8H76.7a4,4,0,1,0,0,8Z" style="fill:url(#New_Gradient_Swatch_copy_7)"/><path d="M64.08,79h3l-5.82,5.82a4,4,0,0,0,2.82,6.8H76.7a4,4,0,1,0,0-8h-3l5.82-5.82A4,4,0,0,0,76.7,71H64.08a4,4,0,1,0,0,8Z" style="fill:url(#New_Gradient_Swatch_copy_7-2)"/><path d="M192.33,49h2.77a4,4,0,0,0,0-8h-2.77a4,4,0,1,0,0,8Z" style="fill:url(#New_Gradient_Swatch_copy_7-3)"/><path d="M137.9,45a4,4,0,0,0-4-4h-2.77a4,4,0,0,0,0,8h2.77A4,4,0,0,0,137.9,45Z" style="fill:url(#New_Gradient_Swatch_copy_7-4)"/><path d="M163.09,70.23a4,4,0,0,0-4,4V77a4,4,0,1,0,8,0V74.21A4,4,0,0,0,163.09,70.23Z" style="fill:url(#New_Gradient_Swatch_copy_7-5)"/><path d="M150.91,49h12.21a4,4,0,0,0,4-4l0-29.07a4,4,0,0,0-4-4h0a4,4,0,0,0-4,4l0,25.1h-8.24a4,4,0,1,0,0,8Z" style="fill:url(#New_Gradient_Swatch_copy_7-6)"/><rect y="187.84" width="220.2" height="10.1" rx="3.87" style="fill:url(#New_Gradient_Swatch_copy_7-7)"/></g></g></svg>