<svg xmlns="http://www.w3.org/2000/svg" xmlns:xlink="http://www.w3.org/1999/xlink" viewBox="0 0 209.19 213.87"><defs><linearGradient id="New_Gradient_Swatch_copy_6" x1="85.28" y1="135.45" x2="195.42" y2="135.45" gradientUnits="userSpaceOnUse"><stop offset="0" stop-color="#3ca9fa"/><stop offset="1" stop-color="#84d5f7"/></linearGradient><linearGradient id="New_Gradient_Swatch_copy_3" x1="9.55" y1="179.45" x2="209.19" y2="179.45" gradientUnits="userSpaceOnUse"><stop offset="0" stop-color="#724bcc"/><stop offset="1" stop-color="#3253a1"/></linearGradient><linearGradient id="New_Gradient_Swatch_copy_3-2" x1="16.44" y1="200.1" x2="202.3" y2="200.1" xlink:href="#New_Gradient_Swatch_copy_3"/><linearGradient id="New_Gradient_Swatch_copy_7" x1="109.37" y1="34.9" x2="171.32" y2="34.9" gradientUnits="userSpaceOnUse"><stop offset="0" stop-color="#381a96"/><stop offset="1" stop-color="#350e71"/></linearGradient><linearGradient id="New_Gradient_Swatch_copy_4" x1="26.76" y1="158.81" x2="61.18" y2="158.81" gradientUnits="userSpaceOnUse"><stop offset="0" stop-color="#f67b80"/><stop offset="1" stop-color="#f1b267"/></linearGradient><linearGradient id="New_Gradient_Swatch_copy_7-2" x1="16.44" y1="189.78" x2="202.3" y2="189.78" xlink:href="#New_Gradient_Swatch_copy_7"/><linearGradient id="New_Gradient_Swatch_copy_4-2" x1="59.18" y1="155.36" x2="74.95" y2="155.36" xlink:href="#New_Gradient_Swatch_copy_4"/><linearGradient id="New_Gradient_Swatch_copy_4-3" x1="43.97" y1="45.01" x2="90.02" y2="45.01" xlink:href="#New_Gradient_Swatch_copy_4"/><linearGradient id="New_Gradient_Swatch_copy_7-3" x1="70.23" y1="45.05" x2="80.97" y2="45.05" xlink:href="#New_Gradient_Swatch_copy_7"/><linearGradient id="New_Gradient_Swatch_copy_7-4" x1="9.05" y1="44.97" x2="19.79" y2="44.97" xlink:href="#New_Gradient_Swatch_copy_7"/><linearGradient id="New_Gradient_Swatch_copy_7-5" x1="40.99" y1="75.6" x2="48.96" y2="75.6" xlink:href="#New_Gradient_Swatch_copy_7"/><linearGradient id="New_Gradient_Swatch_copy_7-6" x1="28.81" y1="30.47" x2="49.03" y2="30.47" xlink:href="#New_Gradient_Swatch_copy_7"/></defs><g id="Слой_2" data-name="Слой 2"><g id="Layer_1" data-name="Layer 1"><path d="M180.2,106.45l-25-8.13-14.83,15.73L125.51,98.32l-25,8.13a20.68,20.68,0,0,0-15.21,19.93v46.19H195.42V126.38A20.69,20.69,0,0,0,180.2,106.45Z" style="fill:url(#New_Gradient_Swatch_copy_6)"/><path d="M171.32,124.38h6.89v48.19h-6.89Z" style="fill:#1e81ce"/><path d="M102.49,124.38h6.88v48.19h-6.88Z" style="fill:#1e81ce"/><path d="M209.19,172.57v13.76H9.55V172.57H209.19Z" style="fill:url(#New_Gradient_Swatch_copy_3)"/><path d="M16.44,186.33H202.3v27.54H16.44Z" style="fill:url(#New_Gradient_Swatch_copy_3-2)"/><path d="M171.32,45.21V55.54h-1a17.62,17.62,0,0,1-2.41-.14,20.6,20.6,0,0,1-16.08-11.29l-1.17-2.34L145,47.49a27.49,27.49,0,0,1-19.45,8H109.37V45.21a31,31,0,0,1,61.95,0Z" style="fill:url(#New_Gradient_Swatch_copy_7)"/><path d="M150.67,88a27.54,27.54,0,0,1-37.86-25.54V55.54h12.7a27.49,27.49,0,0,0,19.45-8l5.71-5.72,1.17,2.34A20.6,20.6,0,0,0,167.92,55.4l0,.14v6.88A27.55,27.55,0,0,1,150.67,88Z" style="fill:#ffcd97"/><path d="M155.18,98.32l-14.83,15.73L125.51,98.32,130,96.84V88a27.62,27.62,0,0,0,20.65,0v8.88Z" style="fill:#f1b267"/><path d="M61.18,145v10.33a15.07,15.07,0,0,1-.2,2.41,17.19,17.19,0,0,1-34.22-2.41V145Z" style="fill:url(#New_Gradient_Swatch_copy_4)"/><path d="M16.44,186.33H202.3v6.89H16.44Z" style="fill:url(#New_Gradient_Swatch_copy_7-2)"/><path d="M64.62,165.68a10.36,10.36,0,0,1-5.44-1.54l3.59-5.85a3.45,3.45,0,1,0,1.85-6.37H61.18V145h3.44a10.33,10.33,0,1,1,0,20.65Z" style="fill:url(#New_Gradient_Swatch_copy_4-2)"/><path d="M44,134.71H37.09v-5.17a1.72,1.72,0,0,0-1.72-1.72H25a8.61,8.61,0,0,1,0-17.21h3.44a1.72,1.72,0,0,0,1.72-1.72v-5.16h6.89v5.16a8.61,8.61,0,0,1-8.61,8.61H25a1.72,1.72,0,1,0,0,3.44H35.37a8.6,8.6,0,0,1,8.6,8.6Z" style="fill:#c8c6db"/><path d="M61.18,134.71H54.3V126.1a1.72,1.72,0,0,0-1.72-1.72,8.61,8.61,0,1,1,0-17.21H56a1.72,1.72,0,0,0,1.72-1.72v-5.16h6.88v5.16a8.6,8.6,0,0,1-8.6,8.6H52.58a1.73,1.73,0,0,0,0,3.45,8.6,8.6,0,0,1,8.6,8.6Z" style="fill:#c8c6db"/><path d="M143.21,160.71l-5.73-3.82,2.8-4.19A17.18,17.18,0,0,1,154.6,145h30.49v6.89H154.6a10.27,10.27,0,0,0-8.6,4.59Z" style="fill:#f7f6fb"/><path d="M137.48,160.71l-2.8-4.2a10.28,10.28,0,0,0-8.59-4.59H95.6V145h30.49a17.19,17.19,0,0,1,14.33,7.67l2.79,4.19Z" style="fill:#c8c6db"/><path d="M140.35,158.8h41.3v13.77h-41.3Z" style="fill:#f7f6fb"/><path d="M99,158.8h41.31v13.77H99Z" style="fill:#c8c6db"/><circle cx="45.01" cy="45.01" r="45.01" style="fill:#93e7f8"/><path d="M45,0c-.35,0-.69,0-1,0V90c.35,0,.69,0,1,0A45,45,0,0,0,45,0Z" style="fill:url(#New_Gradient_Swatch_copy_4-3)"/><path d="M74.21,49H77a4,4,0,1,0,0-8H74.21a4,4,0,0,0,0,8Z" style="fill:url(#New_Gradient_Swatch_copy_7-3)"/><path d="M19.79,45a4,4,0,0,0-4-4H13a4,4,0,1,0,0,8h2.77A4,4,0,0,0,19.79,45Z" style="fill:url(#New_Gradient_Swatch_copy_7-4)"/><path d="M45,70.23a4,4,0,0,0-4,4V77a4,4,0,1,0,8,0V74.21A4,4,0,0,0,45,70.23Z" style="fill:url(#New_Gradient_Swatch_copy_7-5)"/><path d="M32.79,49H45a4,4,0,0,0,4-4l0-29.07a4,4,0,0,0-4-4h0a4,4,0,0,0-4,4L41,41H32.79a4,4,0,0,0,0,8Z" style="fill:url(#New_Gradient_Swatch_copy_7-6)"/></g></g></svg>