<svg xmlns="http://www.w3.org/2000/svg" xmlns:xlink="http://www.w3.org/1999/xlink" viewBox="0 0 492.05 312.7"><defs><linearGradient id="New_Gradient_Swatch_copy" x1="274.03" y1="251.49" x2="476.95" y2="251.49" gradientUnits="userSpaceOnUse"><stop offset="0" stop-color="#8e61ea"/><stop offset="1" stop-color="#735ee6"/></linearGradient><linearGradient id="New_Gradient_Swatch_copy_3" x1="279.68" y1="184.24" x2="423.67" y2="184.24" gradientUnits="userSpaceOnUse"><stop offset="0" stop-color="#724bcc"/><stop offset="1" stop-color="#3253a1"/></linearGradient><linearGradient id="New_Gradient_Swatch_copy-2" x1="107.06" y1="145.7" x2="220.31" y2="145.7" xlink:href="#New_Gradient_Swatch_copy"/><linearGradient id="New_Gradient_Swatch_copy_3-2" x1="0" y1="236.86" x2="163.68" y2="236.86" xlink:href="#New_Gradient_Swatch_copy_3"/><clipPath id="clip-path" transform="translate(12.01)"><path d="M371.93,260.36,392.56,266c35.5-22.89,66.74-50.91,84.39-59.76-4.47-.4-55.48-3.43-88-1.07l-6.5,14.12-.17-13.53c-3.43.37-6.56.81-9.27,1.35-38.8,7.75-87,27.78-98.24,70.06-4.7,17.76,15.14,21,28.25,21.46,26.61,1,55-11.41,81.44-27.52Z" style="fill:url(#New_Gradient_Swatch_copy)"/></clipPath><clipPath id="clip-path-2" transform="translate(12.01)"><path d="M321.49,244.58c-10.84,1-28.32,2.85-36.05-6.9-2.47-3.12-3.58-7.08-4.34-11a77.85,77.85,0,0,1,.16-30.38c.62-3,1.48-6.13,3.47-8.48s5.43-3.75,8.27-2.55,4.66,3.55,7.64.83c5.34-4.85,6.59-13.87,9.28-20.23,1.94-4.61,6.82-13.46,13.07-12.43,4.25.69,5.64,7.23,10.25,6.92a5.56,5.56,0,0,0,3.93-2.7c5.62-8.22,9.24-23.05,20.19-25.72a7.16,7.16,0,0,1,6.7,1.47c1.78,1.77,2.12,4.59,3.82,6.44,2,2.19,5.51,2.41,8.3,1.36s5-3.14,7.24-5.13c5.5-5,11.43-9.81,18.51-12,11.41-3.56,26.36,2.57,20.37,16.7-2.34,5.5-8.37,8.33-14,10.34-5.2,1.86-21.16,7.07-13.72,14.74,1.43,1.48,3.19,2.66,4.28,4.4,2.19,3.5.86,8.39-2.12,11.25s-7.19,4.05-11.29,4.57-8.27.48-12.31,1.36c-3,.66-6.4,2.58-6.25,5.63s4,4.76,5.52,7.53c1.76,3.12.18,7.27-2.58,9.56s-6.38,3.16-9.88,4l-10.38,2.42c-3.72.86-8.08,2.33-9,6-.56,2.25.42,4.57.59,6.89.34,4.59-2.62,8.95-6.51,11.4S326.07,244.17,321.49,244.58Z" style="fill:url(#New_Gradient_Swatch_copy_3)"/></clipPath><linearGradient id="New_Gradient_Swatch_copy-4" x1="346.91" y1="71.83" x2="366.37" y2="71.83" xlink:href="#New_Gradient_Swatch_copy"/><linearGradient id="New_Gradient_Swatch_copy-5" x1="340.82" y1="91.66" x2="365.4" y2="91.66" xlink:href="#New_Gradient_Swatch_copy"/><linearGradient id="New_Gradient_Swatch_copy-6" x1="333.75" y1="84.21" x2="341.16" y2="84.21" xlink:href="#New_Gradient_Swatch_copy"/><linearGradient id="New_Gradient_Swatch_copy-7" x1="333.39" y1="106.96" x2="357.5" y2="106.96" xlink:href="#New_Gradient_Swatch_copy"/><linearGradient id="New_Gradient_Swatch_copy-8" x1="325.17" y1="100.2" x2="333.39" y2="100.2" xlink:href="#New_Gradient_Swatch_copy"/><linearGradient id="New_Gradient_Swatch_copy-9" x1="325.05" y1="125.45" x2="352.63" y2="125.45" xlink:href="#New_Gradient_Swatch_copy"/><linearGradient id="New_Gradient_Swatch_copy-10" x1="315.23" y1="117.9" x2="325.05" y2="117.9" xlink:href="#New_Gradient_Swatch_copy"/><linearGradient id="New_Gradient_Swatch_copy-11" x1="317.13" y1="145.04" x2="344.22" y2="145.04" xlink:href="#New_Gradient_Swatch_copy"/><linearGradient id="New_Gradient_Swatch_copy-12" x1="306.3" y1="138.14" x2="317.13" y2="138.14" xlink:href="#New_Gradient_Swatch_copy"/><linearGradient id="New_Gradient_Swatch_copy-13" x1="308.49" y1="167.5" x2="338.88" y2="167.5" xlink:href="#New_Gradient_Swatch_copy"/><linearGradient id="New_Gradient_Swatch_copy-14" x1="294.58" y1="160.5" x2="308.49" y2="160.5" xlink:href="#New_Gradient_Swatch_copy"/><linearGradient id="New_Gradient_Swatch_copy-15" x1="301.06" y1="190.36" x2="330.18" y2="190.36" xlink:href="#New_Gradient_Swatch_copy"/><linearGradient id="New_Gradient_Swatch_copy-16" x1="285.02" y1="184.81" x2="301.06" y2="184.81" xlink:href="#New_Gradient_Swatch_copy"/><clipPath id="clip-path-3" transform="translate(12.01)"><path d="M150.67,158l-19.34-9.38c-11.7-40.78-16.79-82.63-24.27-101,3.64,2.66,44.22,34.1,67.27,57.42l-4.43,15L179,109.94c2.35,2.55,4.42,5,6.11,7.16C209.3,148.62,232.53,195.67,213,235c-8.19,16.54-25.33,5.86-35.55-2.45-20.75-16.88-34-45-43.37-74.68Z" style="fill:url(#New_Gradient_Swatch_copy-2)"/></clipPath><clipPath id="clip-path-4" transform="translate(12.01)"><path d="M129.9,285.15c10.66-2.19,27.94-5.42,32.54-17,1.47-3.7,1.39-7.82,1-11.77a78.09,78.09,0,0,0-8.9-29c-1.46-2.72-3.17-5.44-5.76-7.12s-6.28-2-8.65-.06-3.45,4.73-7.08,3c-6.51-3.11-10.3-11.39-14.7-16.7-3.19-3.86-10.41-10.93-16.09-8.15-3.87,1.89-3.33,8.55-7.83,9.58a5.54,5.54,0,0,1-4.53-1.45C82.14,200.2,74.42,187,63.17,187.64a7.15,7.15,0,0,0-6,3.33c-1.19,2.2-.7,5-1.8,7.26-1.3,2.68-4.58,3.9-7.55,3.69s-5.72-1.56-8.41-2.83c-6.7-3.18-13.77-6.1-21.18-6.18-11.95-.13-24.5,10-14.7,21.85,3.82,4.6,10.41,5.56,16.38,5.87,5.51.29,22.29.68,17.38,10.17-1,1.82-2.3,3.46-2.84,5.44-1.09,4,1.59,8.28,5.26,10.17s8.06,1.8,12.13,1.12,8.06-1.92,12.18-2.23c3-.23,6.86.62,7.6,3.59s-2.43,5.7-3.12,8.8c-.78,3.5,1.92,7,5.22,8.41s7,1.19,10.6,1L95,266.39c3.8-.24,8.4-.09,10.34,3.19,1.19,2,.92,4.5,1.42,6.76,1,4.49,5.09,7.82,9.52,9.05S125.4,286.08,129.9,285.15Z" style="fill:url(#New_Gradient_Swatch_copy_3-2)"/></clipPath><linearGradient id="New_Gradient_Swatch_copy_7" x1="-12.01" y1="239.02" x2="180.47" y2="239.02" gradientUnits="userSpaceOnUse"><stop offset="0" stop-color="#381a96"/><stop offset="1" stop-color="#350e71"/></linearGradient><linearGradient id="New_Gradient_Swatch_copy_7-2" x1="39.46" y1="224.24" x2="119.93" y2="224.24" xlink:href="#New_Gradient_Swatch_copy_7"/><linearGradient id="New_Gradient_Swatch_copy_7-3" x1="18.1" y1="208.69" x2="83.25" y2="208.69" xlink:href="#New_Gradient_Swatch_copy_7"/><linearGradient id="New_Gradient_Swatch_copy_7-4" x1="95.42" y1="248.28" x2="149.27" y2="248.28" xlink:href="#New_Gradient_Swatch_copy_7"/><linearGradient id="New_Gradient_Swatch_copy-18" x1="34.83" y1="121.07" x2="62.86" y2="121.07" xlink:href="#New_Gradient_Swatch_copy"/><linearGradient id="New_Gradient_Swatch_copy-19" x1="46.65" y1="139.71" x2="72.65" y2="139.71" xlink:href="#New_Gradient_Swatch_copy"/><linearGradient id="New_Gradient_Swatch_copy-20" x1="64.9" y1="126.25" x2="72.65" y2="126.25" xlink:href="#New_Gradient_Swatch_copy"/><linearGradient id="New_Gradient_Swatch_copy-21" x1="59.59" y1="150.43" x2="85.61" y2="150.43" xlink:href="#New_Gradient_Swatch_copy"/><linearGradient id="New_Gradient_Swatch_copy-22" x1="79.03" y1="137.93" x2="86.09" y2="137.93" xlink:href="#New_Gradient_Swatch_copy"/><linearGradient id="New_Gradient_Swatch_copy-23" x1="70.89" y1="164.91" x2="100.83" y2="164.91" xlink:href="#New_Gradient_Swatch_copy"/><linearGradient id="New_Gradient_Swatch_copy-24" x1="93.63" y1="150.81" x2="101.66" y2="150.81" xlink:href="#New_Gradient_Swatch_copy"/><linearGradient id="New_Gradient_Swatch_copy-25" x1="85.97" y1="179.48" x2="115.86" y2="179.48" xlink:href="#New_Gradient_Swatch_copy"/><linearGradient id="New_Gradient_Swatch_copy-26" x1="109.68" y1="166.24" x2="117.52" y2="166.24" xlink:href="#New_Gradient_Swatch_copy"/><linearGradient id="New_Gradient_Swatch_copy-27" x1="98.96" y1="197.06" x2="133.17" y2="197.06" xlink:href="#New_Gradient_Swatch_copy"/><linearGradient id="New_Gradient_Swatch_copy-28" x1="127.49" y1="183.03" x2="136.34" y2="183.03" xlink:href="#New_Gradient_Swatch_copy"/><linearGradient id="New_Gradient_Swatch_copy-29" x1="115.37" y1="214.5" x2="149.2" y2="214.5" xlink:href="#New_Gradient_Swatch_copy"/><linearGradient id="New_Gradient_Swatch_copy-30" x1="145.53" y1="202.19" x2="154.36" y2="202.19" xlink:href="#New_Gradient_Swatch_copy"/><linearGradient id="New_Gradient_Swatch_copy_3-5" x1="89.99" y1="100.05" x2="102.49" y2="100.05" xlink:href="#New_Gradient_Swatch_copy_3"/><linearGradient id="New_Gradient_Swatch_copy-31" x1="378.54" y1="109.73" x2="393.21" y2="109.73" xlink:href="#New_Gradient_Swatch_copy"/><linearGradient id="New_Gradient_Swatch_copy-32" x1="72.78" y1="66.93" x2="82.56" y2="66.93" xlink:href="#New_Gradient_Swatch_copy"/><linearGradient id="New_Gradient_Swatch_copy-33" x1="422.41" y1="160.47" x2="434.7" y2="160.47" xlink:href="#New_Gradient_Swatch_copy"/><linearGradient id="New_Gradient_Swatch_copy-34" x1="66" y1="86.05" x2="72.78" y2="86.05" xlink:href="#New_Gradient_Swatch_copy"/><linearGradient id="New_Gradient_Swatch_copy_3-6" x1="412.58" y1="179.49" x2="420.87" y2="179.49" xlink:href="#New_Gradient_Swatch_copy_3"/><linearGradient id="New_Gradient_Swatch_copy_3-7" x1="330.55" y1="47.69" x2="336.63" y2="47.69" xlink:href="#New_Gradient_Swatch_copy_3"/><linearGradient id="New_Gradient_Swatch_copy_3-8" x1="23.35" y1="173.73" x2="32.13" y2="173.73" xlink:href="#New_Gradient_Swatch_copy_3"/><linearGradient id="New_Gradient_Swatch_copy-35" x1="382.24" y1="81.39" x2="389.41" y2="81.39" xlink:href="#New_Gradient_Swatch_copy"/><linearGradient id="New_Gradient_Swatch_copy_4" x1="68.37" y1="151.94" x2="186.66" y2="151.94" gradientUnits="userSpaceOnUse"><stop offset="0" stop-color="#f67b80"/><stop offset="1" stop-color="#f1b267"/></linearGradient><linearGradient id="New_Gradient_Swatch_copy_4-2" x1="68.2" y1="277.51" x2="219.82" y2="277.51" xlink:href="#New_Gradient_Swatch_copy_4"/><linearGradient id="New_Gradient_Swatch_copy_7-5" x1="139.32" y1="304.89" x2="452.24" y2="304.89" xlink:href="#New_Gradient_Swatch_copy_7"/><linearGradient id="New_Gradient_Swatch_copy_7-6" x1="132.89" y1="7.82" x2="445.81" y2="7.82" xlink:href="#New_Gradient_Swatch_copy_7"/></defs><g id="Слой_2" data-name="Слой 2"><g id="Layer_1" data-name="Layer 1"><path d="M371.93,260.36,392.56,266c35.5-22.89,66.74-50.91,84.39-59.76-4.47-.4-55.48-3.43-88-1.07l-6.5,14.12-.17-13.53c-3.43.37-6.56.81-9.27,1.35-38.8,7.75-87,27.78-98.24,70.06-4.7,17.76,15.14,21,28.25,21.46,26.61,1,55-11.41,81.44-27.52Z" transform="translate(12.01)" style="fill:url(#New_Gradient_Swatch_copy)"/><g style="clip-path:url(#clip-path)"><path d="M419.79,220.84c8.92,3.67,42.18,9.86,42.18,9.86" transform="translate(12.01)" style="fill:none;stroke:#e5f4f1;stroke-miterlimit:10"/><path d="M265.94,298.13c29.61-24.06,63.13-42.9,98.07-58,37.28-16.13,76.49-24.75,115.91-34.6" transform="translate(12.01)" style="fill:none;stroke:#e5f4f1;stroke-miterlimit:10"/><path d="M392,229.4c6.61-15.08,24.83-42,24.83-42" transform="translate(12.01)" style="fill:none;stroke:#e5f4f1;stroke-miterlimit:10"/><path d="M354.41,244.38A288.28,288.28,0,0,1,373,192.77" transform="translate(12.01)" style="fill:none;stroke:#e5f4f1;stroke-miterlimit:10"/><path d="M369.1,238c13,7.1,50.32,23.81,65.16,25.28" transform="translate(12.01)" style="fill:none;stroke:#e5f4f1;stroke-miterlimit:10"/><path d="M321.37,261c26.24,14.69,45.4,23.86,65.58,25.76" transform="translate(12.01)" style="fill:none;stroke:#e5f4f1;stroke-miterlimit:10"/><path d="M312.58,266c4.57-20,9-47.38,21.63-65.37" transform="translate(12.01)" style="fill:none;stroke:#e5f4f1;stroke-miterlimit:10"/></g><path d="M321.49,244.58c-10.84,1-28.32,2.85-36.05-6.9-2.47-3.12-3.58-7.08-4.34-11a77.85,77.85,0,0,1,.16-30.38c.62-3,1.48-6.13,3.47-8.48s5.43-3.75,8.27-2.55,4.66,3.55,7.64.83c5.34-4.85,6.59-13.87,9.28-20.23,1.94-4.61,6.82-13.46,13.07-12.43,4.25.69,5.64,7.23,10.25,6.92a5.56,5.56,0,0,0,3.93-2.7c5.62-8.22,9.24-23.05,20.19-25.72a7.16,7.16,0,0,1,6.7,1.47c1.78,1.77,2.12,4.59,3.82,6.44,2,2.19,5.51,2.41,8.3,1.36s5-3.14,7.24-5.13c5.5-5,11.43-9.81,18.51-12,11.41-3.56,26.36,2.57,20.37,16.7-2.34,5.5-8.37,8.33-14,10.34-5.2,1.86-21.16,7.07-13.72,14.74,1.43,1.48,3.19,2.66,4.28,4.4,2.19,3.5.86,8.39-2.12,11.25s-7.19,4.05-11.29,4.57-8.27.48-12.31,1.36c-3,.66-6.4,2.58-6.25,5.63s4,4.76,5.52,7.53c1.76,3.12.18,7.27-2.58,9.56s-6.38,3.16-9.88,4l-10.38,2.42c-3.72.86-8.08,2.33-9,6-.56,2.25.42,4.57.59,6.89.34,4.59-2.62,8.95-6.51,11.4S326.07,244.17,321.49,244.58Z" transform="translate(12.01)" style="fill:url(#New_Gradient_Swatch_copy_3)"/><g style="clip-path:url(#clip-path-2)"><path d="M432.12,119.93c-24.89,15-49.88,30.18-72.18,48.84-5.19,4.35-10.23,8.88-15.26,13.41-12.13,10.91-24.39,20.91-35.77,32.62Q290,234.27,272,254.58" transform="translate(12.01)" style="fill:none;stroke:#2a2182;stroke-miterlimit:10"/><path d="M327.58,135.42c-4.64,13.05-8.57,49.53-7.31,68.4,0,0,61.8,7.31,82-4.43" transform="translate(12.01)" style="fill:none;stroke:#2a2182;stroke-miterlimit:10"/><path d="M369.33,113.21c-9.84,18.51-18.71,63.65-18.71,63.65s50.93.78,66.16-3.76" transform="translate(12.01)" style="fill:none;stroke:#2a2182;stroke-miterlimit:10"/><path d="M288.79,173.48c-.55,14.7-.81,34.19,8.88,53.05,0,0,33.33,13.78,57.74,11.42" transform="translate(12.01)" style="fill:none;stroke:#2a2182;stroke-miterlimit:10"/></g><path d="M348.24,84.3c-13.94,21-48.15,102.94-56.26,156.6" transform="translate(12.01)" style="fill:none;stroke:#735ee6;stroke-miterlimit:10"/><path d="M353.49,69.25a33.18,33.18,0,0,1,4.7-8.74c1.29-1.55,4.25-3.93,6.45-2.72,6.52,3.6-7.35,18-9.7,20.16-2.83,2.59-8,8.24-8,8.24S351.23,74.72,353.49,69.25Z" transform="translate(12.01)" style="fill:url(#New_Gradient_Swatch_copy-4)"/><path d="M352.87,89.67a25.76,25.76,0,0,1,7-3.19c1.52-.34,4.47-.41,5.26,1.37,2.33,5.29-13,7.65-15.5,7.87-3,.28-8.84,1.31-8.84,1.31S348.89,92,352.87,89.67Z" transform="translate(12.01)" style="fill:url(#New_Gradient_Swatch_copy-5)"/><path d="M335.67,83.89a25.51,25.51,0,0,1-1.91-7.48c-.08-1.56.36-4.48,2.25-4.94,5.63-1.38,5.27,14.16,5.06,16.63-.25,3-.25,8.93-.25,8.93S337.25,88.2,335.67,83.89Z" transform="translate(12.01)" style="fill:url(#New_Gradient_Swatch_copy-6)"/><path d="M345,104.89a25.58,25.58,0,0,1,6.85-3.57c1.5-.43,4.44-.66,5.32,1.08,2.63,5.16-12.59,8.35-15,8.71-2.95.43-8.76,1.79-8.76,1.79S341.18,107.42,345,104.89Z" transform="translate(12.01)" style="fill:url(#New_Gradient_Swatch_copy-7)"/><path d="M327.53,100.05a25.74,25.74,0,0,1-2.32-7.36c-.16-1.55.12-4.49,2-5.06,5.54-1.68,6,13.85,6,16.33-.09,3,.23,8.94.23,8.94S329.35,104.28,327.53,100.05Z" transform="translate(12.01)" style="fill:url(#New_Gradient_Swatch_copy-8)"/><path d="M338.29,123.05a29.63,29.63,0,0,1,7.82-4.22c1.72-.52,5.1-.84,6.15,1.15,3.11,5.89-14.35,9.82-17.16,10.28-3.39.54-10.05,2.21-10.05,2.21S333.91,126,338.29,123.05Z" transform="translate(12.01)" style="fill:url(#New_Gradient_Swatch_copy-9)"/><path d="M318.09,117.78a29.35,29.35,0,0,1-2.8-8.43c-.21-1.78.06-5.17,2.2-5.85,6.34-2,7.17,15.83,7.13,18.69-.05,3.43.43,10.28.43,10.28S320.25,122.61,318.09,117.78Z" transform="translate(12.01)" style="fill:url(#New_Gradient_Swatch_copy-10)"/><path d="M330,142.59A29.77,29.77,0,0,1,337.6,138c1.7-.59,5.07-1,6.2.89,3.35,5.76-13.92,10.42-16.72,11-3.36.69-9.95,2.63-9.95,2.63S325.72,145.74,330,142.59Z" transform="translate(12.01)" style="fill:url(#New_Gradient_Swatch_copy-11)"/><path d="M309.56,138.18a29.73,29.73,0,0,1-3.15-8.31c-.28-1.77-.15-5.17,1.95-5.94,6.26-2.3,7.84,15.52,7.92,18.37.09,3.43.85,10.25.85,10.25S311.92,142.91,309.56,138.18Z" transform="translate(12.01)" style="fill:url(#New_Gradient_Swatch_copy-12)"/><path d="M322.64,164.62c2.63-2.18,5.32-4.39,8.49-5.68,1.91-.78,5.75-1.51,7.16.65,4.2,6.41-15.36,12.8-18.54,13.63-3.82,1-11.26,3.61-11.26,3.61S317.94,168.5,322.64,164.62Z" transform="translate(12.01)" style="fill:url(#New_Gradient_Swatch_copy-13)"/><path d="M298.93,160.77c-1.69-3-3.4-6-4.12-9.35-.43-2-.48-5.93,1.89-6.94,7-3,9.93,17.36,10.19,20.63.31,3.93,1.6,11.72,1.6,11.72S301.93,166.07,298.93,160.77Z" transform="translate(12.01)" style="fill:url(#New_Gradient_Swatch_copy-14)"/><path d="M314.22,187.43c2.46-2.38,5-4.79,8-6.32,1.85-.92,5.62-2,7.2.09,4.67,6.07-14.34,14-17.44,15-3.73,1.28-10.95,4.47-10.95,4.47S309.84,191.65,314.22,187.43Z" transform="translate(12.01)" style="fill:url(#New_Gradient_Swatch_copy-15)"/><path d="M290.29,185.42c-1.91-2.84-3.85-5.73-4.82-9-.59-2-1-5.87,1.34-7.07,6.79-3.54,11.24,16.55,11.75,19.79.62,3.9,2.5,11.56,2.5,11.56S293.69,190.47,290.29,185.42Z" transform="translate(12.01)" style="fill:url(#New_Gradient_Swatch_copy-16)"/><path d="M150.67,158l-19.34-9.38c-11.7-40.78-16.79-82.63-24.27-101,3.64,2.66,44.22,34.1,67.27,57.42l-4.43,15L179,109.94c2.35,2.55,4.42,5,6.11,7.16C209.3,148.62,232.53,195.67,213,235c-8.19,16.54-25.33,5.86-35.55-2.45-20.75-16.88-34-45-43.37-74.68Z" transform="translate(12.01)" style="fill:url(#New_Gradient_Swatch_copy-2)"/><g style="clip-path:url(#clip-path-3)"><path d="M140.62,96.51c-9.17-3.13-38.4-20.45-38.4-20.45" transform="translate(12.01)" style="fill:none;stroke:#e5f4f1;stroke-miterlimit:10"/><path d="M205.82,256.7c-6.47-37.77-19.35-74.19-35.77-108.73-17.52-36.86-41.46-69.3-64.75-102.82" transform="translate(12.01)" style="fill:none;stroke:#e5f4f1;stroke-miterlimit:10"/><path d="M156,121.38c5-15.77,9-48.15,9-48.15" transform="translate(12.01)" style="fill:none;stroke:#e5f4f1;stroke-miterlimit:10"/><path d="M174.48,157.54a288.93,288.93,0,0,0,20.1-51.29" transform="translate(12.01)" style="fill:none;stroke:#e5f4f1;stroke-miterlimit:10"/><path d="M167.62,143c-14.55-3.26-53.79-15.27-66-24" transform="translate(12.01)" style="fill:none;stroke:#e5f4f1;stroke-miterlimit:10"/><path d="M188.47,192c-29.55-6.25-50.1-12-66.61-23.9" transform="translate(12.01)" style="fill:none;stroke:#e5f4f1;stroke-miterlimit:10"/><path d="M191.81,201.56c9.75-18.11,24.56-41.75,26.88-63.73" transform="translate(12.01)" style="fill:none;stroke:#e5f4f1;stroke-miterlimit:10"/></g><path d="M129.9,285.15c10.66-2.19,27.94-5.42,32.54-17,1.47-3.7,1.39-7.82,1-11.77a78.09,78.09,0,0,0-8.9-29c-1.46-2.72-3.17-5.44-5.76-7.12s-6.28-2-8.65-.06-3.45,4.73-7.08,3c-6.51-3.11-10.3-11.39-14.7-16.7-3.19-3.86-10.41-10.93-16.09-8.15-3.87,1.89-3.33,8.55-7.83,9.58a5.54,5.54,0,0,1-4.53-1.45C82.14,200.2,74.42,187,63.17,187.64a7.15,7.15,0,0,0-6,3.33c-1.19,2.2-.7,5-1.8,7.26-1.3,2.68-4.58,3.9-7.55,3.69s-5.72-1.56-8.41-2.83c-6.7-3.18-13.77-6.1-21.18-6.18-11.95-.13-24.5,10-14.7,21.85,3.82,4.6,10.41,5.56,16.38,5.87,5.51.29,22.29.68,17.38,10.17-1,1.82-2.3,3.46-2.84,5.44-1.09,4,1.59,8.28,5.26,10.17s8.06,1.8,12.13,1.12,8.06-1.92,12.18-2.23c3-.23,6.86.62,7.6,3.59s-2.43,5.7-3.12,8.8c-.78,3.5,1.92,7,5.22,8.41s7,1.19,10.6,1L95,266.39c3.8-.24,8.4-.09,10.34,3.19,1.19,2,.92,4.5,1.42,6.76,1,4.49,5.09,7.82,9.52,9.05S125.4,286.08,129.9,285.15Z" transform="translate(12.01)" style="fill:url(#New_Gradient_Swatch_copy_3-2)"/><g style="clip-path:url(#clip-path-4)"><path d="M-11.88,197.62c28.15,7.25,56.44,14.55,83.16,26,6.22,2.66,12.34,5.55,18.47,8.44,14.75,7,29.37,13,43.63,21q23.72,13.2,46.83,27.46" transform="translate(12.01)" style="fill:none;stroke-miterlimit:10;stroke:url(#New_Gradient_Swatch_copy_7)"/><path d="M92.68,182.38c8.19,11.16,22.45,45,26.67,63.39,0,0-57.08,24.78-79.78,19.34" transform="translate(12.01)" style="fill:none;stroke-miterlimit:10;stroke:url(#New_Gradient_Swatch_copy_7-2)"/><path d="M46.3,173.12c14.76,14.9,36.23,55.57,36.23,55.57S34,244.08,18.1,244.12" transform="translate(12.01)" style="fill:none;stroke-miterlimit:10;stroke:url(#New_Gradient_Swatch_copy_7-3)"/><path d="M140.76,207.67c4.76,13.91,10.61,32.5,6.76,53.35,0,0-28,22.78-52,27.55" transform="translate(12.01)" style="fill:none;stroke-miterlimit:10;stroke:url(#New_Gradient_Swatch_copy_7-4)"/></g><path d="M60.91,130.09c21,14,84,76.53,112.12,123" transform="translate(12.01)" style="fill:none;stroke:#735ee6;stroke-miterlimit:10"/><path d="M50.28,118.21c-2.36-2.34-4.76-4.73-7.71-6.27-1.77-.92-5.43-2-7,0-4.64,5.82,13.71,13.79,16.7,14.88,3.61,1.31,10.58,4.52,10.58,4.52S54.47,122.39,50.28,118.21Z" transform="translate(12.01)" style="fill:url(#New_Gradient_Swatch_copy-18)"/><path d="M58.7,136.82a25.61,25.61,0,0,0-7.71-.24c-1.54.27-4.29,1.34-4.34,3.28-.12,5.79,15,2.06,17.34,1.32,2.84-.89,8.66-2.19,8.66-2.19S63.26,137.43,58.7,136.82Z" transform="translate(12.01)" style="fill:url(#New_Gradient_Swatch_copy-19)"/><path d="M72.36,124.87a26.15,26.15,0,0,0-1.11-7.64c-.53-1.46-2.06-4-4-3.69-5.72.89.59,15.1,1.73,17.3,1.37,2.64,3.66,8.15,3.66,8.15S72.55,129.47,72.36,124.87Z" transform="translate(12.01)" style="fill:url(#New_Gradient_Swatch_copy-20)"/><path d="M71.79,147.86a25.61,25.61,0,0,0-7.69-.66c-1.55.18-4.36,1.09-4.5,3-.44,5.77,14.83,2.87,17.23,2.26,2.89-.74,8.78-1.72,8.78-1.72S76.31,148.71,71.79,147.86Z" transform="translate(12.01)" style="fill:url(#New_Gradient_Swatch_copy-21)"/><path d="M86.08,136.67a25.76,25.76,0,0,0-.69-7.69c-.45-1.49-1.84-4.1-3.78-3.9-5.75.57-.24,15.1.78,17.36,1.23,2.72,3.22,8.34,3.22,8.34S86,141.27,86.08,136.67Z" transform="translate(12.01)" style="fill:url(#New_Gradient_Swatch_copy-22)"/><path d="M85,162a29.36,29.36,0,0,0-8.83-.89c-1.79.18-5,1.18-5.24,3.42-.6,6.63,17,3.55,19.79,2.89,3.34-.79,10.13-1.82,10.13-1.82S90.17,163.1,85,162Z" transform="translate(12.01)" style="fill:url(#New_Gradient_Swatch_copy-23)"/><path d="M101.61,149.41a29.22,29.22,0,0,0-.66-8.86c-.49-1.73-2-4.75-4.28-4.56-6.63.56-.53,17.38.6,20,1.37,3.15,3.56,9.65,3.56,9.65S101.47,154.7,101.61,149.41Z" transform="translate(12.01)" style="fill:url(#New_Gradient_Swatch_copy-24)"/><path d="M100.17,176.88a29.26,29.26,0,0,0-8.79-1.26c-1.79.1-5.08,1-5.37,3.19-.88,6.6,16.85,4.27,19.65,3.73,3.37-.66,10.2-1.4,10.2-1.4S105.31,178.16,100.17,176.88Z" transform="translate(12.01)" style="fill:url(#New_Gradient_Swatch_copy-25)"/><path d="M117.32,165a29.34,29.34,0,0,0-.28-8.88c-.42-1.74-1.85-4.83-4.09-4.73-6.65.28-1.27,17.34-.24,20,1.23,3.2,3.15,9.79,3.15,9.79S117,170.24,117.32,165Z" transform="translate(12.01)" style="fill:url(#New_Gradient_Swatch_copy-26)"/><path d="M115.42,194.4a34.09,34.09,0,0,0-10-2c-2.06,0-5.89.82-6.36,3.35-1.41,7.53,19.1,5.91,22.35,5.46,3.91-.55,11.79-1,11.79-1S121.24,196.17,115.42,194.4Z" transform="translate(12.01)" style="fill:url(#New_Gradient_Swatch_copy-27)"/><path d="M135.82,181.73c.42-3.39.83-6.85.21-10.21-.38-2-1.83-5.66-4.41-5.69-7.66-.07-2.5,19.85-1.48,23,1.22,3.75,3,11.43,3,11.43S135.09,187.78,135.82,181.73Z" transform="translate(12.01)" style="fill:url(#New_Gradient_Swatch_copy-28)"/><path d="M132,212.22c-3.19-1.25-6.43-2.51-9.84-2.74-2.06-.15-5.94.35-6.61,2.84-2,7.4,18.59,7.37,21.87,7.17,3.94-.25,11.83-.08,11.83-.08S137.62,214.44,132,212.22Z" transform="translate(12.01)" style="fill:url(#New_Gradient_Swatch_copy-29)"/><path d="M153.27,201.17c.67-3.35,1.35-6.77,1-10.17-.21-2.05-1.38-5.78-4-6-7.63-.66-4,19.59-3.24,22.78.93,3.84,2.14,11.64,2.14,11.64S152.08,207.14,153.27,201.17Z" transform="translate(12.01)" style="fill:url(#New_Gradient_Swatch_copy-30)"/><path d="M90.08,98c.69,4.49,5.16,10.13,8.53,9.69a4.75,4.75,0,0,0,3.71-3.8,10.48,10.48,0,0,0-.6-5.55c-1.26-3.76-6.94-8.73-10.82-4.24A4.77,4.77,0,0,0,90.08,98Z" transform="translate(12.01)" style="fill:url(#New_Gradient_Swatch_copy_3-5)"/><path d="M384.94,116.08c4.31-1.42,9.13-6.76,8.14-10a4.78,4.78,0,0,0-4.36-3,10.44,10.44,0,0,0-5.37,1.52c-3.5,1.86-7.47,8.28-2.39,11.37A4.75,4.75,0,0,0,384.94,116.08Z" transform="translate(12.01)" style="fill:url(#New_Gradient_Swatch_copy-31)"/><path d="M72.85,65.35c.54,3.51,4,7.93,6.68,7.59a3.73,3.73,0,0,0,2.9-3A8.19,8.19,0,0,0,82,65.62c-1-3-5.43-6.84-8.47-3.32A3.71,3.71,0,0,0,72.85,65.35Z" transform="translate(12.01)" style="fill:url(#New_Gradient_Swatch_copy-32)"/><path d="M426.55,165.16c3.55-.22,8.26-3.31,8.15-6A3.74,3.74,0,0,0,432,156a8.22,8.22,0,0,0-4.37.08c-3,.72-7.29,4.8-4.06,8.14A3.7,3.7,0,0,0,426.55,165.16Z" transform="translate(12.01)" style="fill:url(#New_Gradient_Swatch_copy-33)"/><path d="M66.05,85c.38,2.43,2.8,5.5,4.63,5.26a2.57,2.57,0,0,0,2-2.06,5.69,5.69,0,0,0-.32-3c-.68-2-3.77-4.74-5.87-2.3A2.6,2.6,0,0,0,66.05,85Z" transform="translate(12.01)" style="fill:url(#New_Gradient_Swatch_copy-34)"/><path d="M415.73,182.86c2.42-.45,5.41-3,5.12-4.78a2.57,2.57,0,0,0-2.12-2,5.66,5.66,0,0,0-3,.41c-2,.74-4.63,3.9-2.13,5.94A2.58,2.58,0,0,0,415.73,182.86Z" transform="translate(12.01)" style="fill:url(#New_Gradient_Swatch_copy_3-6)"/><path d="M335.46,50.74c1.38-2,1.68-5.94.17-7a2.59,2.59,0,0,0-2.88.15,5.66,5.66,0,0,0-1.8,2.44c-.89,2-.45,6,2.75,5.67A2.6,2.6,0,0,0,335.46,50.74Z" transform="translate(12.01)" style="fill:url(#New_Gradient_Swatch_copy_3-7)"/><path d="M25,176.06c2.22,1.06,6.12.75,6.94-.9a2.56,2.56,0,0,0-.59-2.82,5.65,5.65,0,0,0-2.68-1.41c-2.07-.58-6,.48-5.18,3.59A2.54,2.54,0,0,0,25,176.06Z" transform="translate(12.01)" style="fill:url(#New_Gradient_Swatch_copy_3-8)"/><path d="M386.3,84.83c2.05-1.36,3.81-4.84,2.83-6.41a2.61,2.61,0,0,0-2.72-1,5.77,5.77,0,0,0-2.6,1.56c-1.56,1.48-2.72,5.41.38,6.3A2.61,2.61,0,0,0,386.3,84.83Z" transform="translate(12.01)" style="fill:url(#New_Gradient_Swatch_copy-35)"/><path d="M250.66,156.3c-.1-41.54,82.6-85.11,82.43-148.53-39.87.16-172.78.16-229,0C103.8,71.2,186.46,115,186.56,156.5S104,241.61,104.13,305c39.87-.16,172.78-.16,229,0C333.42,241.6,250.76,197.8,250.66,156.3Z" transform="translate(12.01)" style="fill:#c2b0f3"/><path d="M242.53,156.31c-.07-39.31,74.75-80.52,74.63-140.52-29.77.15-156.06.15-198,0-.24,60,75.45,101.45,75.52,140.71S119,237,119.16,297c29.77-.15,156-.15,198,0C317.4,237,242.61,195.56,242.53,156.31Z" transform="translate(12.01)" style="fill:#f7f6fb"/><path d="M143.21,41c-.08,19.21,21,50,48.34,73.24C213.11,132.58,217,174.2,217.94,194c.11,3.12,1.12,68.85,1.12,68.85s1.11-65.73,1.21-68.85c1-19.81,4.83-61.43,26.4-79.75C274,91,294.13,60.23,294.05,41,270.11,41.11,167.15,41.11,143.21,41Z" transform="translate(12.01)" style="fill:url(#New_Gradient_Swatch_copy_4)"/><path d="M139.31,292.15c23.7,0,124.29,0,157.7,0,.19-12.49-77.93-29.29-77.93-29.29S139.21,279.66,139.31,292.15Z" transform="translate(12.01)" style="fill:url(#New_Gradient_Swatch_copy_4-2)"/><rect x="107.11" y="297.07" width="247.01" height="15.64" rx="7.82" style="fill:url(#New_Gradient_Swatch_copy_7-5)"/><rect x="107.11" width="247.01" height="15.64" rx="7.82" style="fill:url(#New_Gradient_Swatch_copy_7-6)"/></g></g></svg>