<svg xmlns="http://www.w3.org/2000/svg" xmlns:xlink="http://www.w3.org/1999/xlink" viewBox="0 0 748.26 702.13"><defs><clipPath id="clip-path" transform="translate(87.18 123.01)"><path d="M486.7,609.28H141c-34.22,0-59.35-7.53-59.35-42.43L0,43.39C0,19.39,19,0,42.54,0H514.18c23.54,0,42.54,19.43,42.54,43.39l-18.1,507.14c0,34.9-1.34,58.75-35.6,58.75" style="fill:none"/></clipPath><linearGradient id="Безымянный_градиент_98" x1="-30.86" y1="651.25" x2="337.04" y2="651.25" gradientTransform="matrix(1, 0, 0, -1, 129.06, 644.05)" gradientUnits="userSpaceOnUse"><stop offset="0" stop-color="#381a96"/><stop offset="1" stop-color="#350e71"/></linearGradient><linearGradient id="Безымянный_градиент_82" x1="57.34" y1="684.54" x2="82.79" y2="684.54" gradientTransform="matrix(1, 0, 0, -1, 129.06, 644.05)" gradientUnits="userSpaceOnUse"><stop offset="0" stop-color="#fbab3d"/><stop offset="1" stop-color="#dd5db6"/></linearGradient><linearGradient id="Безымянный_градиент_82-2" x1="151.69" y1="594.63" x2="214.69" y2="594.63" xlink:href="#Безымянный_градиент_82"/><linearGradient id="Безымянный_градиент_82-3" x1="152.78" y1="576.91" x2="193.48" y2="576.91" xlink:href="#Безымянный_градиент_82"/><linearGradient id="Безымянный_градиент_98-2" x1="160.8" y1="542.98" x2="218.01" y2="542.98" xlink:href="#Безымянный_градиент_98"/><linearGradient id="Безымянный_градиент_82-4" x1="121.56" y1="684.91" x2="166.33" y2="684.91" xlink:href="#Безымянный_градиент_82"/><linearGradient id="Безымянный_градиент_98-3" x1="123.15" y1="672.71" x2="151.07" y2="672.71" xlink:href="#Безымянный_градиент_98"/><linearGradient id="Безымянный_градиент_98-4" x1="145.95" y1="653.84" x2="231.25" y2="653.84" xlink:href="#Безымянный_градиент_98"/><linearGradient id="Безымянный_градиент_98-5" x1="180.52" y1="662.2" x2="205.32" y2="662.2" xlink:href="#Безымянный_градиент_98"/><linearGradient id="Безымянный_градиент_98-6" x1="171.52" y1="637.84" x2="201.57" y2="637.84" xlink:href="#Безымянный_градиент_98"/><linearGradient id="Безымянный_градиент_98-7" x1="197.1" y1="654.48" x2="219.86" y2="654.48" xlink:href="#Безымянный_градиент_98"/><linearGradient id="Безымянный_градиент_98-8" x1="193.12" y1="651.48" x2="216.37" y2="651.48" xlink:href="#Безымянный_градиент_98"/><linearGradient id="Безымянный_градиент_98-9" x1="163.17" y1="651.15" x2="172.85" y2="651.15" xlink:href="#Безымянный_градиент_98"/><linearGradient id="Безымянный_градиент_98-10" x1="88.44" y1="676.47" x2="130.63" y2="676.47" xlink:href="#Безымянный_градиент_98"/><linearGradient id="Безымянный_градиент_98-11" x1="-65.15" y1="533.64" x2="290.82" y2="533.64" xlink:href="#Безымянный_градиент_98"/><linearGradient id="Безымянный_градиент_98-12" x1="2.36" y1="656.66" x2="43.33" y2="656.66" xlink:href="#Безымянный_градиент_98"/><linearGradient id="Безымянный_градиент_82-5" x1="-3.19" y1="541.66" x2="98.95" y2="541.66" xlink:href="#Безымянный_градиент_82"/><linearGradient id="Безымянный_градиент_82-6" x1="97.09" y1="559.65" x2="125.49" y2="559.65" xlink:href="#Безымянный_градиент_82"/><linearGradient id="Безымянный_градиент_82-7" x1="63.69" y1="555.54" x2="79.03" y2="555.54" xlink:href="#Безымянный_градиент_82"/><linearGradient id="Безымянный_градиент_82-8" x1="64.76" y1="535.4" x2="92.37" y2="535.4" xlink:href="#Безымянный_градиент_82"/><linearGradient id="Безымянный_градиент_82-9" x1="25.55" y1="545.02" x2="44.8" y2="545.02" xlink:href="#Безымянный_градиент_82"/><linearGradient id="Безымянный_градиент_82-10" x1="26.28" y1="523.41" x2="51.77" y2="523.41" xlink:href="#Безымянный_градиент_82"/><linearGradient id="Безымянный_градиент_82-11" x1="246.74" y1="581.85" x2="291.67" y2="581.85" xlink:href="#Безымянный_градиент_82"/><linearGradient id="Безымянный_градиент_98-13" x1="260.38" y1="567.4" x2="283.5" y2="567.4" xlink:href="#Безымянный_градиент_98"/><linearGradient id="Безымянный_градиент_98-14" x1="-221.83" y1="597.36" x2="52.89" y2="597.36" xlink:href="#Безымянный_градиент_98"/><linearGradient id="Безымянный_градиент_98-15" x1="183.56" y1="595.27" x2="454.52" y2="595.27" xlink:href="#Безымянный_градиент_98"/><linearGradient id="Безымянный_градиент_98-16" x1="298.28" y1="672.21" x2="384.83" y2="672.21" xlink:href="#Безымянный_градиент_98"/><linearGradient id="Безымянный_градиент_98-17" x1="361.48" y1="678.8" x2="388.44" y2="678.8" xlink:href="#Безымянный_градиент_98"/><linearGradient id="Безымянный_градиент_82-12" x1="295.16" y1="642.26" x2="366.52" y2="642.26" xlink:href="#Безымянный_градиент_82"/><linearGradient id="Безымянный_градиент_82-13" x1="272.56" y1="662.73" x2="296.09" y2="662.73" xlink:href="#Безымянный_градиент_82"/><linearGradient id="Безымянный_градиент_82-14" x1="300.13" y1="646.07" x2="321.73" y2="646.07" xlink:href="#Безымянный_градиент_82"/><linearGradient id="Безымянный_градиент_82-15" x1="308.22" y1="661.96" x2="322.11" y2="661.96" xlink:href="#Безымянный_градиент_82"/><linearGradient id="Безымянный_градиент_82-16" x1="325.94" y1="635.02" x2="349.58" y2="635.02" xlink:href="#Безымянный_градиент_82"/><linearGradient id="Безымянный_градиент_82-17" x1="339.26" y1="650.28" x2="350.88" y2="650.28" xlink:href="#Безымянный_градиент_82"/><linearGradient id="Безымянный_градиент_98-18" x1="350.55" y1="658.27" x2="540.59" y2="658.27" xlink:href="#Безымянный_градиент_98"/><clipPath id="clip-path-2" transform="translate(87.18 123.01)"><path d="M262.25,280.36c-92.78-5.63-52.16-64.6-97-105.6C131,143,80.73,158.91,73.84,100.76,88-27.24-26.16,85.28-3.41-46.57-14.49-85.71-73.7-53.18-84.28-90.39c-3.16-9.78-1.49-19.74.85-30.83,16.33-62-23.8-45.49-4.07-75.34C3.4-299.23,500-283.31,608.32-239.09c45.6,14.58,106.17,40,9.84,101.2-31.57,9.75-53,17.47-57.43,49.35C566,70.46,489.25,10.4,453.18,60.38c-23,37.84,12.52,70.25-27.65,99.61-15.09,10.47-32.44,10.09-48.36,26.54C333.83,243.83,386.59,277.48,262.25,280.36Z" style="fill:none"/></clipPath><linearGradient id="Безымянный_градиент_98-19" x1="299.96" y1="1023.53" x2="312.94" y2="1023.53" gradientTransform="matrix(0.95, -0.32, -0.32, -0.95, 425.75, 1192.95)" xlink:href="#Безымянный_градиент_98"/><linearGradient id="Безымянный_градиент_98-20" x1="282.06" y1="1006.91" x2="325.9" y2="1006.91" gradientTransform="matrix(0.95, -0.32, -0.32, -0.95, 425.75, 1192.95)" xlink:href="#Безымянный_градиент_98"/><linearGradient id="Безымянный_градиент_98-21" x1="289.21" y1="1064.86" x2="326.46" y2="1064.86" gradientTransform="matrix(0.95, -0.32, -0.32, -0.95, 425.75, 1192.95)" xlink:href="#Безымянный_градиент_98"/><linearGradient id="Безымянный_градиент_98-22" x1="243.92" y1="974.91" x2="292.67" y2="974.91" gradientTransform="matrix(0.95, -0.32, -0.32, -0.95, 425.75, 1192.95)" xlink:href="#Безымянный_градиент_98"/><linearGradient id="Безымянный_градиент_82-18" x1="262.78" y1="540.01" x2="312.24" y2="540.01" xlink:href="#Безымянный_градиент_82"/><linearGradient id="Безымянный_градиент_82-19" x1="-102" y1="662.88" x2="-92.86" y2="662.88" xlink:href="#Безымянный_градиент_82"/><linearGradient id="Безымянный_градиент_82-20" x1="-102.5" y1="650.28" x2="-78.41" y2="650.28" xlink:href="#Безымянный_градиент_82"/><linearGradient id="Безымянный_градиент_82-21" x1="-123.48" y1="651.04" x2="-100.79" y2="651.04" xlink:href="#Безымянный_градиент_82"/><linearGradient id="Безымянный_градиент_98-23" x1="0.28" y1="525.23" x2="36.04" y2="525.23" xlink:href="#Безымянный_градиент_98"/><linearGradient id="Безымянный_градиент_98-24" x1="5.3" y1="539.05" x2="18.96" y2="539.05" xlink:href="#Безымянный_градиент_98"/><linearGradient id="Безымянный_градиент_98-25" x1="15.6" y1="505.94" x2="56.28" y2="505.94" xlink:href="#Безымянный_градиент_98"/><linearGradient id="Безымянный_градиент_98-26" x1="25.09" y1="549.77" x2="50.26" y2="549.77" xlink:href="#Безымянный_градиент_98"/><linearGradient id="Безымянный_градиент_98-27" x1="23.07" y1="541.12" x2="52.14" y2="541.12" xlink:href="#Безымянный_градиент_98"/><linearGradient id="Безымянный_градиент_98-28" x1="-12.31" y1="499.38" x2="10.25" y2="499.38" xlink:href="#Безымянный_градиент_98"/><linearGradient id="Безымянный_градиент_98-29" x1="-13.4" y1="485.18" x2="9.21" y2="485.18" xlink:href="#Безымянный_градиент_98"/><linearGradient id="Безымянный_градиент_98-30" x1="392.15" y1="656.25" x2="397.59" y2="656.25" xlink:href="#Безымянный_градиент_98"/><linearGradient id="Безымянный_градиент_98-31" x1="377.96" y1="665.41" x2="397.02" y2="665.41" xlink:href="#Безымянный_градиент_98"/><linearGradient id="Безымянный_градиент_98-32" x1="397.1" y1="645.2" x2="422.43" y2="645.2" xlink:href="#Безымянный_градиент_98"/><linearGradient id="Безымянный_градиент_98-33" x1="373.12" y1="634.34" x2="394.93" y2="634.34" xlink:href="#Безымянный_градиент_98"/><linearGradient id="Безымянный_градиент_98-34" x1="375.37" y1="623.96" x2="395.42" y2="623.96" xlink:href="#Безымянный_градиент_98"/><linearGradient id="Безымянный_градиент_82-22" x1="-45.38" y1="545.78" x2="15.2" y2="545.78" xlink:href="#Безымянный_градиент_82"/><linearGradient id="Безымянный_градиент_82-23" x1="-21.78" y1="522.26" x2="-5.16" y2="522.26" xlink:href="#Безымянный_градиент_82"/><linearGradient id="Безымянный_градиент_98-35" x1="-102.13" y1="596.9" x2="-27.88" y2="596.9" xlink:href="#Безымянный_градиент_98"/><linearGradient id="Безымянный_градиент_98-36" x1="-23.27" y1="103.59" x2="330.57" y2="103.59" xlink:href="#Безымянный_градиент_98"/><linearGradient id="Безымянный_градиент_98-37" x1="-33.77" y1="109.97" x2="320.07" y2="109.97" xlink:href="#Безымянный_градиент_98"/><linearGradient id="Безымянный_градиент_97" x1="268.04" y1="557.82" x2="272.7" y2="555.13" gradientTransform="matrix(1, 0, 0, -1, 129.06, 644.05)" gradientUnits="userSpaceOnUse"><stop offset="0" stop-color="#f85982"/><stop offset="1" stop-color="#2a2182"/></linearGradient><linearGradient id="Безымянный_градиент_98-38" x1="102.57" y1="133.48" x2="198.01" y2="133.48" xlink:href="#Безымянный_градиент_98"/><linearGradient id="Безымянный_градиент_98-39" x1="39.91" y1="126.78" x2="165.16" y2="126.78" xlink:href="#Безымянный_градиент_98"/><linearGradient id="Безымянный_градиент_98-40" x1="141.26" y1="128.68" x2="266.49" y2="128.68" xlink:href="#Безымянный_градиент_98"/><linearGradient id="Безымянный_градиент_96" x1="114.25" y1="229.66" x2="187.96" y2="229.66" gradientTransform="matrix(1, 0, 0, -1, 129.06, 644.05)" gradientUnits="userSpaceOnUse"><stop offset="0" stop-color="#f85982"/><stop offset="1" stop-color="#f981ac"/></linearGradient><linearGradient id="Безымянный_градиент_97-2" x1="133.26" y1="195.28" x2="162.72" y2="195.28" xlink:href="#Безымянный_градиент_97"/><linearGradient id="Безымянный_градиент_98-41" x1="117.34" y1="338.12" x2="184.98" y2="338.12" xlink:href="#Безымянный_градиент_98"/></defs><g id="Слой_2" data-name="Слой 2"><g id="Слой_1-2" data-name="Слой 1"><g style="clip-path:url(#clip-path)"><path d="M388.54-70.06c-6.69-16.75-9.48-35.36-6.16-52.71-272.52,6.36-249.82.25-260.66,12.42,70.59,12,48.42,46.44,65.36,75.05,9.79,15.25,29.07,16,46.83,13.59,33.45-8.52,78-.85,49.48,38.93-6.49,22.34-1.65,60.59,4.43,67.14,53.83,58.52,182.75-2.87,167.47-46.75C442.77-3.23,402-30.16,388.54-70.06Z" transform="translate(87.18 123.01)" style="fill:url(#Безымянный_градиент_98)"/><path d="M188.82,3.08c-11.93-.68,24.17-99.24,23-85.9C208.05-74.59,183-13.63,188.82,3.08Z" transform="translate(87.18 123.01)" style="fill:url(#Безымянный_градиент_82)"/><path d="M288.72,85.17C264.2,50.86,304,59,304.82,46c-3.42-21-11.1-19.43,12.9-22.76,6.92-4.72,8.65-18.22,20.44-13.13,18.92,24.38-17.83,6,1,36.73,1,8.51-13,2.8-14.05,13.54C332.49,83.3,304.65,97.8,288.72,85.17Zm48.72-73.88c-18.3-4-5.22,14.45-35.08,16.11-2.57,6.83,10.32,19.91-1.61,25.93-56.91,18.88,31.14,65.78,23.68,4,1.77-7.61,12.51-3.29,13.41-10.52-18.49-30.3,16.81-15.16-.4-35.52Z" transform="translate(87.18 123.01)" style="fill:url(#Безымянный_градиент_82-2)"/><path d="M281.84,100.26c36.31-41,36.63-66.81,40.7-66.24C322.41,34.45,309.09,76.52,281.84,100.26Z" transform="translate(87.18 123.01)" style="fill:url(#Безымянный_градиент_82-3)"/><path d="M366.1,37.06c-38.22-13,3.82,24.31-43.73,12.31-8.2,2.37,3.09,20.2-9.58,22-26.15-.58-31.1,26.65-16.09,45.91,32.93,22.84,42.13,3.1,39.51-23.83,4.75-13.21,32.09,2.41,29.61-11.16-1.27-6.15-8-13.17-3.31-21.78C369.44,53.85,374.32,46,366.1,37.06Z" transform="translate(87.18 123.01)" style="fill:#573aa4"/><path d="M289.86,137.71c3.19-29.11,44.09-63.78,52.47-70.82C363.54,54.92,307.72,87.79,289.86,137.71Z" transform="translate(87.18 123.01)" style="fill:url(#Безымянный_градиент_98-2)"/><path d="M279.25-7.29c-21.73-47.58,24.47-22.43,24.47-39.79C300.87-73,297.89-69,321.32-66.37c7.78-2.28,12.4-17.63,24.55-7.95,14.53,25.5-10.32,12.89-9.59,24,.8,6.78,6.45,13.28,3.48,19.47-15.45,5.48-17-1.84-17.05,20.38C318.18,7.42,288.72,7.14,279.25-7.29Zm65.69-65.94c-21.13-10.21-6.78,14.37-41.05,6.53-4.29,6.32,7.43,22.26-4,27.43C230.07-35,321.76,43.26,323-26.56c3-7.47,13.81-.23,16.36-6.85-15-41.59,20.83-10.19,5.6-39.82Z" transform="translate(87.18 123.01)" style="fill:#9763f0"/><path d="M269.17,7.16c35.33-25,52.42-56.14,54.37-60.74C328.72-54.62,299.83-8.38,269.17,7.16Z" transform="translate(87.18 123.01)" style="fill:#9763f0"/><path d="M290.94-69.59c14.86,18.27-13.61,3.9,2.7,27.88.18,5.11-12.53,2.36-9.86,10.91,6.25,43-63.69,3.22-17-9.91,4.06-3.65-2.16-11.39-3.06-15.55-1.36-7.1,10.68.36,15.54-6.83C281-67.79,284.16-72.25,290.94-69.59Z" transform="translate(87.18 123.01)" style="fill:url(#Безымянный_градиент_82-4)"/><path d="M252.21-4.38c18.54-11,30.72-52,27.37-48.33C279.58-52.39,271.55-21.21,252.21-4.38Z" transform="translate(87.18 123.01)" style="fill:url(#Безымянный_градиент_98-3)"/><path d="M360.6-32.58c-15.28,35-41.37,60.51-84.64,45.7-1.6.09.29-2.46,4.26-10.1,15.85-30.81,60.77-38.93,61-36.94l-1.64,6.68C347.53-31.63,348.86-37.93,360.6-32.58Z" transform="translate(87.18 123.01)" style="fill:#744ddb"/><path d="M275,13.15c18.57-5,83.19-43.91,85.29-46C361.22-29.51,279.15,16.36,275,13.15Z" transform="translate(87.18 123.01)" style="fill:url(#Безымянный_градиент_98-4)"/><path d="M310.07-2.43c-4.42-2.46,22.43-31.95,24.31-31.43C325.13-24.1,310.28-7.74,310.07-2.43Z" transform="translate(87.18 123.01)" style="fill:url(#Безымянный_градиент_98-5)"/><path d="M300.72,3.65c-.07,0-.36-1,.68-.65C299.8,4.12,313,8.54,330.68,9.27,308.9,10.8,300.79,4.28,300.72,3.65Z" transform="translate(87.18 123.01)" style="fill:url(#Безымянный_градиент_98-6)"/><path d="M326.16-11.51c7,2.31,23.26.93,22.75-.3C349-8.79,331.32-7.65,326.16-11.51Z" transform="translate(87.18 123.01)" style="fill:url(#Безымянный_градиент_98-7)"/><path d="M322.77-8.12c-.75-.3-1.06-3.36.77-.55,5.77,5.91,21.33.9,21.89,2.14C343.94-4.45,324.91-4.07,322.77-8.12Z" transform="translate(87.18 123.01)" style="fill:url(#Безымянный_градиент_98-8)"/><path d="M293.16,5.32c-4.36-2.74,8-28.67,8.75-24.36C297.64-14.4,292.72-.94,293.16,5.32Z" transform="translate(87.18 123.01)" style="fill:url(#Безымянный_градиент_98-9)"/><path d="M288.81,8.26C284.55-2.9,291.2-14.39,291.51-11,288.72-8.69,288.42-1.2,288.81,8.26Z" transform="translate(87.18 123.01)" style="fill:#fff"/><path d="M265.11-90.29c20.49,18.29-3.2,14,.68,24.49,11.64,20.2,2.73,14.74-9.32,22.69-4.21,3.74-2.69,9.14-.89,14.13,11,20.16-10.51,32.07-29.86,25-25.09-14.18-23.39-38.56,2.64-40.37,19-11-18.47-30.65,14.32-33,5.29-1.53,7-6.63,8.16-11.47C253.19-93.64,259.05-92.84,265.11-90.29Z" transform="translate(87.18 123.01)" style="fill:#573aa4"/><path d="M219,15.22C207.91,10.91,262.24-91.46,259.6-79,255.44-72.62,215.61-3.38,219,15.22Z" transform="translate(87.18 123.01)" style="fill:url(#Безымянный_градиент_98-10)"/><path d="M419.88,221.62c-88.72,31.71-41.31,71.83-80.78,102.55-22.17,14-56.55,14.29-78.83,14.43-94.82-4.61-46.65-79.13-107.37-115-10-7.81-23.74-7.44-30.32-14.22-2.34-12.08-19.09-23.88-23.53-36.18-8.51-61,56.9-118.79,47.83-120.11-11.71-7-29.5-14.34-18.85-38.32C156.41-19.41,91.72-10.36,79.79-26c-12.63-15.86-25.94-76.37-4.71-73.52,86.68-6.62,40.23-31,86.72-9.69,21,10.33,22,34.38,26.19,55.72,14.36,52.2,72.66,3.05,100.28,24.92,39.33,32.18-45.2,123.9,57,131-3.15,3.24,9.2,14.34,1.73,16.81-18.72,10.32-24.82,27.42-11.82,43.41,22.47,7.26,63.67,9.26,80.29,19.37C422.34,189.47,413.59,212.86,419.88,221.62Z" transform="translate(87.18 123.01)" style="fill:url(#Безымянный_градиент_98-11)"/><path d="M187.72-43.9c8.77,21.77-14.1-.21-5.73,27.4-.94,4.81-12.9-1.36-12.64,7.34-6.78,43-61.54-16.79-13.4-14.62,5.77-2.33.6-13.51,2.21-17,1.86-5,10.3,4.72,16.48-.54C177.72-45.26,182.06-48.53,187.72-43.9Z" transform="translate(87.18 123.01)" style="fill:#744ddb"/><path d="M131.42,6.24c21-4.79,44.74-40,40.47-37.58C171.78-31,154.86-3.81,131.42,6.24Z" transform="translate(87.18 123.01)" style="fill:url(#Безымянный_градиент_98-12)"/><path d="M150.06,64.09c-14.7-50.23,27.12-18.54,29.9-35.73.85-26.74-2.55-22.33,20.15-16.48,8-1.09,14.79-15.61,25.42-4.21,11.13,36-19.61-3.2-11.19,40.56-2.66,7.53-16.63-3.56-18.89,7.84C196,84.23,160.72,83.88,150.06,64.09Zm74.4-55.48c-20.3-12.53-5,10.36-42.6,1.49-2.57,8.45,4.49,24.53-9,25.79-66.09-6.56,12.69,83.88,22.37,16.85,3.47-8.53,14.2.62,18-5.57-8.95-43.58,22-6.81,11.23-38.56Z" transform="translate(87.18 123.01)" style="fill:#9763f0"/><path d="M138,76.89c40.82-21,59.88-48.31,62.47-52C205.72,24.65,170.72,66,138,76.89Z" transform="translate(87.18 123.01)" style="fill:#9763f0"/><path d="M125.87,109.88c3.43,15.8,114.84-18.39,100.94-19.14C225.14,91.63,147.56,120.58,125.87,109.88Z" transform="translate(87.18 123.01)" style="fill:url(#Безымянный_градиент_82-5)"/><path d="M254.12,77.41c3.37-.33-13.7,22.39-28,13.58C228.27,85.5,242.66,70.93,254.12,77.41Zm-1.48,1.14c-12.54-5.12-22.12,8.47-24.5,12.28,14.4,2.76,22.58-9,24.5-12.28Z" transform="translate(87.18 123.01)" style="fill:url(#Безымянный_градиент_82-6)"/><path d="M206.72,74.41c3.49-1.55,1.06,29.14-13.51,28.24C192,97.17,192.18,76.92,206.72,74.41ZM206,86.1a32.8,32.8,0,0,0,.25-9.89c-13.15,3.44-12.06,20.78-11.55,25.27,6.1-3,9.9-8.17,11.26-15.38Z" transform="translate(87.18 123.01)" style="fill:url(#Безымянный_градиент_82-7)"/><path d="M193.82,101.87c3.17-2.2,30.63.34,27.34,13.83C219.6,116.75,196.23,117.05,193.82,101.87Zm1.42,1.42c7.37,12.93,21.47,11.5,25.13,10.89C216,101.16,199.63,102.64,195.24,103.29Z" transform="translate(87.18 123.01)" style="fill:url(#Безымянный_градиент_82-8)"/><path d="M173,85.59c6.2,12.79-25.21,42.32-17.07,16.84C158.47,92.38,164.66,86,173,85.59Zm-.81,1.7c-13.52,1.24-15.69,18.84-16,23.46,13.94-4.18,15.76-19.61,16-23.46Z" transform="translate(87.18 123.01)" style="fill:url(#Безымянный_градиент_82-9)"/><path d="M155.35,111c3.13-1.52,30.35,7,24.72,19.39C178.56,131.1,154.94,126,155.35,111Zm1.15,1.71c5.15,13.72,19.27,15.71,23,16-2.25-13.51-18.47-15.66-23-16Z" transform="translate(87.18 123.01)" style="fill:url(#Безымянный_градиент_82-10)"/><path d="M469,71.15c-4,11.49-86.53-51.65-74.32-46.73C401.36,30.42,451.64,72.15,469,71.15Z" transform="translate(87.18 123.01)" style="fill:#9763f0"/><path d="M388.19,11.84c15.11,21.31-1.66,12.6-9,3.2C367.42-1.24,382,4.7,388.19,11.84ZM393,23.5C391.77,19.83,386.57,6.4,376,6.22,377,9.3,381.4,20.93,393,23.5Z" transform="translate(87.18 123.01)" style="fill:#9763f0"/><path d="M416.39,21.72c4,4.86,4.13,13.42,3,17.89C414.54,59.43,402.26,3.06,416.39,21.72Zm.78,20.73c1.13-3.24,4.79-16.06-4.82-22.94C409.72,25.25,410.85,36.81,417.17,42.45Z" transform="translate(87.18 123.01)" style="fill:#9763f0"/><path d="M417.93,43.2c-2.51,6.78-15.07,5.92-19.3,3.62C380.84,37.25,417.79,37.53,417.93,43.2Zm-22.74.56c2.74,1.65,13.41,7.31,21.22-.12C413.12,41.72,400.72,35.29,395.19,43.76Z" transform="translate(87.18 123.01)" style="fill:#9763f0"/><path d="M442.47,42.09c3.55,4.37,4.83,12.48,4.46,17C445.43,79.68,423.41,20.81,442.47,42.09ZM445.39,62c.49-3.62,1.68-17.7-8.57-23C436.37,41.94,435.27,54.26,445.39,62Z" transform="translate(87.18 123.01)" style="fill:#9763f0"/><path d="M446.34,62.7c-1.55,6.78-12.61,8.9-17.2,7.79C408.54,65.46,444.55,56.48,446.34,62.7Zm-21.93,5.35c3,1,14.21,4.07,20.43-4.69C441.28,62.15,428.39,58.52,424.41,68.05Z" transform="translate(87.18 123.01)" style="fill:#9763f0"/><path d="M382.48,32.4C406.09,31.23,377,44,407.21,47.11c1.23,3-4.74,10.94,1.7,13.33,39.35,19.22-33.58,55.45-17.15,8.9-.71-7.72-16.75-3.37-15.93-9.45.58-3.74,7.56-7.4,5.13-14C378.21,41.71,376.45,36.52,382.48,32.4Z" transform="translate(87.18 123.01)" style="fill:url(#Безымянный_градиент_82-11)"/><path d="M412.47,102.23c1.79-21.82-24.07-55.68-23-50.65C389.8,51.86,410.07,76.42,412.47,102.23Z" transform="translate(87.18 123.01)" style="fill:url(#Безымянный_градиент_98-13)"/><path d="M144.44-26.15c-103.94-30-67.5-77.52-28-80.1,8.9.55,12.2-3.85,18.25-11.46-73.77,3.87-147.28,4.47-221.87,5.45,25.17,31.4-23.89,83.17,22.4,98.75C-44.66-7.87-17.57-15.59-5.48,6,5,29.15-20.48,58.87,6.64,78.25c11.61,8.23,26.59,7.27,41.1,12.36,63.69,25.82-16.56,93.39,75.08,120.48-9.77-73.31-16.77-85.71,37.41-123.25C196.63,52.21,184.5-4.67,144.44-26.15Z" transform="translate(87.18 123.01)" style="fill:url(#Безымянный_градиент_98-14)"/><path d="M520.62-121.7c-51.83-1.49-106.31-1.63-158.8-.82-5.57,92.2,106.9,140.63,48.47,193.45-29.41,26.44-79.79,22-95.79,63.77-15,57.38,64.17,52.21,86.46,69.31,9.64,3.58,13.75,16.67,20.84,16.56,31-18.84,24.84-47.45,22.77-69.42,2.15-72.42,71-42.41,62.77-71.8,8-47.46-.88-63.3,2.6-84.1,1.92-10.85,5.61-18.9,12.94-28.56C558.24-69.64,521.2-86.42,520.62-121.7Z" transform="translate(87.18 123.01)" style="fill:url(#Безымянный_градиент_98-15)"/><path d="M417.2-72c-11.85,28.54,11.6,11.7,11.22,25.71-2.65,27.15,8.6,12.06,22,17.25,8.28,4.76,3.71,19.41,9.6,27.57,40.88,30.36,70-64.34,15.5-43.89-24.45-1.53,4.07-39.32-30.54-25.19-6.28,1.22-10.39-4.67-13.84-7.82C426.57-80.82,421.2-76.89,417.2-72Z" transform="translate(87.18 123.01)" style="fill:#744ddb"/><path d="M513.45,8.6c8-11-95.28-83.7-85.45-72.31C434.72-59.77,507.8-11.46,513.45,8.6Z" transform="translate(87.18 123.01)" style="fill:url(#Безымянный_градиент_98-16)"/><path d="M517.23-1.21c3.49-28.06-27.51-72.69-26.67-66.5C490.92-67.4,515.72-34.49,517.23-1.21Z" transform="translate(87.18 123.01)" style="fill:url(#Безымянный_градиент_98-17)"/><path d="M495.34,20.42c4.82-10.06-64.8-38.46-71.12-37.23C425.16-14.62,486.48,2.36,495.34,20.42Z" transform="translate(87.18 123.01)" style="fill:url(#Безымянный_градиент_82-12)"/><path d="M401.72-20.87c-2-1.51,18.45-7.07,23.39,5C421.54-13.64,405.72-11.33,401.72-20.87Z" transform="translate(87.18 123.01)" style="fill:url(#Безымянный_градиент_82-13)"/><path d="M429.49,3.61c-2.44.07,10.24-17.87,21.3-11C449.42-4.81,440.63,9.23,429.49,3.61Zm5.82-6.82a24.36,24.36,0,0,0-4.69,6c9.64,4.16,16.93-7,18.67-10A15.17,15.17,0,0,0,435.31-3.21Z" transform="translate(87.18 123.01)" style="fill:url(#Безымянный_градиент_82-14)"/><path d="M450-7.1c-1.93.21-18.43-13.61-10.6-21.62C440.25-28.94,455.48-18,450-7.1Zm-.25-1.55c1.41-11.45-7.9-17.3-10.43-18.67C436.06-17.23,446.77-10.34,449.72-8.65Z" transform="translate(87.18 123.01)" style="fill:url(#Безымянный_градиент_82-15)"/><path d="M455.25,12.81c-2.46-.39,13.72-15.87,23.39-7.26C476.72,8.35,464.61,20,455.25,12.81Zm1.28-.66c8.86,5.69,18.27-4.07,20.59-6.74C466.64,1.31,458.44,9.9,456.53,12.15Z" transform="translate(87.18 123.01)" style="fill:url(#Безымянный_градиент_82-16)"/><path d="M477.77,5.65c-1.56.37-15.49-18.11-6.38-23.77C472.35-18.08,484.87-3.85,477.77,5.65Zm.07-1.59c3.14-10.88-4.6-18.84-6.79-20.82C466.26-7.37,475.22,1.69,477.84,4.06Z" transform="translate(87.18 123.01)" style="fill:url(#Безымянный_градиент_82-17)"/><path d="M520.61-121.7c-1.49,20.7,11.11,44.93,3.17,64.37-44.95,69.07-59.6,81.17-25.08,111.5,11.32,13.71,2,29.8.88,39.09,119.28-39.62,3.93-147.21,112.5-170.61,20-6.38,36.84-22.82,49-39.56C614.25-118.72,567.44-120.49,520.61-121.7Z" transform="translate(87.18 123.01)" style="fill:url(#Безымянный_градиент_98-18)"/><path d="M122.72,9.79c1,2.74,5.62,13.06,14.21,10.94C135.84,16.48,129.23,9,122.72,9.79Z" transform="translate(87.18 123.01)" style="fill:#9763f0"/><path d="M149.85,60.37c2.53-1.41,12-7.34,8.84-15.76C154.72,46.21,148.22,53.85,149.85,60.37Z" transform="translate(87.18 123.01)" style="fill:#9763f0"/><path d="M92.49-16.14C90.2-14.36,81.72-7.06,86.06.79,89.79-1.48,95-9.6,92.49-16.14Z" transform="translate(87.18 123.01)" style="fill:#9763f0"/><path d="M342.3,119.82c-2.29,1.77-10.78,9.08-6.43,16.93C339.6,134.48,344.72,126.36,342.3,119.82Z" transform="translate(87.18 123.01)" style="fill:#9763f0"/><path d="M239,37.36c1,2.74,5.61,13.06,14.2,11C252.17,44.05,245.57,36.54,239,37.36Z" transform="translate(87.18 123.01)" style="fill:#9763f0"/><path d="M252.27-16.14c-2.78.76-13.34,4.26-12.22,13.2C244.31-3.54,252.36-9.41,252.27-16.14Z" transform="translate(87.18 123.01)" style="fill:#9763f0"/><path d="M280.94,25c-1.82-2.28-9.26-10.68-16.81-6C266.48,22.73,274.61,27.72,280.94,25Z" transform="translate(87.18 123.01)" style="fill:#9763f0"/><path d="M273.57,114.68c1.19,2.68,6.26,12.75,14.73,10.2C287.05,120.68,280.08,113.52,273.57,114.68Z" transform="translate(87.18 123.01)" style="fill:#9763f0"/><path d="M201.34,248.83c1,2.74,5.61,13.06,14.2,10.95C214.49,255.52,207.89,248,201.34,248.83Z" transform="translate(87.18 123.01)" style="fill:#9763f0"/><path d="M291.87,214c-2.32,1.75-10.88,9-6.62,16.86C289,228.67,294.25,220.61,291.87,214Z" transform="translate(87.18 123.01)" style="fill:#9763f0"/><path d="M324.62,288.49c1.05,2.74,5.62,13.05,14.21,10.94C337.78,295.17,331.17,287.66,324.62,288.49Z" transform="translate(87.18 123.01)" style="fill:#9763f0"/><path d="M250.28,218.62c-2.75.89-13.14,4.88-11.62,13.76C242.89,231.59,250.72,225.35,250.28,218.62Z" transform="translate(87.18 123.01)" style="fill:#9763f0"/><path d="M245.42,128.28c-2.86.38-13.77,2.43-13.82,11.45C235.9,139.71,244.64,135,245.42,128.28Z" transform="translate(87.18 123.01)" style="fill:#9763f0"/><path d="M268.21,89.31c2.66-1.12,12.68-6,10.44-14.71C274.5,75.76,267.27,82.65,268.21,89.31Z" transform="translate(87.18 123.01)" style="fill:#9763f0"/><g style="clip-path:url(#clip-path-2)"><path d="M370.66,36.93c39.29.41,8.33,20.12,23.25,26.36,34.95,12.32,10.54,15.65,9.76,36,1.26,12,18.46,14.12,25.85,23.64,21.47,65.54-110.93,56.61-57.83-1.49,10.21-21.18-23.85-19.82-24.56-32.46-.6-6.7,7.59-11.54,11.32-18.39C364.12,52.54,344.72,45.53,370.66,36.93Z" transform="translate(87.18 123.01)" style="fill:#744ddb"/><path d="M415.17,195.16c-17.87,3-49.07-163.5-40.26-139.88C377.19,72.05,395,177.6,415.17,195.16Z" transform="translate(87.18 123.01)" style="fill:url(#Безымянный_градиент_98-19)"/><path d="M412.45,127c-7.62,6.92-15.17,34.49-27.87,21.59-7.18-4.33-16.47-6.36-12.37-8,.3-.1,22.48,11.56,21.34,10.56C395.64,149.74,412.38,120.76,412.45,127Z" transform="translate(87.18 123.01)" style="fill:url(#Безымянный_градиент_98-20)"/><path d="M396.72,77.72c-1.41,1.1-16.22,17.56-16.57,15.88-1.85-1.72-25.48-8.82-19.67-10.25C391.92,100.59,380.72,82.08,396.72,77.72Z" transform="translate(87.18 123.01)" style="fill:url(#Безымянный_градиент_98-21)"/><path d="M304.56,122c-16.67,30.4,14.43,16.69,14.06,27.89.71,7.1-6.11,17.23-4.66,24,2.13,9.14,22-1.64,23.31,12.35-3.23,31.42,28.34,40,51.21,22.07,35-55.19-21.21-42.21-24.66-46.51-13.5-7.28,5.92-36-8.79-35.08-6.84.62-15.41,8-24.58,1.85C323.25,119.64,315.27,113.34,304.56,122Z" transform="translate(87.18 123.01)" style="fill:#573aa4"/><path d="M408.61,219.86c-34.47-7.58-69.89-62.41-74.78-69.86C327.08,131.28,357.31,196.16,408.61,219.86Z" transform="translate(87.18 123.01)" style="fill:url(#Безымянный_градиент_98-22)"/><path d="M441.3,82.83c-.93-.71-15.47-.8-23.47,11.43,3-17.11,3-27.71,6.42-29.52C452.53,28.64,413,28,420.86,65.9c-.47,2.39-2.47,12.84-4.5,27.1-.27-13-21.88-29-16.26-10a24.84,24.84,0,0,0,13.13,17.39c4.6,6.84-2.35,27.27-.64,34.76-2.3-13.53-28.86-27.58-18.27-8a25.93,25.93,0,0,0,18.25,14.63c.48,13.24,2.41,28.93,7.35,28.71-2.06-3.79-10.95-30.45-1.79-29.83,31-11.44,17.6-38.72-3.88-6.75C412.25,75.87,434.4,117.63,441.3,82.83Zm-40.44-6.92c13.3,2.38,14.44,19.07,14.5,23.59-13.64-5.38-14.52-19.81-14.5-23.59Zm29.41-38.12c6.92,11.82-4.72,23.61-8,26.62C417.29,50.33,427.44,40.25,430.27,37.79Zm-37,81.53c13.45.18,18.09,16.18,19.13,20.68C398.25,137,394.09,123.08,393.22,119.32Zm41.27.83c.93,13.85-15.77,18.78-20.19,19.85,1.84-14.73,16.5-19,20.19-19.85ZM417.21,99.82c1.68-9,13.82-16,22.64-15.61C438.6,98,421.64,99.63,417.21,99.82Z" transform="translate(87.18 123.01)" style="fill:url(#Безымянный_градиент_82-18)"/><path d="M34.08,34c-14.27-.58-3.22-99.46,2-105.66C38-69.22,19.22,12.55,34.08,34Z" transform="translate(87.18 123.01)" style="fill:url(#Безымянный_градиент_82-19)"/><path d="M48.91-8.58C43.79,1.56,23.35,10,27,2.41,32.43-18.34,57.37-25,48.91-8.58ZM28.45,3.56c4.41-1.07,21.12-6,20.19-19.84C45-15.44,30.29-11.17,28.45,3.56Z" transform="translate(87.18 123.01)" style="fill:url(#Безымянный_градиент_82-20)"/><path d="M28.27,4.94C17.48,6,8.59-7.24,7-12.73,2.48-21,9.36-20.49,18.48-14.5,26.66-7.1,28.29,3.92,28.27,4.94Zm-20.9-22C8.24-13.3,12.37.6,26.5,3.62c-1-4.56-5.68-20.55-19.13-20.73Z" transform="translate(87.18 123.01)" style="fill:url(#Безымянный_градиент_82-21)"/><path d="M492.35,49.86C441.83,59,477.29,20.54,460.93,15.51c-26-3.88-22,.06-13.77-22.28C447-15,433.63-23.53,445.93-33c27-7.49,9.7,10.76,20.25,15.6,6.47,1,14.6-3,19.34,1.57.22,18.82-4.12,15.6,17,23.27C515.36,18.07,507.89,44.38,492.35,49.86ZM446.72-31.82c-14.53,18.65,9.43,6.27-3.38,43.34,7.94,3.56,24.41-1.77,24.1,12.06-13.77,66.24,83.1-3.37,19-20.76-7.92-4.49,2.21-14.32-3.39-18.89-43.46,4.13-4.13-23.11-36.29-15.75Z" transform="translate(87.18 123.01)" style="fill:#9763f0"/><path d="M503.45,63.51C487.8,20.07,463.05-2.82,459.86-5.68,460.18-11,496.62,29.35,503.45,63.51Z" transform="translate(87.18 123.01)" style="fill:#9763f0"/><path d="M165.2,46.19c26,53.42,34.11,107.61-35.14,144.2.23,4.23-13-18.56-14.4-51,4.33-47,26.05-88.35,33.25-63.61C152.06,61.68,145.94,53.52,165.2,46.19Z" transform="translate(87.18 123.01)" style="fill:#573aa4"/><path d="M129.34,191.39c17.1-36.6,34.21-136.47,35.13-145.13C170,46.88,138.15,189.94,129.34,191.39Z" transform="translate(87.18 123.01)" style="fill:url(#Безымянный_градиент_98-23)"/><path d="M148,135.19c-8.13,2.3-15.77-58.93-13.13-60.45C138.44,101.62,139.92,125.09,148,135.19Z" transform="translate(87.18 123.01)" style="fill:url(#Безымянный_градиент_98-24)"/><path d="M145.41,152.25c0,.14-1.65-.63-.07-1.45,8.22-.2,15-5,40-26.85C162.83,150.91,146.64,152.51,145.41,152.25Z" transform="translate(87.18 123.01)" style="fill:url(#Безымянный_градиент_98-25)"/><path d="M154.15,107.4c9.24-4.53,26.66-25.07,24.52-26.24C183.22,83.69,162.79,107.2,154.15,107.4Z" transform="translate(87.18 123.01)" style="fill:url(#Безымянный_градиент_98-26)"/><path d="M154.72,114.79c-.93.7-5-2.11-.54-1.46,12.15.73,26-22,26.38-22.48C185.46,92.36,160.62,117.65,154.72,114.79Z" transform="translate(87.18 123.01)" style="fill:url(#Безымянный_градиент_98-27)"/><path d="M139.31,162.56c-9.5,1.7-27.71-41.42-21.17-35.23C121.72,141.41,128.81,154.09,139.31,162.56Z" transform="translate(87.18 123.01)" style="fill:url(#Безымянный_градиент_98-28)"/><path d="M138.27,170.57c-20-7.39-25.45-26.36-21.32-23C118.72,156.5,125.18,160.32,138.27,170.57Z" transform="translate(87.18 123.01)" style="fill:url(#Безымянный_градиент_98-29)"/><path d="M25.1,46.61C-7.16,3.73,44.83,18.49,41,1.05c-9.47-27.15-9.25-20,13.85-23.58,7-5.1,8.84-20.07,22.56-13.36C97.65-13.77,69.91-20.51,73-9.63,75.3-3,82.41,2.25,80.77,9.15c-14.34,9-17.5,2-12.69,24.35C67.44,52.56,37.81,59,25.1,46.61ZM76.72-34.58C53.21-40,73.12-18.58,36.9-18.7,34.14-11.29,50,3.67,37.77,10.49c-67,18.1,40.49,78.12,27.08,6.82C66.31,8.48,82,14.31,79.39,4.7,55.15-29.23,98.72-9.63,76.72-34.58Z" transform="translate(87.18 123.01)" style="fill:#9763f0"/><path d="M18.11,63.42C48.43,29.81,58.41-4.63,59.52-10,64.46-12.23,45.62,40.76,18.11,63.42Z" transform="translate(87.18 123.01)" style="fill:#9763f0"/><path d="M524.78-68.09c28.84,36.18,40,74.52-3.24,110.72.36,2.47-9-8.37-16.22-27.19-9.43-32.75,3-78.4,12.18-59.36C517.64-54.71,511.83-59.52,524.78-68.09Z" transform="translate(87.18 123.01)" style="fill:#744ddb"/><path d="M521.21,43.44c6.24-24.44,4.07-103.44,3.06-111C528-73.66,527.64,41.92,521.21,43.44Z" transform="translate(87.18 123.01)" style="fill:url(#Безымянный_градиент_98-30)"/><path d="M526.08-.5c-5.29,3.23-20.58-39.93-18.94-41.9C512.8-25.75,519.81-4.69,526.08-.5Z" transform="translate(87.18 123.01)" style="fill:url(#Безымянный_градиент_98-31)"/><path d="M526.83,12.34c0,.1-1.3-.19-.28-1,4.61-.5,11-6.94,24.94-26C539.53,8.21,527.66,12.48,526.83,12.34Z" transform="translate(87.18 123.01)" style="fill:url(#Безымянный_градиент_98-32)"/><path d="M524,20.83c-5.78,2.93-26.2-24.24-21-22.36C506.26,6.32,516.2,17.32,524,20.83Z" transform="translate(87.18 123.01)" style="fill:url(#Безымянный_градиент_98-33)"/><path d="M524.48,26.84c-15-1.93-22.85-14.86-19.13-13.38C506.72,18.09,513.11,21.7,524.48,26.84Z" transform="translate(87.18 123.01)" style="fill:url(#Безымянный_градиент_98-34)"/><path d="M117.36,145.51c-51.15-10.46-1.49-34-17.78-44.58-25-12.65-16-9.46-3.59-25.46C98,67.09,90,55,104.18,51c27.86,3.38,5.06,13.61,13.17,22.12,5.67,3.35,14.68,2.68,17.41,8.73-7.53,19-8.53,13,7.37,28C150.24,124.62,133.78,146.26,117.36,145.51ZM104.49,52.43c-13,5.35-5.79,10.67-7,23.2-29.11,29.27,6.26,10.31,7,33.92-37.91,61,77.71,29,24.39-10-4.54-6.57,3.77-10.66,4.56-17.29-43.09-16.57,3.92-23.43-28.91-29.83Z" transform="translate(87.18 123.01)" style="fill:#fdd848"/><path d="M122.72,162.38c1.09-45.49-12.92-75.49-15.46-80.62C108.49,75.21,128.88,126.63,122.72,162.38Z" transform="translate(87.18 123.01)" style="fill:#fdd848"/><path d="M117.36,145.51c-51.15-10.46-1.49-34-17.78-44.58-25-12.65-16-9.46-3.59-25.46C98,67.09,90,55,104.18,51c27.86,3.38,5.06,13.61,13.17,22.12,5.67,3.35,14.68,2.68,17.41,8.73-7.53,19-8.53,13,7.37,28C150.24,124.62,133.78,146.26,117.36,145.51ZM104.49,52.43c-13,5.35-5.79,10.67-7,23.2-29.11,29.27,6.26,10.31,7,33.92-37.91,61,77.71,29,24.39-10-4.54-6.57,3.77-10.66,4.56-17.29-43.09-16.57,3.92-23.43-28.91-29.83Z" transform="translate(87.18 123.01)" style="fill:url(#Безымянный_градиент_82-22)"/><path d="M122.72,162.38c1.09-45.49-12.92-75.49-15.46-80.62C108.49,75.21,128.88,126.63,122.72,162.38Z" transform="translate(87.18 123.01)" style="fill:url(#Безымянный_градиент_82-23)"/><path d="M130.14,161.94c7.8,17.55,129.81-40.64,112.62-38.26C237.66,126.81,156,170.52,130.14,161.94Z" transform="translate(87.18 123.01)" style="fill:#9763f0"/><path d="M272.19,103.85c3.81-1-12.14,28-30,20.12C244.72,115.62,258.22,98.57,272.19,103.85Zm-1.53,1.54c-15.18-3.83-24.05,13.31-26.19,18.07C261.43,124.29,269,109.41,270.66,105.39Z" transform="translate(87.18 123.01)" style="fill:#9763f0"/><path d="M217.3,108.12c3.61-2.41,6,32.94-11.08,34.62C204.14,136.6,200.85,113.57,217.3,108.12Zm1,13.53A37.4,37.4,0,0,0,217,110.26c-14.54,6.08-10.58,25.8-9.3,30.86,6.55-4.43,10.1-11,10.53-19.47Z" transform="translate(87.18 123.01)" style="fill:#9763f0"/><path d="M206.84,141.71c3.28-2.89,34.75-4.93,33.58,11.39C239.05,154.5,212,158.87,206.84,141.71Zm1.85,1.4c10.47,13.63,26.42,9.7,30.52,8.39-7.08-14.21-25.59-9.85-30.49-8.39Z" transform="translate(87.18 123.01)" style="fill:#9763f0"/><path d="M180.45,126.41c4-2-.12,34.4-17.14,32.92C162,151.75,164.46,128.49,180.45,126.41Zm-.66,2.08c-15.31,3.62-15,24.17-14.71,29.51,15.36-7.06,15-25.06,14.71-29.51Z" transform="translate(87.18 123.01)" style="fill:#9763f0"/><path d="M164.14,158.45c3-2,35.43,2.45,31.47,18.2C194.39,177.68,166,176,164.14,158.45Zm1.58,1.76c8.05,14.91,24.56,14.9,28.93,14.62-4.74-15.14-23.68-15-28.93-14.62Z" transform="translate(87.18 123.01)" style="fill:#9763f0"/><path d="M126.72-1.58c-33.54-22.88-2.54,24.48-45.37,0C72.41-1,79.39,19.06,65.72,17,40.78,8.9,28.36,36.68,39.92,58.76,80.92,98.06,79,48,83.26,44.52,91.54,33.38,113.89,56,114.6,41.61c.18-6.17-4.1-14.68,2.49-21.56C125.52,15.52,132.28,9.28,126.72-1.58Z" transform="translate(87.18 123.01)" style="fill:#573aa4"/><path d="M26.93,74.74c11.15-28,61.08-50.4,70-54.41C117.83,15.67,56.3,32.2,26.93,74.74Z" transform="translate(87.18 123.01)" style="fill:url(#Безымянный_градиент_98-35)"/></g><path d="M170.91,509.09c-83.74-2.23-87,41.14-8.15,40.36.55,47.3,98.62,10.69,118.42,14.61,24.47.85,46,12.47,70.5,15,32.74,1.28,15.48-17.1,34.19-18.54,106.46-3.9,79.61-44,31.75-54.24-42.09-11.09-83.15,1.35-124.89,5.55C252.11,513.77,211.93,508.53,170.91,509.09Z" transform="translate(87.18 123.01)" style="opacity:0.28999999165534973;isolation:isolate;fill:url(#Безымянный_градиент_98-36)"/><path d="M160.41,502.71c-83.74-2.23-87,41.15-8.15,40.36.55,47.3,98.62,10.69,118.42,14.61,24.47.85,46,12.47,70.5,15,32.74,1.29,15.48-17.1,34.19-18.54,106.46-3.9,79.62-44,31.75-54.24C365,488.81,324,501.25,282.23,505.45,241.61,507.39,201.43,502.15,160.41,502.71Z" transform="translate(87.18 123.01)" style="opacity:0.44999998807907104;isolation:isolate;fill:url(#Безымянный_градиент_98-37)"/><path d="M278.89,232.36h-.17S278.72,232.18,278.89,232.36Z" transform="translate(87.18 123.01)" style="fill:#231f20"/><path d="M400.48,88.07a1,1,0,0,0-.1.17l-.05-.11A.47.47,0,0,1,400.48,88.07Z" transform="translate(87.18 123.01)" style="fill:url(#Безымянный_градиент_97)"/><path d="M292,535.05c9.12,5.88,23.87-1.64,35.73,1.14,7.15,1.41,10.47,9.12-3.65,6.92,5.13-1.11,14.64,3.6,4.56,4.3,3.16-.35,6.46,2.67.08,3.62,5.82-.49,3.14,4.69-8.55-.39-12.58-1.15-51.75,5.41-33.53-17.8C286,531.58,290.72,534.76,292,535.05Z" transform="translate(87.18 123.01)" style="fill:#fdb88e"/><path d="M241,491.81s25.68,13.81,75.66,0c3.47,2.52,10.41,9.2,10.41,9.2-69.15,39.26-34.54,35.42-95.44,2.48Z" transform="translate(87.18 123.01)" style="fill:url(#Безымянный_градиент_98-38)"/><path d="M170.52,491.79c-17.58,29.27,120.23,60,120.23,60l3.47-15.93S191.72,456.51,170.52,491.79Z" transform="translate(87.18 123.01)" style="fill:url(#Безымянный_градиент_98-39)"/><path d="M394,491.79C411.6,521.06,272.79,548,272.79,548l-2.47-12.14S372.81,456.51,394,491.79Z" transform="translate(87.18 123.01)" style="fill:url(#Безымянный_градиент_98-40)"/><path d="M324.62,498.78c-15.27,6-74.36,13.81-88.85-.8,13.47-12.56,13.81-32.19,11.1-48h62.18C306,465.12,307.21,485.52,324.62,498.78Z" transform="translate(87.18 123.01)" style="fill:#fdb88e"/><path d="M292.26,544.81c-1.91,8.53-1,6.89-3.34,6.52-16.16-3.82-151.54-36-113-65.19C194.38,530.62,250.56,536.89,292.26,544.81Z" transform="translate(87.18 123.01)" style="fill:#282062"/><path d="M272.24,539.75c1.61,8.59.76,6.92,3.11,6.64,16.28-3.24,152.69-30.5,115.21-61.09C370.55,529.09,314.18,533.34,272.24,539.75Z" transform="translate(87.18 123.01)" style="fill:#282062"/><path d="M319.51,500.43c-18.92,5.18-63.38,10.07-80.28.18,39-39.35-17.51-54.34,53.49-50.61C309.66,446.46,295.92,496.46,319.51,500.43Z" transform="translate(87.18 123.01)" style="fill:#fdb88e"/><path d="M257.28,450.45c-8.12,11.82,2.39,31.94-11.19,42.38-4.72,2.21-4.21,11.53-10.32,5.15,13.47-12.56,13.81-32.19,11.1-48h10.78C257.52,450.13,257.4,450.29,257.28,450.45Z" transform="translate(87.18 123.01)" style="fill:#ffa67c"/><path d="M324.56,498.73c-22.47,9.08-20.39-38.07-26-48.75h10.52C306,465.1,307.21,485.47,324.56,498.73Z" transform="translate(87.18 123.01)" style="fill:#ffa67c"/><path d="M271.72,533.28c-9.12,5.88-23.87-1.64-35.73,1.14-7.15,1.41-10.48,9.12,3.65,6.92-5.13-1.11-14.64,3.6-4.56,4.3-3.16-.35-6.47,2.67-.08,3.62-5.82-.49-3.14,4.69,8.55-.39,12.57-1.15,51.75,5.41,33.53-17.8C277.72,529.81,273,533,271.72,533.28Z" transform="translate(87.18 123.01)" style="fill:#fdb88e"/><path d="M317.58,423.94c2.05,12,5.74,56.09,14.7,59.18,19.26,9.11,87.09,22.07,68.67-10.66-4.85-1.43.29,11.72-3.16,13-3-31.41-5.19-15.17-15.09-3.62-59.6-2.79-38-35.49-45.17-62.65-1.27-32.73-22.22-37.61-39.06-38.8C297,386.56,288.6,427,317.58,423.94Z" transform="translate(87.18 123.01)" style="fill:#fdb88e"/><path d="M317,424l.58-.06c9.93,76.32,8.41,58.9,67.42,70.24-26.51-15.29-33.42-5.92-46.26-14.12C322.49,473,325.92,381.39,317,424Z" transform="translate(87.18 123.01)" style="fill:#ffa67c"/><path d="M320.57,385.27c30.61,21.47,10.78,68.38,23,83.06,11.77,6,39.4,24.88,43.26,7-13.79,10.14-16.38,4-32.42-4.65C327.18,464.29,354.72,395.48,320.57,385.27Z" transform="translate(87.18 123.01)" style="fill:#ffa67c"/><path d="M246.21,383.49c42.56-15.84,61,.81,71.89,2.09.33-2.51-1.12,35.86-1.08,38.27.61-.2-10.8,12.35-8,26.13l-60.75-.65C246.8,441.77,242.32,397,246.21,383.49Z" transform="translate(87.18 123.01)" style="fill:#fdb88e"/><path d="M292,377.91c-9.72,33.39-30.17,6.78-21.16-15.07,3.2,4,12.57,3.7,18.3-.06Z" transform="translate(87.18 123.01)" style="fill:#fdb88e"/><path d="M243.25,423.94c-2,12-5.74,56.09-14.69,59.18-19.27,9.11-87.09,22.07-68.68-10.66,4.85-1.43-.28,11.72,3.16,13,3-31.41,5.2-15.17,15.09-3.62,59.6-2.79,38-35.49,45.17-62.65,1.27-32.73,22.22-37.61,39.06-38.8C263.81,386.56,272.23,427,243.25,423.94Z" transform="translate(87.18 123.01)" style="fill:#fdb88e"/><path d="M243.83,424l-.58-.06c-9.93,76.32-8.41,58.9-67.42,70.24,26.51-15.29,33.42-5.92,46.27-14.12C238.34,473,234.91,381.39,243.83,424Z" transform="translate(87.18 123.01)" style="fill:#ffa67c"/><path d="M324.62,498.78h-.09v-.09Z" transform="translate(87.18 123.01)" style="fill:#fdb88e"/><path d="M317,423.94c-16.3,35.27,7.24,24.31-42.3,26.06H247.09c-1.89-7.4-3.47-25.13-3.78-25.61,24-9.75,45-37.09,49.83-44.92C310,371.77,311.12,410.46,317,423.94Z" transform="translate(87.18 123.01)" style="fill:url(#Безымянный_градиент_96)"/><path d="M278,362.28c-.4.7-8.77-3.06-6.66-3.09l17.69-.84C286.47,360.34,282.27,362.75,278,362.28Z" transform="translate(87.18 123.01)" style="fill:#fdb88e"/><path d="M308.92,330.12c-.46,4.22-3.21,6.57-6.95,6.09-3.93,34.12-42.58,34.51-46.88,0-6.68,1.71-10.77-11.55-1.13-12-2.52-42.12,53-38.75,49.15,0C306.94,324.1,309.35,326.31,308.92,330.12Z" transform="translate(87.18 123.01)" style="fill:#fdb88e"/><path d="M278.39,363.24c-11.27-1.65-24.09-16.13-23.3-27-6.68,1.71-10.77-11.55-1.13-12-.55-6.44,1.38-31.27,24.32-29.77C259.72,312.34,246.72,347.93,278.39,363.24Z" transform="translate(87.18 123.01)" style="fill:#ffa67c"/><path d="M289.1,362.78c-3.57,2.83-19.77,6.21-18.34-3.41,5.12,3.64,11.68,4.38,18.31-1Z" transform="translate(87.18 123.01)" style="fill:#ef936f"/><path d="M266.3,372.75a19.35,19.35,0,0,1-.85,1.78C265.72,373.94,266,373.34,266.3,372.75Z" transform="translate(87.18 123.01)"/><path d="M240.26,385.27c-30.61,21.47-10.78,68.38-23,83.06-11.77,6-39.41,24.88-43.27,7,13.79,10.14,16.39,4,32.42-4.65C233.65,464.29,206.14,395.48,240.26,385.27Z" transform="translate(87.18 123.01)" style="fill:#ffa67c"/><path d="M278.58,486.63c-3.86.11-.86-8,2.11-2.15C280.59,485.16,280.5,485.81,278.58,486.63Zm0-4.25c-3.75-.11-.83,7.77,2.05,2.1C280.53,483.81,280.44,483.18,278.58,482.38Z" transform="translate(87.18 123.01)" style="fill:#eb9e74"/><path d="M316.47,423.86c-6.39,11.84-3.6,30.95-15.26,26.92-67.67-.34-52.24,4.34-58-27,5.48,30.75,23.45,19,37.44,17.1C301.55,448.1,312.32,443.62,316.47,423.86Z" transform="translate(87.18 123.01)" style="fill:#f85982"/><path d="M262.32,450.32c5.66-2.58,18.51-6.9,29.46.51Z" transform="translate(87.18 123.01)" style="fill:url(#Безымянный_градиент_97-2)"/><path d="M309.4,330.58c30-83.58-96.9-45.42-54.09-7.68-1.3-19.09,2.76-16.72,12.48-29.71,9.92,22.12,38.51,13.27,36.24,36.73C304.56,331.27,307.09,331.9,309.4,330.58Z" transform="translate(87.18 123.01)" style="fill:url(#Безымянный_градиент_98-41)"/></g></g></g></svg>