<svg xmlns="http://www.w3.org/2000/svg" xmlns:xlink="http://www.w3.org/1999/xlink" viewBox="0 0 631.94 589.78"><defs><mask id="mask" x="374.03" y="-8405.43" width="121.22" height="32766" maskUnits="userSpaceOnUse"/><linearGradient id="Безымянный_градиент" x1="406.1" y1="272.37" x2="406.1" y2="149.43" gradientTransform="translate(28.54 -194.68)" gradientUnits="userSpaceOnUse"><stop offset="0"/><stop offset="0.13" stop-color="#040404"/><stop offset="0.25" stop-color="#0f0f0f"/><stop offset="0.36" stop-color="#212121"/><stop offset="0.47" stop-color="#3b3b3b"/><stop offset="0.58" stop-color="#5d5d5d"/><stop offset="0.69" stop-color="#868686"/><stop offset="0.79" stop-color="#b7b7b7"/><stop offset="0.9" stop-color="#eee"/><stop offset="0.92" stop-color="#fff"/></linearGradient><clipPath id="clip-path" transform="translate(-19.93 81.57)"><path d="M357.52,526.31l-349.38-10q-4.07-239-8.14-478C0,17.15,16.91,0,37.78,0H456.52c20.86,0,37.77,17.15,37.77,38.31V508.17Z" fill="none"/></clipPath><linearGradient id="Безымянный_градиент_24" x1="0.64" y1="670.72" x2="422.43" y2="670.72" gradientTransform="translate(28.54 -194.68)" gradientUnits="userSpaceOnUse"><stop offset="0" stop-color="#381a96"/><stop offset="1" stop-color="#350e71"/></linearGradient><linearGradient id="Безымянный_градиент_24-2" x1="0.64" y1="664.99" x2="422.43" y2="664.99" xlink:href="#Безымянный_градиент_24"/><linearGradient id="Безымянный_градиент_24-3" x1="71.54" y1="312.8" x2="623.33" y2="312.8" xlink:href="#Безымянный_градиент_24"/><mask id="mask-3" x="354.1" y="36.32" width="121.22" height="122.94" maskUnits="userSpaceOnUse"><g transform="translate(-19.93 81.57)"><g id="mask-3-2" data-name="mask-3"><g id="mask-2-2"><g mask="url(#mask)"><ellipse cx="434.64" cy="16.22" rx="60.61" ry="61.47" fill="url(#Безымянный_градиент)"/></g></g></g></g></mask><linearGradient id="Безымянный_градиент_5" x1="434.64" y1="279.81" x2="434.64" y2="156.87" gradientTransform="translate(-19.93 -120.55)" gradientUnits="userSpaceOnUse"><stop offset="0" stop-color="#fff"/><stop offset="0.14" stop-color="#fcfbfd"/><stop offset="0.27" stop-color="#f1f0f7"/><stop offset="0.4" stop-color="#e0deee"/><stop offset="0.52" stop-color="#c8c4e0"/><stop offset="0.64" stop-color="#a8a2ce"/><stop offset="0.76" stop-color="#8279b9"/><stop offset="0.87" stop-color="#554a9f"/><stop offset="0.92" stop-color="#3d3092"/></linearGradient><clipPath id="clip-path-2" transform="translate(-19.93 81.57)"><path d="M631.06,210.42l-.32.14c-10,4.56-22.57,4-30.28,11.89-9.52,9.74-14,24.77-22.84,35.49a127.56,127.56,0,0,1-37.35,30.8c-54.14,29.29-124.1,8.94-182.59,9.68-34,.44-62.54,9.28-95.25,17.36-8,2-16.89,3.44-24.31-.27-8.24-4.13-13.44-14.05-22.51-15.55-11.23-1.86-23.42,7.65-35.17,8.2-12.38.58-24.78-2.55-35.94-7.86-21.24-10.1-40.85-29.81-44-54.31-2.68-21.17,7.64-43.48,25.41-54.91,4.06-2.61,8.62-4.85,11.24-8.94,2.74-4.3,2.76-9.77,2.58-14.89-.44-13-1.53-26.27,1-39.07s9.42-25.48,20.93-31.35c19.15-9.78,45.31,1.43,62.21-12,16-12.65,12.43-37.53,17.94-57.29,6.66-23.88,29.83-42,54.3-42.38,14.72-.24,28,4.33,40.68-6.53,4.21-3.61,7.5-8.23,11.65-11.92,8.46-7.53,19.8-10.64,30.72-13.43q72.46-18.47,146.17-31.23c35.42-6.12,70.52-9,87.81,29.76,7.34,16.46,8.92,35.22,6.11,53.05C616.38,23,609.11,40.29,608,58.59c-2.43,41.41,35.61,65.57,42.91,103.55C654.52,180.58,647.8,202.49,631.06,210.42Z" fill="none"/></clipPath><linearGradient id="Безымянный_градиент_6" x1="366.12" y1="408.68" x2="403" y2="604.31" gradientTransform="translate(174.18 -361.19) rotate(23.73) scale(0.99)" gradientUnits="userSpaceOnUse"><stop offset="0.14" stop-color="#4a4ba7"/><stop offset="0.65" stop-color="#33187e"/><stop offset="1" stop-color="#250069"/></linearGradient><linearGradient id="Безымянный_градиент_20" x1="192.08" y1="231.9" x2="192.13" y2="231.93" gradientTransform="translate(28.54 -194.68)" gradientUnits="userSpaceOnUse"><stop offset="0" stop-color="#f85982"/><stop offset="1" stop-color="#2a2182"/></linearGradient><linearGradient id="Безымянный_градиент_20-2" x1="195.61" y1="226.06" x2="293.38" y2="282.53" xlink:href="#Безымянный_градиент_20"/><linearGradient id="Безымянный_градиент_20-3" x1="264.47" y1="268.51" x2="264.85" y2="268.72" xlink:href="#Безымянный_градиент_20"/><linearGradient id="Безымянный_градиент_20-4" x1="265.67" y1="266.41" x2="266.15" y2="266.69" xlink:href="#Безымянный_градиент_20"/><linearGradient id="Безымянный_градиент_20-5" x1="137.6" y1="184.57" x2="321.91" y2="291.02" xlink:href="#Безымянный_градиент_20"/><linearGradient id="Безымянный_градиент_20-6" x1="186.36" y1="222.09" x2="188.14" y2="223.12" xlink:href="#Безымянный_градиент_20"/><linearGradient id="Безымянный_градиент_20-7" x1="125.07" y1="206.6" x2="309.69" y2="313.23" xlink:href="#Безымянный_градиент_20"/><linearGradient id="Безымянный_градиент_20-8" x1="191.86" y1="231.77" x2="192.63" y2="232.22" xlink:href="#Безымянный_градиент_20"/><linearGradient id="Безымянный_градиент_18" x1="334.62" y1="431" x2="441.25" y2="431" gradientTransform="translate(28.54 -194.68)" gradientUnits="userSpaceOnUse"><stop offset="0" stop-color="#f67b80"/><stop offset="0.04" stop-color="#2a2182"/><stop offset="1" stop-color="#f1b267"/></linearGradient><linearGradient id="Безымянный_градиент_16" x1="223.82" y1="555.66" x2="186.94" y2="368.06" gradientTransform="translate(-4.04 -140.99) rotate(-6.91)" gradientUnits="userSpaceOnUse"><stop offset="0" stop-color="#250069"/><stop offset="0.5" stop-color="#4a4ba7"/><stop offset="0.99" stop-color="#3e75c6"/></linearGradient><linearGradient id="Безымянный_градиент_17" x1="74.34" y1="310.89" x2="260.82" y2="310.89" gradientTransform="translate(6.43 -149.67) rotate(-6.91)" gradientUnits="userSpaceOnUse"><stop offset="0" stop-color="#33187e"/><stop offset="0.86" stop-color="#5c3fa7"/></linearGradient><linearGradient id="Безымянный_градиент_18-2" x1="-1884.32" y1="1458.53" x2="-1996.46" y2="1509.68" gradientTransform="translate(-1002.96 -1831.74) rotate(-81.95)" xlink:href="#Безымянный_градиент_18"/><linearGradient id="Безымянный_градиент_24-4" x1="135.5" y1="430.28" x2="135.7" y2="430.28" xlink:href="#Безымянный_градиент_24"/><linearGradient id="Безымянный_градиент_20-9" x1="261.27" y1="275.99" x2="266.2" y2="278.84" xlink:href="#Безымянный_градиент_20"/><linearGradient id="Безымянный_градиент_24-5" x1="74.96" y1="455.51" x2="123.56" y2="455.51" xlink:href="#Безымянный_градиент_24"/><linearGradient id="Безымянный_градиент_24-6" x1="222.81" y1="541.77" x2="221.7" y2="597.09" xlink:href="#Безымянный_градиент_24"/><linearGradient id="Безымянный_градиент_23" x1="42.08" y1="564.47" x2="111.16" y2="564.47" gradientTransform="translate(28.54 -194.68)" gradientUnits="userSpaceOnUse"><stop offset="0" stop-color="#f85982"/><stop offset="1" stop-color="#f981ac"/></linearGradient><linearGradient id="Безымянный_градиент_24-7" x1="257.71" y1="699.21" x2="174.96" y2="555.87" xlink:href="#Безымянный_градиент_24"/></defs><g id="Слой_2" data-name="Слой 2"><g id="Слой_1-2" data-name="Слой 1"><g clip-path="url(#clip-path)"><path d="M107.31,450c-27.11-.17-59.17.83-73.5,11.4-4.42,3.27-6.43,7.54-2.63,11,2.63,2.37,7.59,4,12.62,5.31a198.15,198.15,0,0,0,53.79,5.87c-4.67,8.5,11,17.14,29.28,19.61s37.93.33,56.14-2.27,36.7-5.71,55.74-5.19c24.89.69,46.8,7.45,70.5,11,7.69,1.15,15.91,2,23.83,1.24s15.46-3.39,17-7c.68-1.58.26-3.28,1.76-4.73,2.06-2,7.05-2.91,11.69-3.47,15.57-1.88,32-1.7,47.73-3.24s31.93-5.47,37.63-12.39c4.61-5.59,1.17-12.13-6.51-17s-19.07-8.17-30.95-10.62a285.38,285.38,0,0,0-56.15-5.6c-44.46-.11-86.92,10.31-131.37,8.83C185,451.42,146.64,450.2,107.31,450Z" transform="translate(-19.93 81.57)" opacity="0.45" fill="url(#Безымянный_градиент_24)" style="isolation:isolate"/><path d="M107.31,449.42c-27.11-.14-59.17.67-73.5,9.15-4.42,2.62-6.43,6-2.63,8.79,2.63,1.9,7.59,3.2,12.62,4.26a244.6,244.6,0,0,0,53.79,4.71c-4.67,6.82,11,13.76,29.28,15.73s37.93.27,56.14-1.82,36.7-4.58,55.74-4.16c24.89.55,46.8,6,70.5,8.83a124.1,124.1,0,0,0,23.83,1c7.93-.6,15.46-2.72,17-5.64.68-1.27.26-2.63,1.76-3.8,2.06-1.59,7.05-2.33,11.69-2.78,15.57-1.51,32-1.36,47.73-2.6s31.93-4.39,37.63-9.94c4.61-4.49,1.17-9.73-6.51-13.61S423.31,451,411.43,449a352,352,0,0,0-56.15-4.5c-44.46-.08-86.92,8.28-131.37,7.09C185,450.57,146.64,449.62,107.31,449.42Z" transform="translate(-19.93 81.57)" opacity="0.45" fill="url(#Безымянный_градиент_24-2)" style="isolation:isolate"/><path d="M631.06,210.42l-.32.14c-10,4.56-22.57,4-30.28,11.89-9.52,9.74-14,24.77-22.84,35.49a127.56,127.56,0,0,1-37.35,30.8c-54.14,29.29-124.1,8.94-182.59,9.68-34,.44-62.54,9.28-95.25,17.36-8,2-16.89,3.44-24.31-.27-8.24-4.13-13.44-14.05-22.51-15.55-11.23-1.86-23.42,7.65-35.17,8.2-12.38.58-24.78-2.55-35.94-7.86-21.24-10.1-40.85-29.81-44-54.31-2.68-21.17,7.64-43.48,25.41-54.91,4.06-2.61,8.62-4.85,11.24-8.94,2.74-4.3,2.76-9.77,2.58-14.89-.44-13-1.53-26.27,1-39.07s9.42-25.48,20.93-31.35c19.15-9.78,45.31,1.43,62.21-12,16-12.65,12.43-37.53,17.94-57.29,6.66-23.88,29.83-42,54.3-42.38,14.72-.24,28,4.33,40.68-6.53,4.21-3.61,7.5-8.23,11.65-11.92,8.46-7.53,19.8-10.64,30.72-13.43q72.46-18.47,146.17-31.23c35.42-6.12,70.52-9,87.81,29.76,7.34,16.46,8.92,35.22,6.11,53.05C616.38,23,609.11,40.29,608,58.59c-2.43,41.41,35.61,65.57,42.91,103.55C654.52,180.58,647.8,202.49,631.06,210.42Z" transform="translate(-19.93 81.57)" fill="url(#Безымянный_градиент_24-3)"/><g mask="url(#mask-3)"><ellipse cx="414.71" cy="97.79" rx="60.61" ry="61.47" fill="url(#Безымянный_градиент_5)"/></g><g clip-path="url(#clip-path-2)"><path d="M306.06,302.06c-1.66,1.39-3,2.42-4.19,3.52a50.48,50.48,0,0,1-16.58,10c-9.77,3.45-18.87,2.09-27.13-4.35-.47-.39-.93-.8-1.36-1.23-.1-.1-.1-.32-.2-.72,1.14-.47,2.33-.95,3.5-1.46,2.65-1.14,5.34-2.18,7.91-3.48a13.63,13.63,0,0,0,3.74-2.83c1.35-1.46,1-3.17-.8-3.84a11.49,11.49,0,0,0-4.83-.65,30.91,30.91,0,0,0-5.27,1.45c-3.1.88-6.18,1.84-9.31,2.59-2.12.5-2.2.38-3.28-1.62a57.65,57.65,0,0,1-6.6-23.56,86.38,86.38,0,0,1,.31-15,40.64,40.64,0,0,1,4.7,2.15c1.92,1.19,3.71,2.61,5.53,4,2.81,2.1,5.47,4.42,8.42,6.28a32.34,32.34,0,0,0,7.54,3.51c4.18,1.34,8.14.22,11.67-2.25,3.33-2.33,3.7-5.76,1.2-8.95a12.82,12.82,0,0,0-5.47-4c-2.59-1-5.2-2.06-7.85-2.91-7.32-2.35-14.06-5.68-19.56-11.29a25.12,25.12,0,0,0-2.51-1.95c2.4-7.18,6.17-13.7,10.33-20.33.62.61,1.1,1.06,1.55,1.53.83.91,1.61,1.86,2.47,2.73,3.43,3.46,6.77,4,11.85.94,2.72-1.64,3.11-4.36,1-6.73a39.86,39.86,0,0,0-4.56-4c-1.77-1.43-3.65-2.72-4.88-4.93,5.46-7.72,13.47-12.44,20.59-18.29a12.61,12.61,0,0,1,3.89,5.47c.88,2.12,1.5,4.36,2.53,6.4a19.49,19.49,0,0,0,3.38,5c2.52,2.51,6.87,1.85,9-1.07a3.7,3.7,0,0,0,.47-4,16.37,16.37,0,0,0-2.29-3.52c-2.09-2.37-4.36-4.57-6.46-6.94-1.43-1.63-2.68-3.42-4.14-5.29,1.49-1,2.72-1.84,3.92-2.69,3.51-2.49,7-5,10.52-7.48,5.12-3.53,8.11-8.68,10.59-14.23.26-.59.55-1.17.93-2,.59.51,1,.71,1.2,1a119.12,119.12,0,0,0,24.07,28.49c.26.22.47.5.81.86a27.51,27.51,0,0,1-4.57,6c-2.43,2.67-5,5.19-7.3,8-2.55,3.14-4.89,6.46-7.13,9.84a12.76,12.76,0,0,0-1.65,4.43c-.43,2.11.49,3.13,2.62,3.38A6.46,6.46,0,0,0,330,226c1.5-1.6,2.85-3.35,4.26-5.05q7.11-8.52,14.22-17c.38-.46.83-.88,1.44-1.51,6.82,5.75,13.64,11.33,20,17.87-1,1-1.83,2-2.72,2.91-2.34,2.4-4.75,4.72-7,7.2a10.75,10.75,0,0,0-2.16,3.58,3.47,3.47,0,0,0,1.68,4.6,3.4,3.4,0,0,0,.94.28c3.79,1,7.3.45,10.06-2.68,1.22-1.39,2.32-2.88,3.51-4.3.84-1,1.74-2,2.82-3.18,8.81,11.29,13.28,24,15.05,38.27-1.81.14-3.35.35-4.9.36a62.92,62.92,0,0,0-14.54,1.41,22.33,22.33,0,0,0-10.64,5.4c-1.55,1.5-3,3.14-2.5,5.53.57,2.56,2.63,3.64,4.88,4.28a16.74,16.74,0,0,0,8.55,0c3.31-.79,6.54-1.86,9.82-2.78,3.09-.87,6.19-1.7,9.72-2.67-.66,13.07-4.57,24.21-13.71,33.39-.93-.63-1.7-1.18-2.5-1.7-2-1.33-4.09-2.69-6.17-4a18.23,18.23,0,0,0-10.8-2.45,7.34,7.34,0,0,0-1.8.34c-1.83.59-2.29,1.48-1.87,3.4a10.69,10.69,0,0,0,3,5.16c2.48,2.59,4.87,5.27,7.49,8.11-.91.49-1.48.84-2.09,1.11A48.3,48.3,0,0,1,338.31,326a40.37,40.37,0,0,1-24.63-12.16c-1.74-1.79-2.94-4.14-4.32-6.29C308.28,305.92,307.3,304.16,306.06,302.06Zm57-54.6a17.56,17.56,0,0,0-13.78,6.84c-2.46,2.95-.59,4.78,1.9,5.43a6.75,6.75,0,0,0,2.33.1,29.24,29.24,0,0,0,12.06-4,12.38,12.38,0,0,0,2.82-2.33c1.35-1.54,1.21-3.24-.53-4.27a27.51,27.51,0,0,0-4.8-1.81Zm-69.22-9.6c-.19-3.5-3.29-7.29-6.55-7.66a5.23,5.23,0,0,0-4.89,2c-1.13,1.45-.68,3.07.06,4.51a34.39,34.39,0,0,0,2.72,4.51c1.9,2.66,4.63,2.83,6.76.33A18.14,18.14,0,0,0,293.84,237.86Zm47.32,55.8c3.8.23,8-2.44,9.1-5.83.68-2.05,0-3.51-2.05-4.05a7.17,7.17,0,0,0-6.44,1.12,10.45,10.45,0,0,0-3.21,4.41c-1.25,2.76-.39,4.2,2.6,4.38Zm6.53-66a8.86,8.86,0,0,0,7.69-4.18c1.38-2.29.79-4.18-1.78-4.92-4-1.13-7.06-.3-9,3.58-1.66,3.23-.44,5.42,3.09,5.55Zm27.48,69.63c2.85.2,4.93-.47,6.44-2.48,1.21-1.62.79-3-1.08-3.74a7.8,7.8,0,0,0-7.74,1.75,2.57,2.57,0,0,0,0,3.61,2.59,2.59,0,0,0,1,.62,6.48,6.48,0,0,0,1.38.27ZM266,239.69c-2.51.32-4.42.85-5.83,2.5a3.19,3.19,0,0,0-.43,3.49,2.36,2.36,0,0,0,2.85,1.33,7.25,7.25,0,0,0,5-2.6,2.51,2.51,0,0,0,.41-3A8.89,8.89,0,0,0,266,239.69Zm37.3-48.14a2.86,2.86,0,0,0,4,3,5.53,5.53,0,0,0,3.32-2.8,2.93,2.93,0,0,0-1.1-4l0,0a3,3,0,0,0-.86-.32,4.5,4.5,0,0,0-5.25,3.59A3.07,3.07,0,0,0,303.3,191.55Zm-53.24,92.31c-.05,1.73.6,2.72,1.73,3,2.09.54,4.91-1.5,5.14-3.72.14-1.34-.36-2.06-1.66-2.12a6.59,6.59,0,0,0-4.57,1.61A2.85,2.85,0,0,0,250.06,283.86Z" transform="translate(-19.93 81.57)" fill="url(#Безымянный_градиент_6)"/><path d="M220.65,37.21v.06h0S220.64,37.22,220.65,37.21Z" transform="translate(-19.93 81.57)" fill="url(#Безымянный_градиент_20)"/><path d="M329.52,57.91a14.62,14.62,0,0,0-4.72-.84,42.81,42.81,0,0,0-8.14.9c-4,.91-8,2.21-12.35,3.46.88-3,2.08-5.28,4.62-6.74,6.86-4,12.17-9.67,16.95-15.87a27.3,27.3,0,0,0,4.3-7.57c1-3,2.11-6.89-1.16-9s-6.12.46-8.61,2.57a34,34,0,0,0-10,14.76c-2.08,5.78-4.09,11.6-6.29,17.81-.1-1.36-.13-2.33-.26-3.28-.54-3.72-.75-7.53-1.77-11.1a22.74,22.74,0,0,0-4-7.7c-2.38-2.94-5.6-2-6.3,1.79a12.29,12.29,0,0,0,.55,6.19q2,5,4.57,9.73l5,10.48c-2.26,2.52-4.41,4.82-6.44,7.22l-.1.11h0A12.94,12.94,0,0,1,294,73a14.4,14.4,0,0,1-8.29,5.65l-3.6.47c.41-1.08.61-1.68.87-2.27s.76-1.44,1.08-2.19a35.83,35.83,0,0,0,.05-28.15c-1.64-4.09-3.88-6-6.08-5.29-3.3,1-4.38,4.07-4.43,7a49.31,49.31,0,0,0,1.32,11.09c.81,3.66,2.31,7.15,3.27,10.78.92,3.45,1.53,7,.13,10.38-8.88,2.22-18.83.36-23.84-4.43,4.88-3.51,8.11-8.37,10.77-13.64a20.72,20.72,0,0,0,2.16-12.84c-.35-2.11-1-4.4-3.52-4.71-2.23-.28-3.49,1.49-4.33,3.3a35.54,35.54,0,0,0-2.42,6.4c-1.08,4.44-1.84,8.95-2.8,13.42-.54,2.51-1.07,5.07-3.37,7.23a93.46,93.46,0,0,1-18.35-15c1.89-.41,3.11-.65,4.32-1,7.26-1.82,13.63-5.25,18.07-11.45A28.59,28.59,0,0,0,259,39a4.9,4.9,0,0,0-2.21-6,5,5,0,0,0-6.23,1.23,71.1,71.1,0,0,0-5.82,7.14c-3,4-5.71,8.31-8.78,12.3A36.78,36.78,0,0,1,231,58.15a46.24,46.24,0,0,1-8.41-15.93c2.63-.24,4.89-.31,7.1-.68,5.71-1,10.87-3.14,14.59-7.87,1.46-1.88,3.63-4.15,1.78-6.5s-4.67-1.13-6.68.13a95,95,0,0,0-9.31,6.91c-2.62,2.12-4.83,4.83-8.71,5.63-.22-.94-.42-1.78-.62-2.62h0c-1.82,3,.06,5.58,1.24,8.12a6.94,6.94,0,0,1-.07,6.82A163.94,163.94,0,0,0,214,70.53c-1.37,3.79-1.85,7.94-2.43,12a10.72,10.72,0,0,0,.63,4.79c.78,2.23,2.88,3,4.63,1.49a18.55,18.55,0,0,0,4.49-5.62,53.85,53.85,0,0,0,5.43-22.7v-4.6c2,2.36,3.31,4.17,4.88,5.71s1.5,2.95,1.26,4.89c-1,7.77-1.89,15.56-2.52,23.37a38,38,0,0,0,.47,9.28,17.39,17.39,0,0,0,2.43,6.33c2.32,3.63,5.9,3.37,7.15-.72a32,32,0,0,0,1.71-12c-.57-6.63-2.19-13.17-3.42-19.75-.28-1.53-.78-3-1.47-5.66a73.12,73.12,0,0,0,6.62,5c2,1.21,2.46,3,2.57,5.3.36,7.17.74,14.37,1.76,21.45A37.62,37.62,0,0,0,255,115.72c1.28,1.77,2.8,3.37,5.21,2.8s3.27-2.87,3.33-4.92a47.19,47.19,0,0,0-.68-10.68c-1.42-7.13-4.58-13.59-8.27-19.79-.88-1.46-1.67-3-3-5.26l12.72,5c2.09,5.89,4,11.62,6.18,17.25a25.8,25.8,0,0,0,8.92,12,20.63,20.63,0,0,0,6.91,3.27c3.86.89,6.36-1.63,5.62-5.58a24.86,24.86,0,0,0-2.61-6.8c-2.8-5.28-7.05-9.3-11.56-13.06-2.47-2-5-4-7.9-6.39l11.85-1.93c4.7,6.28,9.5,12.47,16.11,16.78a44.59,44.59,0,0,0,9.08,4.42c2.12.78,4.62.83,6.07-1.55s.6-4.63-.93-6.37c-2.13-2.4-4.36-5-7.09-6.53-5-2.82-10.49-4.9-15.73-7.4a8.61,8.61,0,0,1-2-1.49c1.6-.71,6.44-3.06,8.66-6a5.33,5.33,0,0,1,2.42,1.37,86.86,86.86,0,0,0,10.92,8.06,36.54,36.54,0,0,0,8.83,3.86,5.9,5.9,0,0,0,4.82-.94c1.65-1.46.84-3.66-.22-5.41-2-3.43-5.31-5.24-9-6.18-4.21-1.07-8.53-1.74-12.78-2.63a33.84,33.84,0,0,1-3.25-1l4.23-5.9c5.11,1,10,2.06,14.88,2.88,4.34.73,8.7.83,12.88-.84,2-.8,4-1.82,3.86-4.44S331.57,58.58,329.52,57.91ZM293.32,74.1l-.05-.11.15-.07-.14.18Z" transform="translate(-19.93 81.57)" fill="url(#Безымянный_градиент_20-2)"/><path d="M293.23,74l.15-.07a1.62,1.62,0,0,1-.1.18Z" transform="translate(-19.93 81.57)" fill="url(#Безымянный_градиент_20-3)"/><path d="M295.24,70.86A12.94,12.94,0,0,1,293.89,73,12.94,12.94,0,0,1,295.24,70.86Z" transform="translate(-19.93 81.57)" fill="url(#Безымянный_градиент_20-4)"/><path d="M215.52,27.68c-.85-1.27-1.7-2.54-2.8-4.16-.44,1.17-.74,2.18-1.2,3.1-1.74,3.47-3.47,7-5.37,10.36a10.91,10.91,0,0,1-2.61,2.85c-1.62,1.35-3.46,2.94-5.59,1.43s-1.37-3.86-.44-5.78a24.14,24.14,0,0,1,3.33-5.36c3.3-3.79,6.81-7.38,10.65-11.5l-2.57-10.2c-.86,1.5-1.34,2.36-1.85,3.21-1.9,3.2-3.79,6.41-5.73,9.59A7.16,7.16,0,0,1,200,22.63c-1.61,1.4-3.29,2.93-5.56,1.6-1.55-.9-1.6-3.65.11-6.25s3.91-5.19,5.93-7.73a23.09,23.09,0,0,1,2-2.08c6-5.85,6-6,2.88-13.81l-1.61-4c3,1.55,3.17,3.89,3.82,5.83s1.09,4.06,1.73,6.5c4.06-.51,6.9-2.71,9.58-5.32A34.23,34.23,0,0,1,224-7.14c2.94-1.9,4.9-.53,4.83,3.07,0,3.11-1.86,5.15-4.12,6.83-3.09,2.31-6.73,3.06-10.46,3.36-1.25.1-2.51,0-4.39.08,1.44,5.35,2.78,10.32,4.32,16.08A42.08,42.08,0,0,0,219,19c2.28-2.07,4.24-4.5,6.58-6.49a46.71,46.71,0,0,1,7.09-5A4.28,4.28,0,0,1,238,8a4.52,4.52,0,0,1,.53,5.88,22.34,22.34,0,0,1-5.05,5.74c-3.84,2.93-8.47,3.9-13.19,4.26-1.44.11-2.89,0-4.45,0-.16,1.32-.31,2.52-.46,3.73Z" transform="translate(-19.93 81.57)" fill="url(#Безымянный_градиент_20-5)"/><path d="M215.52,27.69a.38.38,0,0,1,0,.15l-.07-.12Z" transform="translate(-19.93 81.57)" fill="url(#Безымянный_градиент_20-6)"/><path d="M218.52,33.32c.71,1.28,1.39,2.61,2.08,3.9-1.78.78-2.37,2.08-2.56,4.13-.56,5.88-1.83,11.62-5.75,16.31a13.13,13.13,0,0,1-3.5,3.27c-1.12.62-3,1-3.92.43a4.24,4.24,0,0,1-1.26-3.74,30.52,30.52,0,0,1,8.57-15c3.94-3.92,5.83-8.13,3.2-13.58a2.24,2.24,0,0,1,.08-1.23C216.52,29.66,217.52,31.49,218.52,33.32Z" transform="translate(-19.93 81.57)" fill="url(#Безымянный_градиент_20-7)"/><path d="M220.65,37.21v.06h0Z" transform="translate(-19.93 81.57)" fill="url(#Безымянный_градиент_20-8)"/><path d="M410.67,306.86c.27-3.24.51-6.19.76-9.29-.52-.22-1-.47-1.55-.65-11.27-3.83-21.31-9.92-30.56-17.41a70.15,70.15,0,0,1-5.45-5.32,4.83,4.83,0,0,1-1.12-1.6,2,2,0,0,1,0-1.6,2.12,2.12,0,0,1,1.54-.41,5.3,5.3,0,0,1,1.64.51c8.57,3.48,17.08,7.06,24.94,12.05A58.36,58.36,0,0,1,411,291c.25.25.53.46.82.71.66-1.39,1.57-7.29,1.62-10.48-.66-.25-1.38-.53-2.11-.79a101.1,101.1,0,0,1-28.78-15.74,77.2,77.2,0,0,1-6-6,1.09,1.09,0,0,1-.13-.17c-.46-.64-1.17-1.3-.66-2.14s1.46-.4,2.15-.14c3.91,1.47,7.86,2.88,11.7,4.54a83.66,83.66,0,0,1,16.65,9.25c2.33,1.72,4.49,3.66,6.73,5.5l1.42,1.12c.41-3.3.79-6.31,1.18-9.45-.79-.28-1.67-.62-2.55-.9a71.94,71.94,0,0,1-14-6.75,91.8,91.8,0,0,1-21.9-17.38,18,18,0,0,1-1.79-2.19,1.35,1.35,0,0,1-.08-1.19c.18-.28.72-.34,1.11-.42a2.29,2.29,0,0,1,.62.17c6.84,2.28,13.64,4.65,19.91,8.39a68.49,68.49,0,0,1,17.62,15l1.92,2.29c.84-4.72,1.6-8.94,2.32-13-.28-.29-.35-.44-.47-.49-8.71-4.1-15.92-10.22-22.4-17.31a59,59,0,0,1-7.43-10.78,3.09,3.09,0,0,1-.4-1c-.18-.9.35-1.48,1.21-1.27a7.44,7.44,0,0,1,1.57.72c11,5.88,20.55,13.5,27.44,24.22a4.1,4.1,0,0,0,.92,1.3,51.63,51.63,0,0,0,2.25-9.67c-7.74-4.88-14-11.47-20.59-17.7-3.59-3.4-7.13-6.87-9.51-11.32a8.21,8.21,0,0,1-1-2.43c-.18-1,.55-1.5,1.48-1.15a3.14,3.14,0,0,1,.75.44c7.47,4.87,14.75,10,20.9,16.59a55.93,55.93,0,0,1,7.94,10.67c.14.24.32.46.66.93a6.92,6.92,0,0,0,.51-1.26c.48-2.59.94-5.19,1.4-7.79a1.73,1.73,0,0,0-.84-2c-5.84-3.7-10.76-8.58-15.79-13.28a134.94,134.94,0,0,1-9.76-10.25,76.3,76.3,0,0,1-4.83-7,2.72,2.72,0,0,1-.48-1c-.12-.67-.41-1.55-.12-2,.49-.77,1.29-.18,1.91.16a83.91,83.91,0,0,1,15.55,10.67,64.82,64.82,0,0,1,13.62,17.23c.4.72.89,1.39,1.59,2.47,1.94-3.55,2.23-7,3.1-10.51-4.28-1.53-7.52-4.38-10.45-7.65a39.6,39.6,0,0,1-8.78-17.37c-.61-2.49-1.08-5-1.52-7.54-.08-.46.27-1,.41-1.5a4.28,4.28,0,0,1,1.26.64,68.74,68.74,0,0,1,10.43,13.69c3,5.2,5.9,10.42,8.85,15.62.14.25.33.46.68.95.5-1.43,1-2.63,1.35-3.85.68-2.08,1.28-4.2,2-6.27a3.14,3.14,0,0,0-.6-3.26,12.11,12.11,0,0,0-1-1.15c-5.13-4.8-7.29-11-7.74-17.84a77.67,77.67,0,0,1,.49-14.7V158c.14-.86.12-2,1.28-2,.93,0,1.19.91,1.45,1.69a152.56,152.56,0,0,1,6.56,26.38,39.35,39.35,0,0,0,1,4.92c1-2.6,2-5.06,1.42-8-1.13-5.37,0-10.5,2.35-15.36,1.13-2.37,2.43-4.66,3.78-6.91,3.14-5.26,6.34-10.48,9.53-15.71.43-.7.73-2,1.76-1.55,1.29.54.32,1.62.08,2.45-1.54,5.42-3.19,10.81-4.63,16.26A70.94,70.94,0,0,1,439.39,180a18.18,18.18,0,0,0-3.19,7.59c.77-.83,1.27-1.31,1.7-1.86a53.22,53.22,0,0,1,21.34-16c2.13-.89,4.23-1.86,6.35-2.8.26-.11.52-.24.79-.34.74-.29,1.65-.76,2.1.16a2.34,2.34,0,0,1-.49,1.92c-4.32,5.33-8.82,10.51-14.66,14.19-4,2.5-8.12,4.72-12.24,7-2.29,1.25-4.67,2.33-6.45,4.34a4,4,0,0,0-.83,1.23c-1,3.13-1.95,6.27-3,9.78a10.14,10.14,0,0,0,1.15-.67,58.25,58.25,0,0,1,26.91-13.31c3-.59,6.06-1.28,9.09-1.92.69-.15,1.59-.55,1.82.42a2.21,2.21,0,0,1-.73,1.84,85.36,85.36,0,0,1-7.89,5.28c-5.35,3.07-11.21,5-16.94,7.15-4.38,1.66-8.88,3-13.31,4.52a2.22,2.22,0,0,0-1.33,1.18,68.14,68.14,0,0,0-2.06,9.48,13.12,13.12,0,0,0,1.13-.83c9.81-8.67,21.29-13.54,34-15.52,1.35-.22,2.7-.47,4.06-.58a1.51,1.51,0,0,1,1.36.57,1.58,1.58,0,0,1-.3,1.34,15.05,15.05,0,0,1-2.07,1.92,58.5,58.5,0,0,1-14,8.24q-8.91,3.66-17.92,7.08c-2,.76-4.16,1.13-6.23,1.76-.55.17-1.35.55-1.46,1-.84,3.3-1.54,6.64-2.38,10.41a12.38,12.38,0,0,0,1.22-.82,56.59,56.59,0,0,1,20.23-11.09c5.48-1.75,11.12-3,16.69-4.48a3.8,3.8,0,0,1,1.06-.18,1,1,0,0,1,.91,1.65,10,10,0,0,1-1.77,1.91c-3.18,2.85-7,4.65-10.84,6.3-6.3,2.69-12.67,5.24-19.06,7.73a28.44,28.44,0,0,1-9.08,2.12l-2,10.5.39.22c.7-.46,1.43-.89,2.1-1.39,10.09-7.51,21.54-11.33,33.81-12.92a6.26,6.26,0,0,1,1.49-.18,8.68,8.68,0,0,1,1.72.57c-.23.56-.32,1.29-.73,1.66a44.83,44.83,0,0,1-4.23,3.42,69.91,69.91,0,0,1-31.83,12.14c-1.07.14-2.16.12-3.44.19-.69,3.87-1.37,7.77-2.15,12.18.8-.55,1.15-.76,1.47-1a68.46,68.46,0,0,1,37.68-14.4c1.65-.13,3.3-.31,4.95-.45a5.48,5.48,0,0,1,1.28,0c.92.16,1.23.88.62,1.58a8.82,8.82,0,0,1-1.67,1.38,79.35,79.35,0,0,1-13.46,7.48,100.79,100.79,0,0,1-25,7.61c-2.11.35-4.26.5-6.5.75-.57,3.48-1.11,6.84-1.69,10.36.43,0,.65,0,.79-.11,5.45-3.88,11.58-6.21,17.91-8a120,120,0,0,1,22.71-4.11,3.26,3.26,0,0,1,1.08,0,11,11,0,0,1,1.46.62c-.22.51-.31,1.23-.69,1.49a66.83,66.83,0,0,1-7.66,4.91c-7.83,3.88-16.19,6.08-24.73,7.61-3.73.67-7.53,1-11.44,1.54-.49,4-1,8-1.5,12a1.35,1.35,0,0,0,.53,0c7.42-5.41,15.91-8.2,24.67-10.15,5.83-1.3,11.76-2.13,17.65-3.14,1-.16,2.17-.53,2.67.69s-.59,1.89-1.4,2.43a55.85,55.85,0,0,1-6.63,4.11c-11.55,5.55-23.6,9.35-36.45,10.08a9.46,9.46,0,0,0-1.07.12,3,3,0,0,0-.64.34c-.27,3.16-.55,6.49-.85,10.13.78-.41,1.29-.64,1.76-.93a80.76,80.76,0,0,1,22.71-8.85c6.79-1.65,13.68-2.82,20.53-4.2a2,2,0,0,1,.85-.13c.45.12,1.06.26,1.25.59a1.67,1.67,0,0,1-.21,1.36,4.3,4.3,0,0,1-1.24,1.2,78.48,78.48,0,0,1-34.82,14c-3.53.52-7.16.39-11,.57-.22,3.24-.45,6.55-.69,10,3.32-1.17,6.36-2.25,9.41-3.31A93.82,93.82,0,0,1,457.38,313a26.3,26.3,0,0,1,2.81.09c.47.08.88.55,1.32.85-.27.4-.45,1-.82,1.16a36.94,36.94,0,0,1-3.88,1.94,142,142,0,0,1-21.74,7.2,59.32,59.32,0,0,1-21.89,1.19c-.49-.06-1,0-1.61-.07-1.06,1.86,0,4.11-1,5.93-1.3-.35-1.3-.35-1.39-5.64a1.86,1.86,0,0,0-.54-.24,58.66,58.66,0,0,1-25.74-8.29c-5.23-3.07-10.3-6.44-15.39-9.76a29.29,29.29,0,0,1-3.85-3.18c-.34-.31-.34-1-.5-1.5.46-.11.95-.4,1.37-.32,2.7.5,5.39,1,8.05,1.66a95,95,0,0,1,30.18,13.31c2.15,1.42,4.35,2.79,6.8,4.36.29-3.47.55-6.69.83-10-1.66-.39-3.06-.69-4.44-1-8.31-2.16-15.5-6.61-22.51-11.42-4.81-3.3-8.85-7.48-12.8-11.76a5.92,5.92,0,0,1-1.12-1.6c-.18-.41-.28-1.2-.06-1.38a2.94,2.94,0,0,1,1.54-.36,1.47,1.47,0,0,1,.61.2c9.44,4.18,19,8.15,27.61,14,3.59,2.43,6.95,5.2,10.41,7.82A8.84,8.84,0,0,1,410.67,306.86Z" transform="translate(-19.93 81.57)" fill="url(#Безымянный_градиент_18)"/><path d="M226.86,242.79l8,.75.13-.41c-2.24-1.47-4.49-2.93-6.89-4.49a13.43,13.43,0,0,1,.37-1.76c1.13-3.28,2.38-6.52,3.44-9.83,1.16-3.61,2.15-7.27,3.22-10.91a2.05,2.05,0,0,1,.1-.48c.46-1.81,1.23-2,2.66-.76a2.73,2.73,0,0,1,.33.35l8,9.8c-1.33,2.8-2.66,5.58-4.18,8.76,2.09-.35,2.89-1.66,4-2.51s2.23-1.81,3.49-2.84a150.31,150.31,0,0,1,12.21,13.63c-.93,1.33-1.83,2.55-2.65,3.81s-2.17,2.14-2.47,4a7.15,7.15,0,0,0,1.78.38c2.39-.06,4.77-.16,7.15-.34a2,2,0,0,1,2.24.92c3.44,5.76,6.71,11.59,8.8,18.22-4.56,2.2-9.66,2.63-14.33,4.79.86,1,1.89.68,2.74.66,3.5-.1,7-.31,10.5-.47.86,0,1.73,0,2.72-.05A110,110,0,0,1,282,290.93c-2.22,1.11-4.54,0-7,.79a10.24,10.24,0,0,0,1.34,1.21c1.65,1,3.34,1.9,5,2.83.65.36,1.2.73,1.21,1.63,0,3.47.16,6.93.25,10.48l-2.25.16c-.33,1.1.53,1.36,1,1.8a2.22,2.22,0,0,1,1,2c-.43,3.45-.79,6.9-1.2,10.57l-7.73.21a22.94,22.94,0,0,0,1.68,2.36,35.38,35.38,0,0,0,3.19,2.93,2.22,2.22,0,0,1,.92,2.7c-.77,2.46-1.42,5-2.17,7.61l-4.83.44,3,4.43c-1.65,3.95-3.34,8.14-5.15,12.26-.67,1.51-1.23,1.62-2.62.66-2.83-1.95-5.6-4-8.43-6,1.11-3.23,3.37-5.67,4.19-9-2.12-.54-3.32.87-4.73,1.57s-2.92,1.62-4.54,2.54a57.19,57.19,0,0,1-8.68-10.27l9.61-6.57c-1-.83-1.79-.18-2.57,0l-9.64,2.8c-1.79-2.92-3.49-5.71-5.31-8.67l5.11-6.78c-1.32-.84-2.41-.38-3.47-.27-1.56.15-3.47,1-4.58.33s-1.58-2.68-2.17-4.17c-1.34-3.45-2.59-6.94-3.91-10.5,2.64-1.48,5.1-2.77,7.48-4.21s4.49-2.9,6.73-4.35l-.27-.62-14.79,4.64c-1.29-2.06-2.44-7-2.75-11.67l9.78-6.57c-2.26-.6-3.82.18-5.43.35s-3.14.41-4.95.65a17.63,17.63,0,0,1-.34-2.39c0-3.81.07-7.61.06-11.41a2.34,2.34,0,0,1,1.53-2.42c1.91-.92,3.73-2,6-3.3-2.52-1.23-4.75-.27-7.15-.82Z" transform="translate(-19.93 81.57)" fill="url(#Безымянный_градиент_16)"/><path d="M223.29,81.17a2.42,2.42,0,0,1-.13,1c-6.51,9-9.93,19.45-13.53,29.82-2.21,6.38-4.78,12.6-9.32,17.74-1.13,1.28-2.29,2.53-3.84,4.25l11.85,1.34c.91-2.61,1.81-5.3,2.78-8,4.41-12.09,9.17-24,17.1-34.29a40.37,40.37,0,0,1,7.59-8.18c0,.91.22,1.43,0,1.72-4.38,6.92-6.66,14.72-9.31,22.38-3.23,9.34-6.87,18.47-13.66,25.89-.22.23-.26.63-.53,1.34l9.45,1.07a15.26,15.26,0,0,0,.83-1.67c2.87-7.7,5.52-15.49,8.64-23.09a54.06,54.06,0,0,1,13.22-18.77c.87-.82,1.85-1.53,3.26-2.69.06,1.16.3,1.82.08,2.19-4.77,8-7.41,16.85-10.22,25.64-2.21,6.92-5.57,13-11,17.87a7.2,7.2,0,0,0-.78,1.34c1.74.29,3.25.57,4.77.78s3.17.36,5,.57c.44-.88.9-1.72,1.27-2.6,3.59-8.5,7.1-17,12.62-24.51a51,51,0,0,1,10.34-10.1,7.61,7.61,0,0,1,1.58-.68,7.42,7.42,0,0,1-.31,1.68c-2.55,5.39-5.25,10.72-7.68,16.17-3.22,7.26-7.22,13.91-13.36,19a9.84,9.84,0,0,0-1.12,1.45l12.18,1.43c2.77-10.57,7.1-20.25,16.19-26.85,2.31-1.67,4.55-3.69,8.21-4.16-.64,1.17-1,1.87-1.39,2.53-2.63,4.35-5.59,8.53-7.84,13.07-2.88,5.79-6.21,11.06-11.46,14.9a8.19,8.19,0,0,0-.93,1.26l12.53,1.42c4.59-7,10.49-12.55,20.48-12.31-2,3.59-5,5.24-7.46,7.29s-5.16,3.79-7.76,5.67c2.44,1.28,8.79,2.19,11.65,1.52a15.84,15.84,0,0,1,9.78.79c3.78,1.53,7.59,3,11.37,4.49a27.56,27.56,0,0,1,2.7,1.53,10.54,10.54,0,0,1-2.47.69,123.84,123.84,0,0,1-13.62-.66,17.8,17.8,0,0,1-7.78-3.17c-3.92-2.9-8.33-2.21-12.94-3.3,2.44,3.72,4.62,6.83,6.56,10.09s3.64,6.72,5.64,10.36c-6.06-1.23-14.54-11.39-18.1-21.28L254.48,144a18.5,18.5,0,0,0,1.21,2.06,32.12,32.12,0,0,1,6,12.76c1.41,6.36,2.93,12.65,6,18.42a8.54,8.54,0,0,1,.19,2.2,36.21,36.21,0,0,1-13-16,51.84,51.84,0,0,1-3.79-20.29l-12.49-1.42a11.7,11.7,0,0,0,.84,1.61c4.75,6.15,7.31,13.22,8.87,20.78,1.27,6.22,2.81,12.39,4.21,18.58a8.55,8.55,0,0,1,0,1.6,16.31,16.31,0,0,1-2-1.6A47.28,47.28,0,0,1,240.25,163c-1.64-6.4-2.79-12.92-4.16-19.38l-.58-2.7-10.64-1.2a7.68,7.68,0,0,0,.65,1.69c4.69,6.13,6.85,13.17,7.53,20.8.82,9.2,1.45,18.44,4.43,27.28a4.44,4.44,0,0,1-.15,1.54c-1.92-.34-2.41-1.88-3.2-3-6-8.73-8.79-18.65-10.21-29-.81-5.92-1.27-11.9-1.91-17.85a18.1,18.1,0,0,0-.48-2.06L211,137.86c-.05.27-.2.57-.11.71,5.81,9.06,7.92,19.25,9.08,29.77.7,6.32,1.59,12.62,2.58,18.9a70,70,0,0,0,2,7.42c-2-.37-2.41-1.82-3-2.87a75,75,0,0,1-9-23.28c-1.78-9.42-3-19-4.44-28.45-.13-.86-.27-1.71-.45-2.86l-13-1.48c0,.25-.12.56,0,.7,5.92,7.62,8.51,16.48,9.55,26,.62,5.7,1.31,11.42,2.38,17.05.87,4.51,2.36,8.89,3.59,13.33a9.13,9.13,0,0,1,.51,3.15,86.25,86.25,0,0,1-13.76-29c-2.79-10.36-5.1-20.81-5.79-31.75l-11.73-1.34c-.09.36-.27.66-.19.82,3.69,7.42,3.53,15.49,3.75,23.45.27,9.81,1.23,19.44,5.31,28.5a10.24,10.24,0,0,1,.37,1.91c-.93-.37-1.76-.42-2-.85-1.94-3-4.18-5.95-5.54-9.23a75.34,75.34,0,0,1-5.58-33c.2-3.86.33-7.72.48-11.53-2.72-1.2-10.62-2.17-14.31-1.73a14.37,14.37,0,0,0,.7,1.67c4,7,5.45,14.63,5.93,22.57.49,8.1,1.13,16.18,1.7,24.27a7.79,7.79,0,0,1-.39,3.55c-7.71-16.63-13.82-33.53-10.28-52.62l-10.77-1.18c-.05.28-.28.7-.16,1,3.09,6.19,3.48,13,4,19.67.48,6.22.84,12.45,1.24,18.68a3.21,3.21,0,0,1-.4,1.87c-2.89-3.88-4.44-8.38-5.66-12.92a84.62,84.62,0,0,1-2.74-13.92c-.45-4.79,0-9.65,0-14.76l-11.14-1.27a13.43,13.43,0,0,0,.61,1.64,32.32,32.32,0,0,1,3.87,13.18q.72,9.15,1.55,18.28a18.84,18.84,0,0,1-.08,2.49c-2.43-2.88-3.21-5.85-4.16-8.66a82.67,82.67,0,0,1-2.48-9,68.05,68.05,0,0,1-1.34-8.87c-.26-3.08-.15-6.18-.2-9.37l-15.29-2.64.11-1.08c1.56-.3,3.11.52,4.65.66,1.84.17,3.66.54,5.49.78s3.38.38,5.28.6a70.18,70.18,0,0,1,14.33-30.31l.9.34c-1.6,5.15-3.31,10.27-4.79,15.45s-3.25,10.16-7,14.76l10,1.14a59.91,59.91,0,0,1,5.56-19.69,69.49,69.49,0,0,1,10.59-16.69l.76.39c-1.75,6.17-3.44,12.35-5.26,18.49s-3.49,12.2-7.31,17.92l9.63,1.09c1.6-18.07,10.64-32.56,20.83-46.5l.82.23a14.5,14.5,0,0,1-.27,2.27c-2.52,8.48-5.16,16.93-7.61,25.43a54.09,54.09,0,0,1-9.26,18.59c2.56,1.28,7.67,1.92,12.52,1.56.55-2.8,1.21-5.69,1.68-8.6a76.06,76.06,0,0,1,11.8-30,56.57,56.57,0,0,1,6-7.11A21.07,21.07,0,0,1,199,83l.55.52a6.06,6.06,0,0,1-.58,2c-6.26,8.36-9.12,18.16-11.64,28.12-.8,3.14-1.6,6.3-2.65,9.36s-2.34,5.73-3.71,9c3.29,1,6.78,1.13,10.42,1.46C198.72,113.93,207.24,95.25,223.29,81.17Z" transform="translate(-19.93 81.57)" fill="url(#Безымянный_градиент_17)"/><path d="M262.67,28.51A1.3,1.3,0,1,1,264,29.86a1.31,1.31,0,0,1-1.29-1.33h0Z" transform="translate(-19.93 81.57)" fill="#f98a89"/><path d="M281.74,31.92a.84.84,0,1,1,.83.85A.85.85,0,0,1,281.74,31.92Z" transform="translate(-19.93 81.57)" fill="#f98a89"/><path d="M291.69,47.42a.67.67,0,0,1,1.34,0h0a.67.67,0,1,1-1.34,0Z" transform="translate(-19.93 81.57)" fill="#f98a89"/><path d="M296.17,48.62a1.15,1.15,0,1,1,1.15,1.18,1.15,1.15,0,0,1-1.15-1.18Z" transform="translate(-19.93 81.57)" fill="#f98a89"/><path d="M320.06,44.53a1,1,0,1,1,1,1A1,1,0,0,1,320.06,44.53Z" transform="translate(-19.93 81.57)" fill="#f98a89"/><path d="M341.73,23.86a.7.7,0,1,1,1.4,0h0a.7.7,0,0,1-.7.7h0A.7.7,0,0,1,341.73,23.86Z" transform="translate(-19.93 81.57)" fill="#f98a89"/><path d="M366.46,64.42a.24.24,0,0,1,.47-.1.17.17,0,0,1,0,.1h0a.23.23,0,0,1-.23.23h0a.23.23,0,0,1-.23-.23h0Z" transform="translate(-19.93 81.57)" fill="#f98a89"/><path d="M361.64,24.86a1,1,0,1,1,2,0,1,1,0,0,1-1,1h-.09A1,1,0,0,1,361.64,24.86Z" transform="translate(-19.93 81.57)" fill="#f98a89"/><path d="M400,57.6A1.06,1.06,0,1,1,401,58.68,1.05,1.05,0,0,1,400,57.6Z" transform="translate(-19.93 81.57)" fill="#f98a89"/><path d="M427.39,20.86a.79.79,0,0,1,1.58,0h0a.79.79,0,0,1-.79.79h0A.79.79,0,0,1,427.39,20.86Z" transform="translate(-19.93 81.57)" fill="#f98a89"/><path d="M401.06,3.42a.18.18,0,0,1,.17-.17.18.18,0,0,1,.18.18.18.18,0,0,1-.35,0Z" transform="translate(-19.93 81.57)" fill="#f98a89"/><path d="M125.92,232a.83.83,0,1,1,.82.84.83.83,0,0,1-.82-.84Z" transform="translate(-19.93 81.57)" fill="#f98a89"/><path d="M183.94,242.13a.27.27,0,0,1,.26-.28h0a.28.28,0,0,1,.27.28.3.3,0,0,1-.28.28A.29.29,0,0,1,183.94,242.13Z" transform="translate(-19.93 81.57)" fill="#f98a89"/><path d="M199.9,214.24a.62.62,0,1,1,.62.63A.65.65,0,0,1,199.9,214.24Z" transform="translate(-19.93 81.57)" fill="#f98a89"/><path d="M173.61,236.29a1.18,1.18,0,1,1,1.17,1.21,1.18,1.18,0,0,1-1.17-1.21Z" transform="translate(-19.93 81.57)" fill="#f98a89"/><path d="M186.58,200.72a.79.79,0,0,1,.78-.78.76.76,0,0,1,.76.76v0h0a.76.76,0,0,1-.75.77h0a.76.76,0,0,1-.77-.75v0Z" transform="translate(-19.93 81.57)" fill="#f98a89"/><path d="M159,205.42a.76.76,0,1,1,.76.74h0A.77.77,0,0,1,159,205.42Z" transform="translate(-19.93 81.57)" fill="#f98a89"/><path d="M160.52,194.42a1.18,1.18,0,1,1,1.17,1.2,1.18,1.18,0,0,1-1.17-1.2Z" transform="translate(-19.93 81.57)" fill="#f98a89"/><path d="M134.93,182.86a.27.27,0,0,1,.26-.28h0a.28.28,0,1,1,0,.56A.28.28,0,0,1,134.93,182.86Z" transform="translate(-19.93 81.57)" fill="#f98a89"/><path d="M123.29,177a1.29,1.29,0,1,1,2.57-.23.89.89,0,0,1,0,.23,1.29,1.29,0,1,1-2.57.23A.89.89,0,0,1,123.29,177Z" transform="translate(-19.93 81.57)" fill="#f98a89"/><path d="M99.52,162a.68.68,0,1,1,.67.69A.69.69,0,0,1,99.52,162Z" transform="translate(-19.93 81.57)" fill="#f98a89"/><path d="M79.65,150.27a.6.6,0,0,1,.59-.6.58.58,0,0,1,.59.57v0h0a.6.6,0,0,1-.59.6.58.58,0,0,1-.59-.57Z" transform="translate(-19.93 81.57)" fill="#f98a89"/><path d="M87.57,125.86a.92.92,0,1,1,.91.94.92.92,0,0,1-.91-.94Z" transform="translate(-19.93 81.57)" fill="#f98a89"/><path d="M120.3,105.13a1.14,1.14,0,1,1,1.13,1.16,1.14,1.14,0,0,1-1.13-1.16Z" transform="translate(-19.93 81.57)" fill="#f98a89"/><path d="M88.46,97.65a1.16,1.16,0,1,1,1.15,1.18,1.16,1.16,0,0,1-1.15-1.18Z" transform="translate(-19.93 81.57)" fill="#f98a89"/><path d="M122.06,102.59a.46.46,0,0,1,.91-.14.33.33,0,0,1,0,.14.48.48,0,0,1-.46.46.47.47,0,0,1-.45-.47Z" transform="translate(-19.93 81.57)" fill="#f98a89"/><path d="M130,82.92a.26.26,0,0,1,.26-.26.25.25,0,0,1,.25.25h0a.26.26,0,0,1-.2.31h0A.28.28,0,0,1,130,83,.14.14,0,0,1,130,82.92Z" transform="translate(-19.93 81.57)" fill="#f98a89"/><path d="M129,73.22a.84.84,0,0,1,.82-.82.83.83,0,1,1-.82.84Z" transform="translate(-19.93 81.57)" fill="#f98a89"/><path d="M134.33,66.42a.68.68,0,1,1,.68.7.67.67,0,0,1-.68-.7Z" transform="translate(-19.93 81.57)" fill="#f98a89"/><path d="M147,54.07a.89.89,0,1,1,.88.9.89.89,0,0,1-.88-.9Z" transform="translate(-19.93 81.57)" fill="#f98a89"/><path d="M161.16,55.86a.29.29,0,0,1,.29-.29.3.3,0,0,1,.28.28h0a.29.29,0,0,1-.23.34h0a.29.29,0,0,1-.34-.23h0a.21.21,0,0,1,0-.11Z" transform="translate(-19.93 81.57)" fill="#f98a89"/><path d="M169.16,9.15a.63.63,0,1,1,.63.65.64.64,0,0,1-.63-.65Z" transform="translate(-19.93 81.57)" fill="#f98a89"/><path d="M167.26,34.1a.9.9,0,1,1,.89.91.9.9,0,0,1-.89-.91Z" transform="translate(-19.93 81.57)" fill="#f98a89"/><path d="M190.13,12.36a1.1,1.1,0,1,1,1.1,1.12,1.11,1.11,0,0,1-1.1-1.12Z" transform="translate(-19.93 81.57)" fill="#f98a89"/><path d="M180.06,57a1,1,0,1,1,1,1.06A1.06,1.06,0,0,1,180.06,57Z" transform="translate(-19.93 81.57)" fill="#f98a89"/><path d="M210.72,43a.35.35,0,1,1,.35.36.35.35,0,0,1-.35-.36Z" transform="translate(-19.93 81.57)" fill="#f98a89"/><path d="M212.88,40.28a1,1,0,1,1,1,1A1,1,0,0,1,212.88,40.28Z" transform="translate(-19.93 81.57)" fill="#f98a89"/><path d="M234.61,50.26a1.05,1.05,0,1,1,1,1.07h0A1.05,1.05,0,0,1,234.61,50.26Z" transform="translate(-19.93 81.57)" fill="#f98a89"/><path d="M200.34,72.73a.74.74,0,1,1,.73.75.74.74,0,0,1-.73-.75Z" transform="translate(-19.93 81.57)" fill="#f98a89"/><path d="M372.06,295.8a1.26,1.26,0,1,1,1.25,1.29,1.27,1.27,0,0,1-1.25-1.29Z" transform="translate(-19.93 81.57)" fill="#f98a89"/><path d="M400.68,300.58a.41.41,0,1,1,.41.41.41.41,0,0,1-.41-.41Z" transform="translate(-19.93 81.57)" fill="#f98a89"/><path d="M427,288.42a.68.68,0,1,1,.68.7.67.67,0,0,1-.68-.7Z" transform="translate(-19.93 81.57)" fill="#f98a89"/><path d="M448.84,280.86a.27.27,0,0,1,.27-.27h0a.28.28,0,0,1,.27.28.27.27,0,0,1-.27.27h0A.28.28,0,0,1,448.84,280.86Z" transform="translate(-19.93 81.57)" fill="#f98a89"/><path d="M460.06,294.76a1,1,0,0,1,1.92-.57h0a1.06,1.06,0,0,1,0,.56,1,1,0,1,1-1.92.56A1.06,1.06,0,0,1,460.06,294.76Z" transform="translate(-19.93 81.57)" fill="#f98a89"/><path d="M459.06,258.76a.27.27,0,0,1,.27-.27h0a.25.25,0,0,1,.26.24h0a.27.27,0,0,1-.2.33.29.29,0,0,1-.33-.2v-.1Z" transform="translate(-19.93 81.57)" fill="#f98a89"/><path d="M469.41,243.42a.82.82,0,0,1,.71-.9.83.83,0,0,1,.9.72.54.54,0,0,1,0,.18.8.8,0,0,1-.71.89.81.81,0,0,1-.9-.71h0A.54.54,0,0,1,469.41,243.42Z" transform="translate(-19.93 81.57)" fill="#f98a89"/><path d="M471.06,235.19a.32.32,0,0,1,.3-.3.33.33,0,1,1-.3.41.21.21,0,0,1,0-.11Z" transform="translate(-19.93 81.57)" fill="#f98a89"/><path d="M471.35,216.67a1.32,1.32,0,1,1,1.31,1.35A1.34,1.34,0,0,1,471.35,216.67Z" transform="translate(-19.93 81.57)" fill="#f98a89"/><path d="M468.52,210.86a.71.71,0,1,1,.71.71h0a.7.7,0,0,1-.7-.7h0Z" transform="translate(-19.93 81.57)" fill="#f98a89"/><path d="M466.94,203a.26.26,0,1,1,.52,0h0a.25.25,0,0,1-.24.26h0A.26.26,0,0,1,467,203h0Z" transform="translate(-19.93 81.57)" fill="#f98a89"/><path d="M496.52,186.42a.74.74,0,0,1,.73-.75h0a.76.76,0,0,1,.86.65.77.77,0,0,1-.65.86h-.21A.76.76,0,0,1,496.52,186.42Z" transform="translate(-19.93 81.57)" fill="#f98a89"/><path d="M493.52,170.86a.22.22,0,1,1,.22.22h0A.22.22,0,0,1,493.52,170.86Z" transform="translate(-19.93 81.57)" fill="#f98a89"/><path d="M451.84,171.42a.42.42,0,0,1,.83-.13h0a.29.29,0,0,1,0,.13.41.41,0,0,1-.41.41h0A.42.42,0,0,1,451.84,171.42Z" transform="translate(-19.93 81.57)" fill="#f98a89"/><path d="M464.06,159.86a.3.3,0,1,1,.3.3h0a.29.29,0,0,1-.29-.29Z" transform="translate(-19.93 81.57)" fill="#f98a89"/><path d="M449.8,156.3a.87.87,0,0,1,.85-.89h0a.9.9,0,0,1,.87.9.87.87,0,0,1-.86.88h0a.87.87,0,0,1-.87-.87Z" transform="translate(-19.93 81.57)" fill="#f98a89"/><path d="M493.31,133.78a.22.22,0,0,1,.21-.23h0a.22.22,0,0,1,.22.22h0a.22.22,0,0,1-.44,0Z" transform="translate(-19.93 81.57)" fill="#f98a89"/><path d="M493.27,124a.52.52,0,0,1,.56-.48.52.52,0,0,1,0,1,.55.55,0,0,1-.55-.55Z" transform="translate(-19.93 81.57)" fill="#f98a89"/><path d="M458.57,89.08a.5.5,0,0,1,.34-.63h0a.52.52,0,0,1,.64.35.48.48,0,0,1,0,.29.52.52,0,0,1-.52.52h0a.5.5,0,0,1-.48-.52Z" transform="translate(-19.93 81.57)" fill="#f98a89"/><path d="M489.94,104.23a.56.56,0,0,1,.56-.56.57.57,0,0,1,.56.57.56.56,0,1,1-1.12,0h0Z" transform="translate(-19.93 81.57)" fill="#f98a89"/><path d="M488.79,90.35a.8.8,0,1,1,.7.88.79.79,0,0,1-.7-.7A.54.54,0,0,1,488.79,90.35Z" transform="translate(-19.93 81.57)" fill="#f98a89"/><path d="M505.17,93.93a.22.22,0,0,1,.22-.22.21.21,0,0,1,.21.21h0a.22.22,0,0,1-.15.26h0a.22.22,0,0,1-.26-.17A.11.11,0,0,1,505.17,93.93Z" transform="translate(-19.93 81.57)" fill="#f98a89"/><path d="M364.06,244.32a.42.42,0,1,1,.83-.13.29.29,0,0,1,0,.13.42.42,0,1,1-.83.13h0A.29.29,0,0,1,364.06,244.32Z" transform="translate(-19.93 81.57)" fill="#f98a89"/><path d="M370.78,281.62a.67.67,0,1,1,.68.67.67.67,0,0,1-.68-.67Z" transform="translate(-19.93 81.57)" fill="#f98a89"/><path d="M346.13,238.86a.33.33,0,1,1,.66,0,.32.32,0,0,1-.31.33h0a.33.33,0,0,1-.35-.31Z" transform="translate(-19.93 81.57)" fill="#f98a89"/><path d="M341.32,253.27a.24.24,0,0,1,.48,0h0a.24.24,0,0,1-.48,0Z" transform="translate(-19.93 81.57)" fill="#f98a89"/><path d="M339.29,258a.18.18,0,0,1,.36,0h0a.19.19,0,0,1-.18.18A.18.18,0,0,1,339.29,258Z" transform="translate(-19.93 81.57)" fill="#f98a89"/><ellipse cx="304.66" cy="330.09" rx="1.14" ry="1.15" fill="#f98a89"/><path d="M299.06,266.05a1.28,1.28,0,0,1,2.55-.23.89.89,0,0,1,0,.23,1.28,1.28,0,0,1-2.55.23h0A.89.89,0,0,1,299.06,266.05Z" transform="translate(-19.93 81.57)" fill="#f98a89"/><path d="M298.75,267a.64.64,0,1,1,.63.65.64.64,0,0,1-.63-.65Z" transform="translate(-19.93 81.57)" fill="#f98a89"/><path d="M279.74,287.61a.85.85,0,1,1,.85.87.86.86,0,0,1-.85-.87Z" transform="translate(-19.93 81.57)" fill="#f98a89"/><path d="M172,321.86a1.29,1.29,0,0,1,1.28-1.3h0a1.31,1.31,0,1,1,0,2.62,1.29,1.29,0,0,1-1.3-1.28h0Z" transform="translate(-19.93 81.57)" fill="#f98a89"/><path d="M180.66,313.12a.93.93,0,1,1,.93.94.93.93,0,0,1-.93-.94Z" transform="translate(-19.93 81.57)" fill="#f98a89"/><path d="M191.52,303.94a.93.93,0,0,1,1.86,0,.92.92,0,0,1-.93.91h0A1,1,0,0,1,191.52,303.94Z" transform="translate(-19.93 81.57)" fill="#f98a89"/><path d="M217.84,304.67a.5.5,0,1,1,.5.5A.5.5,0,0,1,217.84,304.67Z" transform="translate(-19.93 81.57)" fill="#f98a89"/><path d="M103.52,41.28a1.3,1.3,0,1,1,1.29,1.32,1.3,1.3,0,0,1-1.29-1.32Z" transform="translate(-19.93 81.57)" fill="#f98a89"/><path d="M122.61,44.69a.84.84,0,1,1,.83.85.83.83,0,0,1-.83-.83h0Z" transform="translate(-19.93 81.57)" fill="#f98a89"/><path d="M132.52,60.15a.67.67,0,0,1,.66-.68h0a.68.68,0,1,1-.67.71Z" transform="translate(-19.93 81.57)" fill="#f98a89"/><path d="M137.06,61.42a1.15,1.15,0,1,1,1.14,1.18,1.15,1.15,0,0,1-1.14-1.18Z" transform="translate(-19.93 81.57)" fill="#f98a89"/><path d="M161,57.3a1,1,0,1,1,1,1A1,1,0,0,1,161,57.3Z" transform="translate(-19.93 81.57)" fill="#f98a89"/><path d="M182.6,36.61a.7.7,0,0,1,.69-.71h0a.72.72,0,1,1-.7.74Z" transform="translate(-19.93 81.57)" fill="#f98a89"/><path d="M207.33,77.22a.23.23,0,0,1,.22-.24h0a.25.25,0,1,1-.23.27Z" transform="translate(-19.93 81.57)" fill="#f98a89"/><path d="M202.52,37.58a1,1,0,1,1,1,1A1,1,0,0,1,202.52,37.58Z" transform="translate(-19.93 81.57)" fill="#f98a89"/><path d="M240.82,70.42a1.06,1.06,0,1,1,1.05,1.08A1.09,1.09,0,0,1,240.82,70.42Z" transform="translate(-19.93 81.57)" fill="#f98a89"/><path d="M268.26,33.59a.79.79,0,1,1,.78.8.79.79,0,0,1-.78-.8Z" transform="translate(-19.93 81.57)" fill="#f98a89"/><path d="M241.89,16.23a.18.18,0,0,1,.17-.18.18.18,0,0,1,.17.17h0a.18.18,0,0,1-.17.17h0A.17.17,0,0,1,241.89,16.23Z" transform="translate(-19.93 81.57)" fill="#f98a89"/><path d="M24.81,254.86a.28.28,0,1,1,.28.28h0A.29.29,0,0,1,24.81,254.86Z" transform="translate(-19.93 81.57)" fill="#f98a89"/><path d="M31,25.13a1.1,1.1,0,1,1,1.08,1.12h0A1.1,1.1,0,0,1,31,25.13Z" transform="translate(-19.93 81.57)" fill="#f98a89"/><path d="M20.93,69.74a1,1,0,1,1,1,1A1,1,0,0,1,20.93,69.74Z" transform="translate(-19.93 81.57)" fill="#f98a89"/><path d="M51.59,55.77a.35.35,0,0,1,.69-.13h0a.24.24,0,0,1,0,.12.35.35,0,0,1-.4.29A.36.36,0,0,1,51.59,55.77Z" transform="translate(-19.93 81.57)" fill="#f98a89"/><path d="M53.75,53.06a1,1,0,1,1,1,1A1,1,0,0,1,53.75,53.06Z" transform="translate(-19.93 81.57)" fill="#f98a89"/><path d="M75.52,63a1.05,1.05,0,1,1,1,1.07h0a1,1,0,0,1-1-1Z" transform="translate(-19.93 81.57)" fill="#f98a89"/><path d="M41.21,85.5a.74.74,0,1,1,.73.75.74.74,0,0,1-.73-.75Z" transform="translate(-19.93 81.57)" fill="#f98a89"/><path d="M212.93,308.57a1.26,1.26,0,0,1,2.52,0h0a1.26,1.26,0,0,1-2.52,0Z" transform="translate(-19.93 81.57)" fill="#f98a89"/><path d="M241.52,313.35a.4.4,0,0,1,.39-.41h0a.41.41,0,0,1,.41.41h0a.43.43,0,0,1-.41.41.41.41,0,0,1-.41-.41h0Z" transform="translate(-19.93 81.57)" fill="#f98a89"/><path d="M267.85,301.18a.68.68,0,1,1,1.36,0,.69.69,0,0,1-.68.67.67.67,0,0,1-.68-.66v0Z" transform="translate(-19.93 81.57)" fill="#f98a89"/><path d="M289.71,293.67a.27.27,0,1,1,.27.28A.28.28,0,0,1,289.71,293.67Z" transform="translate(-19.93 81.57)" fill="#f98a89"/><path d="M300.9,307.53a1,1,0,1,1,1,1A1,1,0,0,1,300.9,307.53Z" transform="translate(-19.93 81.57)" fill="#f98a89"/><path d="M299.92,271.53a.27.27,0,1,1,.27.27h0A.27.27,0,0,1,299.92,271.53Z" transform="translate(-19.93 81.57)" fill="#f98a89"/><path d="M310.27,256.16a.82.82,0,0,1,.82-.81.8.8,0,0,1,.8.8h0a.81.81,0,0,1-.8.82h0a.82.82,0,0,1-.81-.83h0Z" transform="translate(-19.93 81.57)" fill="#f98a89"/><path d="M311.94,248a.29.29,0,0,1,.28-.3h0a.32.32,0,0,1,.29.31.3.3,0,0,1-.35.24h0a.3.3,0,0,1-.24-.24Z" transform="translate(-19.93 81.57)" fill="#f98a89"/><path d="M312.22,229.42a1.32,1.32,0,1,1,1.31,1.35A1.34,1.34,0,0,1,312.22,229.42Z" transform="translate(-19.93 81.57)" fill="#f98a89"/><path d="M309.41,223.65a.7.7,0,0,1,.69-.71h0a.72.72,0,1,1-.71.73Z" transform="translate(-19.93 81.57)" fill="#f98a89"/><path d="M307.81,215.79a.26.26,0,1,1,.26.27.26.26,0,0,1-.26-.27Z" transform="translate(-19.93 81.57)" fill="#f98a89"/><path d="M337.4,199.18a.75.75,0,1,1,.74.76.74.74,0,0,1-.74-.74Z" transform="translate(-19.93 81.57)" fill="#f98a89"/><path d="M334.41,183.64a.22.22,0,1,1,.22.22.22.22,0,0,1-.22-.22Z" transform="translate(-19.93 81.57)" fill="#f98a89"/><path d="M292.71,184.22a.42.42,0,0,1,.48-.35h0a.39.39,0,0,1,.29.47.38.38,0,0,1-.36.3h0A.42.42,0,0,1,292.71,184.22Z" transform="translate(-19.93 81.57)" fill="#f98a89"/><path d="M304.89,172.63a.29.29,0,0,1,.28-.3h0a.29.29,0,0,1,.3.28v0a.32.32,0,0,1-.3.3A.3.3,0,0,1,304.89,172.63Z" transform="translate(-19.93 81.57)" fill="#f98a89"/><path d="M290.66,169.07a.88.88,0,1,1,.88.88.87.87,0,0,1-.88-.88Z" transform="translate(-19.93 81.57)" fill="#f98a89"/><path d="M334.18,146.55a.22.22,0,0,1,.21-.23h0a.24.24,0,0,1,.22.23.22.22,0,0,1-.44,0Z" transform="translate(-19.93 81.57)" fill="#f98a89"/><path d="M334.14,136.72a.52.52,0,0,1,.56-.48.52.52,0,0,1,0,1,.55.55,0,0,1-.55-.55Z" transform="translate(-19.93 81.57)" fill="#f98a89"/><path d="M299.43,101.86a.52.52,0,1,1,.52.52h0A.52.52,0,0,1,299.43,101.86Z" transform="translate(-19.93 81.57)" fill="#f98a89"/><path d="M330.81,117a.56.56,0,0,1,.55-.57h0a.57.57,0,0,1,.56.57.56.56,0,1,1-1.12,0h0Z" transform="translate(-19.93 81.57)" fill="#f98a89"/><path d="M329.66,103.13a.79.79,0,1,1,1.58,0,.8.8,0,0,1-.79.78.79.79,0,0,1-.79-.79h0Z" transform="translate(-19.93 81.57)" fill="#f98a89"/><path d="M346.06,106.7a.22.22,0,1,1,.22.22h0a.21.21,0,0,1-.21-.21Z" transform="translate(-19.93 81.57)" fill="#f98a89"/><path d="M366.06,109.06a.58.58,0,0,1,.57-.59h0a.6.6,0,0,1,.58.59.61.61,0,0,1-.59.59.58.58,0,0,1-.57-.57h0Z" transform="translate(-19.93 81.57)" fill="#f98a89"/><path d="M362.32,130.07a.44.44,0,0,1,.36-.51.45.45,0,0,1,.51.36v0a.29.29,0,0,1,0,.13.44.44,0,0,1-.5.37A.45.45,0,0,1,362.32,130.07Z" transform="translate(-19.93 81.57)" fill="#f98a89"/><path d="M374.11,156.3a1,1,0,1,1,0,.06Z" transform="translate(-19.93 81.57)" fill="#f98a89"/><path d="M204.92,257.09a.42.42,0,1,1,.42.43A.45.45,0,0,1,204.92,257.09Z" transform="translate(-19.93 81.57)" fill="#f98a89"/><path d="M211.64,294.42a.66.66,0,1,1,.66.66A.68.68,0,0,1,211.64,294.42Z" transform="translate(-19.93 81.57)" fill="#f98a89"/><path d="M120.61,300.42a.86.86,0,1,1,.85.87.87.87,0,0,1-.85-.87Z" transform="translate(-19.93 81.57)" fill="#f98a89"/><path d="M21.52,325.86a.92.92,0,1,1,.92.94.93.93,0,0,1-.92-.94Z" transform="translate(-19.93 81.57)" fill="#f98a89"/><path d="M32.35,316.71a.93.93,0,1,1,.92,1,.93.93,0,0,1-.92-1Z" transform="translate(-19.93 81.57)" fill="#f98a89"/><path d="M34.13,307.56a1.23,1.23,0,1,1,2.45-.25v0a.81.81,0,0,1,0,.22,1.23,1.23,0,0,1-2.45.25v0A.81.81,0,0,1,34.13,307.56Z" transform="translate(-19.93 81.57)" fill="#f98a89"/><path d="M58.71,317.42a.49.49,0,0,1,.48-.49.5.5,0,1,1-.52.5Z" transform="translate(-19.93 81.57)" fill="#f98a89"/><path d="M186.17,51a1.3,1.3,0,1,1,1.29,1.32A1.3,1.3,0,0,1,186.17,51Z" transform="translate(-19.93 81.57)" fill="#f98a89"/><path d="M205.24,54.42a.83.83,0,1,1,.83.85.83.83,0,0,1-.83-.85Z" transform="translate(-19.93 81.57)" fill="#f98a89"/><path d="M215.19,69.86a.67.67,0,0,1,.66-.68h0a.68.68,0,0,1,.66.66h0a.67.67,0,0,1-.66.68h0A.68.68,0,0,1,215.19,69.86Z" transform="translate(-19.93 81.57)" fill="#f98a89"/><path d="M219.67,71.08a1.15,1.15,0,1,1,2.3,0h0a1.15,1.15,0,0,1-2.3,0Z" transform="translate(-19.93 81.57)" fill="#f98a89"/><path d="M243.6,67a1,1,0,1,1,1,1A1,1,0,0,1,243.6,67Z" transform="translate(-19.93 81.57)" fill="#f98a89"/><path d="M265.22,46.3a.73.73,0,0,1,.71-.71.71.71,0,0,1,.7.72h0a.7.7,0,0,1-.7.7h0A.71.71,0,0,1,265.22,46.3Z" transform="translate(-19.93 81.57)" fill="#f98a89"/><path d="M290,86.91a.24.24,0,1,1,.24.24h0a.23.23,0,0,1-.23-.23h0Z" transform="translate(-19.93 81.57)" fill="#f98a89"/><path d="M285.14,47.27a1,1,0,1,1,1,1h-.05A1,1,0,0,1,285.14,47.27Z" transform="translate(-19.93 81.57)" fill="#f98a89"/><ellipse cx="304.58" cy="161.64" rx="1.06" ry="1.07" fill="#f98a89"/><path d="M350.89,43.28a.79.79,0,1,1,.78.8.79.79,0,0,1-.78-.8Z" transform="translate(-19.93 81.57)" fill="#f98a89"/><path d="M324.52,25.91a.18.18,0,0,1,.17-.17.17.17,0,0,1,.17.17h0a.18.18,0,0,1-.17.17h0a.18.18,0,0,1-.17-.17Z" transform="translate(-19.93 81.57)" fill="#f98a89"/><path d="M49.42,254.5a.83.83,0,0,1,.82-.84h0a.89.89,0,1,1-.83,1,.54.54,0,0,1,0-.18Z" transform="translate(-19.93 81.57)" fill="#f98a89"/><path d="M85.06,272a.26.26,0,1,1,.26.26.26.26,0,0,1-.26-.26Z" transform="translate(-19.93 81.57)" fill="#f98a89"/><path d="M96,255.48a1,1,0,1,1,1,1A1,1,0,0,1,96,255.48Z" transform="translate(-19.93 81.57)" fill="#f98a89"/><path d="M107.44,264.59a.27.27,0,0,1,.26-.28h0a.28.28,0,0,1,0,.56h0A.28.28,0,0,1,107.44,264.59Z" transform="translate(-19.93 81.57)" fill="#f98a89"/><path d="M93.52,238.93a.62.62,0,1,1,.62.62h0A.62.62,0,0,1,93.52,238.93Z" transform="translate(-19.93 81.57)" fill="#f98a89"/><path d="M67.21,261a1.2,1.2,0,1,1,1.21,1.21A1.2,1.2,0,0,1,67.21,261Z" transform="translate(-19.93 81.57)" fill="#f98a89"/><path d="M80.18,225.42a.78.78,0,1,1,1.55-.18.54.54,0,0,1,0,.18.79.79,0,0,1-.78.78.76.76,0,0,1-.77-.75v0Z" transform="translate(-19.93 81.57)" fill="#f98a89"/><path d="M52.59,230.13a.76.76,0,1,1,.75.77.76.76,0,0,1-.75-.77Z" transform="translate(-19.93 81.57)" fill="#f98a89"/><path d="M54.06,219.06a1.18,1.18,0,1,1,1.17,1.2,1.18,1.18,0,0,1-1.17-1.2Z" transform="translate(-19.93 81.57)" fill="#f98a89"/><path d="M58.42,205.35a.3.3,0,0,1,.28-.28.27.27,0,0,1,.27.27h0a.28.28,0,0,1-.27.28A.29.29,0,0,1,58.42,205.35Z" transform="translate(-19.93 81.57)" fill="#f98a89"/><path d="M46.79,199.48a1.28,1.28,0,1,1,1.27,1.31,1.29,1.29,0,0,1-1.27-1.31Z" transform="translate(-19.93 81.57)" fill="#f98a89"/><path d="M23.06,184.42a.67.67,0,1,1,.67.69A.69.69,0,0,1,23.06,184.42Z" transform="translate(-19.93 81.57)" fill="#f98a89"/><path d="M43.8,127.59a1.14,1.14,0,0,1,1.13-1.15h0a1.16,1.16,0,0,1,0,2.31,1.14,1.14,0,0,1-1.14-1.14Z" transform="translate(-19.93 81.57)" fill="#f98a89"/><path d="M45.52,125.05a.44.44,0,0,1,.39-.49.43.43,0,0,1,.48.39.33.33,0,0,1,0,.17.43.43,0,0,1-.86-.07Z" transform="translate(-19.93 81.57)" fill="#f98a89"/><path d="M53.52,105.42a.26.26,0,0,1,.2-.31h0a.28.28,0,0,1,.31.21.17.17,0,0,1,0,.1.26.26,0,0,1-.2.31.27.27,0,0,1-.31-.21.17.17,0,0,1,0-.1Z" transform="translate(-19.93 81.57)" fill="#f98a89"/><path d="M52.45,95.68a.82.82,0,0,1,.72-.91.81.81,0,0,1,.91.71v0a.54.54,0,0,1,0,.18.82.82,0,0,1-.72.91.81.81,0,0,1-.91-.71v0A.54.54,0,0,1,52.45,95.68Z" transform="translate(-19.93 81.57)" fill="#f98a89"/><path d="M57.82,88.86a.69.69,0,1,1,.68.7.69.69,0,0,1-.68-.7Z" transform="translate(-19.93 81.57)" fill="#f98a89"/><path d="M70.52,76.53a.88.88,0,1,1,.88.9.89.89,0,0,1-.88-.9Z" transform="translate(-19.93 81.57)" fill="#f98a89"/><path d="M84.66,78.31a.29.29,0,1,1,.29.29h0A.29.29,0,0,1,84.66,78.31Z" transform="translate(-19.93 81.57)" fill="#f98a89"/><path d="M92.65,31.61a.64.64,0,1,1,.63.65A.65.65,0,0,1,92.65,31.61Z" transform="translate(-19.93 81.57)" fill="#f98a89"/><path d="M90.76,56.56a.9.9,0,0,1,.89-.91h0a.92.92,0,0,1,.89.92.9.9,0,1,1-1.79.19.61.61,0,0,1,0-.19Z" transform="translate(-19.93 81.57)" fill="#f98a89"/><path d="M113.63,34.86A1.1,1.1,0,1,1,114.72,36a1.1,1.1,0,0,1-1.09-1.12Z" transform="translate(-19.93 81.57)" fill="#f98a89"/><path d="M103.52,79.42a1,1,0,0,1,2,0v.06a1,1,0,0,1-2.07,0Z" transform="translate(-19.93 81.57)" fill="#f98a89"/><path d="M134.22,65.42a.35.35,0,1,1,.35.35h0a.34.34,0,0,1-.34-.34Z" transform="translate(-19.93 81.57)" fill="#f98a89"/><path d="M136.38,62.74a1,1,0,1,1,1,1A1,1,0,0,1,136.38,62.74Z" transform="translate(-19.93 81.57)" fill="#f98a89"/><path d="M158.06,72.71a1.06,1.06,0,1,1,1.05,1.08,1.05,1.05,0,0,1-1.05-1.08Z" transform="translate(-19.93 81.57)" fill="#f98a89"/><path d="M123.84,95.19a.74.74,0,1,1,.73.75.74.74,0,0,1-.73-.75Z" transform="translate(-19.93 81.57)" fill="#f98a89"/><path d="M295.52,318.26a1.26,1.26,0,1,1,1.25,1.29,1.27,1.27,0,0,1-1.25-1.29Z" transform="translate(-19.93 81.57)" fill="#f98a89"/><path d="M324.18,323a.41.41,0,0,1,.82,0,.43.43,0,0,1-.41.41.41.41,0,0,1-.41-.41Z" transform="translate(-19.93 81.57)" fill="#f98a89"/><path d="M350.52,310.86a.68.68,0,1,1,1.36,0h0a.68.68,0,1,1-1.36,0Z" transform="translate(-19.93 81.57)" fill="#f98a89"/><path d="M372.34,303.36a.27.27,0,0,1,.27-.27.26.26,0,0,1,.26.26h0a.27.27,0,0,1-.26.27A.28.28,0,0,1,372.34,303.36Z" transform="translate(-19.93 81.57)" fill="#f98a89"/><path d="M383.52,317.22a1,1,0,1,1,1,1h0A1,1,0,0,1,383.52,317.22Z" transform="translate(-19.93 81.57)" fill="#f98a89"/><path d="M382.52,281.22a.27.27,0,1,1,.27.27h0A.27.27,0,0,1,382.52,281.22Z" transform="translate(-19.93 81.57)" fill="#f98a89"/><path d="M392.9,265.86a.82.82,0,0,1,.82-.81.81.81,0,0,1,.8.82h0a.82.82,0,0,1-.81.82A.83.83,0,0,1,392.9,265.86Z" transform="translate(-19.93 81.57)" fill="#f98a89"/><path d="M394.57,257.65a.29.29,0,0,1,.28-.3h0a.33.33,0,1,1-.3.41A.2.2,0,0,1,394.57,257.65Z" transform="translate(-19.93 81.57)" fill="#f98a89"/><path d="M394.85,239.13a1.32,1.32,0,1,1,1.31,1.35A1.34,1.34,0,0,1,394.85,239.13Z" transform="translate(-19.93 81.57)" fill="#f98a89"/><path d="M392.06,233.34a.71.71,0,0,1,.7-.72h0a.73.73,0,0,1,.7.72.71.71,0,0,1-.71.71.7.7,0,0,1-.7-.7h0Z" transform="translate(-19.93 81.57)" fill="#f98a89"/><path d="M390.44,225.48a.26.26,0,1,1,.26.26.25.25,0,0,1-.26-.24h0Z" transform="translate(-19.93 81.57)" fill="#f98a89"/><path d="M420.06,208.86a.75.75,0,1,1,.74.76.74.74,0,0,1-.74-.74Z" transform="translate(-19.93 81.57)" fill="#f98a89"/><path d="M417.06,193.33a.22.22,0,0,1,.22-.22h0a.22.22,0,0,1,.22.22h0a.24.24,0,0,1-.22.22.22.22,0,0,1-.22-.22Z" transform="translate(-19.93 81.57)" fill="#f98a89"/><path d="M375.34,193.91a.41.41,0,0,1,.41-.41h0a.42.42,0,1,1-.42.42Z" transform="translate(-19.93 81.57)" fill="#f98a89"/><path d="M387.52,182.31a.29.29,0,0,1,.29-.29h0a.29.29,0,0,1,.29.29h0a.29.29,0,0,1-.58,0Z" transform="translate(-19.93 81.57)" fill="#f98a89"/><path d="M373.29,178.76a.88.88,0,1,1,.88.88.87.87,0,0,1-.88-.88Z" transform="translate(-19.93 81.57)" fill="#f98a89"/><path d="M416.81,156.23A.22.22,0,0,1,417,156h0a.22.22,0,0,1,.22.22h0a.22.22,0,0,1-.22.22h0a.22.22,0,0,1-.22-.22Z" transform="translate(-19.93 81.57)" fill="#f98a89"/><path d="M416.77,146.42a.55.55,0,0,1,.55-.55.54.54,0,0,1,.54.54h0a.55.55,0,1,1-1.09.15.38.38,0,0,1,0-.15Z" transform="translate(-19.93 81.57)" fill="#f98a89"/><path d="M382.06,111.54a.54.54,0,0,1,.52-.53.53.53,0,0,1,.52.53.5.5,0,0,1-.34.63h0a.52.52,0,0,1-.64-.35.48.48,0,0,1,0-.29Z" transform="translate(-19.93 81.57)" fill="#f98a89"/><path d="M413.44,126.69a.56.56,0,0,1,.56-.56.57.57,0,0,1,.15,1.13H414a.55.55,0,0,1-.56-.54h0Z" transform="translate(-19.93 81.57)" fill="#f98a89"/><path d="M412.29,112.86a.79.79,0,1,1,.79.81.8.8,0,0,1-.79-.81Z" transform="translate(-19.93 81.57)" fill="#f98a89"/><path d="M428.67,116.42a.22.22,0,1,1,.22.22h0a.22.22,0,0,1-.22-.22Z" transform="translate(-19.93 81.57)" fill="#f98a89"/><path d="M448.7,118.75a.58.58,0,0,1,.57-.59h0a.6.6,0,0,1,.58.59.61.61,0,0,1-.59.59.58.58,0,0,1-.57-.57h0Z" transform="translate(-19.93 81.57)" fill="#f98a89"/><path d="M445,139.76a.44.44,0,0,1,.44-.44h0a.44.44,0,1,1-.44.44Z" transform="translate(-19.93 81.57)" fill="#f98a89"/><path d="M456.74,166a1,1,0,0,1,1-1h0a1.06,1.06,0,0,1,1.12,1,1.06,1.06,0,0,1-2.12.12V166Z" transform="translate(-19.93 81.57)" fill="#f98a89"/><path d="M287.52,266.78a.42.42,0,0,1,.42-.42h0a.44.44,0,0,1,.36.49.42.42,0,0,1-.36.36A.45.45,0,0,1,287.52,266.78Z" transform="translate(-19.93 81.57)" fill="#f98a89"/><path d="M294.27,304.08a.68.68,0,0,1,.67-.67.67.67,0,0,1,.65.67h0a.66.66,0,1,1-1.32,0Z" transform="translate(-19.93 81.57)" fill="#f98a89"/><path d="M269.63,261.27a.33.33,0,1,1,.66,0,.32.32,0,0,1-.31.33h0a.33.33,0,0,1-.35-.31Z" transform="translate(-19.93 81.57)" fill="#f98a89"/><path d="M264.82,275.73a.23.23,0,0,1,.22-.24h0a.23.23,0,0,1,.23.23h0a.23.23,0,0,1-.22.24h0a.23.23,0,0,1-.23-.23Z" transform="translate(-19.93 81.57)" fill="#f98a89"/><path d="M262.79,280.42a.18.18,0,0,1,.18-.18.18.18,0,0,1,.17.18.18.18,0,0,1-.18.18.18.18,0,0,1-.17-.17Z" transform="translate(-19.93 81.57)" fill="#f98a89"/><path d="M247,271a1.14,1.14,0,0,1,2.27-.25v0a.74.74,0,0,1,0,.21,1.13,1.13,0,0,1-1.05,1.22,1.14,1.14,0,0,1-1.22-1A.74.74,0,0,1,247,271Z" transform="translate(-19.93 81.57)" fill="#f98a89"/><path d="M222.52,288.51a1.28,1.28,0,0,1,2.55-.23.89.89,0,0,1,0,.23,1.28,1.28,0,1,1-2.55.23h0A.89.89,0,0,1,222.52,288.51Z" transform="translate(-19.93 81.57)" fill="#f98a89"/><path d="M222.25,289.5a.64.64,0,1,1,.63.65h0a.63.63,0,0,1-.63-.63h0Z" transform="translate(-19.93 81.57)" fill="#f98a89"/><path d="M203.24,310.07a.86.86,0,1,1,.85.87.87.87,0,0,1-.85-.87Z" transform="translate(-19.93 81.57)" fill="#f98a89"/><path d="M95.45,344.35a1.29,1.29,0,1,1,1.28,1.32,1.29,1.29,0,0,1-1.28-1.32Z" transform="translate(-19.93 81.57)" fill="#f98a89"/><path d="M104.16,335.58a.92.92,0,1,1,.92.94.92.92,0,0,1-.92-.94Z" transform="translate(-19.93 81.57)" fill="#f98a89"/><path d="M115,326.42a.93.93,0,1,1,.92.95.93.93,0,0,1-.92-.95Z" transform="translate(-19.93 81.57)" fill="#f98a89"/><path d="M116.76,317.25A1.23,1.23,0,0,1,118,316h0a1.25,1.25,0,0,1,0,2.49,1.23,1.23,0,0,1-1.23-1.23h0Z" transform="translate(-19.93 81.57)" fill="#f98a89"/><path d="M141.34,327.13a.47.47,0,0,1,.47-.47h0a.5.5,0,0,1,0,1,.47.47,0,0,1-.48-.46v-.07Z" transform="translate(-19.93 81.57)" fill="#f98a89"/><path d="M159.3,53.42a1.3,1.3,0,1,1,1.29,1.32,1.3,1.3,0,0,1-1.29-1.32Z" transform="translate(-19.93 81.57)" fill="#f98a89"/><path d="M178.37,56.86a.84.84,0,1,1,1.67-.21v0a.54.54,0,0,1,0,.18.84.84,0,0,1-1.67.21v0A.54.54,0,0,1,178.37,56.86Z" transform="translate(-19.93 81.57)" fill="#f98a89"/><path d="M188.32,72.27A.68.68,0,1,1,189,73,.69.69,0,0,1,188.32,72.27Z" transform="translate(-19.93 81.57)" fill="#f98a89"/><path d="M192.8,73.52a1.16,1.16,0,1,1,2.31-.22h0a.81.81,0,0,1,0,.22A1.17,1.17,0,0,1,194,74.68,1.16,1.16,0,0,1,192.8,73.52Z" transform="translate(-19.93 81.57)" fill="#f98a89"/><path d="M216.73,69.42a1,1,0,1,1,1,1A1,1,0,0,1,216.73,69.42Z" transform="translate(-19.93 81.57)" fill="#f98a89"/><path d="M238.36,48.73a.7.7,0,1,1,.7.72.71.71,0,0,1-.7-.72Z" transform="translate(-19.93 81.57)" fill="#f98a89"/><path d="M263.06,89.35a.24.24,0,0,1,.24-.24.23.23,0,0,1,.23.23h0a.23.23,0,0,1-.22.24h0a.24.24,0,0,1-.25-.23Z" transform="translate(-19.93 81.57)" fill="#f98a89"/><path d="M258.28,49.71a1,1,0,1,1,1,1h-.06A1,1,0,0,1,258.28,49.71Z" transform="translate(-19.93 81.57)" fill="#f98a89"/><path d="M296.58,82.5a1.06,1.06,0,1,1,2.12,0h0a1.06,1.06,0,1,1-2.12,0Z" transform="translate(-19.93 81.57)" fill="#f98a89"/><path d="M324.06,45.71a.82.82,0,0,1,.8-.8.81.81,0,1,1-.8.82Z" transform="translate(-19.93 81.57)" fill="#f98a89"/><path d="M297.65,28.35a.18.18,0,0,1,.17-.17h0a.18.18,0,0,1,.17.17.18.18,0,0,1-.18.18A.18.18,0,0,1,297.65,28.35Z" transform="translate(-19.93 81.57)" fill="#f98a89"/><path d="M22.52,256.93a.83.83,0,0,1,1.65,0h0a.83.83,0,0,1-.82.84h0A.84.84,0,0,1,22.52,256.93Z" transform="translate(-19.93 81.57)" fill="#f98a89"/><path d="M58.23,274.42a.26.26,0,0,1,.26-.26h0a.27.27,0,1,1-.26.28Z" transform="translate(-19.93 81.57)" fill="#f98a89"/><path d="M69.14,257.91a1,1,0,1,1,0,.06Z" transform="translate(-19.93 81.57)" fill="#f98a89"/><path d="M80.57,267a.28.28,0,1,1,.28.29.29.29,0,0,1-.28-.29Z" transform="translate(-19.93 81.57)" fill="#f98a89"/><path d="M66.64,241.36a.62.62,0,0,1,1.23-.17h0a.43.43,0,0,1,0,.16.62.62,0,0,1-1.23.17h0A.43.43,0,0,1,66.64,241.36Z" transform="translate(-19.93 81.57)" fill="#f98a89"/><path d="M40.35,263.42a1.18,1.18,0,0,1,2.36,0,1.21,1.21,0,0,1-1.19,1.19,1.18,1.18,0,0,1-1.17-1.19Z" transform="translate(-19.93 81.57)" fill="#f98a89"/><path d="M53.32,227.86a.78.78,0,0,1,.77-.78.79.79,0,0,1,.77.79.78.78,0,0,1-.77.78A.79.79,0,0,1,53.32,227.86Z" transform="translate(-19.93 81.57)" fill="#f98a89"/><path d="M25.72,232.57a.76.76,0,1,1,1.52,0h0a.76.76,0,0,1-.76.76h0A.77.77,0,0,1,25.72,232.57Z" transform="translate(-19.93 81.57)" fill="#f98a89"/><path d="M27.21,221.49a1.18,1.18,0,1,1,1.17,1.2,1.18,1.18,0,0,1-1.17-1.2Z" transform="translate(-19.93 81.57)" fill="#f98a89"/><path d="M31.52,207.78a.27.27,0,0,1,.27-.27h0a.28.28,0,1,1-.28.28h0Z" transform="translate(-19.93 81.57)" fill="#f98a89"/><path d="M19.93,201.92a1.28,1.28,0,1,1,1.27,1.3,1.28,1.28,0,0,1-1.27-1.3Z" transform="translate(-19.93 81.57)" fill="#f98a89"/><path d="M26.62,107.86a.26.26,0,1,1,.26.26h0A.26.26,0,0,1,26.62,107.86Z" transform="translate(-19.93 81.57)" fill="#f98a89"/><path d="M25.59,98.12a.82.82,0,0,1,1.63-.2v0a.54.54,0,0,1,0,.18.82.82,0,0,1-.82.82h0a.81.81,0,0,1-.81-.81Z" transform="translate(-19.93 81.57)" fill="#f98a89"/><path d="M31,91.3a.69.69,0,1,1,.68.7.69.69,0,0,1-.68-.7Z" transform="translate(-19.93 81.57)" fill="#f98a89"/><path d="M43.61,79a.89.89,0,1,1,.88.9.89.89,0,0,1-.88-.9Z" transform="translate(-19.93 81.57)" fill="#f98a89"/><path d="M57.8,80.75a.29.29,0,0,1,.27-.29h0a.3.3,0,0,1,.28.28h0a.29.29,0,0,1-.27.29h0A.3.3,0,0,1,57.8,80.75Z" transform="translate(-19.93 81.57)" fill="#f98a89"/><path d="M65.79,34.05a.64.64,0,1,1,.64.64h0A.64.64,0,0,1,65.79,34.05Z" transform="translate(-19.93 81.57)" fill="#f98a89"/><path d="M63.89,59a.9.9,0,1,1,.89.92.9.9,0,0,1-.89-.92Z" transform="translate(-19.93 81.57)" fill="#f98a89"/><path d="M86.77,37.26a1.1,1.1,0,1,1,1.09,1.12,1.1,1.1,0,0,1-1.09-1.12Z" transform="translate(-19.93 81.57)" fill="#f98a89"/><path d="M76.69,81.86a1,1,0,1,1,0,.08h0Z" transform="translate(-19.93 81.57)" fill="#f98a89"/><path d="M107.36,67.86a.33.33,0,0,1,.32-.34h0a.35.35,0,0,1,.29.4.36.36,0,0,1-.29.29A.36.36,0,0,1,107.36,67.86Z" transform="translate(-19.93 81.57)" fill="#f98a89"/><path d="M109.52,65.18a1,1,0,1,1,1,1A1,1,0,0,1,109.52,65.18Z" transform="translate(-19.93 81.57)" fill="#f98a89"/><path d="M131.24,75.15a1.06,1.06,0,1,1,2.11-.21.74.74,0,0,1,0,.21,1.06,1.06,0,0,1-2.11.21h0A.74.74,0,0,1,131.24,75.15Z" transform="translate(-19.93 81.57)" fill="#f98a89"/><path d="M97,97.63a.74.74,0,1,1,.73.75.74.74,0,0,1-.73-.75Z" transform="translate(-19.93 81.57)" fill="#f98a89"/><path d="M268.69,320.7a1.27,1.27,0,1,1,2.53-.23h0a.89.89,0,0,1,0,.23,1.27,1.27,0,0,1-2.53.23A.89.89,0,0,1,268.69,320.7Z" transform="translate(-19.93 81.57)" fill="#f98a89"/><path d="M297.31,325.47a.43.43,0,0,1,.41-.41.42.42,0,1,1-.41.43Z" transform="translate(-19.93 81.57)" fill="#f98a89"/><path d="M323.61,313.3a.68.68,0,0,1,1.36,0h0a.67.67,0,0,1-.65.69h0A.7.7,0,0,1,323.61,313.3Z" transform="translate(-19.93 81.57)" fill="#f98a89"/><path d="M345.52,305.8a.28.28,0,0,1,.27-.27.27.27,0,1,1-.27.27Z" transform="translate(-19.93 81.57)" fill="#f98a89"/><path d="M356.67,319.66a1,1,0,1,1,1,1h0A1,1,0,0,1,356.67,319.66Z" transform="translate(-19.93 81.57)" fill="#f98a89"/><path d="M355.68,283.65a.27.27,0,1,1,.27.28A.28.28,0,0,1,355.68,283.65Z" transform="translate(-19.93 81.57)" fill="#f98a89"/><path d="M366.06,268.29a.81.81,0,1,1,.8.82.81.81,0,0,1-.8-.82Z" transform="translate(-19.93 81.57)" fill="#f98a89"/><path d="M367.7,260.09a.29.29,0,0,1,.28-.3h0a.29.29,0,0,1,.29.29h0a.29.29,0,0,1-.28.3h0a.29.29,0,0,1-.31-.27Z" transform="translate(-19.93 81.57)" fill="#f98a89"/><path d="M368,241.57a1.32,1.32,0,1,1,1.31,1.34,1.32,1.32,0,0,1-1.31-1.34Z" transform="translate(-19.93 81.57)" fill="#f98a89"/><path d="M365.17,235.77a.71.71,0,1,1,.7.72.71.71,0,0,1-.7-.72Z" transform="translate(-19.93 81.57)" fill="#f98a89"/><path d="M363.58,227.92a.25.25,0,0,1,.24-.26h0a.26.26,0,0,1,.26.26h0a.26.26,0,0,1-.26.26h0A.25.25,0,0,1,363.58,227.92Z" transform="translate(-19.93 81.57)" fill="#f98a89"/><path d="M393.16,211.31a.75.75,0,1,1,.75.76A.76.76,0,0,1,393.16,211.31Z" transform="translate(-19.93 81.57)" fill="#f98a89"/><circle cx="370.47" cy="277.33" r="0.22" fill="#f98a89"/><path d="M348.52,196.35a.41.41,0,0,1,.82,0,.42.42,0,0,1-.41.4.41.41,0,0,1-.41-.41h0Z" transform="translate(-19.93 81.57)" fill="#f98a89"/><path d="M360.65,184.75a.3.3,0,1,1,.59-.11h0a.21.21,0,0,1,0,.11.29.29,0,0,1-.28.3h0A.31.31,0,0,1,360.65,184.75Z" transform="translate(-19.93 81.57)" fill="#f98a89"/><path d="M346.43,181.19a.88.88,0,1,1,.87.9A.9.9,0,0,1,346.43,181.19Z" transform="translate(-19.93 81.57)" fill="#f98a89"/><path d="M389.94,158.67a.22.22,0,0,1,.22-.22h0a.22.22,0,0,1,.22.22h0a.23.23,0,0,1-.23.23h0A.23.23,0,0,1,389.94,158.67Z" transform="translate(-19.93 81.57)" fill="#f98a89"/><path d="M389.9,148.86a.55.55,0,1,1,.55.56A.59.59,0,0,1,389.9,148.86Z" transform="translate(-19.93 81.57)" fill="#f98a89"/><path d="M355.2,114a.51.51,0,0,1,.36-.64.52.52,0,0,1,.64.35.48.48,0,0,1,0,.29h0a.51.51,0,0,1-.36.64.52.52,0,0,1-.64-.35A.48.48,0,0,1,355.2,114Z" transform="translate(-19.93 81.57)" fill="#f98a89"/><path d="M386.57,129.13a.56.56,0,1,1,.56.57A.57.57,0,0,1,386.57,129.13Z" transform="translate(-19.93 81.57)" fill="#f98a89"/><path d="M385.42,115.25a.8.8,0,1,1,.79.81.8.8,0,0,1-.79-.81Z" transform="translate(-19.93 81.57)" fill="#f98a89"/><path d="M401.8,118.86a.22.22,0,0,1,.22-.21.21.21,0,0,1,.21.21h0a.21.21,0,0,1-.21.21.22.22,0,0,1-.22-.22h0Z" transform="translate(-19.93 81.57)" fill="#f98a89"/><path d="M421.83,121.18a.58.58,0,1,1,.6.58h0a.58.58,0,0,1-.58-.58Z" transform="translate(-19.93 81.57)" fill="#f98a89"/><path d="M418.06,142.2a.44.44,0,0,1,.44-.44h0a.44.44,0,1,1-.44.44Z" transform="translate(-19.93 81.57)" fill="#f98a89"/><path d="M429.87,168.42a1,1,0,1,1,1,1A1,1,0,0,1,429.87,168.42Z" transform="translate(-19.93 81.57)" fill="#f98a89"/><path d="M260.69,269.22a.42.42,0,1,1,.42.42h0a.41.41,0,0,1-.41-.41h0Z" transform="translate(-19.93 81.57)" fill="#f98a89"/><path d="M267.41,306.51a.66.66,0,1,1,.65.67A.67.67,0,0,1,267.41,306.51Z" transform="translate(-19.93 81.57)" fill="#f98a89"/><path d="M242.76,263.7a.33.33,0,1,1,.66,0h0a.33.33,0,0,1-.66,0Z" transform="translate(-19.93 81.57)" fill="#f98a89"/><path d="M238,278.17a.24.24,0,1,1,.24.24h0A.26.26,0,0,1,238,278.17Z" transform="translate(-19.93 81.57)" fill="#f98a89"/><path d="M235.92,282.86a.18.18,0,1,1,.18.18h0A.18.18,0,0,1,235.92,282.86Z" transform="translate(-19.93 81.57)" fill="#f98a89"/><path d="M220.06,273.42a1.13,1.13,0,0,1,1.05-1.22,1.14,1.14,0,0,1,1.22,1,.74.74,0,0,1,0,.21,1.14,1.14,0,1,1-2.27.25v0A.74.74,0,0,1,220.06,273.42Z" transform="translate(-19.93 81.57)" fill="#f98a89"/><path d="M195.38,291.93a.64.64,0,1,1,1.28,0,.63.63,0,0,1-.64.62h0A.66.66,0,0,1,195.38,291.93Z" transform="translate(-19.93 81.57)" fill="#f98a89"/><path d="M176.38,312.51a.85.85,0,1,1,.84.86.85.85,0,0,1-.84-.86Z" transform="translate(-19.93 81.57)" fill="#f98a89"/><path d="M68.58,346.79a1.3,1.3,0,1,1,1.29,1.32,1.3,1.3,0,0,1-1.29-1.32Z" transform="translate(-19.93 81.57)" fill="#f98a89"/><path d="M77.3,338a.92.92,0,0,1,.91-.93h0a.93.93,0,0,1,.84,1,1,1,0,0,1-.84.84.93.93,0,0,1-.92-.94h0Z" transform="translate(-19.93 81.57)" fill="#f98a89"/><path d="M88.12,328.86a.93.93,0,1,1,.92.95.93.93,0,0,1-.92-.95Z" transform="translate(-19.93 81.57)" fill="#f98a89"/><path d="M89.89,319.69a1.18,1.18,0,1,1,1.23,1.25,1.25,1.25,0,0,1-1.23-1.25Z" transform="translate(-19.93 81.57)" fill="#f98a89"/><path d="M114.52,329.57a.5.5,0,0,1,1,0,.5.5,0,0,1-.49.49.48.48,0,0,1-.51-.45h0Z" transform="translate(-19.93 81.57)" fill="#f98a89"/><path d="M209.63,255.86c.7-.92,1.39-1.84,2.12-2.74a7.85,7.85,0,0,1,4.18-2.92c2.72-.69,4.66,1.32,3.94,4.08a7.18,7.18,0,0,1-2.45,3.7,24.86,24.86,0,0,1-7.49,4.38l-2.09.72c-.46,2.94-1.1,5.84-.78,9l2.17-2.73a20.74,20.74,0,0,1,6-5.27,8.71,8.71,0,0,1,5.17-1.27c3.11.3,4.5,3.16,2.61,5.66a9.45,9.45,0,0,1-3.61,2.93,80.05,80.05,0,0,1-9.76,3.31c-3.64,1-3.68.83-4,4.57-.17,1.72-.33,3.43-.53,5.54l1.45-1.1c2.4-1.92,4.71-4,7.2-5.71a14.42,14.42,0,0,1,8.53-3,7.55,7.55,0,0,1,3.14.71c1.87.9,2.42,2.68,1.2,4.34a8.21,8.21,0,0,1-3.35,2.83,88.87,88.87,0,0,1-9.79,3.21c-2.72.72-5.53,1.09-8.56,1.66-.78,4.27-.85,8.72-1.34,13.5,2.53-2.07,4.65-3.91,6.88-5.61a29,29,0,0,1,9.77-5.08,14,14,0,0,1,6.73-.4c3.91.81,5.22,4.3,2.82,7.56a10.44,10.44,0,0,1-5.87,3.74,91,91,0,0,1-8.94,1.89,43.82,43.82,0,0,1-5.61.39c-1.88.06-3.75,0-5.91,0-.82,5.85-1.07,11.73-1.49,18.11.84-.77,1.35-1.21,1.82-1.68,3.2-3.28,6.42-6.53,10.4-8.84,3.17-1.84,6.48-3.22,10.21-3.1a9,9,0,0,1,3,.55c3.77,1.5,4.87,5.62,2.19,8.71a13.91,13.91,0,0,1-4.31,3.18c-4.06,2-8.52,2.59-13,3-2.57.23-5.16.24-7.73.4s-2.81.32-3,2.88c-.29,4-.55,8-.85,12.43l2-1.16c4-2.25,7.84-4.62,11.88-6.7a20.06,20.06,0,0,1,10.29-1.87,10.86,10.86,0,0,1,5.55,1.76,4.79,4.79,0,0,1,1.84,6.51c-.06.1-.12.2-.19.3a9.42,9.42,0,0,1-5.25,4.19,29,29,0,0,1-13,1.46c-3.58-.31-7.14-.89-10.71-1.37-2.44-.32-2.74-.12-3,2.33-.33,3.47-.63,6.94-1,10.65a14.87,14.87,0,0,0,1.59-.54,86.39,86.39,0,0,1,16.46-6.26,24.76,24.76,0,0,1,8.61-.82,12.92,12.92,0,0,1,3.62.86c2.81,1.22,3.43,3.6,1.75,6.21a9.75,9.75,0,0,1-4.58,3.58,24.1,24.1,0,0,1-12.88,1.77c-4-.54-8-1.43-12-2.17l-2.51-.47c-.85,2.46-.46,5-1.28,7.54-1.34-1.16-.81-2.31-.8-3.32s.19-2.2.29-3.33c-2.08.07-4.08.26-6.07.19a32.2,32.2,0,0,1-14.14-4,15.53,15.53,0,0,1-3.42-2.49,9.3,9.3,0,0,1-2-2.85A3.55,3.55,0,0,1,173,344.6a3.68,3.68,0,0,1,1.06-.4,11.81,11.81,0,0,1,3.93-.31,18.67,18.67,0,0,1,8.2,2.71c3.42,2.06,6.67,4.4,10,6.64.44.3.83.68,1.62,1.34.22-2.11.41-3.86.58-5.61s.35-3.62.55-5.66c-.74.06-1.32.1-1.9.16a35.15,35.15,0,0,1-13.73-1,16.15,16.15,0,0,1-8.24-5.61,9.24,9.24,0,0,1-2.23-5.64,5,5,0,0,1,3.62-5.2,9,9,0,0,1,7.08.7,52.28,52.28,0,0,1,7.52,4.79,83.05,83.05,0,0,1,6.21,5.8l2,1.92c.63-5,.8-9.58,1.13-14.34-2.38-.27-4.62-.47-6.83-.8a24.16,24.16,0,0,1-13.09-5.72,11.46,11.46,0,0,1-3.45-5c-1.37-4.18,1.42-7.78,5.76-7.47a10.67,10.67,0,0,1,5.57,2.32,54.63,54.63,0,0,1,10.29,10.37c.52.66,1.05,1.31,1.89,2.35.46-6.06.88-11.56,1.31-17.22-3.13-.59-6.13-1.1-9.11-1.74a21.83,21.83,0,0,1-9.88-4.72,10.66,10.66,0,0,1-3.91-7.83,8.72,8.72,0,0,1,.38-3,3.77,3.77,0,0,1,4.14-2.78,7.53,7.53,0,0,1,4.74,1.85,73.62,73.62,0,0,1,6.56,6.42c2,2.32,3.67,4.94,5.5,7.42.46.62.94,1.22,1.72,2.22.7-4.84.89-9.29,1.35-13.92-1.07-.4-2.06-.82-3.08-1.14a32,32,0,0,1-11.4-6.45,7.68,7.68,0,0,1-2.64-3.84c-.85-3.28,1.13-5.49,4.34-4.63a8.79,8.79,0,0,1,3.85,2.11,85.1,85.1,0,0,1,6.14,7.15,39.52,39.52,0,0,1,2.52,4c.78-1.25,1.26-4.24,1.31-8.18-1.65-1.13-3.47-2.21-5.1-3.53a81.09,81.09,0,0,1-6.53-5.75,7,7,0,0,1-2.07-4.93c0-3.2,2.26-4.71,5-3.12a12.76,12.76,0,0,1,3.71,3.19,44.83,44.83,0,0,1,3.54,5.87c.67,1.23,1.12,2.59,1.85,4.31.37-2,.68-3.53.93-5.08s.46-3.3.72-5.14c-.63-.47-1.32-1-2-1.49A20.65,20.65,0,0,1,197,250.86a9.33,9.33,0,0,1-.5-3.44c.18-2.53,2.38-3.52,4.36-2a7.53,7.53,0,0,1,2.17,2.49c1.14,2.42,2.08,5,3.06,7.44.32.8.52,1.64.94,3,.33-.94.54-1.38.65-1.86.2-.85.26-1.73.5-2.56a9,9,0,0,0-.42-6.17,24.12,24.12,0,0,1-1.23-7.44,7.59,7.59,0,0,1,1.26-4c1.41-2.31,4.08-2.17,5.55.15a7.36,7.36,0,0,1,1.07,4.55,19.58,19.58,0,0,1-2.61,8.07c-1,1.86-2.31,3.61-2.48,5.85v.7Z" transform="translate(-19.93 81.57)" fill="url(#Безымянный_градиент_18-2)"/></g><path d="M164.24,235.65h-.18l.1-.1Z" transform="translate(-19.93 81.57)" fill="url(#Безымянный_градиент_24-4)"/><path d="M147.84,334.7c-.34.79-.7,1.54-1.09,2.26C147.12,336.21,147.52,335.42,147.84,334.7Z" transform="translate(-19.93 81.57)"/><path d="M293.38,83.25a1.14,1.14,0,0,1-.1.19l0-.12Z" transform="translate(-19.93 81.57)" fill="url(#Безымянный_градиент_20-9)"/><path d="M103.92,244.34S101.57,239,108,235.4s29.38-4.77,37.61,5.36,13.52,42.31-15.86,47.68S103.92,244.34,103.92,244.34Z" transform="translate(-19.93 81.57)" fill="url(#Безымянный_градиент_24-5)"/><path d="M428.65,461.68c-2.51-.24-10.09-2.7-13.95-4-1.17-.39-2.4-.59-3.61-.88-2.67-.64-7.38-2.08-13-9.45-7.63-10-11.53-2.31-14.94,0-1.59,1.07-4.95,1.65-8.07,2q-6.93-2.93-14-5.62c-1.92,4.6-3.26,14.15-1.92,15.52,2.58.64,4.66,1,7.23,1.73,3.16,1,12.9,3.9,21.93,6.68A48.11,48.11,0,0,0,401.4,470a77.88,77.88,0,0,0,14.05-1.21c10.07-1.48,19.33.83,20.31-1.31S432.06,462,428.65,461.68Z" transform="translate(-19.93 81.57)" fill="#fdb88e"/><path d="M360.52,459.86c-1.79.66-30.36-2.84-34.43-2.35s-36.22-3.78-40.45-2.3c-2.21.78-14.29,3.46-16.4,3.79s-36.29-1.49-39.79-1.49c-7.32,0-16.73-1.48-19.66-2.47s-13.16-2-19.49-2.13-26-3.8-30.05-4.62-25.91-11.2-23.82-11.85c.48-.15,1.72-2.9,2.73-6.54l10-36.24c6.67.83,13.64-6.39,25.58-6.83,13.31-.49,17.18,1.25,26.77,12.95s23.31,12.64,27.69,13.64,36.33,8.07,41.58,7.41c7.23-.91,23,1.9,26.8,2.8,1.5.36,13.49.5,24.54,2.64s40.36,18,40.36,18h0C363.24,449,360.61,459.86,360.52,459.86Z" transform="translate(-19.93 81.57)" fill="url(#Безымянный_градиент_24-6)"/><path d="M97.3,441.86a9.63,9.63,0,0,1-4,2.3c-2.27.55-3.78-.8-9.35,1-7.75,2.44-19.64,5.56-22.44,5.69s-3.88,2.17-.27,2.44c-.67.81,0,1.22,1.07,1.22,1.6,0,11.62-.27,13.62-.81s5.74-.55,7.35.13,14.83-.81,16.43-1.49S97.3,441.86,97.3,441.86Z" transform="translate(-19.93 81.57)" fill="#fdb88e"/><path d="M430.67,463.73c-2.51-.24-10.09-2.71-13.95-4-1.18-.39-2.4-.6-3.61-.88-2.67-.64-7.38-2.09-13-9.45-7.64-10-11.53-2.31-14.94,0-1.59,1.07-4.95,1.64-8.08,2-4.61-2-9.27-3.84-14-5.62-1.92,4.6-3.27,14.15-1.92,15.52,2.58.64,4.66,1,7.23,1.72,3.15,1,12.9,3.91,21.93,6.69a48.5,48.5,0,0,0,13.08,2.36,78.36,78.36,0,0,0,14.1-1.21c10.07-1.48,19.33.83,20.3-1.32S434.06,464.06,430.67,463.73Z" transform="translate(-19.93 81.57)" fill="#fdb88e"/><path d="M133.65,310.27a14.32,14.32,0,0,0-7.23-5.2c-7.13-2.33-13.48.46-18.63,5.35-3.14,3-5.23,6.78-7.87,10.17a11.16,11.16,0,0,1-4.68,5.53,3.51,3.51,0,0,1-2.62-.79c2.15-2.14,12.85-15.61,14.07-22.63a73.49,73.49,0,0,0,1.19-16.42c3-1.81,12.4-6.59,21.64-7.6-3.85,8.52-1.58,19.89.93,24.43A48.27,48.27,0,0,1,133.65,310.27Z" transform="translate(-19.93 81.57)" fill="#fdb88e"/><path d="M138.66,438.42c-.48-.22-11.34-5.34-16.07-8,1.67-9.29,6-30.37,16.27-41.33,2.52,1.66,10.43,4.61,10.85,4.71C151.91,401.86,149.22,430.53,138.66,438.42Z" transform="translate(-19.93 81.57)" fill="#fdb88e"/><path d="M138.86,389.18c-10.29,11-14.6,32-16.27,41.33l-2-1.1h0c-1.84-1.05-3.63-2.13-5.34-3.22l-1.37-.89-.26-.17-2-1.35c-1.87-1.32-3.62-2.66-5.2-4a42.81,42.81,0,0,1-3.58-3.42l-.21-.24h0l-.67-.76c-.36-.43-.7-.85-1-1.28-13.65-18.29-8.33-18.78-12.55-30.64A46.63,46.63,0,0,0,85.64,377a23.57,23.57,0,0,0-4.58-6.19c-1.33-1.27-2.4-2-3-2.66a31.54,31.54,0,0,1-5.54-10.85c-.89-3.49-.83-7.11,1.64-9.74a255,255,0,0,0,18.36-22.09h0a3.51,3.51,0,0,0,2.62.79,11.16,11.16,0,0,0,4.68-5.53c2.64-3.39,4.73-7.2,7.87-10.17,5.15-4.89,11.5-7.68,18.63-5.35a14.32,14.32,0,0,1,7.23,5.2,36.73,36.73,0,0,1,2.2,9.24c.13,2.2.21,4.69.21,7.4,0,3.27-.12,6.87-.45,10.66a108.12,108.12,0,0,1-1.79,12.41c-4.22,20.43-4.55,32,1,36.24C135.91,387.09,137.25,388.13,138.86,389.18Z" transform="translate(-19.93 81.57)" fill="#fdb88e"/><path d="M138.86,389.18c-10.29,11-17,45.64-17.12,45.89-3.48,1.61-18-6.13-22.22-9.55C93,420.23,93.21,415.05,92.07,407c-2-14-9.75-26.42-16.41-38.65-5.15-9.46-7.69-14-1-22.36,5.35-6.64,11.22-13.7,17.86-20.6h0a3.51,3.51,0,0,0,2.62.79c2.14-1.29,9.41-12.73,12.55-15.7,5.15-4.89,11.5-7.68,18.63-5.35a14.32,14.32,0,0,1,7.23,5.2c7.14,9.59,4.42,28.15,2.2,38.37-1.81,8.31-2.71,30.79-2,32.32C135.18,383.76,142.06,385,138.86,389.18Z" transform="translate(-19.93 81.57)" fill="url(#Безымянный_градиент_23)"/><path d="M96.29,470.86c-2,.83-15.77,1.24-17.87,1a40.59,40.59,0,0,0-11,.66c-2.44.66-11.37,1-13.32,1-1.3,0-2.28-.82-1.46-1.81-3.75,1.46-7.11-.32-5.33-1.32l.16-.08h0a4.17,4.17,0,0,1,.78-.25c3.33-.77,19.49-4.94,28.92-7.91,6.77-2.13,8.6-.49,11.37-1.15a10.68,10.68,0,0,0,4.08-2.11h.06c.46-.37,8.15.1,8.67,4a.09.09,0,0,0,0,.07h0c.1.72.21,1.46.33,2.18C102.46,469.74,98.24,470.07,96.29,470.86Z" transform="translate(-19.93 81.57)" fill="#fdb88e"/><path d="M361.22,461.25c-1.78.66-59.22-4.78-74.87-4-4.7.24-14.27,3-16.4,3.11-15.07.86-34.58-2.56-44.68-1.87-7.3.49-60.26-8-64.32-8.84s-25.89-11.18-23.82-11.79c.48-.14,1.72-2.89,2.74-6.54,3.27-11.85,8.74-38.44,8.74-38.44,6.67.84,14.95-6.56,26.88-7,13.32-.49,18.51,3.62,28.1,15.32s21.93,12.66,26.31,13.66,36.34,8.08,41.59,7.42c7.23-.91,23,1.89,26.8,2.8,1.49.35,13.48.49,24.53,2.64s40.37,18,40.37,18h-.05C363.91,450.33,361.28,461.23,361.22,461.25Z" transform="translate(-19.93 81.57)" fill="url(#Безымянный_градиент_24-7)"/><path d="M134,323.6v.08q-.78,6.54-1.51,13l-.57,4.94-1,9.22-1,8.75c-.68,6-1.34,12-2.06,18-.37,3-.72,6-1.11,9.05-.19,1.52-.39,3-.61,4.58-.11.78-.22,1.56-.34,2.35l-.2,1.22c-.06.41-.14.83-.22,1.29l-.13.71-.08.39-.1.44v.26l-.07.29-.1.36v.2l-.08.27-.09.29-.17.45-.1.25c-.06.14-.12.28-.19.42l-.21.4-.07.12h0l-.06.09h0l-.09.14-.09.15-.1.18-.1.18-.1.19-.21.41c-.46.9-.92,1.89-1.37,2.92h0c-1.28,4.91-3.91,14.11-6.68,21.72-3.75,10.31-9,22.58-10.74,26.72h0q-1.47,4.56-2.9,9.13h0l-.63,2h0a4.63,4.63,0,0,1-8.94-2.4l.09-.38.75-3.15.06-.24c.46-1.92.91-3.85,1.37-5.78.75-3.17,1.51-6.34,2.26-9.51h0c.43-2.46,1-5.76,1.72-9.44v-.08l.09-.51v-.15a2.7,2.7,0,0,1,.08-.41v-.26l.06-.27a.77.77,0,0,1,.07-.4v-.08c1-5.22,2.23-11,3.49-16.16.52-2.13,1.1-4.32,1.7-6.5h0c2.11-7.59,4.49-14.87,5.63-18V390c0-1.44,0-2.91-.09-4.38-.08-2.94-.18-5.91-.31-8.89q-.37-8.91-.88-17.89c-.14-2.69-.3-5.38-.46-8.07l-.36-5.66-.27-4.2c-.4-6-.82-12-1.31-17.92a14.18,14.18,0,0,1,5.68-12.51h0a14.24,14.24,0,0,1,7.39-2.77h2.14a14,14,0,0,1,2.95.52,14.23,14.23,0,0,1,10.29,12.63A14.45,14.45,0,0,1,134,323.6Z" transform="translate(-19.93 81.57)" fill="#fdb88e"/><path d="M130.36,280.09c2.79-4.23,4.12-10.13.59-11.92s-9.4,5.16-10.58,3.37-1.13-6.4-2.89-9.38-.42-10.3-1.59-12.11-10.21-6.31-12-5.71c0,0-13.51,28-11.75,39.92.4,2.71,3.47,3.35,10,4.18C106.86,289,125.66,287.24,130.36,280.09Z" transform="translate(-19.93 81.57)" fill="#fdb88e"/><path d="M82.66,453.59a.41.41,0,0,1-.26-.09c-.25-.19-1.53-1.18-1.37-2.19,0-.33.28-.79,1.09-1.06a13.86,13.86,0,0,1,3.45-.41,17.78,17.78,0,0,0,6-1,.43.43,0,0,1,.56.24h0a.44.44,0,0,1-.24.57,18.41,18.41,0,0,1-6.24,1,13.35,13.35,0,0,0-3.21.37c-.14,0-.47.18-.5.36,0,.34.56,1,1,1.34a.44.44,0,0,1,.09.62h0A.43.43,0,0,1,82.66,453.59Z" transform="translate(-19.93 81.57)" fill="#f2775a"/></g></g></g></svg>