<svg xmlns="http://www.w3.org/2000/svg" xmlns:xlink="http://www.w3.org/1999/xlink" viewBox="0 0 621.95 670.98"><defs><clipPath id="clip-path" transform="translate(115.03 59.71)"><path d="M296.88,558.29C153.54,565.11,42.27,558.42,0,533.18V41.79C0,18.71,17.61,0,39.35,0H475.68c21.74,0-19.8,30.21-19.8,53.29l21,482C434.82,558.24,400.07,553.4,296.88,558.29Z" fill="none"/></clipPath><linearGradient id="Безымянный_градиент_248" x1="-316.89" y1="-517.76" x2="121.52" y2="-270.66" gradientTransform="translate(286 623.18)" gradientUnits="userSpaceOnUse"><stop offset="0" stop-color="#381a96"/><stop offset="1" stop-color="#350e71"/></linearGradient><clipPath id="clip-path-2" transform="translate(115.03 59.71)"><path d="M-94.14,271.18l.32.15c10,4.79,22.68,4.22,30.42,12.51,9.57,10.24,14,26.05,23,37.33A129.53,129.53,0,0,0-2.9,353.58c54.39,30.81,124.68,9.4,183.44,10.19,34.14.45,62.84,9.76,95.71,18.26,8.08,2.09,17,3.62,24.42-.29,8.28-4.34,13.51-14.78,22.61-16.35,11.29-2,23.53,8,35.34,8.63,12.44.6,24.9-2.69,36.11-8.27,21.34-10.63,41-31.37,44.16-57.15,2.7-22.26-7.67-45.73-25.52-57.76-4.08-2.74-8.67-5.1-11.29-9.4-2.76-4.52-2.78-10.28-2.6-15.66.44-13.74,1.53-27.64-1-41.11s-9.47-26.8-21-33c-19.25-10.29-45.53,1.51-62.5-12.58-16-13.31-12.5-39.48-18-60.27-6.69-25.12-30-44.15-54.56-44.58-14.78-.26-28.17,4.55-40.87-6.87-4.23-3.8-7.53-8.66-11.7-12.54-8.6-7.91-20-11.18-31-14.12Q86.15-18.71,12.09-32.14C-23.5-38.58-58.77-41.65-76.12-.83c-7.37,17.31-9,37.05-6.13,55.8C-79.37,74-72.07,92.24-71,111.49c2.45,43.57-35.77,69-43.1,108.94C-117.67,239.83-111,262.88-94.14,271.18Z" fill="none"/></clipPath><linearGradient id="Безымянный_градиент_248-2" x1="-1312.74" y1="-183.57" x2="-1288.4" y2="-183.57" gradientTransform="translate(1332.33 623.18)" xlink:href="#Безымянный_градиент_248"/><linearGradient id="Безымянный_градиент_248-3" x1="-1343.63" y1="-154.3" x2="-1323.84" y2="-154.3" gradientTransform="translate(1332.33 623.18)" xlink:href="#Безымянный_градиент_248"/><linearGradient id="Безымянный_градиент_248-4" x1="-1340.25" y1="-249.62" x2="-1320.7" y2="-249.62" gradientTransform="translate(1332.33 623.18)" xlink:href="#Безымянный_градиент_248"/><linearGradient id="Безымянный_градиент_248-5" x1="-1284.53" y1="-192.82" x2="-1265.97" y2="-192.82" gradientTransform="translate(1332.33 623.18)" xlink:href="#Безымянный_градиент_248"/><linearGradient id="Безымянный_градиент_248-6" x1="-1335.89" y1="-225.35" x2="-1305.58" y2="-225.35" gradientTransform="translate(1332.33 623.18)" xlink:href="#Безымянный_градиент_248"/><linearGradient id="Безымянный_градиент_248-7" x1="-1338.32" y1="-239.42" x2="-1313.89" y2="-239.42" gradientTransform="translate(1332.33 623.18)" xlink:href="#Безымянный_градиент_248"/><linearGradient id="Безымянный_градиент_248-8" x1="-1326.68" y1="-212.6" x2="-1299.12" y2="-212.6" gradientTransform="translate(1332.33 623.18)" xlink:href="#Безымянный_градиент_248"/><linearGradient id="Безымянный_градиент_248-9" x1="-1328.01" y1="-268.98" x2="-1324.06" y2="-268.98" gradientTransform="translate(1332.33 623.18)" xlink:href="#Безымянный_градиент_248"/><linearGradient id="Безымянный_градиент_248-10" x1="-1296.27" y1="-226.33" x2="-1280" y2="-226.33" gradientTransform="translate(1332.33 623.18)" xlink:href="#Безымянный_градиент_248"/><linearGradient id="Безымянный_градиент_248-11" x1="-1342.58" y1="-259.48" x2="-1329.06" y2="-259.48" gradientTransform="translate(1332.33 623.18)" xlink:href="#Безымянный_градиент_248"/><linearGradient id="Безымянный_градиент_248-12" x1="-1311.85" y1="-253.45" x2="-1302.99" y2="-253.45" gradientTransform="translate(1332.33 623.18)" xlink:href="#Безымянный_градиент_248"/><linearGradient id="Безымянный_градиент_248-13" x1="-1319.61" y1="-260.88" x2="-1313.75" y2="-260.88" gradientTransform="translate(1332.33 623.18)" xlink:href="#Безымянный_градиент_248"/><linearGradient id="Безымянный_градиент_248-14" x1="-1346.11" y1="-273.15" x2="-1332.45" y2="-273.15" gradientTransform="translate(1332.33 623.18)" xlink:href="#Безымянный_градиент_248"/><linearGradient id="Безымянный_градиент_248-15" x1="-1303.26" y1="-242.01" x2="-1288" y2="-242.01" gradientTransform="translate(1332.33 623.18)" xlink:href="#Безымянный_градиент_248"/><linearGradient id="Безымянный_градиент_248-16" x1="-1323.01" y1="-197.22" x2="-1292.32" y2="-197.22" gradientTransform="translate(1332.33 623.18)" xlink:href="#Безымянный_градиент_248"/><linearGradient id="Безымянный_градиент_248-17" x1="-1289.38" y1="-210.16" x2="-1268.95" y2="-210.16" gradientTransform="translate(1332.33 623.18)" xlink:href="#Безымянный_градиент_248"/><linearGradient id="Безымянный_градиент_248-18" x1="-934.71" y1="-424.05" x2="-914.93" y2="-424.05" gradientTransform="translate(1332.33 623.18)" xlink:href="#Безымянный_градиент_248"/><linearGradient id="Безымянный_градиент_248-19" x1="-968.07" y1="-418.35" x2="-951.42" y2="-418.35" gradientTransform="translate(1332.33 623.18)" xlink:href="#Безымянный_градиент_248"/><linearGradient id="Безымянный_градиент_248-20" x1="-958.89" y1="-438.92" x2="-948.36" y2="-438.92" gradientTransform="translate(1332.33 623.18)" xlink:href="#Безымянный_градиент_248"/><linearGradient id="Безымянный_градиент_248-21" x1="-966.73" y1="-418.72" x2="-948.64" y2="-418.72" gradientTransform="translate(1332.33 623.18)" xlink:href="#Безымянный_градиент_248"/><linearGradient id="Безымянный_градиент_248-22" x1="-1079.73" y1="-252.56" x2="-1062.4" y2="-252.56" gradientTransform="translate(1332.33 623.18)" xlink:href="#Безымянный_градиент_248"/><linearGradient id="Безымянный_градиент_248-23" x1="-1056.73" y1="-296.12" x2="-1024.03" y2="-296.12" gradientTransform="translate(1332.33 623.18)" xlink:href="#Безымянный_градиент_248"/><linearGradient id="Безымянный_градиент_248-24" x1="-1023.51" y1="-309.55" x2="-1003.79" y2="-309.55" gradientTransform="translate(1332.33 623.18)" xlink:href="#Безымянный_градиент_248"/><linearGradient id="Безымянный_градиент_248-25" x1="-1054.35" y1="-269.8" x2="-1042.51" y2="-269.8" gradientTransform="translate(1332.33 623.18)" xlink:href="#Безымянный_градиент_248"/><linearGradient id="Безымянный_градиент_248-26" x1="-1072" y1="-280.53" x2="-1049.3" y2="-280.53" gradientTransform="translate(1332.33 623.18)" xlink:href="#Безымянный_градиент_248"/><linearGradient id="Безымянный_градиент_248-27" x1="-1018.71" y1="-295.68" x2="-1006.14" y2="-295.68" gradientTransform="translate(1332.33 623.18)" xlink:href="#Безымянный_градиент_248"/><linearGradient id="Безымянный_градиент_248-28" x1="-1206.84" y1="-293.12" x2="-1100.27" y2="-293.12" gradientTransform="translate(1332.33 623.18)" xlink:href="#Безымянный_градиент_248"/><linearGradient id="Безымянный_градиент_248-29" x1="-1079.03" y1="-255.01" x2="-1062.51" y2="-255.01" gradientTransform="translate(1332.33 623.18)" xlink:href="#Безымянный_градиент_248"/><linearGradient id="Безымянный_градиент_248-30" x1="-903.86" y1="-453.29" x2="-879.52" y2="-453.29" gradientTransform="translate(1332.33 623.18)" xlink:href="#Безымянный_градиент_248"/><linearGradient id="Безымянный_градиент_248-31" x1="-956.53" y1="-462.66" x2="-952.74" y2="-462.66" gradientTransform="translate(1332.33 623.18)" xlink:href="#Безымянный_градиент_248"/><linearGradient id="Безымянный_градиент_248-32" x1="-954.38" y1="-450.18" x2="-942.21" y2="-450.18" gradientTransform="translate(1332.33 623.18)" xlink:href="#Безымянный_градиент_248"/><linearGradient id="Безымянный_градиент_248-33" x1="-957.77" y1="-457.73" x2="-952.72" y2="-457.73" gradientTransform="translate(1332.33 623.18)" xlink:href="#Безымянный_градиент_248"/><linearGradient id="Безымянный_градиент_248-34" x1="-959.83" y1="-454.54" x2="-952.82" y2="-454.54" gradientTransform="translate(1332.33 623.18)" xlink:href="#Безымянный_градиент_248"/><linearGradient id="Безымянный_градиент_248-35" x1="-960.81" y1="-450.45" x2="-952.67" y2="-450.45" gradientTransform="translate(1332.33 623.18)" xlink:href="#Безымянный_градиент_248"/><linearGradient id="Безымянный_градиент_248-36" x1="-960.71" y1="-444.96" x2="-951.35" y2="-444.96" gradientTransform="translate(1332.33 623.18)" xlink:href="#Безымянный_градиент_248"/><linearGradient id="Безымянный_градиент_248-37" x1="-917.76" y1="-482.36" x2="-890.2" y2="-482.36" gradientTransform="translate(1332.33 623.18)" xlink:href="#Безымянный_градиент_248"/><linearGradient id="Безымянный_градиент_248-38" x1="-931.33" y1="-519.45" x2="-911.77" y2="-519.45" gradientTransform="translate(1332.33 623.18)" xlink:href="#Безымянный_градиент_248"/><linearGradient id="Безымянный_градиент_248-39" x1="-914.08" y1="-467.05" x2="-883.4" y2="-467.05" gradientTransform="translate(1332.33 623.18)" xlink:href="#Безымянный_градиент_248"/><linearGradient id="Безымянный_градиент_248-40" x1="-929.4" y1="-509.19" x2="-904.97" y2="-509.19" gradientTransform="translate(1332.33 623.18)" xlink:href="#Безымянный_градиент_248"/><linearGradient id="Безымянный_градиент_248-41" x1="-902.93" y1="-523.24" x2="-894.08" y2="-523.24" gradientTransform="translate(1332.33 623.18)" xlink:href="#Безымянный_градиент_248"/><linearGradient id="Безымянный_градиент_248-42" x1="-880.44" y1="-479.94" x2="-860" y2="-479.94" gradientTransform="translate(1332.33 623.18)" xlink:href="#Безымянный_градиент_248"/><linearGradient id="Безымянный_градиент_248-43" x1="-910.69" y1="-530.65" x2="-904.82" y2="-530.65" gradientTransform="translate(1332.33 623.18)" xlink:href="#Безымянный_градиент_248"/><linearGradient id="Безымянный_градиент_248-44" x1="-937.18" y1="-542.96" x2="-923.53" y2="-542.96" gradientTransform="translate(1332.33 623.18)" xlink:href="#Безымянный_градиент_248"/><linearGradient id="Безымянный_градиент_248-45" x1="-926.96" y1="-495.13" x2="-896.64" y2="-495.13" gradientTransform="translate(1332.33 623.18)" xlink:href="#Безымянный_градиент_248"/><linearGradient id="Безымянный_градиент_248-46" x1="-887.35" y1="-496.11" x2="-871.08" y2="-496.11" gradientTransform="translate(1332.33 623.18)" xlink:href="#Безымянный_градиент_248"/><linearGradient id="Безымянный_градиент_248-47" x1="-919.09" y1="-538.74" x2="-915.13" y2="-538.74" gradientTransform="translate(1332.33 623.18)" xlink:href="#Безымянный_градиент_248"/><linearGradient id="Безымянный_градиент_248-48" x1="-875.6" y1="-462.6" x2="-857.19" y2="-462.6" gradientTransform="translate(1332.33 623.18)" xlink:href="#Безымянный_градиент_248"/><linearGradient id="Безымянный_градиент_248-49" x1="-894.34" y1="-511.78" x2="-879.07" y2="-511.78" gradientTransform="translate(1332.33 623.18)" xlink:href="#Безымянный_градиент_248"/><linearGradient id="Безымянный_градиент_248-50" x1="-933.66" y1="-529.26" x2="-920.14" y2="-529.26" gradientTransform="translate(1332.33 623.18)" xlink:href="#Безымянный_градиент_248"/><linearGradient id="Безымянный_градиент_181" x1="-1346.88" y1="-216.06" x2="-1268.14" y2="-216.06" gradientTransform="translate(1332.33 623.18)" gradientUnits="userSpaceOnUse"><stop offset="0" stop-color="#f85982"/><stop offset="0.12" stop-color="#f35882"/><stop offset="0.26" stop-color="#e65482"/><stop offset="0.41" stop-color="#cf4e82"/><stop offset="0.56" stop-color="#af4582"/><stop offset="0.72" stop-color="#873a82"/><stop offset="0.88" stop-color="#552d82"/><stop offset="1" stop-color="#2a2182"/></linearGradient><linearGradient id="Безымянный_градиент_181-2" x1="-1285.63" y1="-192.68" x2="-1265.19" y2="-192.68" xlink:href="#Безымянный_градиент_181"/><linearGradient id="Безымянный_градиент_181-3" x1="-1313.53" y1="-183.57" x2="-1287.06" y2="-183.57" xlink:href="#Безымянный_градиент_181"/><linearGradient id="Безымянный_градиент_181-4" x1="-1206.38" y1="-508.24" x2="-1192.25" y2="-508.24" xlink:href="#Безымянный_градиент_181"/><linearGradient id="Безымянный_градиент_181-5" x1="-1250.16" y1="-335.88" x2="-1233.67" y2="-335.88" xlink:href="#Безымянный_градиент_181"/><linearGradient id="Безымянный_градиент_181-6" x1="-1236.35" y1="-424.64" x2="-1192.26" y2="-424.64" xlink:href="#Безымянный_градиент_181"/><linearGradient id="Безымянный_градиент_181-7" x1="-1203.29" y1="-573.56" x2="-1197.18" y2="-573.56" xlink:href="#Безымянный_градиент_181"/><linearGradient id="Безымянный_градиент_181-8" x1="-1306.13" y1="-540.7" x2="-1215.2" y2="-540.7" xlink:href="#Безымянный_градиент_181"/><linearGradient id="Безымянный_градиент_181-9" x1="-1329.17" y1="-608.24" x2="-1328.57" y2="-608.24" xlink:href="#Безымянный_градиент_181"/><linearGradient id="Безымянный_градиент_181-10" x1="-1317.2" y1="-602.25" x2="-1313.07" y2="-602.25" xlink:href="#Безымянный_градиент_181"/><linearGradient id="Безымянный_градиент_181-11" x1="-1303.4" y1="-598.34" x2="-1298.03" y2="-598.34" xlink:href="#Безымянный_градиент_181"/><linearGradient id="Безымянный_градиент_181-12" x1="-1287.79" y1="-596.53" x2="-1283.98" y2="-596.53" xlink:href="#Безымянный_градиент_181"/><linearGradient id="Безымянный_градиент_181-13" x1="-1271.84" y1="-596.9" x2="-1270.03" y2="-596.9" xlink:href="#Безымянный_градиент_181"/><linearGradient id="Безымянный_градиент_181-14" x1="-1257.69" y1="-599.48" x2="-1254.58" y2="-599.48" xlink:href="#Безымянный_градиент_181"/><linearGradient id="Безымянный_градиент_181-15" x1="-1244.42" y1="-604.18" x2="-1239.15" y2="-604.18" xlink:href="#Безымянный_градиент_181"/><linearGradient id="Безымянный_градиент_181-16" x1="-1231.31" y1="-610.99" x2="-1225.04" y2="-610.99" xlink:href="#Безымянный_градиент_181"/><linearGradient id="Безымянный_градиент_181-17" x1="-1218.55" y1="-619.69" x2="-1212.45" y2="-619.69" xlink:href="#Безымянный_градиент_181"/><linearGradient id="Безымянный_градиент_181-18" x1="-1315.28" y1="-532.71" x2="-1295.93" y2="-532.71" xlink:href="#Безымянный_градиент_181"/><linearGradient id="Безымянный_градиент_181-19" x1="-1279.04" y1="-396.2" x2="-1269.98" y2="-396.2" xlink:href="#Безымянный_градиент_181"/><linearGradient id="Безымянный_градиент_181-20" x1="-1064.76" y1="-612.28" x2="-1048.27" y2="-612.28" xlink:href="#Безымянный_градиент_181"/><linearGradient id="Безымянный_градиент_181-21" x1="-1161.29" y1="-562.05" x2="-1121.07" y2="-562.05" xlink:href="#Безымянный_градиент_181"/><linearGradient id="Безымянный_градиент_181-22" x1="-1345.51" y1="-89.08" x2="-1340.14" y2="-89.08" xlink:href="#Безымянный_градиент_181"/><linearGradient id="Безымянный_градиент_181-23" x1="-1329.9" y1="-87.32" x2="-1326.09" y2="-87.32" xlink:href="#Безымянный_градиент_181"/><linearGradient id="Безымянный_градиент_181-24" x1="-1067.32" y1="-377.48" x2="-1046.44" y2="-377.48" xlink:href="#Безымянный_градиент_181"/><linearGradient id="Безымянный_градиент_181-25" x1="-1019.18" y1="-214.69" x2="-1013.07" y2="-214.69" xlink:href="#Безымянный_градиент_181"/><linearGradient id="Безымянный_градиент_181-26" x1="-1245.26" y1="-204.25" x2="-1224.39" y2="-204.25" xlink:href="#Безымянный_градиент_181"/><linearGradient id="Безымянный_градиент_181-27" x1="-1169.96" y1="-225.71" x2="-1149.54" y2="-225.71" xlink:href="#Безымянный_градиент_181"/><linearGradient id="Безымянный_градиент_181-28" x1="-1052.96" y1="-206.24" x2="-1042.19" y2="-206.24" xlink:href="#Безымянный_градиент_181"/><linearGradient id="Безымянный_градиент_181-29" x1="-1078.4" y1="-304.13" x2="-998.8" y2="-304.13" xlink:href="#Безымянный_градиент_181"/><linearGradient id="Безымянный_градиент_181-30" x1="-1151.07" y1="-409.39" x2="-1091.08" y2="-409.39" xlink:href="#Безымянный_градиент_181"/><linearGradient id="Безымянный_градиент_181-31" x1="-983.26" y1="-469.46" x2="-962.84" y2="-469.46" gradientTransform="translate(1447.36 682.89)" xlink:href="#Безымянный_градиент_181"/><linearGradient id="Безымянный_градиент_181-32" x1="-1187.73" y1="-140.57" x2="-1181.06" y2="-140.57" xlink:href="#Безымянный_градиент_181"/><linearGradient id="Безымянный_градиент_181-33" x1="-1245.39" y1="-64.26" x2="-1239.28" y2="-64.26" xlink:href="#Безымянный_градиент_181"/><linearGradient id="Безымянный_градиент_181-34" x1="-1313.95" y1="-87.64" x2="-1312.14" y2="-87.64" xlink:href="#Безымянный_градиент_181"/><linearGradient id="Безымянный_градиент_181-35" x1="-1299.8" y1="-90.19" x2="-1296.69" y2="-90.19" xlink:href="#Безымянный_градиент_181"/><linearGradient id="Безымянный_градиент_181-36" x1="-1286.53" y1="-94.94" x2="-1281.26" y2="-94.94" xlink:href="#Безымянный_градиент_181"/><linearGradient id="Безымянный_градиент_181-37" x1="-1273.41" y1="-101.73" x2="-1267.14" y2="-101.73" xlink:href="#Безымянный_градиент_181"/><linearGradient id="Безымянный_градиент_181-38" x1="-1260.66" y1="-110.39" x2="-1254.56" y2="-110.39" xlink:href="#Безымянный_градиент_181"/><linearGradient id="Безымянный_градиент_181-39" x1="-1248.37" y1="-120.79" x2="-1243.92" y2="-120.79" xlink:href="#Безымянный_градиент_181"/><linearGradient id="Безымянный_градиент_181-40" x1="-1236.75" y1="-132.73" x2="-1235.49" y2="-132.73" xlink:href="#Безымянный_градиент_181"/><linearGradient id="Безымянный_градиент_181-41" x1="-1357.39" y1="-23.37" x2="-1338.04" y2="-23.37" xlink:href="#Безымянный_градиент_181"/><linearGradient id="Безымянный_градиент_181-42" x1="-839.57" y1="-268.77" x2="-825.43" y2="-268.77" xlink:href="#Безымянный_градиент_181"/><linearGradient id="Безымянный_градиент_181-43" x1="-883.36" y1="-96.42" x2="-866.85" y2="-96.42" xlink:href="#Безымянный_градиент_181"/><linearGradient id="Безымянный_градиент_181-44" x1="-869.53" y1="-185.18" x2="-825.45" y2="-185.18" xlink:href="#Безымянный_градиент_181"/><linearGradient id="Безымянный_градиент_181-45" x1="-836.48" y1="-334.06" x2="-830.37" y2="-334.06" xlink:href="#Безымянный_градиент_181"/><linearGradient id="Безымянный_градиент_181-46" x1="-1051.36" y1="-138.37" x2="-960.46" y2="-138.37" xlink:href="#Безымянный_градиент_181"/><linearGradient id="Безымянный_градиент_181-47" x1="-962.36" y1="-368.77" x2="-961.76" y2="-368.77" xlink:href="#Безымянный_градиент_181"/><linearGradient id="Безымянный_градиент_181-48" x1="-950.39" y1="-362.75" x2="-946.26" y2="-362.75" xlink:href="#Безымянный_градиент_181"/><linearGradient id="Безымянный_градиент_181-49" x1="-936.59" y1="-358.86" x2="-931.22" y2="-358.86" xlink:href="#Безымянный_градиент_181"/><linearGradient id="Безымянный_градиент_181-50" x1="-920.98" y1="-357.04" x2="-917.17" y2="-357.04" xlink:href="#Безымянный_градиент_181"/><linearGradient id="Безымянный_градиент_181-51" x1="-905.03" y1="-357.5" x2="-903.22" y2="-357.5" xlink:href="#Безымянный_градиент_181"/><linearGradient id="Безымянный_градиент_181-52" x1="-890.88" y1="-359.97" x2="-887.77" y2="-359.97" xlink:href="#Безымянный_градиент_181"/><linearGradient id="Безымянный_градиент_181-53" x1="-877.61" y1="-364.71" x2="-872.34" y2="-364.71" xlink:href="#Безымянный_градиент_181"/><linearGradient id="Безымянный_градиент_181-54" x1="-864.49" y1="-371.56" x2="-858.21" y2="-371.56" xlink:href="#Безымянный_градиент_181"/><linearGradient id="Безымянный_градиент_181-55" x1="-851.74" y1="-380.18" x2="-845.64" y2="-380.18" xlink:href="#Безымянный_градиент_181"/><linearGradient id="Безымянный_градиент_181-56" x1="-839.44" y1="-389.86" x2="-837.98" y2="-389.86" xlink:href="#Безымянный_градиент_181"/><linearGradient id="Безымянный_градиент_181-57" x1="-912.23" y1="-156.72" x2="-903.17" y2="-156.72" xlink:href="#Безымянный_градиент_181"/><linearGradient id="Безымянный_градиент_181-58" x1="-876.7" y1="-462.43" x2="-856.95" y2="-462.43" xlink:href="#Безымянный_градиент_181"/><linearGradient id="Безымянный_градиент_181-59" x1="-904.61" y1="-453.3" x2="-878.13" y2="-453.3" xlink:href="#Безымянный_градиент_181"/><linearGradient id="Безымянный_градиент_181-60" x1="-1073.64" y1="-422.01" x2="-994.95" y2="-422.01" xlink:href="#Безымянный_градиент_181"/><linearGradient id="Безымянный_градиент_181-61" x1="-1009.37" y1="-634.04" x2="-920.73" y2="-634.04" xlink:href="#Безымянный_градиент_181"/><linearGradient id="Безымянный_градиент_240" x1="-1244.45" y1="-491.05" x2="-1235.79" y2="-491.05" gradientTransform="translate(1332.33 623.18)" gradientUnits="userSpaceOnUse"><stop offset="0" stop-color="#00cbf8"/><stop offset="0.99" stop-color="#3e75c6"/></linearGradient><linearGradient id="Безымянный_градиент_240-2" x1="-1210.91" y1="-291.4" x2="-1090.86" y2="-291.4" xlink:href="#Безымянный_градиент_240"/><linearGradient id="Безымянный_градиент_240-3" x1="-1173.83" y1="-525.09" x2="-1074.04" y2="-525.09" xlink:href="#Безымянный_градиент_240"/><linearGradient id="Безымянный_градиент_240-4" x1="-1270.62" y1="-543.91" x2="-1265.76" y2="-543.91" xlink:href="#Безымянный_градиент_240"/><linearGradient id="Безымянный_градиент_240-5" x1="-1164.38" y1="-470.03" x2="-1159.52" y2="-470.03" xlink:href="#Безымянный_градиент_240"/><linearGradient id="Безымянный_градиент_240-6" x1="-1087.52" y1="-498.95" x2="-1084.46" y2="-498.95" xlink:href="#Безымянный_градиент_240"/><linearGradient id="Безымянный_градиент_240-7" x1="-1177.64" y1="-615.17" x2="-1174.59" y2="-615.17" xlink:href="#Безымянный_градиент_240"/><linearGradient id="Безымянный_градиент_240-8" x1="-1232.2" y1="-381.64" x2="-1225.63" y2="-381.64" xlink:href="#Безымянный_градиент_240"/><linearGradient id="Безымянный_градиент_240-9" x1="-1231.36" y1="-245.44" x2="-1225.31" y2="-245.44" xlink:href="#Безымянный_градиент_240"/><linearGradient id="Безымянный_градиент_240-10" x1="-1285.02" y1="-366.1" x2="-1274.93" y2="-366.1" xlink:href="#Безымянный_градиент_240"/><linearGradient id="Безымянный_градиент_240-11" x1="-1309.66" y1="-464.76" x2="-1276.96" y2="-464.76" xlink:href="#Безымянный_градиент_240"/><linearGradient id="Безымянный_градиент_240-12" x1="-1307.22" y1="-534.64" x2="-1306.6" y2="-534.64" xlink:href="#Безымянный_градиент_240"/><linearGradient id="Безымянный_градиент_240-13" x1="-1366.45" y1="-558.85" x2="-1309.45" y2="-558.85" xlink:href="#Безымянный_градиент_240"/><linearGradient id="Безымянный_градиент_240-14" x1="-1020.17" y1="-259.86" x2="-1011.5" y2="-259.86" xlink:href="#Безымянный_градиент_240"/><linearGradient id="Безымянный_градиент_240-15" x1="-1121.15" y1="-162.82" x2="-1086.29" y2="-162.82" xlink:href="#Безымянный_градиент_240"/><linearGradient id="Безымянный_градиент_240-16" x1="-1122.75" y1="-373.62" x2="-1119.7" y2="-373.62" xlink:href="#Безымянный_градиент_240"/><linearGradient id="Безымянный_градиент_240-17" x1="-1107.78" y1="-244.67" x2="-1104.72" y2="-244.67" xlink:href="#Безымянный_градиент_240"/><linearGradient id="Безымянный_градиент_240-18" x1="-1148.98" y1="-172.07" x2="-1142.87" y2="-172.07" xlink:href="#Безымянный_градиент_240"/><linearGradient id="Безымянный_градиент_240-19" x1="-1027.29" y1="-345.65" x2="-1021.17" y2="-345.65" xlink:href="#Безымянный_градиент_240"/><linearGradient id="Безымянный_градиент_240-20" x1="-1156.28" y1="-216.19" x2="-1050.35" y2="-216.19" xlink:href="#Безымянный_градиент_240"/><linearGradient id="Безымянный_градиент_240-21" x1="-1230.07" y1="-215.63" x2="-1163.76" y2="-215.63" xlink:href="#Безымянный_градиент_240"/><linearGradient id="Безымянный_градиент_240-22" x1="-1093.32" y1="-432.09" x2="-1076.9" y2="-432.09" xlink:href="#Безымянный_градиент_240"/><linearGradient id="Безымянный_градиент_240-23" x1="-1312.73" y1="-34.65" x2="-1307.87" y2="-34.65" xlink:href="#Безымянный_градиент_240"/><linearGradient id="Безымянный_градиент_240-24" x1="-1219.75" y1="-105.91" x2="-1216.7" y2="-105.91" xlink:href="#Безымянный_градиент_240"/><linearGradient id="Безымянный_градиент_240-25" x1="-865.39" y1="-142.17" x2="-858.82" y2="-142.17" xlink:href="#Безымянный_градиент_240"/><linearGradient id="Безымянный_градиент_240-26" x1="-918.21" y1="-126.65" x2="-908.12" y2="-126.65" xlink:href="#Безымянный_градиент_240"/><linearGradient id="Безымянный_градиент_240-27" x1="-1003.27" y1="-562.73" x2="-1000.21" y2="-562.73" xlink:href="#Безымянный_градиент_240"/><linearGradient id="Безымянный_градиент_248-51" x1="-28.17" y1="-399.41" x2="-27.99" y2="-399.41" xlink:href="#Безымянный_градиент_248"/><linearGradient id="Безымянный_градиент_243" x1="81.3" y1="-540.09" x2="85.71" y2="-537.54" gradientTransform="translate(286 623.18)" gradientUnits="userSpaceOnUse"><stop offset="0" stop-color="#f85982"/><stop offset="1" stop-color="#2a2182"/></linearGradient><linearGradient id="Безымянный_градиент_248-52" x1="-248.75" y1="-103.53" x2="190.72" y2="-103.53" xlink:href="#Безымянный_градиент_248"/><linearGradient id="Безымянный_градиент_248-53" x1="-248.75" y1="-110.42" x2="190.7" y2="-110.42" xlink:href="#Безымянный_градиент_248"/><linearGradient id="Безымянный_градиент_248-54" x1="-92.2" y1="-313.18" x2="-88.68" y2="-257.87" xlink:href="#Безымянный_градиент_248"/><linearGradient id="Безымянный_градиент_248-55" x1="-109.06" y1="-348.22" x2="-63.25" y2="-123.72" xlink:href="#Безымянный_градиент_248"/><linearGradient id="Безымянный_градиент_248-56" x1="90.95" y1="-304.3" x2="146.08" y2="-304.3" xlink:href="#Безымянный_градиент_248"/><linearGradient id="Безымянный_градиент_249" x1="40.9" y1="-289.38" x2="66.3" y2="-216.94" gradientTransform="translate(286 623.18)" gradientUnits="userSpaceOnUse"><stop offset="0" stop-color="#f85982"/><stop offset="1" stop-color="#f981ac"/></linearGradient></defs><g id="Слой_2" data-name="Слой 2"><g id="Слой_3" data-name="Слой 3"><g clip-path="url(#clip-path)"><path d="M-94.14,271.18l.32.15c10,4.79,22.68,4.22,30.42,12.51,9.57,10.24,14,26.05,23,37.33A129.53,129.53,0,0,0-2.9,353.58c54.39,30.81,124.68,9.4,183.44,10.19,34.14.45,62.84,9.76,95.71,18.26,8.08,2.09,17,3.62,24.42-.29,8.28-4.34,13.51-14.78,22.61-16.35,11.29-2,23.53,8,35.34,8.63,12.44.6,24.9-2.69,36.11-8.27,21.34-10.63,41-31.37,44.16-57.15,2.7-22.26-7.67-45.73-25.52-57.76-4.08-2.74-8.67-5.1-11.29-9.4-2.76-4.52-2.78-10.28-2.6-15.66.44-13.74,1.53-27.64-1-41.11s-9.47-26.8-21-33c-19.25-10.29-45.53,1.51-62.5-12.58-16-13.31-12.5-39.48-18-60.27-6.69-25.12-30-44.15-54.56-44.58-14.78-.26-28.17,4.55-40.87-6.87-4.23-3.8-7.53-8.66-11.7-12.54-8.6-7.91-20-11.18-31-14.12Q86.15-18.71,12.09-32.14C-23.5-38.58-58.77-41.65-76.12-.83c-7.37,17.31-9,37.05-6.13,55.8C-79.37,74-72.07,92.24-71,111.49c2.45,43.57-35.77,69-43.1,108.94C-117.67,239.83-111,262.88-94.14,271.18Z" transform="translate(115.03 59.71)" fill="url(#Безымянный_градиент_248)"/><g clip-path="url(#clip-path-2)"><path d="M15.7-16.27c.56,2.82.68,5.71,1.94,8.29a.35.35,0,0,0,.18.16c-.34,1-.68,1.93-1,2.9l-.27.42a.35.35,0,0,0,0,.43c-.23.71-.45,1.43-.65,2.15-.88,3.08-1.79,6.78-1,10,.36.27.73.53,1.1.77C14.3,4.76,16.2-.6,17.48-4.6,20-8.6,22.64-12.85,26-16c1.71-1.61,3.43-3.1,5-4.69,0,.48.72.33.76-.13v-.25c3.65-1.8,7.64-1.61,11-4.33a20,20,0,0,0,5.77-8.1C50-37.19,50.2-41.07,50-45c-.11-2.58-.4-5.18-.31-7.77.08-2.35,1.19-4.27,1.81-6.47a.34.34,0,0,0-.16-.45.32.32,0,0,0-.35,0c-6.54,3.55-14,7.23-18.19,14A20.81,20.81,0,0,0,30-34.85c0,4.39,1.24,8.58,1.07,13-2,2-4.06,3.76-6.12,5.8a48.89,48.89,0,0,0-6.47,8.48C20.12-11.93,22-16.2,23-20.69c1.68-8.15.13-17.79-3.28-25.5l-.52.91c3.65,8.51,5,19.21,2.1,27.91-1,2.87-2,5.68-3.07,8.5-1.22-2.77-1.21-5.88-2-8.81a13,13,0,0,0-.81-2.26c.23-.22.24-.67-.12-.7-.45-1.67.56-3.74,1.06-5.31a24.51,24.51,0,0,0,.91-4.33c.42-3.28.56-6.84-1.2-9.67l-.49.85c.09.15.22.26.3.42,1.6,3.29,1,8.28,0,11.77-.43,1.53-1.32,3.36-1.46,5.09a24.36,24.36,0,0,0-1.79-2.51h0c-.22-1.61.69-3,1.11-4.49A16.06,16.06,0,0,0,14.16-32,16.76,16.76,0,0,0,14-36.34l-.64,1.1A18.47,18.47,0,0,1,13.18-30c-.26,1.62-1.17,3.14-1.35,4.76-.5-.58-1-1.13-1.52-1.68V-27a10.22,10.22,0,0,1,.33-3.65l-1,1.69a9,9,0,0,0-.17,1.16l-.32-.32-.44.76c.82.85,1.63,1.71,2.4,2.61A24,24,0,0,1,14-20.63a20.84,20.84,0,0,1-8.16-1.76l-.42.74a21.94,21.94,0,0,0,9,1.84A14.74,14.74,0,0,1,15.7-16.27Z" transform="translate(115.03 59.71)" fill="#ffc39f"/><path d="M-9.21,463.65a20.77,20.77,0,0,0-2.86,10.79c0,4.39,1.24,8.58,1.07,13-1.95,2-4.06,3.75-6.12,5.8a49.84,49.84,0,0,0-6.48,8.48c1.61-4.32,3.48-8.58,4.48-13.09,1.8-8.77-.1-19.27-4-27.22v-.48c.14-.19.17-.45,0-.56.11-3.6,2.59-6.94,3.87-10.14a16.32,16.32,0,0,0,.63-11,26,26,0,0,0-5.37-8.6A27.17,27.17,0,0,0-32,424c-.29-.15-.65.17-.61.51.45,4-2.38,7.59-3.91,11s-2.15,7.13-.75,10.71a28.47,28.47,0,0,0,6.39,9.39c1.87,1.89,3.89,4.35,6.44,5.23.13.23.25.46.37.69l.17.36h0c4.35,8.79,6.16,20.57,3,30-.95,2.86-2,5.67-3.07,8.5-1.16-2.71-1.16-5.78-1.92-8.78a13,13,0,0,0-.81-2.26c.23-.22.24-.67-.12-.7-.45-1.67.56-3.74,1.06-5.31a24.51,24.51,0,0,0,.91-4.33c.43-3.42.62-7.16-1.38-10s-5.14-4.53-8.19-5.63c-1.77-.63-3.61-1-5.39-1.56-1.44-.48-2.72-1.47-4.17-1.9a2.67,2.67,0,0,0-.56-.5c-.23-.14-.51.07-.59.32a.47.47,0,0,0-.39.52,76,76,0,0,1,.39,13.15c-.12,3.55.37,6.91,2.51,9.71,3.5,4.59,9.56,6.42,15,6.38A14.56,14.56,0,0,1-26.44,493c.56,2.81.68,5.71,1.94,8.29a.35.35,0,0,0,.18.16c-.34,1-.68,1.93-1,2.9l-.27.41a.36.36,0,0,0,0,.44c-.23.71-.45,1.43-.65,2.15-.88,3.08-1.79,6.77-1,10,.36.27.73.53,1.1.77-1.7-4.09.2-9.46,1.48-13.45,2.53-4,5.16-8.25,8.55-11.44,1.7-1.61,3.43-3.09,5-4.68,0,.48.72.33.76-.13v-.26c3.65-1.79,7.64-1.6,11-4.32a19.92,19.92,0,0,0,5.77-8.11,27.32,27.32,0,0,0,1.44-11.48c-.11-2.59-.4-5.19-.31-7.78.08-2.34,1.19-4.27,1.81-6.46.11-.38-.2-.58-.51-.42C2.44,453.16-5,456.84-9.21,463.65Zm16.33-8.9A19.39,19.39,0,0,0,7,459.91c.22,4.5.79,9.19-.46,13.61a19.22,19.22,0,0,1-6.58,10c-2.9,2.17-6.36,2.25-9.53,3.5A26.44,26.44,0,0,0-7,483.69a34,34,0,0,0,5-10.22c1-3.86,1.54-7.76,4.44-10.62.39-.39-.09-.93-.48-.54-2.41,2.38-3.37,5.42-4.14,8.73a36.12,36.12,0,0,1-5,11.72,27.07,27.07,0,0,1-3,3.83c0-3.32-.77-6.5-1-9.84A21.26,21.26,0,0,1-8.51,464c3.93-6.38,10.87-9.93,17.08-13.27a35.46,35.46,0,0,0-1.47,4Z" transform="translate(115.03 59.71)" fill="#ffc39f"/><path d="M399.71,193.87a21,21,0,0,0-2.85,10.79c0,4.39,1.24,8.57,1.07,13-2,2-4.06,3.75-6.12,5.8a50.3,50.3,0,0,0-6.47,8.48c1.6-4.32,3.51-8.58,4.44-13.07,1.81-8.77-.09-19.27-4-27.22v-.48c.14-.19.17-.45,0-.57.11-3.59,2.59-6.93,3.87-10.13a16.32,16.32,0,0,0,.63-11,25.77,25.77,0,0,0-5.37-8.6,27.45,27.45,0,0,0-8-6.66c-.3-.15-.66.17-.62.51.45,4-2.38,7.59-3.91,11s-2.15,7.13-.75,10.71a28.49,28.49,0,0,0,6.5,9.38c1.87,1.89,3.89,4.34,6.44,5.23.13.23.26.46.38.69s.1.24.16.36h0c4.34,8.79,6.15,20.57,3,30-1,2.86-2,5.67-3.07,8.5-1.22-2.77-1.21-5.88-2-8.82a12.85,12.85,0,0,0-.81-2.25c.23-.22.24-.68-.12-.7-.45-1.67.56-3.74,1.06-5.32a23.54,23.54,0,0,0,.91-4.32c.44-3.42.62-7.16-1.38-10s-5.14-4.53-8.19-5.63c-1.77-.64-3.61-1-5.38-1.56-1.45-.48-2.73-1.47-4.18-1.9a2.21,2.21,0,0,0-.56-.5c-.23-.14-.51.07-.59.32a.49.49,0,0,0-.39.52,77.63,77.63,0,0,1,.5,13.2c-.13,3.55.36,6.91,2.5,9.71,3.5,4.59,9.56,6.42,15,6.38a15.51,15.51,0,0,1,1.18,3.52c.55,2.81.67,5.71,1.93,8.29a.3.3,0,0,0,.18.15c-.34,1-.68,1.93-1,2.91l-.26.41a.36.36,0,0,0,0,.44c-.23.71-.45,1.43-.65,2.15-.87,3.08-1.79,6.77-1,10,.35.27.72.53,1.1.77-1.71-4.09.19-9.46,1.48-13.45,2.52-4,5.15-8.25,8.54-11.44,1.71-1.61,3.43-3.09,5.05-4.69,0,.49.72.34.77-.12a1.13,1.13,0,0,1,0-.26c3.65-1.79,7.64-1.6,11-4.32a20.27,20.27,0,0,0,5.78-8.11c1.48-3.65,1.63-7.53,1.47-11.43-.11-2.59-.4-5.19-.31-7.78.08-2.34,1.19-4.27,1.82-6.46a.35.35,0,0,0-.2-.45.31.31,0,0,0-.32,0C411.36,183.38,403.86,187.06,399.71,193.87Zm-15.47-32.4c2.37,2.73,4.84,6,5.61,9.78.89,4.38-.6,8.33-2.46,12.18a21.33,21.33,0,0,0-2.39,6.66,65.53,65.53,0,0,1-3.79-8.68,31.4,31.4,0,0,1-1-10.48c.13-5,.62-10.9-2.28-15.09a29.68,29.68,0,0,1,6.31,5.63Zm-8.44-.81a13.87,13.87,0,0,0,1.22-4.6c1.9,2.48,2.46,5.65,2.57,8.93-1.5-.87-3.13-2.25-3.55-4.07A.31.31,0,0,0,375.8,160.66Zm-1.24,2.56c.29-.55.57-1.1.83-1.66a8.11,8.11,0,0,0,4,4.33.41.41,0,0,0,.22,0c0,1.11,0,2.23-.07,3.34-2.28-.41-4.32-3.63-4.88-5.86a.4.4,0,0,0-.1-.15Zm-.51,1c.78,2.44,2.84,5.48,5.25,5.87a.26.26,0,0,0,.21,0c0,1-.09,2.09-.11,3.08-2.89-.33-5-3-6.29-5.6-.13-.28-.43-.21-.61,0a34.06,34.06,0,0,1,1.55-3.36Zm1,11.38a9.81,9.81,0,0,1-3.51-3.86v-.08a12.33,12.33,0,0,1,.84-3.79V168c1.36,2.84,3.74,5.72,6.91,6h.1v.24a23.76,23.76,0,0,0,.28,3.47,9.52,9.52,0,0,1-4.54-2.12Zm-1.78,2.69a15.52,15.52,0,0,1-1.54-3.94,8.17,8.17,0,0,1-.14-.84,13.35,13.35,0,0,0,3,2.81,9.53,9.53,0,0,0,5.12,2.15h.07a30.3,30.3,0,0,0,1.17,4.37,15.08,15.08,0,0,1-7-5c-.22-.29-.68.1-.65.44Zm4.58,6.11a29.21,29.21,0,0,1-4.44-5.82,15.17,15.17,0,0,0,7.58,5.16.33.33,0,0,0,.27-.05c.78,2.08,1.72,4.1,2.69,6.17h0c-2.33-1.19-4.31-3.68-6.07-5.52Zm-12.28,6.89c.85.41,1.67.94,2.55,1.28,1.78.68,3.66,1,5.46,1.59,3.42,1.14,7.35,3.12,9.08,6.67,1.6,3.29,1,8.28,0,11.77-.43,1.53-1.32,3.36-1.46,5.09a23.44,23.44,0,0,0-1.79-2.52h0c-.22-1.6.69-3,1.11-4.48a15.25,15.25,0,0,0,.46-3.16,13.46,13.46,0,0,0-.91-6.64c-.21-.46-.91,0-.71.46a14.42,14.42,0,0,1,.64,8.17c-.26,1.62-1.17,3.13-1.35,4.75-.5-.57-1-1.13-1.52-1.67h0c-.34-2.36.85-4.67.87-7,0-2.85-1.2-5.45-1.95-8.1-.13-.48-.84,0-.71.46.83,2.94,2.16,5.76,1.8,8.94-.19,1.66-.79,3.27-.83,4.93-.91-.94-1.83-1.87-2.73-2.82-.26-4,1.25-8.33-1-12-.27-.43-1,.06-.72.46,2,3.2,1,7,.93,10.65a37.14,37.14,0,0,1-2.43-2.89.46.46,0,0,0,.19-.41c-.22-3.28,1-6.68-.79-9.62-.26-.43-.95.06-.71.46,1.62,2.64.68,5.77.71,8.75-.2-.3-.41-.6-.6-.9a.35.35,0,0,0-.07-.26c-2-2.7-2.55-5.69-3-9a14,14,0,0,0-.49-2.94Zm.9,20.73c-2.33-3.56-1.87-7.61-1.71-11.74a56.71,56.71,0,0,0-.53-9.48l.23.07c1.07,1.42.92,4.41,1.16,6a15.9,15.9,0,0,0,2.17,5.92.24.24,0,0,0,0,.12,31.64,31.64,0,0,0,5,6.46v.1a.25.25,0,0,0,.23.27h.11c1.61,1.68,3.27,3.3,4.8,5.06a24.61,24.61,0,0,1,2.92,4.1c-5.28-.12-11.24-2.11-14.35-6.88ZM416,184.93a19.31,19.31,0,0,0-.15,5.15c.23,4.51.79,9.2-.46,13.62a19.2,19.2,0,0,1-6.57,10c-2.91,2.17-6.36,2.25-9.54,3.5a27.46,27.46,0,0,0,2.65-3.33,34,34,0,0,0,5-10.22c1-3.86,1.54-7.76,4.44-10.63.39-.38-.09-.92-.48-.53-2.41,2.37-3.37,5.42-4.14,8.73a36.14,36.14,0,0,1-5.07,11.67,27.16,27.16,0,0,1-3,3.84c0-3.32-.77-6.5-1-9.84a21.18,21.18,0,0,1,2.62-12.71c3.93-6.38,10.87-9.93,17.08-13.28a35.48,35.48,0,0,0-1.35,4Z" transform="translate(115.03 59.71)" fill="#ffc39f"/><path d="M22.59,443.29a60.13,60.13,0,0,0,14.5.2,48.11,48.11,0,0,0,6.84-1.15,36.46,36.46,0,0,0-8.61-4.51A41.3,41.3,0,0,0,25,435.4h-.26a4.74,4.74,0,0,0-4.44,2.41,4.43,4.43,0,0,0-.5,1.16,3.55,3.55,0,0,0,.21,2.8A3.39,3.39,0,0,0,22.59,443.29Z" transform="translate(115.03 59.71)" fill="url(#Безымянный_градиент_248-2)"/><path d="M-7.14,482.72a36.13,36.13,0,0,0,5-11.68c.77-3.31,1.73-6.35,4.14-8.73.39-.39.87.15.48.54C-.42,465.71-1,469.61-2,473.47a34,34,0,0,1-5,10.22A27.46,27.46,0,0,1-9.61,487c3.17-1.25,6.63-1.33,9.53-3.5a19.22,19.22,0,0,0,6.58-10c1.25-4.42.68-9.11.46-13.61a19.39,19.39,0,0,1,.15-5.16,33.09,33.09,0,0,1,1.37-4C2.27,454.09-4.67,457.64-8.6,464a21.26,21.26,0,0,0-2.63,12.71c.25,3.34,1,6.52,1,9.84A27.87,27.87,0,0,0-7.14,482.72Z" transform="translate(115.03 59.71)" fill="url(#Безымянный_градиент_248-3)"/><path d="M4.2,372.29a40.73,40.73,0,0,0-8.75-1.66,3.06,3.06,0,0,0-2.85,1.62,3.81,3.81,0,0,0-.5,1.57,2.16,2.16,0,0,0,1.69,2.54H-6c3.3.42,8-.21,12.15-.83,2.22-.33,4.2-.69,5.5-.94l-1.31-.43C8.23,373.44,6.25,372.78,4.2,372.29Z" transform="translate(115.03 59.71)" fill="url(#Безымянный_градиент_248-4)"/><path d="M64.6,420.7a4.28,4.28,0,0,0-3.35-1.07,4.22,4.22,0,0,0-2.8,1.84,86.42,86.42,0,0,0-6.28,10,89.94,89.94,0,0,0-4.37,9.65,43.64,43.64,0,0,0,17.51-13.67A4.85,4.85,0,0,0,64.6,420.7Z" transform="translate(115.03 59.71)" fill="url(#Безымянный_градиент_248-5)"/><path d="M1,394a4.81,4.81,0,0,0-3.87,2.46,4.92,4.92,0,0,0-.68,2.48,2.63,2.63,0,0,0,2.46,2.79h0a2.44,2.44,0,0,0,.54,0h0c8.17.15,16.57-1,26.3-2.36l1-.14C16.86,395.23,9.14,393.67,1,394Z" transform="translate(115.03 59.71)" fill="url(#Безымянный_градиент_248-6)"/><path d="M-2.26,380.46A4.08,4.08,0,0,0-6,384.58a2.29,2.29,0,0,0,2,2.49h.39c5.86,0,12.07-1,19.26-2.12l2.72-.43C10.67,381.58,4.24,380.29-2.26,380.46Z" transform="translate(115.03 59.71)" fill="url(#Безымянный_градиент_248-7)"/><path d="M10.07,407.05a4.4,4.4,0,0,0-3.81,2.24,4.56,4.56,0,0,0-.6,2A2.46,2.46,0,0,0,7.85,414h.44c6.6.41,13.22-.31,20.88-1.15l4-.44a73.49,73.49,0,0,0-10.71-3.66A57.58,57.58,0,0,0,10.07,407.05Z" transform="translate(115.03 59.71)" fill="url(#Безымянный_градиент_248-8)"/><path d="M6.67,358.08a33.1,33.1,0,0,0,1.6-9.47,1.77,1.77,0,0,0-1.69-1.84H6.27a2.11,2.11,0,0,0-1.71,1,2.28,2.28,0,0,0-.28,1.17c.06,2.87.4,5.83.72,8.69.15,1.32.3,2.67.43,4A37.29,37.29,0,0,0,6.67,358.08Z" transform="translate(115.03 59.71)" fill="url(#Безымянный_градиент_248-9)"/><path d="M49.8,383a3.48,3.48,0,0,0-4.64,1.63,3.07,3.07,0,0,0-.2.5c-1.6,3.89-3,8-4.67,13.44-.61,1.91-1.28,3.81-1.93,5.65-.77,2.2-1.57,4.46-2.3,6.83,6.53-7.15,12.56-14.32,15.93-22.61A4.14,4.14,0,0,0,49.83,383Z" transform="translate(115.03 59.71)" fill="url(#Безымянный_градиент_248-10)"/><path d="M-8.06,361.72A2,2,0,0,0-9.9,362.8a2.49,2.49,0,0,0-.35,1.16A1.49,1.49,0,0,0-9,365.67h.16a31.33,31.33,0,0,0,8.68-1c1.34-.29,2.55-.59,3.45-.83L1,363.27A40.08,40.08,0,0,0-8.06,361.72Z" transform="translate(115.03 59.71)" fill="url(#Безымянный_градиент_248-11)"/><path d="M29.27,360.64a3.49,3.49,0,0,0-1-3.35,3.66,3.66,0,0,0-3.72-.65A3.09,3.09,0,0,0,23,358a4.28,4.28,0,0,0-.48,1.38c-1.39,7.43-1.71,15-2,23.68,4.42-8.16,7.59-15.19,8.79-22.42Z" transform="translate(115.03 59.71)" fill="url(#Безымянный_градиент_248-12)"/><path d="M18.58,354.45a2.73,2.73,0,0,0-2.43-3h-.43a3,3,0,0,0-2.58,1.47,3.33,3.33,0,0,0-.42,1.63c0,3.42.09,6.82.35,10.09s.41,6,.44,8.51c.58-1.28,1.43-3.25,2.27-5.55A41.45,41.45,0,0,0,18.58,354.45Z" transform="translate(115.03 59.71)" fill="url(#Безымянный_градиент_248-13)"/><path d="M-9.79,343.09h0a2.07,2.07,0,0,0-2.93,0h0a1.64,1.64,0,0,0-.21.25,3.51,3.51,0,0,0-.42.59,2.44,2.44,0,0,0,.18,3,64.6,64.6,0,0,0,13,10.65A41.59,41.59,0,0,0-9.79,343.09Z" transform="translate(115.03 59.71)" fill="url(#Безымянный_градиент_248-14)"/><path d="M41,364.76a3.83,3.83,0,0,0-4.85,2.37,2.82,2.82,0,0,0-.15.57,295,295,0,0,0-7,30.09c7.18-9.62,12.48-18.06,15.09-27.39a4.51,4.51,0,0,0-3-5.62Z" transform="translate(115.03 59.71)" fill="url(#Безымянный_градиент_248-15)"/><path d="M14,422.29a4.73,4.73,0,0,0-4.07,2.4,4.51,4.51,0,0,0-.38.94c0,.11-.1.21-.13.32a3,3,0,0,0,.29,2.39,2.93,2.93,0,0,0,2.38,1.17c1.08.07,2.31.11,3.6.13,4.14.05,9.14-.1,13.7-.25L40,429a59,59,0,0,0-8-3.35C27,423.92,19.57,422.13,14,422.29Z" transform="translate(115.03 59.71)" fill="url(#Безымянный_градиент_248-16)"/><path d="M62.75,405.16a4.49,4.49,0,0,0-1.32-6.06,3.74,3.74,0,0,0-5.24.75h0a5,5,0,0,0-.31.49c-2.69,4.26-5.48,10.54-7.93,16.09l-5,11.25c1.49-1.26,4.13-3.59,7.13-6.7C52.86,418.16,59.53,411,62.75,405.16Z" transform="translate(115.03 59.71)" fill="url(#Безымянный_градиент_248-17)"/><path d="M401.75,212.93a36.08,36.08,0,0,0,5.11-11.64c.77-3.31,1.73-6.36,4.14-8.73.39-.39.88.15.48.53-2.9,2.87-3.45,6.77-4.44,10.63a34,34,0,0,1-5,10.22,27.46,27.46,0,0,1-2.65,3.33c3.18-1.25,6.63-1.33,9.54-3.5a19.2,19.2,0,0,0,6.57-10c1.25-4.42.69-9.11.46-13.62a19.73,19.73,0,0,1,.15-5.15,37.72,37.72,0,0,1,1.37-4c-6.21,3.35-13.15,6.9-17.08,13.28A21.18,21.18,0,0,0,397.78,207c.24,3.34,1,6.52,1,9.84A26.76,26.76,0,0,0,401.75,212.93Z" transform="translate(115.03 59.71)" fill="url(#Безымянный_градиент_248-18)"/><path d="M373.19,209.71a.27.27,0,0,1-.33-.17v-.19a31.64,31.64,0,0,1-5-6.46.24.24,0,0,1,0-.12,15.9,15.9,0,0,1-2.17-5.92c-.24-1.57-.09-4.56-1.16-6l-.23-.07a57.09,57.09,0,0,1,.56,9.51c-.16,4.13-.62,8.18,1.71,11.74,3.11,4.77,9.07,6.76,14.41,6.85a24.61,24.61,0,0,0-2.92-4.1C376.46,213,374.8,211.39,373.19,209.71Z" transform="translate(115.03 59.71)" fill="url(#Безымянный_градиент_248-19)"/><path d="M381,183.76a15.17,15.17,0,0,1-7.58-5.16,29.21,29.21,0,0,0,4.44,5.82c1.76,1.84,3.74,4.33,6.09,5.51h0c-1-2.07-1.91-4.09-2.69-6.17A.39.39,0,0,1,381,183.76Z" transform="translate(115.03 59.71)" fill="url(#Безымянный_градиент_248-20)"/><path d="M382.69,200.83c-1.73-3.55-5.66-5.53-9.08-6.67-1.8-.6-3.68-.91-5.46-1.59-.88-.34-1.7-.87-2.55-1.28a14.39,14.39,0,0,1,.54,2.9c.42,3.31,1,6.3,3,9a.35.35,0,0,1,.07.26c.19.3.4.6.6.9,0-3,.91-6.11-.71-8.75-.24-.4.45-.89.71-.46,1.81,2.94.57,6.34.79,9.62a.46.46,0,0,1-.19.41,37.14,37.14,0,0,0,2.43,2.89c0-3.64,1.07-7.45-.93-10.65-.24-.4.45-.89.72-.46,2.26,3.63.75,7.91,1,12,.9,1,1.82,1.88,2.73,2.82,0-1.66.64-3.27.83-4.93.36-3.18-1-6-1.8-8.94-.13-.45.58-.94.71-.46.75,2.65,2,5.25,2,8.1,0,2.36-1.21,4.67-.87,7h0c.51.54,1,1.1,1.52,1.67.18-1.62,1.09-3.13,1.35-4.75a14.42,14.42,0,0,0-.64-8.17c-.2-.42.5-.92.71-.46a13.46,13.46,0,0,1,.91,6.64,15.25,15.25,0,0,1-.46,3.16c-.42,1.49-1.33,2.88-1.11,4.48h0a23.44,23.44,0,0,1,1.79,2.52,25.75,25.75,0,0,1,1.46-5.09C383.7,209.11,384.29,204.12,382.69,200.83Z" transform="translate(115.03 59.71)" fill="url(#Безымянный_градиент_248-21)"/><path d="M263.86,369.2a24.64,24.64,0,0,1-4.76,4,22.6,22.6,0,0,0-4.06,3.23,13.63,13.63,0,0,0-2.44,4.76,19.87,19.87,0,0,0,2-.58,22.21,22.21,0,0,1,2.27-.45,18.18,18.18,0,0,0,4.42-1.07,14.06,14.06,0,0,0,6.43-6.65,19.8,19.8,0,0,0,2-9.14,27,27,0,0,1,.13-3.24c-.5.87-1,1.73-1.54,2.6A38.86,38.86,0,0,1,263.86,369.2Z" transform="translate(115.03 59.71)" fill="url(#Безымянный_градиент_248-22)"/><path d="M303.69,325.58a58.6,58.6,0,0,0-7.25.49c-2.7.32-5.3,1-8,1.44-2.45.44-4.92.63-7.35,1.26a.36.36,0,0,1-.46-.22h0a.36.36,0,0,1,.21-.46h0c2.77-.73,5.61-.88,8.39-1.47,2.38-.5,4.73-1,7.14-1.27a63,63,0,0,1,8.35-.47H305c-3.9-1-7.78-2.37-11.74-2.49-7-.23-12.07,4.6-17.7,8.33a72.71,72.71,0,0,1,7.64.92,26.25,26.25,0,0,0,10.34-1.18c3.3-.94,6.35-2.68,9.56-3.92a11.74,11.74,0,0,1,3.28-.94h1.88A40.8,40.8,0,0,0,303.69,325.58Z" transform="translate(115.03 59.71)" fill="url(#Безымянный_градиент_248-23)"/><path d="M322.86,313.71c-2.73-.26-5.44-.82-8.19-.35-.47.08-.72-.61-.2-.7a27.27,27.27,0,0,1,7.76.26,26.57,26.57,0,0,0,4.37,0c-.73-.3-1.37-.61-1.8-.8-5.14-2.24-11.45-2.75-15.93,1.51a45,45,0,0,1,4.69,2.14,12.49,12.49,0,0,0,6.24,1c3.23-.28,5.93-1.81,8.79-3.09l-.3-.09A30.77,30.77,0,0,1,322.86,313.71Z" transform="translate(115.03 59.71)" fill="url(#Безымянный_градиент_248-24)"/><path d="M284.34,348.58c-.71,2.47-1.08,5.06-1.87,7.51a29.1,29.1,0,0,1-3.06,6.11c-.24.39-1,.07-.69-.37A27.38,27.38,0,0,0,282.2,354c.58-2.38,1-4.8,1.82-7.13a30.39,30.39,0,0,1,3-6.56c.24-.39.51-.77.78-1.15-.55.56-1.09,1.12-1.64,1.67-2.85,2.87-5.67,5.85-7,9.86-1.25,3.62-1.24,7.5-1,11.27.13,1.87.23,3.74.5,5.59.08.5.15,1,.18,1.42,1.66-2.39,3.77-4.12,5.78-6.28a17.86,17.86,0,0,0,4.53-10.35c.26-3.25-.36-6.48-.23-9.73a16.76,16.76,0,0,1,1-4.85A32.46,32.46,0,0,0,287.6,341,31,31,0,0,0,284.34,348.58Z" transform="translate(115.03 59.71)" fill="url(#Безымянный_градиент_248-25)"/><path d="M260.33,344.2a10.29,10.29,0,0,1,3.6,1c2.5,1.07,4.8,1.58,7.47.69,2.48-.82,4.56-2.56,6.75-4,1.59-1.05,3.22-2,4.88-2.93a49.34,49.34,0,0,1-7.29.39C270.1,339.4,264.66,340.05,260.33,344.2Z" transform="translate(115.03 59.71)" fill="url(#Безымянный_градиент_248-26)"/><path d="M325.47,321.65c.27-.59.5-1.21.72-1.82a30.77,30.77,0,0,1-3.71,5.42,54.5,54.5,0,0,0-6.52,8c-.24.38-1,.07-.7-.37a42.77,42.77,0,0,1,5.58-7,36.72,36.72,0,0,0,4.86-6.75c-2.85,2.2-6,4-8.35,6.83a20.76,20.76,0,0,0-3.33,6.22,12.74,12.74,0,0,0-.39,3.69,15.71,15.71,0,0,1,2.52-2,21.35,21.35,0,0,0,5.55-5A42,42,0,0,0,325.47,321.65Z" transform="translate(115.03 59.71)" fill="url(#Безымянный_градиент_248-27)"/><path d="M180.13,290.29a2.26,2.26,0,0,1-3.19.18,2.21,2.21,0,0,1-.7-1.18l-13.86,2.88c.43,2.45-.5,5.1-3.41,5.28a4.12,4.12,0,0,1-2.87-1.09l-10.32,14.19-20.29,28a2.71,2.71,0,0,1,.75,3.65,2.43,2.43,0,0,1-.3.34l.88.77,31,27a3,3,0,0,1,.27-.35c1.38-1.46,3.4-1,4.75.29a5.15,5.15,0,0,1,.53.61L230.79,328l-3.61.28a44.57,44.57,0,0,0,4.88-2.06Z" transform="translate(115.03 59.71)" fill="url(#Безымянный_градиент_248-28)"/><path d="M261.76,370.29a31,31,0,0,0,5.42-7c.86-1.47,1.85-3,2.64-4.51-.66.46-1.35.87-1.92,1.24-2.59,1.73-5.33,2.89-7.6,5.17a28.91,28.91,0,0,0-6,9.75c-.35.86-.67,1.74-1,2.62C255.21,374.29,259.1,372.75,261.76,370.29Z" transform="translate(115.03 59.71)" fill="url(#Безымянный_градиент_248-29)"/><path d="M431.51,173.58a60.13,60.13,0,0,0,14.5.2,49.86,49.86,0,0,0,6.87-1.2,35.9,35.9,0,0,0-8.61-4.51,41.35,41.35,0,0,0-10.41-2.41h-.26a4.94,4.94,0,0,0-4.94,3.57,3.55,3.55,0,0,0,.21,2.8A3.38,3.38,0,0,0,431.51,173.58Z" transform="translate(115.03 59.71)" fill="url(#Безымянный_градиент_248-30)"/><path d="M376,160.92a6.87,6.87,0,0,0,3.55,4.07c-.11-3.28-.67-6.45-2.57-8.93a13.87,13.87,0,0,1-1.22,4.6A.31.31,0,0,1,376,160.92Z" transform="translate(115.03 59.71)" fill="url(#Безымянный_градиент_248-31)"/><path d="M389.86,171.29c-.77-3.75-3.24-7-5.61-9.78a29.63,29.63,0,0,0-6.3-5.63c2.9,4.19,2.41,10.08,2.28,15.09a31.4,31.4,0,0,0,1,10.48,65.53,65.53,0,0,0,3.79,8.68,21.33,21.33,0,0,1,2.39-6.66C389.25,179.58,390.74,175.63,389.86,171.29Z" transform="translate(115.03 59.71)" fill="url(#Безымянный_градиент_248-32)"/><path d="M379.54,169.29c0-1.11.08-2.23.07-3.34a.41.41,0,0,1-.22,0,8.11,8.11,0,0,1-4-4.33c-.26.56-.54,1.11-.83,1.66a.4.4,0,0,1,.1.18C375.22,165.63,377.26,168.85,379.54,169.29Z" transform="translate(115.03 59.71)" fill="url(#Безымянный_градиент_248-33)"/><path d="M373.11,167.52c1.25,2.62,3.4,5.27,6.29,5.6,0-1,.07-2,.11-3.08a.26.26,0,0,1-.21,0c-2.41-.39-4.47-3.43-5.25-5.87-.57,1.07-1.09,2.17-1.55,3.29A.39.39,0,0,1,373.11,167.52Z" transform="translate(115.03 59.71)" fill="url(#Безымянный_градиент_248-34)"/><path d="M375.08,175.58a9.47,9.47,0,0,0,4.59,2.07,23.76,23.76,0,0,1-.28-3.47v-.24h-.1c-3.17-.26-5.55-3.14-6.91-6v-.12a12.33,12.33,0,0,0-.84,3.79.22.22,0,0,1,0,.08A9.84,9.84,0,0,0,375.08,175.58Z" transform="translate(115.03 59.71)" fill="url(#Безымянный_градиент_248-35)"/><path d="M374,177.89a15.08,15.08,0,0,0,7,5,30.3,30.3,0,0,1-1.17-4.37h-.07a9.53,9.53,0,0,1-5.12-2.15,13.35,13.35,0,0,1-3-2.81,8.17,8.17,0,0,0,.14.84,15.52,15.52,0,0,0,1.54,3.94C373.27,178,373.73,177.58,374,177.89Z" transform="translate(115.03 59.71)" fill="url(#Безымянный_градиент_248-36)"/><path d="M419,137.29a4.36,4.36,0,0,0-3.81,2.25,4.56,4.56,0,0,0-.6,2,2.46,2.46,0,0,0,2.2,2.7h.43c6.6.41,13.22-.31,20.88-1.15l4-.44A72.32,72.32,0,0,0,431.38,139,58.22,58.22,0,0,0,419,137.29Z" transform="translate(115.03 59.71)" fill="url(#Безымянный_градиент_248-37)"/><path d="M413.12,102.46a41.15,41.15,0,0,0-8.74-1.67,3.06,3.06,0,0,0-2.86,1.62A3.81,3.81,0,0,0,401,104a2.16,2.16,0,0,0,1.65,2.57h.21c3.3.41,8-.21,12.15-.83,2.22-.33,4.2-.69,5.5-1l-1.3-.42C417.15,103.65,415.17,103,413.12,102.46Z" transform="translate(115.03 59.71)" fill="url(#Безымянный_градиент_248-38)"/><path d="M423,152.45a4.76,4.76,0,0,0-4.07,2.41,5.44,5.44,0,0,0-.38.94c0,.1-.1.21-.13.32a2.66,2.66,0,0,0,1.59,3.41h0a2.88,2.88,0,0,0,1.09.15c1.08.07,2.3.11,3.59.12,4.14.06,9.15-.09,13.71-.24l10.58-.36a59,59,0,0,0-8-3.35C435.86,154.14,428.49,152.35,423,152.45Z" transform="translate(115.03 59.71)" fill="url(#Безымянный_градиент_248-39)"/><path d="M406.66,110.68a4.1,4.1,0,0,0-3.72,4.14,2.3,2.3,0,0,0,2.07,2.49h.38c5.85,0,12.06-1,19.25-2.12l2.72-.43C419.6,111.75,413.16,110.49,406.66,110.68Z" transform="translate(115.03 59.71)" fill="url(#Безымянный_градиент_248-40)"/><path d="M438.2,90.86a3.54,3.54,0,0,0-1-3.35,3.61,3.61,0,0,0-3.72-.65,3.09,3.09,0,0,0-1.56,1.36,4.28,4.28,0,0,0-.48,1.38c-1.38,7.42-1.71,15-2,23.68,4.42-8.16,7.59-15.19,8.79-22.42Z" transform="translate(115.03 59.71)" fill="url(#Безымянный_градиент_248-41)"/><path d="M471.67,135.38a4.49,4.49,0,0,0-1.32-6.06,3.85,3.85,0,0,0-3.08-.66,4,4,0,0,0-2.48,1.89c-2.69,4.27-5.47,10.55-7.93,16.09l-5,11.26c1.49-1.26,4.13-3.59,7.13-6.7C461.75,148.38,468.45,141.22,471.67,135.38Z" transform="translate(115.03 59.71)" fill="url(#Безымянный_градиент_248-42)"/><path d="M422.44,103.4c.57-1.28,1.42-3.25,2.26-5.55a41.63,41.63,0,0,0,2.8-13.18,2.73,2.73,0,0,0-2.41-3h0a3.09,3.09,0,0,0-.43,0,3,3,0,0,0-2.59,1.47,3.21,3.21,0,0,0-.41,1.63c0,3.42.08,6.82.34,10.09S422.4,100.92,422.44,103.4Z" transform="translate(115.03 59.71)" fill="url(#Безымянный_градиент_248-43)"/><path d="M408.86,87.76a41.45,41.45,0,0,0-9.72-14.47h0a2.07,2.07,0,0,0-2.93,0h0a1.64,1.64,0,0,0-.21.25,3.43,3.43,0,0,0-.42.58,2.45,2.45,0,0,0,.18,3A64.81,64.81,0,0,0,408.86,87.76Z" transform="translate(115.03 59.71)" fill="url(#Безымянный_градиент_248-44)"/><path d="M409.86,124.2a4.81,4.81,0,0,0-3.87,2.46,4.92,4.92,0,0,0-.68,2.48,2.63,2.63,0,0,0,2.46,2.79h0a2.44,2.44,0,0,0,.54,0h0c8.17.15,16.57-1,26.3-2.36l1.06-.15C425.86,125.45,418.06,123.89,409.86,124.2Z" transform="translate(115.03 59.71)" fill="url(#Безымянный_градиент_248-45)"/><path d="M458.73,113.22a3.5,3.5,0,0,0-4.66,1.63,4.29,4.29,0,0,0-.19.5c-1.6,3.89-3,8-4.67,13.44-.61,1.91-1.28,3.81-1.93,5.65-.77,2.2-1.57,4.46-2.3,6.83,6.53-7.15,12.56-14.33,15.93-22.61a4.14,4.14,0,0,0-2.15-5.43Z" transform="translate(115.03 59.71)" fill="url(#Безымянный_градиент_248-46)"/><path d="M414.39,91.9c.34-.92.78-2.18,1.2-3.6a33.1,33.1,0,0,0,1.6-9.47A1.75,1.75,0,0,0,415.53,77h-.34a2.11,2.11,0,0,0-1.71,1,2.31,2.31,0,0,0-.28,1.18c.07,2.87.4,5.83.72,8.69C414.11,89.21,414.26,90.58,414.39,91.9Z" transform="translate(115.03 59.71)" fill="url(#Безымянный_градиент_248-47)"/><path d="M470.17,149.85a4.22,4.22,0,0,0-2.8,1.84,86.42,86.42,0,0,0-6.28,10,87.94,87.94,0,0,0-4.36,9.65,43.44,43.44,0,0,0,17.5-13.76,4.63,4.63,0,0,0,.72-1.46,20.33,20.33,0,0,1,.15-2.21v-.22a5.12,5.12,0,0,0-1.62-2.81A4.29,4.29,0,0,0,470.17,149.85Z" transform="translate(115.03 59.71)" fill="url(#Безымянный_градиент_248-48)"/><path d="M450,95a3.82,3.82,0,0,0-4.82,2.44h0a2.83,2.83,0,0,0-.13.5A295,295,0,0,0,438,128c7.17-9.62,12.48-18.06,15.08-27.39a4.5,4.5,0,0,0-3-5.61Z" transform="translate(115.03 59.71)" fill="url(#Безымянный_градиент_248-49)"/><path d="M400.86,91.94A2.06,2.06,0,0,0,399,93a2.49,2.49,0,0,0-.35,1.16,1.49,1.49,0,0,0,1.23,1.71h.17a31.31,31.31,0,0,0,8.67-1c1.34-.29,2.55-.59,3.45-.83l-2.3-.57A39,39,0,0,0,400.86,91.94Z" transform="translate(115.03 59.71)" fill="url(#Безымянный_градиент_248-50)"/><path d="M42.14,429.4h0a93.86,93.86,0,0,0,8.5-7.82c2.68-2.76,9.14-9.67,12.5-15.49.1-.16.19-.33.29-.5a5.4,5.4,0,0,0-1.56-7.2,4.61,4.61,0,0,0-3.67-.78,4.77,4.77,0,0,0-3,2.26c-2.72,4.33-5.51,10.63-8,16.2l-5.46,12.37c-2-5.54-4.17-10.68-6.33-15.54h0C40.82,407,46,401.16,49.73,394.69a47.82,47.82,0,0,0,2.92-5.92h0A5,5,0,0,0,50,382.24a4.25,4.25,0,0,0-5.65,2,4,4,0,0,0-.22.57c-1.62,3.92-3.06,8.09-4.7,13.51-.6,1.9-1.27,3.79-1.92,5.62-.89,2.54-1.81,5.17-2.62,8l-.63-1.43c-1.71-3.69-3.56-7.34-5.53-11A145,145,0,0,0,38.61,385a61.65,61.65,0,0,0,6.25-14.41h0A5.34,5.34,0,0,0,41.3,364h-.11a4.62,4.62,0,0,0-5.8,3,4.21,4.21,0,0,0-.12.48c-2.71,9.37-5,19.46-7.13,30.77-2.35-4.32-4.94-8.73-7.81-13.34,4.86-8.85,8.36-16.34,9.66-24.11a4.35,4.35,0,0,0-1.28-4.14,4.42,4.42,0,0,0-4.5-.79,4.18,4.18,0,0,0-2.54,3.39c-1.43,7.65-1.74,15.47-2.06,24.47l-.12-.19c-1.92-3-3.89-5.92-5.88-8.77h0c.46-1,1.65-3.54,2.83-6.78.86-2.36,2.86-8.38,2.86-13.5a3.52,3.52,0,0,0-3.24-3.78h-.41a3.79,3.79,0,0,0-3.73,3.85h0c0,3.45.08,6.87.34,10.17s.41,6.14.44,8.66c-2.36-3.33-4.77-6.58-7.28-9.73h.12s0,0,0-.05,1-2.29,1.84-5.27A33.88,33.88,0,0,0,9,348.59,2.56,2.56,0,0,0,6.56,346h-.3a2.89,2.89,0,0,0-2.75,3V349c.07,2.9.4,5.88.73,8.77.19,1.67.37,3.38.51,5.08-1.23-1.52-2.47-3-3.74-4.54A41.75,41.75,0,0,0-9.24,342.49a2.81,2.81,0,0,0-4,0,2.79,2.79,0,0,0-.28.32,3.46,3.46,0,0,0-.24,4.73A65.27,65.27,0,0,0,.34,358.8c1.21,1.43,2.39,2.88,3.57,4.33l-2.75-.65A39.31,39.31,0,0,0-8,360.9a3.08,3.08,0,0,0-3,3,2.3,2.3,0,0,0,2,2.59h.17a31.77,31.77,0,0,0,8.9-1c2.44-.54,4.37-1.08,4.9-1.23,2.44,3.07,4.79,6.25,7.11,9.5l-1.41-.46c-2.11-.69-4.1-1.35-6.16-1.9a42.88,42.88,0,0,0-8.91-1.7,4.21,4.21,0,0,0-4.19,4,3,3,0,0,0,2.54,3.4h0c3.4.44,8.16-.2,12.35-.82,3.1-.46,5.67-1,6.66-1.17a.23.23,0,0,0,.14.19h.06c1.93,2.75,3.84,5.56,5.7,8.48-7.87-3-14.44-4.4-21-4.2a4.93,4.93,0,0,0-4.5,5,3.07,3.07,0,0,0,2.82,3.3h.4c5.91,0,12.15-1,19.37-2.13l3.82-.59c2.88,4.62,5.47,9,7.83,13.37C17.39,394.41,9.4,392.77,1,393.09a5.82,5.82,0,0,0-5.32,5.81A3.45,3.45,0,0,0-1,402.51h.4c8.22.15,16.65-1,26.4-2.37l2.34-.32c2,3.67,3.81,7.31,5.52,11l.48,1.11a74.54,74.54,0,0,0-11.44-4,57.66,57.66,0,0,0-12.61-1.64,5.29,5.29,0,0,0-5.22,5.1,3.27,3.27,0,0,0,3,3.56h.43c6.66.42,13.3-.31,21-1.15l5.42-.58c2.14,4.82,4.26,9.91,6.28,15.39a57.91,57.91,0,0,0-8.65-3.71c-5.14-1.72-12.64-3.53-18.27-3.43a5.54,5.54,0,0,0-5.15,3.71,5.31,5.31,0,0,0-.23.55,3.88,3.88,0,0,0,.4,3.1,3.67,3.67,0,0,0,3,1.52c1.45.09,3.16.12,5,.12,3.88,0,8.31-.11,12.41-.24l12-.42a204,204,0,0,1,6.28,20.7c1.67,6.7,3.13,14,4.31,22.08l.63-1.1c-1.11-7.37-2.44-14.13-4-20.35A205.85,205.85,0,0,0,42.14,429.4Zm5.8-13c2.45-5.52,5.24-11.82,7.94-16.06a3.73,3.73,0,0,1,5-1.57h0a3.36,3.36,0,0,1,.51.32,4.49,4.49,0,0,1,1.32,6.06c-3.22,5.85-9.92,13-12.65,15.82-3,3.11-5.64,5.44-7.13,6.7Zm-9.58-12.21c.65-1.84,1.32-3.74,1.93-5.65,1.63-5.41,3.07-9.55,4.67-13.44a3.49,3.49,0,0,1,4.35-2.32,3,3,0,0,1,.5.19A4.13,4.13,0,0,1,52,388.38h0c-3.37,8.29-9.4,15.46-15.93,22.61.73-2.34,1.53-4.6,2.3-6.8Zm-2.27-36.52a3.81,3.81,0,0,1,4.43-3.09l.57.15a4.52,4.52,0,0,1,3.15,5.55v.09c-2.61,9.33-7.91,17.77-15.09,27.39a303.23,303.23,0,0,1,7-30.06ZM4.32,349a2.28,2.28,0,0,1,.28-1.17,2.11,2.11,0,0,1,1.71-1,1.77,1.77,0,0,1,2,1.51h0v.31a33.1,33.1,0,0,1-1.6,9.47c-.43,1.42-.86,2.68-1.2,3.6-.13-1.34-.28-2.69-.43-4q-.6-4.35-.76-8.73Zm-17.46-2.11a2.44,2.44,0,0,1-.18-3,3.51,3.51,0,0,1,.42-.59,2.06,2.06,0,0,1,2.87-.47h0a1.64,1.64,0,0,1,.25.21h0A41.46,41.46,0,0,1-.14,357.58,64.89,64.89,0,0,1-13.14,346.87Zm13,17.81a31.33,31.33,0,0,1-8.68,1,1.5,1.5,0,0,1-1.41-1.58h0V364a2.49,2.49,0,0,1,.35-1.16A2,2,0,0,1-8,361.71a39.29,39.29,0,0,1,9,1.56l2.3.57c-.93.25-2.14.55-3.48.84ZM6.17,375.5c-4.15.62-8.85,1.25-12.15.83A2.16,2.16,0,0,1-7.89,374v-.19a3.81,3.81,0,0,1,.5-1.57,3.06,3.06,0,0,1,2.79-1.61,40.14,40.14,0,0,1,8.75,1.67c2,.54,4,1.2,6.12,1.89l1.31.43c-1.3.24-3.28.6-5.5.93Zm7-22.55a3,3,0,0,1,2.59-1.47,2.74,2.74,0,0,1,2.86,2.59,2.81,2.81,0,0,1,0,.41,41.63,41.63,0,0,1-2.8,13.18c-.84,2.3-1.69,4.27-2.27,5.55,0-2.48-.17-5.19-.44-8.51s-.37-6.67-.35-10.09a3.29,3.29,0,0,1,.37-1.66Zm2.58,32c-7.19,1.13-13.4,2.11-19.26,2.12a2.29,2.29,0,0,1-2.49-2,3.23,3.23,0,0,1,0-.44,4.09,4.09,0,0,1,3.72-4.14c6.5-.19,12.93,1.07,20.7,4.08Zm6.78-25.59A4.28,4.28,0,0,1,23,358a3.09,3.09,0,0,1,1.56-1.36,3.66,3.66,0,0,1,3.72.65,3.49,3.49,0,0,1,1,3.35h0c-1.2,7.23-4.37,14.26-8.79,22.42.27-8.64.59-16.23,2-23.66Zm3.24,39.93C16,400.64,7.64,401.8-.53,401.65h0a2.63,2.63,0,0,1-3-2.2v0a4.86,4.86,0,0,1,0-.54,4.92,4.92,0,0,1,.68-2.48A4.81,4.81,0,0,1,1,393.94c8.14-.31,15.92,1.25,25.77,5.21Zm3.41,13.57c-7.66.84-14.28,1.56-20.88,1.15h0a2.47,2.47,0,0,1-2.64-2.29h0a2.94,2.94,0,0,1,0-.42,4.56,4.56,0,0,1,.6-2,4.4,4.4,0,0,1,3.81-2.25,57.37,57.37,0,0,1,12.44,1.73,73.49,73.49,0,0,1,10.71,3.66Zm.24,16.46c-4.56.15-9.56.3-13.7.25-1.29,0-2.52-.06-3.6-.13a2.93,2.93,0,0,1-2.38-1.17,3,3,0,0,1-.29-2.39c0-.11.1-.21.13-.32a4.51,4.51,0,0,1,.38-.94,4.73,4.73,0,0,1,4.07-2.4c5.54-.11,12.94,1.68,18,3.39A56.58,56.58,0,0,1,40,429Z" transform="translate(115.03 59.71)" fill="url(#Безымянный_градиент_181)"/><path d="M65.1,420a4.68,4.68,0,0,0-6.63.16,4.83,4.83,0,0,0-.59.76A86.9,86.9,0,0,0,51.54,431a92.06,92.06,0,0,0-4.76,10.64.44.44,0,0,0,.08.45.37.37,0,0,0,.42.1,44.47,44.47,0,0,0,18.58-14.29A5.76,5.76,0,0,0,65,420Zm.21,7.37A43.64,43.64,0,0,1,47.8,441.08a89.94,89.94,0,0,1,4.37-9.65,86.42,86.42,0,0,1,6.28-10,4.22,4.22,0,0,1,2.8-1.84,4.36,4.36,0,0,1,3.35,1.07,4.85,4.85,0,0,1,.71,6.75Z" transform="translate(115.03 59.71)" fill="url(#Безымянный_градиент_181-2)"/><path d="M35.59,437.07a41.79,41.79,0,0,0-10.52-2.49,5.53,5.53,0,0,0-1.46.14,5.71,5.71,0,0,0-4.58,4,4.41,4.41,0,0,0,.29,3.5,4.13,4.13,0,0,0,3.16,1.88,61.65,61.65,0,0,0,15.71.09A50.32,50.32,0,0,0,45,442.91a.47.47,0,0,0,.25-.19.38.38,0,0,0,0-.15.43.43,0,0,0-.16-.42A36.66,36.66,0,0,0,35.59,437.07Zm1.5,6.46a60.13,60.13,0,0,1-14.5-.2,3.4,3.4,0,0,1-2.6-1.5,3.51,3.51,0,0,1-.21-2.8,4.43,4.43,0,0,1,.5-1.16,4.74,4.74,0,0,1,4.44-2.41H25a41.3,41.3,0,0,1,10.34,2.43,36.46,36.46,0,0,1,8.61,4.51,47.94,47.94,0,0,1-6.84,1.18Z" transform="translate(115.03 59.71)" fill="url(#Безымянный_градиент_181-3)"/><path d="M137.13,116.17a7.11,7.11,0,0,1-1.79-2.55,6.71,6.71,0,0,1,.7-5.32,8.77,8.77,0,0,1-1.54,1.94,6.68,6.68,0,0,1-4,1.9c-1.45,0-3.34-1.36-4.53-2.13,2,1.95,4,4.46,3.49,7.57a15.76,15.76,0,0,1-1.42,4,21.31,21.31,0,0,1,5.36-3.31c2.23-.76,4.62-.07,6.7.8A37,37,0,0,0,137.13,116.17Z" transform="translate(115.03 59.71)" fill="url(#Безымянный_градиент_181-4)"/><path d="M87.66,293.07a22.45,22.45,0,0,0,2.24,4.29.26.26,0,0,0,.46-.25h0c-1.22-3-1.21-6.47-.87-9.67a84.77,84.77,0,0,0,9-.69c.31-.05.22-.5,0-.53a41.37,41.37,0,0,0-8.17-.45,40.64,40.64,0,0,1,1.9-6.76c.25-.49.49-1,.76-1.46a.27.27,0,0,0,0-.37h0a.25.25,0,0,0-.35,0h0a.18.18,0,0,0,0,.07,11.53,11.53,0,0,0-.77,1.48c-.39.79-.76,1.58-1.14,2.37a20.75,20.75,0,0,1-1,1.93c-.2.37-.73,1.64-1.1,1.78-.76.3-2.34-2-2.85-2.53a12.65,12.65,0,0,0-2.88-2.48.27.27,0,0,0-.36.13h0a.24.24,0,0,0,0,.23,67.77,67.77,0,0,0,4,6.22,26.71,26.71,0,0,1-4.14,3.81c-.2.16,0,.55.23.46a41.82,41.82,0,0,0,4-1.76C87,290.29,87.17,291.71,87.66,293.07Z" transform="translate(115.03 59.71)" fill="url(#Безымянный_градиент_181-5)"/><path d="M118.52,177.58a26.55,26.55,0,0,0-22.54,8,26.89,26.89,0,0,1,29.44,2.84c8.6,7.08,12.58,20,9.68,31.29a28.27,28.27,0,0,0,3.05-26.26A25.73,25.73,0,0,0,118.52,177.58Z" transform="translate(115.03 59.71)" fill="url(#Безымянный_градиент_181-6)"/><path d="M134.68,51.29c2.07-3.58-3.07-6.94-5.15-3.36S132.6,54.92,134.68,51.29Z" transform="translate(115.03 59.71)" fill="url(#Безымянный_градиент_181-7)"/><path d="M93.79,104.87a38.67,38.67,0,0,0,11-5,37.27,37.27,0,0,0,6-4.52c1.6-1.53,3.76-3,4.9-5,.22-.32-.17-.69-.49-.63-1.87.35-3.54,1.41-5.47,1.68a21.15,21.15,0,0,1-5.84,0c-3.78-.52-7.5-1.45-11.32-2a17.75,17.75,0,0,0-8.93,1.34A19.55,19.55,0,0,0,79.58,93a12.52,12.52,0,0,0-2.69,3.11.32.32,0,0,0-.36.14c-1,0-2,0-3-.08a52.47,52.47,0,0,1-9.74-1.49c-1.55-.32-3.12-.66-4.68-1a13.85,13.85,0,0,0-1.58-.15c1.86-.28,3.67-.6,5.49-1A54.89,54.89,0,0,0,80.3,86c2-.49,3.9-1.17,5.91-1.63,2.46-.58,4.9-1.44,7.34-2.22,4.66-1.49,9-4.71,12.53-8.28a45.64,45.64,0,0,0,8.18-12.11,19.91,19.91,0,0,0,2.23-7.09c.13-1.45.07-3,.11-4.42a26.59,26.59,0,0,1,.37-3.09c0-.06.07-.07.09-.09a.33.33,0,0,0,0-.4v-.22c0-.48-.84-.63-.88-.07v.43c-2.91,4.12-7.7,6.82-11.92,9.13-3.81,2.12-7.15,4-10.28,7.17a44.81,44.81,0,0,0-4.31,4.82,30.58,30.58,0,0,0-2.75,5.41c-2.1,4.42-4.75,9.06-8.34,12.27a39.1,39.1,0,0,1-7.85,3.7,49.11,49.11,0,0,1-8.94,2.22c-3.31.56-6.64.8-10,1.09a32.94,32.94,0,0,0,10.07-6.43,43.93,43.93,0,0,0,5.73-5.92c1.13.93,3,.89,4.39.76,2.85-.33,4.53-3.06,5.75-5.53,1.66-3.36,2.41-7.17,3.93-10.59a45.6,45.6,0,0,1,4.74-8.67c.75-.81,1.5-1.67,2.22-2.54.32-.37-.38-.83-.69-.53a19.27,19.27,0,0,0-2.27,2.51,63.18,63.18,0,0,1-5.35,5c-2.78,2.4-5.84,4.39-8.65,6.73a15.22,15.22,0,0,0-4.72,7.47c-.5,1.48-1,3.25,0,4.41a.28.28,0,0,0,0,.28,38.23,38.23,0,0,1-5,5.41c-3.23,2.88-6.74,5.65-10.72,7a20.82,20.82,0,0,0,4.64-7.77,2.65,2.65,0,0,0,2.69.07c2.12-1,3.48-3.56,4.55-5.66a32.2,32.2,0,0,0,2.78-9.46,60,60,0,0,0,1-6.38,24.38,24.38,0,0,0,.39-2.7.48.48,0,0,0-.52-.44.49.49,0,0,0-.3.14l-.49.67-.08.14c-.59,1-1.08,2-1.65,2.92a34.13,34.13,0,0,1-3,4.07c-2.13,2.52-4.59,4.63-6.86,7-1.44,1.51-2.89,3.41-2.6,5.66.23,1.92,1.71,3.11,3.07,4.19-1.28,3.31-3,6.42-5.77,8.2a3.25,3.25,0,0,1-.42.11c-.21.06-.3.15-.32.29-1.75.16-3.49.41-5.22.7-3.88.68-7.81,1.08-11.68,1.75-1.76.31-3.51.65-5.23,1.13a12.86,12.86,0,0,0,.53,1.34c.38-.1.77-.22,1.13-.3a1,1,0,0,0,.25.06,16.44,16.44,0,0,1,2.1-.13c4.87,0,9.26,2,13.3,4.77a6.5,6.5,0,0,0-.28,3.92A11.28,11.28,0,0,0,47.65,113a24.6,24.6,0,0,0,8.54,4.16c1.47.43,3,.78,4.46,1.06,1.94.39,4,.15,5.87.7.54.11.8-.59.24-.73-3.14-.75-5.54-3.54-7.78-5.85s-3.81-5.24-5.77-7.91A7.91,7.91,0,0,0,48.46,101a5.64,5.64,0,0,0-3.71.3h-.17a1.91,1.91,0,0,0-.58.39c-3.87-2.57-8-4.54-12.55-4.9,2.92-.58,5.87-1,8.81-1.38,1.65-.22,3.32-.4,5-.59a.23.23,0,0,0,.2,0,1.51,1.51,0,0,0,.37-.07c3.11-.3,6.22-.58,9.3-.94a10.68,10.68,0,0,0,2.45.37c1.8.26,3.56.76,5.34,1.11A56.18,56.18,0,0,0,73.62,97h2.82a.91.91,0,0,0,.21.18,6.72,6.72,0,0,0,1.41,2.22,10,10,0,0,0,3.8,3.6C85.75,104.91,89.53,105.92,93.79,104.87Z" transform="translate(115.03 59.71)" fill="url(#Безымянный_градиент_181-8)"/><path d="M3.58,15.23a.34.34,0,0,0,.16-.42.3.3,0,0,0-.37-.17h0a.33.33,0,0,0-.16.41.29.29,0,0,0,.37.18Z" transform="translate(115.03 59.71)" fill="url(#Безымянный_градиент_181-9)"/><path d="M18,22.94a2.28,2.28,0,0,0,1.12-2.88,2,2,0,0,0-2.57-1.18l-.13.05a2.28,2.28,0,0,0-1.12,2.88A2,2,0,0,0,17.86,23Z" transform="translate(115.03 59.71)" fill="url(#Безымянный_градиент_181-10)"/><path d="M32.65,27.45a3,3,0,0,0,1.45-3.74,2.6,2.6,0,0,0-3.32-1.55l-.19.08A3,3,0,0,0,29.14,26a2.6,2.6,0,0,0,3.32,1.55Z" transform="translate(115.03 59.71)" fill="url(#Безымянный_градиент_181-11)"/><path d="M47.17,28.48a2.09,2.09,0,0,0,1-2.65,1.84,1.84,0,0,0-2.39-1h-.09a2.09,2.09,0,0,0-1,2.65,1.84,1.84,0,0,0,2.39,1Z" transform="translate(115.03 59.71)" fill="url(#Безымянный_градиент_181-12)"/><path d="M61.05,25.38a1,1,0,0,0-.49,1.27.87.87,0,0,0,1.11.53h.07a1,1,0,0,0,.5-1.27.9.9,0,0,0-1.15-.52Z" transform="translate(115.03 59.71)" fill="url(#Безымянный_градиент_181-13)"/><path d="M76.79,25.22a1.7,1.7,0,0,0,.84-2.16,1.5,1.5,0,0,0-1.93-.88h-.07a1.7,1.7,0,0,0-.84,2.16,1.5,1.5,0,0,0,1.93.88Z" transform="translate(115.03 59.71)" fill="url(#Безымянный_градиент_181-14)"/><path d="M89.54,16.42a2.89,2.89,0,0,0-1.43,3.67,2.53,2.53,0,0,0,3.21,1.58h0l.21-.08A2.9,2.9,0,0,0,93,17.91a2.53,2.53,0,0,0-3.21-1.58h0Z" transform="translate(115.03 59.71)" fill="url(#Безымянный_градиент_181-15)"/><path d="M103,9.14a3.45,3.45,0,0,0-1.7,4.38,3,3,0,0,0,3.83,1.83h0l.27-.11a3.47,3.47,0,0,0,1.7-4.38A3,3,0,0,0,103.24,9h0Z" transform="translate(115.03 59.71)" fill="url(#Безымянный_градиент_181-16)"/><path d="M118,6.48a3.35,3.35,0,0,0,1.66-4.25A3,3,0,0,0,115.77.51h-.12A3.37,3.37,0,0,0,114,4.76a3,3,0,0,0,3.88,1.71Z" transform="translate(115.03 59.71)" fill="url(#Безымянный_градиент_181-17)"/><path d="M17.05,93.07l2-.15,5.16-.4A25.75,25.75,0,0,0,23.14,102a46.17,46.17,0,0,1,2.92-7.73c.15-.33.27-.67.43-1l.3.19,7.87,5-6.87-7.07c3.15-.35,5.58-1.79,8.59-2.88H28L32.55,79a58.67,58.67,0,0,0-6.84,9.57c0,.08-.11.16-.15.24l-.47-.7-1.75-2.57-2.07-3.09c.18.72.68,2.25,1.18,3.77l.18.55c.09.27.18.52.26.77.5,1.47.92,2.67.92,2.67s-2.35,1.11-4.3,2A13.32,13.32,0,0,1,17.05,93.07Z" transform="translate(115.03 59.71)" fill="url(#Безымянный_градиент_181-18)"/><path d="M55.37,223a4.6,4.6,0,0,0-.55.62,4.73,4.73,0,0,0-.81.92,4.8,4.8,0,0,0,1.74,6.56,4.67,4.67,0,0,0,1.65.59,4,4,0,0,0,4.23-2.17C64.32,224.86,58.86,220.47,55.37,223Z" transform="translate(115.03 59.71)" fill="url(#Безымянный_градиент_181-19)"/><path d="M275.65,9.38a40.64,40.64,0,0,1,1.9-6.76c.25-.5.5-1,.76-1.46a.27.27,0,0,0,0-.37h0a.25.25,0,0,0-.35,0h0a.18.18,0,0,0-.05.07,12.23,12.23,0,0,0-.77,1.48c-.39.79-.76,1.58-1.14,2.37a20.75,20.75,0,0,1-1,1.93c-.21.37-.74,1.64-1.11,1.78-.76.3-2.34-2-2.85-2.53a12.65,12.65,0,0,0-2.88-2.48.27.27,0,0,0-.36.13h0a.24.24,0,0,0,0,.23,66.29,66.29,0,0,0,4,6.21,26.28,26.28,0,0,1-4.14,3.82c-.2.16,0,.55.23.46a41.82,41.82,0,0,0,4-1.76c.53,1.34.66,2.81,1.15,4.17A22.19,22.19,0,0,0,275.28,21a.26.26,0,0,0,.36.08h0a.27.27,0,0,0,.09-.34,20.35,20.35,0,0,1-.88-9.67,84.77,84.77,0,0,0,9-.69c.3,0,.21-.5-.05-.53A41.19,41.19,0,0,0,275.65,9.38Z" transform="translate(115.03 59.71)" fill="url(#Безымянный_градиент_181-20)"/><path d="M179.43,62.85c1.52.5,2.88.89,3.83,1.16s1.42.37,1.42.37-2.92,17-1.57,20.14c.65-3.22,8.93-17.14,8.93-17.14s14.78,5.55,19.22,6.82l-11.8-11.75L198,61l-1.62-1.61,14.43-17.54-19.07,15a96,96,0,0,0-6.09-19.07c.2,3.43,1,19.83,1,19.83A98.06,98.06,0,0,1,171,59.14,40.29,40.29,0,0,0,179.43,62.85Z" transform="translate(115.03 59.71)" fill="url(#Безымянный_градиент_181-21)"/><path d="M-9.46,536.71A3,3,0,0,0-8,533a2.6,2.6,0,0,0-3.33-1.55l-.18.07A3,3,0,0,0-13,535.23a2.6,2.6,0,0,0,3.33,1.55Z" transform="translate(115.03 59.71)" fill="url(#Безымянный_градиент_181-22)"/><path d="M3.61,534a2.09,2.09,0,0,0-1,2.65,1.84,1.84,0,0,0,2.39,1h.09a2.12,2.12,0,0,0,1-2.66,1.83,1.83,0,0,0-2.37-1Z" transform="translate(115.03 59.71)" fill="url(#Безымянный_градиент_181-23)"/><path d="M276.86,243.58l4.92-10.22a63.57,63.57,0,0,0-7.55,10.58c-1.54-2.32-3.09-4.63-4.64-6.95.46,1.82,2.73,8.37,2.73,8.37s-6.36,3-7.28,3.09l7.74-.6A27.89,27.89,0,0,0,271.63,258a49.7,49.7,0,0,1,3.62-9.41q4.39,2.84,8.81,5.65l-7.45-7.7c3.39-.37,6-1.93,9.26-3.1Z" transform="translate(115.03 59.71)" fill="url(#Безымянный_градиент_181-24)"/><path d="M313.63,406.8c-2.07,3.58,3.07,7,5.15,3.36S315.71,403.21,313.63,406.8Z" transform="translate(115.03 59.71)" fill="url(#Безымянный_градиент_181-25)"/><path d="M104.11,416.75H98.86l5-10.17a63.91,63.91,0,0,0-7.55,10.57l-4.65-6.94c.46,1.82,2.74,8.37,2.74,8.37s-6.37,3-7.29,3.09l7.75-.6a27.63,27.63,0,0,0-1.2,10.22,50.39,50.39,0,0,1,3.62-9.41l8.81,5.65-7.41-7.63c3.4-.38,6-1.93,9.26-3.1Z" transform="translate(115.03 59.71)" fill="url(#Безымянный_градиент_181-26)"/><path d="M176.05,397.37l-.82-.82,7.32-8.9-9.69,7.64a48.41,48.41,0,0,0-3.1-9.69c.11,1.75.52,10.08.52,10.08a50,50,0,0,1-7.91.79,20.6,20.6,0,0,0,4.25,1.86c.77.25,1.46.46,2,.59l.72.19s-1.48,8.65-.8,10.23c.33-1.64,4.54-8.71,4.54-8.71s7.5,2.82,9.76,3.47l-6-6Z" transform="translate(115.03 59.71)" fill="url(#Безымянный_градиент_181-27)"/><path d="M282,417.75a4.36,4.36,0,0,1,0,1.25,11.94,11.94,0,0,1-1.07,3,16.05,16.05,0,0,1,4.08-2.52,7.36,7.36,0,0,1,5.11.61,27.47,27.47,0,0,0-2.25-2.2,5.53,5.53,0,0,1-1.37-1.94,5.08,5.08,0,0,1,.54-4.06,6.74,6.74,0,0,1-1.18,1.48,5.06,5.06,0,0,1-3.06,1.45c-1.11,0-2.55-1-3.45-1.63a9.13,9.13,0,0,1,2.41,3.53A4.54,4.54,0,0,1,282,417.75Z" transform="translate(115.03 59.71)" fill="url(#Безымянный_градиент_181-28)"/><path d="M288.15,335.94a19,19,0,0,0,4-8.29c.62-3,.22-6.12.09-9.17a18.72,18.72,0,0,1,1.76-9.29,19.88,19.88,0,0,0,2.4-2,.36.36,0,0,0,.12-.27c3.31-1.65,6.75-3.06,10.14-4.49,5.63-2.36,11.29-4.6,16.7-7.52a21.62,21.62,0,0,0-4.18,3.87,22.52,22.52,0,0,0-3,5.35,10.14,10.14,0,0,0-.82,2.75c-.12,1.13.1,2.23-.12,3.36a.41.41,0,0,0,.37.45h0a.42.42,0,0,0,.37-.17c1.15-1.79,3-2.72,4.6-3.92a19.24,19.24,0,0,0,4.36-4.23,40.33,40.33,0,0,0,3-5.42c1.08-2.21,1.71-4.77,2.94-6.88.94-.73,1.87-1.48,2.78-2.26v-.34a11,11,0,0,0-.14-1.52c-.91,0-1.81.09-2.71.15-2.36-.78-5-2.28-6-2.58-4.76-1.47-10.76-.53-14.4,3.31a.36.36,0,0,0,0,.49.31.31,0,0,0,.19.11c2.2.52,4,1.92,6.14,2.68a13.4,13.4,0,0,0,5.62.64c3.71-.32,6.65-2.18,10-3.54a6,6,0,0,0,.84.08c-.65.54-1.31,1.07-2,1.59-.15.13-.31.24-.47.37a.36.36,0,0,0-.33.16l-.09.16a53.45,53.45,0,0,1-8.4,5.29c-2.34,1.17-4.72,2.26-7.11,3.32-3.45.2-6.86-1-10.18-1.8-3.48-.86-7-1.78-10.66-1.49-6.7.55-11.62,5.6-17.19,9.08a.35.35,0,0,0,.19.67c3.45-.17,6.71.83,10.12,1a29.25,29.25,0,0,0,8.67-1.16,56.51,56.51,0,0,0,8.5-3.37,15.21,15.21,0,0,1,5.38-1.68H312c-3.07,1.32-6.17,2.59-9.24,3.9-2.8,1.19-5.59,2.45-8.29,3.9a.35.35,0,0,0-.23.12A49.65,49.65,0,0,0,289,310.6a.34.34,0,0,0-.34,0l-.76.4c-4.08,1.25-8.68.72-12.8.93-5,.26-9.71,1.74-13.35,5.64-.3.33,0,.66.39.61,2.42-.4,4.5,1.4,6.76,2a10,10,0,0,0,5.87-.47,29.08,29.08,0,0,0,5.79-3.48c1.81-1.22,3.68-2.33,5.58-3.39h0a58.72,58.72,0,0,0-6.88,7.31,26.84,26.84,0,0,0-5.33,9,.35.35,0,0,0-.4.26,9.12,9.12,0,0,1-.35,1,16.39,16.39,0,0,1-2.59,1.87c-1.67,1.15-3.49,2-5.18,3.11a22.2,22.2,0,0,0-6.8,7.49,55.6,55.6,0,0,0-4.17,9.91c-.45,1.29-.72,2.61.92,2.43,1-.1,1.89-.64,2.85-.83a48.9,48.9,0,0,0,4.94-.95,12.75,12.75,0,0,0,6.24-4.58A19.1,19.1,0,0,0,273,340.4c.55-3.23-.32-6.87,1.07-9.89l.06-.1a.3.3,0,0,0,.24-.23l.06-.19a3.11,3.11,0,0,0,.28-.65.28.28,0,0,0,0-.22c1.24-3.83,3.62-6.83,6.14-9.83a50.46,50.46,0,0,1,7.85-7.68l.69-.48a12.5,12.5,0,0,0,2.76-1.5.26.26,0,0,0,.12-.35h0c.33-.2.65-.41,1-.6-.1.12-.19.25-.28.37-.47.36-.93.72-1.37,1.11-1.26,1.15-2.42,2.41-3.62,3.62-2.49,2.51-4.93,5.12-6.43,8.46a23.83,23.83,0,0,0-1.72,10.36c0,1.83.19,3.66.34,5.48s.86,4.06.31,5.67c-.15.43.54.63.73.28C282.86,340.72,285.77,338.75,288.15,335.94Zm34.13-45.89a12.49,12.49,0,0,1-6.24-1,45,45,0,0,0-4.69-2.14c4.48-4.26,10.79-3.74,15.93-1.5.43.18,1.07.49,1.8.8a26.56,26.56,0,0,1-4.37-.06c-2.6-.28-5.15-.71-7.76-.26-.52.09-.27.78.2.7,2.75-.47,5.46.09,8.19.35a30.77,30.77,0,0,0,5.43-.1l.3.09C328.21,288.25,325.51,289.77,322.28,290.05Zm-3.79,16.44a53.86,53.86,0,0,1,6.52-8,32.37,32.37,0,0,0,3.71-5.43c-.22.62-.45,1.23-.72,1.82a41.75,41.75,0,0,1-3.76,7.12,21.56,21.56,0,0,1-5.56,5,15.71,15.71,0,0,0-2.52,2,12.74,12.74,0,0,1,.39-3.69,21,21,0,0,1,3.31-6.22c2.32-2.87,5.5-4.63,8.35-6.83a35.48,35.48,0,0,1-4.86,6.75,42.77,42.77,0,0,0-5.58,7,.42.42,0,1,0,.7.48ZM309,298.81a12.45,12.45,0,0,0-3.28.94c-3.21,1.24-6.26,3-9.56,3.92a25.89,25.89,0,0,1-10.34,1.18,72.71,72.71,0,0,0-7.64-.92c5.63-3.73,10.68-8.56,17.7-8.33,4,.13,7.84,1.54,11.74,2.49h-.27a63,63,0,0,0-8.35.47c-2.41.29-4.76.77-7.13,1.27-2.79.6-5.63.74-8.4,1.47a.36.36,0,1,0,.2.7h0c2.43-.64,4.9-.83,7.35-1.27,2.67-.47,5.27-1.12,8-1.44a60.6,60.6,0,0,1,7.25-.49c1.48,0,3.09-.12,4.64,0a12.18,12.18,0,0,0-1.91,0Zm-28.3,16.36c-2.19,1.45-4.27,3.19-6.75,4-2.67.89-5,.38-7.47-.69a10.29,10.29,0,0,0-3.6-1c4.33-4.15,9.77-4.79,15.41-4.82a49.34,49.34,0,0,0,7.29-.39A53.12,53.12,0,0,0,280.68,315.17Zm-23.87,33a28.91,28.91,0,0,1,6-9.75c2.27-2.28,5-3.44,7.6-5.16.57-.38,1.26-.79,1.92-1.25-.79,1.56-1.78,3-2.64,4.51a31,31,0,0,1-5.42,7c-2.66,2.48-6.55,4-8.46,7.22.33-.86.65-1.74,1-2.6Zm15.52-11.59a19.84,19.84,0,0,1-2,9.15,14.1,14.1,0,0,1-6.45,6.65,18.25,18.25,0,0,1-4.43,1.07,22.21,22.21,0,0,0-2.27.45c-.68.18-1.35.48-2,.59a13.59,13.59,0,0,1,2.44-4.77,22.12,22.12,0,0,1,4.06-3.22,24.64,24.64,0,0,0,4.76-4A38,38,0,0,0,271,336c.5-.88,1-1.73,1.54-2.61a21.26,21.26,0,0,0-.18,3.19Zm9,5.66a8.49,8.49,0,0,0-.18-1.42c-.27-1.84-.37-3.72-.5-5.59-.24-3.77-.25-7.65,1-11.27,1.38-4,4.2-7,7.05-9.86.55-.55,1.09-1.11,1.64-1.67-.27.38-.53.76-.78,1.15a31.19,31.19,0,0,0-3,6.57c-.78,2.32-1.24,4.74-1.82,7.12a27.38,27.38,0,0,1-3.48,7.81c-.27.45.45.76.69.37a29.1,29.1,0,0,0,3.06-6.11c.79-2.45,1.16-5,1.87-7.51a27.53,27.53,0,0,1,5.5-10.79,16.37,16.37,0,0,0-.95,4.84c-.14,3.25.48,6.48.22,9.73A17.86,17.86,0,0,1,287.12,336c-2,2.17-4.13,3.9-5.79,6.29Z" transform="translate(115.03 59.71)" fill="url(#Безымянный_градиент_181-29)"/><path d="M217.78,197.48c-2.85.94-5.64,2.07-8.41,3.27a102.27,102.27,0,0,0-28.11,18L198,209.58a66.07,66.07,0,0,0-15.92,18.71,98.06,98.06,0,0,1,17.73-14.71,52,52,0,0,0-11.92,21.08,50.07,50.07,0,0,1,7.81-10.22,44.85,44.85,0,0,1,3.6-3.29,23.35,23.35,0,0,0-4.8,13.23c.16-3.85,6.26-10.58,8.52-13.45a78.86,78.86,0,0,1,10.87-11.35c7.94-6.76,17.49-12.33,27.39-14.79C240.2,189.77,221.26,196.29,217.78,197.48Z" transform="translate(115.03 59.71)" fill="url(#Безымянный_градиент_181-30)"/><polygon points="473.08 178.12 472.04 178.97 482.8 194.28 465.06 213.84 479.56 229.02 464.1 247.82 465.06 248.74 481.36 228.93 466.89 213.8 484.51 194.38 473.08 178.12" fill="url(#Безымянный_градиент_181-31)"/><path d="M149,482a3.18,3.18,0,0,1,.33-2.5,4,4,0,0,1-.73.91,3.1,3.1,0,0,1-1.89.89,5,5,0,0,1-2.14-1,4.17,4.17,0,0,1,1.64,3.57,7,7,0,0,1-.66,1.88,10.06,10.06,0,0,1,2.52-1.55,4.52,4.52,0,0,1,3.17.37,17.84,17.84,0,0,0-1.39-1.36A3.32,3.32,0,0,1,149,482Z" transform="translate(115.03 59.71)" fill="url(#Безымянный_градиент_181-32)"/><path d="M87.42,557.23c-2.07,3.59,3.07,7,5.15,3.36S89.5,553.65,87.42,557.23Z" transform="translate(115.03 59.71)" fill="url(#Безымянный_градиент_181-33)"/><path d="M18.94,534.64a1,1,0,0,0-.49,1.27.88.88,0,0,0,1.12.52h.06a1,1,0,0,0,.49-1.26.87.87,0,0,0-1.11-.53Z" transform="translate(115.03 59.71)" fill="url(#Безымянный_градиент_181-34)"/><path d="M33.49,531.47a1.7,1.7,0,0,0-.84,2.16,1.5,1.5,0,0,0,1.93.88h.07a1.7,1.7,0,0,0,.84-2.16,1.49,1.49,0,0,0-1.91-.89h-.09Z" transform="translate(115.03 59.71)" fill="url(#Безымянный_градиент_181-35)"/><path d="M47.43,525.68A2.89,2.89,0,0,0,46,529.35a2.55,2.55,0,0,0,3.27,1.52l.17-.07a2.91,2.91,0,0,0,1.44-3.68,2.53,2.53,0,0,0-3.25-1.52Z" transform="translate(115.03 59.71)" fill="url(#Безымянный_градиент_181-36)"/><path d="M60.86,518.4a3.43,3.43,0,0,0-1.7,4.37A3,3,0,0,0,63,524.61l.28-.11a3.47,3.47,0,0,0,1.7-4.38,3,3,0,0,0-3.83-1.83h0Z" transform="translate(115.03 59.71)" fill="url(#Безымянный_градиент_181-37)"/><path d="M73.55,509.82a3.37,3.37,0,0,0-1.65,4.25,3,3,0,0,0,3.88,1.72h.12a3.34,3.34,0,0,0,1.65-4.25,2.93,2.93,0,0,0-3.74-1.78Z" transform="translate(115.03 59.71)" fill="url(#Безымянный_градиент_181-38)"/><path d="M88.24,501.45a2.15,2.15,0,0,0-2.76-1.28h0l-.15.06a2.44,2.44,0,0,0-1.2,3.1,2.15,2.15,0,0,0,2.74,1.29l.16-.07A2.45,2.45,0,0,0,88.24,501.45Z" transform="translate(115.03 59.71)" fill="url(#Безымянный_градиент_181-39)"/><path d="M96,489.84a.7.7,0,0,0-.34.88.61.61,0,0,0,.79.35h0a.69.69,0,0,0,.35-.88.62.62,0,0,0-.79-.36Z" transform="translate(115.03 59.71)" fill="url(#Безымянный_градиент_181-40)"/><path d="M-14.14,597.82l4.56-9.48a58.07,58.07,0,0,0-6.84,9.57,1.58,1.58,0,0,0-.15.24l-.47-.7-1.77-2.65-2.07-3.09c.18.72.68,2.25,1.18,3.77l.18.54c.09.27.18.52.26.78.5,1.47.92,2.67.92,2.67s-2.35,1.11-4.3,2a14.23,14.23,0,0,1-2.46.91l2-.16,5.16-.39A25.54,25.54,0,0,0-19,611.27a46.61,46.61,0,0,1,2.92-7.74c.15-.32.27-.66.43-1l.3.19,7.87,5-6.87-7.07c3.15-.36,5.58-1.79,8.59-2.88Z" transform="translate(115.03 59.71)" fill="url(#Безымянный_градиент_181-41)"/><path d="M503.94,355.64a7,7,0,0,1-1.79-2.54,6.67,6.67,0,0,1,.71-5.32,9.65,9.65,0,0,1-1.55,1.94,6.68,6.68,0,0,1-4,1.9c-1.45,0-3.34-1.36-4.53-2.14,2,2,4,4.46,3.49,7.57a15.76,15.76,0,0,1-1.42,4,21.27,21.27,0,0,1,5.36-3.3c2.24-.76,4.62-.07,6.71.8A35.57,35.57,0,0,0,503.94,355.64Z" transform="translate(115.03 59.71)" fill="url(#Безымянный_градиент_181-42)"/><path d="M465.23,525.68a40.71,40.71,0,0,0-8.18-.44,41.74,41.74,0,0,1,1.9-6.77c.25-.49.5-1,.76-1.45a.27.27,0,0,0,0-.37h0a.25.25,0,0,0-.35,0h0a.18.18,0,0,0-.05.07,12.23,12.23,0,0,0-.77,1.48c-.39.78-.76,1.58-1.14,2.37a20.75,20.75,0,0,1-1,1.93c-.21.37-.74,1.63-1.11,1.78-.76.29-2.34-2-2.85-2.53a12.69,12.69,0,0,0-2.88-2.49.26.26,0,0,0-.35.1v0a.28.28,0,0,0,0,.25,69.8,69.8,0,0,0,4,6.21,26.28,26.28,0,0,1-4.14,3.82c-.2.16,0,.55.23.46a41.9,41.9,0,0,0,4-1.77c.53,1.34.66,2.82,1.15,4.18a22.19,22.19,0,0,0,2.25,4.29.26.26,0,0,0,.36.08h0a.27.27,0,0,0,.09-.34,20.4,20.4,0,0,1-.88-9.68,84.76,84.76,0,0,0,9-.68.28.28,0,0,0,.18-.34A.28.28,0,0,0,465.23,525.68Z" transform="translate(115.03 59.71)" fill="url(#Безымянный_градиент_181-43)"/><path d="M485.34,417a26.61,26.61,0,0,0-22.54,8,26.88,26.88,0,0,1,29.43,2.84c8.6,7.07,12.59,20,9.68,31.29a28.27,28.27,0,0,0,3-26.26A25.78,25.78,0,0,0,485.34,417Z" transform="translate(115.03 59.71)" fill="url(#Безымянный_градиент_181-44)"/><path d="M501.49,290.81c2.07-3.58-3.07-7-5.15-3.36S499.41,294.4,501.49,290.81Z" transform="translate(115.03 59.71)" fill="url(#Безымянный_градиент_181-45)"/><path d="M371.75,455.7c0-.48-.84-.62-.88-.07v.43c-2.92,4.12-7.71,6.82-11.92,9.14-3.81,2.11-7.15,4-10.28,7.16a44.81,44.81,0,0,0-4.31,4.82,29.68,29.68,0,0,0-2.75,5.42c-2.1,4.42-4.75,9-8.34,12.26a39.1,39.1,0,0,1-7.85,3.7,49.11,49.11,0,0,1-8.94,2.22c-3.31.56-6.64.8-10,1.09a32.92,32.92,0,0,0,10.1-6.48,44,44,0,0,0,5.73-5.93c1.13.93,3,.89,4.39.76,2.84-.33,4.53-3.06,5.75-5.53,1.66-3.36,2.41-7.16,3.93-10.58a45.38,45.38,0,0,1,4.74-8.68c.75-.81,1.5-1.67,2.22-2.54.31-.37-.38-.82-.69-.53a19.27,19.27,0,0,0-2.27,2.51,63.18,63.18,0,0,1-5.35,5c-2.78,2.4-5.84,4.39-8.65,6.74-2.48,2.06-3.66,4.36-4.72,7.46-.5,1.48-1,3.25,0,4.41a.28.28,0,0,0,0,.28,38.23,38.23,0,0,1-5,5.41c-3.23,2.88-6.74,5.65-10.72,7a21.06,21.06,0,0,0,4.69-7.79,2.65,2.65,0,0,0,2.69.07c2.12-1,3.48-3.56,4.55-5.66a32.2,32.2,0,0,0,2.78-9.46,60,60,0,0,0,1-6.38,24.55,24.55,0,0,0,.39-2.69.48.48,0,0,0-.51-.45.5.5,0,0,0-.31.14l-.49.68-.08.14c-.59,1-1.08,2-1.65,2.91a34.13,34.13,0,0,1-3,4.07c-2.13,2.52-4.59,4.63-6.86,6.95-1.44,1.52-2.89,3.41-2.6,5.67.23,1.91,1.71,3.11,3.07,4.19-1.28,3.3-3,6.41-5.78,8.19a2.75,2.75,0,0,1-.41.11c-.21.06-.3.15-.32.3-1.75.15-3.49.4-5.22.69-3.88.68-7.81,1.08-11.68,1.75-1.76.31-3.51.65-5.23,1.13a9.11,9.11,0,0,0,.53,1.34c.38-.1.77-.22,1.13-.29h.23a16.44,16.44,0,0,1,2.1-.13,22.77,22.77,0,0,1,12.09,4c1.63.41,3.24.75,4.89,1.22,2.05.58,4.08,1.19,6.12,1.82l-.1-.15a8,8,0,0,0-4.75-3.44,5.64,5.64,0,0,0-3.71.3h-.17a1.91,1.91,0,0,0-.58.39c-3.87-2.57-8-4.54-12.55-4.9,2.92-.58,5.87-1,8.81-1.38,1.65-.22,3.31-.4,5-.59a.23.23,0,0,0,.2,0,1.55,1.55,0,0,0,.36-.08c3.12-.3,6.22-.57,9.31-.94a10.67,10.67,0,0,0,2.44.37c1.81.26,3.57.76,5.35,1.11a56.2,56.2,0,0,0,10.7,1.74h2.82a.91.91,0,0,0,.21.18,6.72,6.72,0,0,0,1.41,2.22,10,10,0,0,0,3.78,3.51c3.85,1.93,7.63,2.94,11.89,1.89a39.06,39.06,0,0,0,10.95-5,37.52,37.52,0,0,0,6.05-4.52c1.6-1.53,3.76-3,4.9-5,.22-.32-.17-.69-.49-.63-1.87.36-3.54,1.41-5.47,1.68a21.15,21.15,0,0,1-5.84,0c-3.78-.52-7.5-1.45-11.32-1.95a18,18,0,0,0-8.94,1.34,20.63,20.63,0,0,0-4,2.23,12.52,12.52,0,0,0-2.69,3.11.31.31,0,0,0-.36.15c-1,0-2,0-3-.09a53.31,53.31,0,0,1-9.74-1.48l-4.69-1a13.68,13.68,0,0,0-1.57-.15c1.86-.28,3.67-.59,5.49-1A54.41,54.41,0,0,0,335,495.1c1.95-.49,3.9-1.17,5.91-1.63,2.46-.58,4.9-1.43,7.34-2.22,4.66-1.49,9-4.71,12.53-8.28a45.59,45.59,0,0,0,8.18-12.1,19.69,19.69,0,0,0,2.22-7.1c.13-1.45.08-2.94.11-4.42a26.6,26.6,0,0,1,.38-3.09.2.2,0,0,1,.09-.09.33.33,0,0,0,0-.4Z" transform="translate(115.03 59.71)" fill="url(#Безымянный_градиент_181-46)"/><path d="M370.55,254.29a.29.29,0,0,0-.37-.18h0a.34.34,0,0,0-.16.42.29.29,0,0,0,.37.18h0A.33.33,0,0,0,370.55,254.29Z" transform="translate(115.03 59.71)" fill="url(#Безымянный_градиент_181-47)"/><path d="M384.8,262.42a2.28,2.28,0,0,0,1.08-2.84,2,2,0,0,0-2.57-1.18h-.13a2.28,2.28,0,0,0-1.12,2.89,2,2,0,0,0,2.57,1.17Z" transform="translate(115.03 59.71)" fill="url(#Безымянный_градиент_181-48)"/><path d="M399.46,266.93a3,3,0,0,0,1.45-3.74,2.61,2.61,0,0,0-3.34-1.55l-.16.07a3,3,0,0,0-1.46,3.74,2.6,2.6,0,0,0,3.33,1.55Z" transform="translate(115.03 59.71)" fill="url(#Безымянный_градиент_181-49)"/><path d="M412.53,264.29a2.09,2.09,0,0,0-1,2.65,1.83,1.83,0,0,0,2.36,1.1h0L414,268a2.12,2.12,0,0,0,1-2.66,1.83,1.83,0,0,0-2.34-1.1Z" transform="translate(115.03 59.71)" fill="url(#Безымянный_градиент_181-50)"/><path d="M428.56,266.58a1,1,0,0,0,.49-1.26.89.89,0,0,0-1.13-.53h-.06a1,1,0,0,0-.49,1.26.89.89,0,0,0,1.13.53Z" transform="translate(115.03 59.71)" fill="url(#Безымянный_градиент_181-51)"/><path d="M442.41,261.68a1.73,1.73,0,0,0-.84,2.17,1.5,1.5,0,0,0,1.93.88h.07a1.7,1.7,0,0,0,.84-2.16,1.49,1.49,0,0,0-1.92-.89h-.08Z" transform="translate(115.03 59.71)" fill="url(#Безымянный_градиент_181-52)"/><path d="M456.35,255.9a2.89,2.89,0,0,0-1.47,3.68,2.55,2.55,0,0,0,3.27,1.52l.17-.07a2.9,2.9,0,0,0,1.43-3.68,2.54,2.54,0,0,0-3.26-1.51h0Z" transform="translate(115.03 59.71)" fill="url(#Безымянный_градиент_181-53)"/><path d="M469.78,248.58a3.45,3.45,0,0,0-1.7,4.37,3,3,0,0,0,3.78,1.84l.28-.11a3.47,3.47,0,0,0,1.72-4.39,3,3,0,0,0-3.83-1.83h0Z" transform="translate(115.03 59.71)" fill="url(#Безымянный_градиент_181-54)"/><path d="M484.8,246a3.36,3.36,0,0,0,1.66-4.25,2.93,2.93,0,0,0-3.76-1.77l-.24.1a3.35,3.35,0,0,0-1.6,4.25,2.93,2.93,0,0,0,3.74,1.78h0Z" transform="translate(115.03 59.71)" fill="url(#Безымянный_градиент_181-55)"/><path d="M494.35,234.82l-1.32-3a2.51,2.51,0,0,0,0,1.71A2.21,2.21,0,0,0,494.35,234.82Z" transform="translate(115.03 59.71)" fill="url(#Безымянный_градиент_181-56)"/><path d="M422.18,462.45a5.32,5.32,0,0,0-.55.61,4.56,4.56,0,0,0-.42,6.43,4.47,4.47,0,0,0,1.35,1.06,4.67,4.67,0,0,0,1.65.59,4,4,0,0,0,4.24-2.17C431.13,464.29,425.66,460,422.18,462.45Z" transform="translate(115.03 59.71)" fill="url(#Безымянный_градиент_181-57)"/><path d="M470.08,149a5,5,0,0,0-3.33,2.16,87.4,87.4,0,0,0-6.34,10.11,92.2,92.2,0,0,0-4.76,10.65.46.46,0,0,0,.09.45.36.36,0,0,0,.41.1,44.49,44.49,0,0,0,18.71-14.3,19,19,0,0,1,.14-2,4.63,4.63,0,0,1-.72,1.46,43.51,43.51,0,0,1-17.55,13.64,87.94,87.94,0,0,1,4.36-9.65,86.42,86.42,0,0,1,6.28-10,4.22,4.22,0,0,1,2.8-1.84,4.28,4.28,0,0,1,3.35,1.07,5.12,5.12,0,0,1,1.62,2.81c.07-.55.16-1.1.24-1.65A6.29,6.29,0,0,0,474,150.2,5.09,5.09,0,0,0,470.08,149Z" transform="translate(115.03 59.71)" fill="url(#Безымянный_градиент_181-58)"/><path d="M454.14,173a.88.88,0,0,0,.05-.15.43.43,0,0,0-.16-.42,36.72,36.72,0,0,0-9.52-5.15A42.29,42.29,0,0,0,434,164.82a5.53,5.53,0,0,0-1.46.14,5.71,5.71,0,0,0-4.58,4,4.41,4.41,0,0,0,.29,3.5,4.13,4.13,0,0,0,3.16,1.88,61.19,61.19,0,0,0,15.71.08,50.29,50.29,0,0,0,6.78-1.27A.47.47,0,0,0,454.14,173Zm-8.13.74a60.13,60.13,0,0,1-14.5-.2,3.4,3.4,0,0,1-2.6-1.5,3.55,3.55,0,0,1-.21-2.8,4.94,4.94,0,0,1,4.94-3.57h.22a41.3,41.3,0,0,1,10.34,2.43,35.61,35.61,0,0,1,8.64,4.47,49.48,49.48,0,0,1-6.83,1.17Z" transform="translate(115.03 59.71)" fill="url(#Безымянный_градиент_181-59)"/><path d="M290.31,222.47c3.88,0,8.32-.12,12.42-.25l12-.41A209.8,209.8,0,0,1,321,242.5c1.67,6.7,3.12,14,4.31,22.08.18,1.25.39,2.42.56,3.71a.39.39,0,0,0,.42.35h0a.41.41,0,0,0,.28-.2.48.48,0,0,0,0-.29c-.21-1.62-.48-3.1-.71-4.66-1.11-7.37-2.45-14.13-4-20.35a207.53,207.53,0,0,0-6.54-21.7h0a92.42,92.42,0,0,0,8.49-7.82c2.67-2.76,9.13-9.68,12.5-15.49l.28-.5a5.42,5.42,0,0,0-1.55-7.2,4.64,4.64,0,0,0-3.68-.78,4.77,4.77,0,0,0-3,2.26c-2.72,4.33-5.52,10.63-8,16.2l-5.45,12.36c-2-5.53-4.18-10.67-6.34-15.54h0c5.42-5.89,10.58-11.75,14.33-18.21a47.82,47.82,0,0,0,2.92-5.92h0a5,5,0,0,0-2.6-6.54,4.26,4.26,0,0,0-5.67,2,5.2,5.2,0,0,0-.21.55,139.6,139.6,0,0,0-4.5,13.5c-.61,1.9-1.27,3.79-1.92,5.62-.9,2.54-1.81,5.17-2.63,8l-.63-1.43c-1.71-3.69-3.56-7.34-5.53-11A145.1,145.1,0,0,0,312,177a61.58,61.58,0,0,0,6.23-14.35h0A5.33,5.33,0,0,0,314.7,156h-.12a4.62,4.62,0,0,0-5.8,3,4.21,4.21,0,0,0-.12.48c-2.71,9.36-5,19.46-7.13,30.77-2.35-4.32-4.94-8.74-7.81-13.34,4.85-8.86,8.36-16.35,9.65-24.12a4.27,4.27,0,0,0-3.16-5.13,4.32,4.32,0,0,0-2.61.21,4.21,4.21,0,0,0-2.55,3.39c-1.43,7.64-1.74,15.47-2.05,24.47l-.13-.24c-1.93-3-3.9-5.91-5.89-8.76h0c.46-1,1.65-3.54,2.84-6.79.86-2.35,2.86-8.38,2.85-13.49a3.52,3.52,0,0,0-3.21-3.79H289a3.79,3.79,0,0,0-3.79,3.79v.16c0,3.45.09,6.87.35,10.17s.41,6.14.43,8.67c-2.36-3.33-4.77-6.58-7.27-9.73h.11v-.06a44.65,44.65,0,0,0,1.83-5.26,33.34,33.34,0,0,0,1.64-9.76,2.57,2.57,0,0,0-2.5-2.64h-.27a2.9,2.9,0,0,0-2.75,3v.05c.06,2.9.4,5.88.72,8.76.19,1.67.37,3.39.51,5.09-1.22-1.53-2.46-3.05-3.73-4.54A41.93,41.93,0,0,0,264,134.53a2.81,2.81,0,0,0-4,0l0,0c-.1.1-.19.21-.28.32a3.48,3.48,0,0,0-.25,4.73,64.54,64.54,0,0,0,14.08,11.31c1.21,1.42,2.39,2.87,3.56,4.33-.92-.21-1.85-.43-2.74-.66a40.56,40.56,0,0,0-9.21-1.58,3.08,3.08,0,0,0-3,3.06,2.3,2.3,0,0,0,2,2.58h.2a32.07,32.07,0,0,0,8.89-1c2.44-.54,4.37-1.08,4.9-1.23,2.45,3.07,4.8,6.25,7.11,9.49l-1.41-.45c-2.1-.7-4.09-1.35-6.16-1.9a41.53,41.53,0,0,0-8.9-1.7,4.2,4.2,0,0,0-4.19,4,3,3,0,0,0,2.46,3.46h.1c3.39.43,8.15-.2,12.35-.82,3.1-.47,5.67-1,6.66-1.18,0,.07,0,.18.14.2s0,0,.06,0c1.93,2.76,3.83,5.57,5.7,8.49-7.87-3.06-14.45-4.4-21.06-4.21a5,5,0,0,0-4.5,5,3.08,3.08,0,0,0,2.83,3.31h.4c5.91,0,12.15-1,19.37-2.13l3.81-.59c2.89,4.61,5.48,9,7.83,13.36-10.13-4.11-18.12-5.76-26.49-5.43a5.83,5.83,0,0,0-5.32,5.81,3.43,3.43,0,0,0,3.26,3.59h.49c8.22.15,16.64-1,26.4-2.36l2.33-.33c2,3.68,3.82,7.32,5.52,11l.49,1.11a72.12,72.12,0,0,0-11.44-4,57.72,57.72,0,0,0-12.61-1.76,5.28,5.28,0,0,0-5.22,5.09,3.28,3.28,0,0,0,2.94,3.57h.43c6.66.41,13.31-.31,21-1.16,1.76-.19,3.57-.39,5.42-.57,2.15,4.82,4.26,9.91,6.29,15.39a58,58,0,0,0-8.66-3.71c-5.14-1.73-12.64-3.54-18.27-3.43a5.54,5.54,0,0,0-5.11,3.75c-.07.19-.18.36-.23.55a3.84,3.84,0,0,0,.41,3.1,3.62,3.62,0,0,0,3,1.51C286.8,222.43,288.52,222.46,290.31,222.47Zm30.92-14c2.46-5.54,5.24-11.82,7.93-16.09a4,4,0,0,1,2.48-1.9,3.89,3.89,0,0,1,3.08.67,4.5,4.5,0,0,1,1.33,6.06c-3.23,5.84-9.93,13-12.65,15.82-3,3.1-5.65,5.44-7.13,6.69Zm-9.57-12.18c.65-1.83,1.31-3.73,1.92-5.64a138.89,138.89,0,0,1,4.68-13.45,3.46,3.46,0,0,1,4.31-2.32h0a3.28,3.28,0,0,1,.52.2,4.11,4.11,0,0,1,2.2,5.38h0v0c-3.36,8.29-9.4,15.47-15.93,22.62.73-2.38,1.53-4.64,2.31-6.85Zm-2.28-36.52a3.83,3.83,0,0,1,4.45-3.06,4.07,4.07,0,0,1,.5.13,4.5,4.5,0,0,1,3.15,5.53h0v.11c-2.6,9.33-7.91,17.76-15.08,27.39,2.06-11.06,4.36-20.92,7-30.11Zm-31.76-18.71a2.08,2.08,0,0,1,1.93-2.2h.07a1.75,1.75,0,0,1,1.94,1.54h0a1.41,1.41,0,0,1,0,.29,33.1,33.1,0,0,1-1.6,9.47c-.42,1.42-.86,2.68-1.2,3.6-.12-1.35-.28-2.7-.42-4-.34-2.88-.67-5.85-.73-8.71ZM260.12,139a2.45,2.45,0,0,1-.18-3,3,3,0,0,1,.43-.58,2.06,2.06,0,0,1,3.14-.25h0a41.51,41.51,0,0,1,9.68,14.49,64.77,64.77,0,0,1-13.07-10.67Zm13,17.81a31.33,31.33,0,0,1-8.68,1,1.5,1.5,0,0,1-1.41-1.57V156a2.48,2.48,0,0,1,.34-1.16,2.06,2.06,0,0,1,1.84-1.08,39.29,39.29,0,0,1,9,1.56l2.31.57c-.88.23-2.09.54-3.42.83Zm6.3,10.82c-4.15.62-8.85,1.24-12.14.82a2.17,2.17,0,0,1-1.92-2.38v-.18a3.81,3.81,0,0,1,.5-1.58,3.12,3.12,0,0,1,2.86-1.62,41.38,41.38,0,0,1,8.75,1.68c2,.54,4,1.19,6.12,1.88l1.31.43c-1.31.24-3.29.61-5.51,1Zm7-22.55a3,3,0,0,1,2.59-1.47,2.72,2.72,0,0,1,2.86,2.57,3.09,3.09,0,0,1,0,.43,41.15,41.15,0,0,1-2.8,13.19c-.84,2.29-1.68,4.26-2.26,5.55,0-2.48-.18-5.19-.45-8.51s-.37-6.67-.34-10.09a3.18,3.18,0,0,1,.42-1.68ZM289,177c-7.19,1.14-13.41,2.11-19.26,2.12a2.28,2.28,0,0,1-2.45-2.09,2.54,2.54,0,0,1,0-.39,4.09,4.09,0,0,1,3.73-4.14c6.49-.19,12.93,1.07,20.69,4.08Zm6.77-25.58a4.28,4.28,0,0,1,.48-1.38,3.13,3.13,0,0,1,1.62-1.36,3.64,3.64,0,0,1,3.71.65,3.52,3.52,0,0,1,1,3.34h0c-1.21,7.23-4.38,14.25-8.79,22.42.28-8.66.61-16.25,2-23.67Zm3.22,40c-9.73,1.35-18.12,2.51-26.29,2.36h0a2.65,2.65,0,0,1-3-2.25h0a2.26,2.26,0,0,1,0-.52,4.92,4.92,0,0,1,.68-2.48,4.81,4.81,0,0,1,3.87-2.46c8.15-.32,15.93,1.25,25.78,5.2ZM302.47,205c-7.67.84-14.29,1.57-20.88,1.16h0a2.47,2.47,0,0,1-2.64-2.29h0a3.09,3.09,0,0,1,0-.43,4.28,4.28,0,0,1,.6-2,4.38,4.38,0,0,1,3.8-2.25,57.39,57.39,0,0,1,12.44,1.74,72.32,72.32,0,0,1,10.71,3.66ZM283,220.41a3,3,0,0,1-.29-2.39c0-.11.1-.22.14-.33a4.43,4.43,0,0,1,.38-.93,4.74,4.74,0,0,1,4.07-2.41c5.53-.1,12.93,1.69,18,3.4a59.51,59.51,0,0,1,8,3.34l-10.59.37c-4.56.15-9.57.3-13.71.24a33.84,33.84,0,0,1-3.59-.12,3,3,0,0,1-2.4-1.22Z" transform="translate(115.03 59.71)" fill="url(#Безымянный_градиент_181-60)"/><path d="M390.6,4.81a38.4,38.4,0,0,0,11-5,37.27,37.27,0,0,0,6-4.52,49.49,49.49,0,0,0,4-3.8l-1.74-1.14a15.28,15.28,0,0,1-3.38,1,21.15,21.15,0,0,1-5.84,0c-3.78-.51-7.5-1.44-11.32-2a18,18,0,0,0-8.93,1.35,20.25,20.25,0,0,0-4.06,2.22A12.52,12.52,0,0,0,373.64-4a.34.34,0,0,0-.36.15c-1,0-2,0-3-.08a54.2,54.2,0,0,1-9.74-1.49c-1.55-.32-3.12-.66-4.68-1a13.85,13.85,0,0,0-1.58-.15c1.86-.28,3.67-.59,5.49-1A54.41,54.41,0,0,0,377.05-14c1.95-.49,3.9-1.17,5.91-1.63,2.46-.58,4.9-1.43,7.34-2.22a23.1,23.1,0,0,0,4-1.78c-3.6-2.33-7.18-4.68-10.7-7.07h0c-2.1,4.42-4.75,9.05-8.34,12.27a39.32,39.32,0,0,1-7.85,3.69,47.52,47.52,0,0,1-8.94,2.22c-3.31.56-6.64.8-10,1.09A32.92,32.92,0,0,0,358.57-14a43.93,43.93,0,0,0,5.73-5.92c1.13.92,3,.88,4.39.75,2.85-.33,4.53-3.06,5.75-5.53A54.5,54.5,0,0,0,377-31.43c-1.77-1.28-3.5-2.58-5.22-3.9-1.13.85-2.28,1.69-3.37,2.61-2.48,2.06-3.66,4.36-4.72,7.47-.5,1.47-1,3.24,0,4.41a.26.26,0,0,0,0,.27,36.63,36.63,0,0,1-5,5.41c-3.23,2.88-6.74,5.65-10.72,7a20.8,20.8,0,0,0,4.69-7.79,2.65,2.65,0,0,0,2.69.07c2.12-1,3.48-3.56,4.55-5.66A32.23,32.23,0,0,0,362.64-31a60,60,0,0,0,1-6.38,24.38,24.38,0,0,0,.39-2.7.48.48,0,0,0-.51-.45.5.5,0,0,0-.31.14l-.49.68-.08.14c-.59,1-1.08,2-1.65,2.91a35.07,35.07,0,0,1-3,4.08c-2.13,2.52-4.59,4.63-6.86,7-1.44,1.51-2.89,3.4-2.6,5.66.23,1.92,1.71,3.11,3.07,4.19-1.28,3.31-3,6.41-5.78,8.19a2.75,2.75,0,0,1-.41.11c-.21.06-.3.15-.32.3-1.75.16-3.49.4-5.22.69-3.88.68-7.81,1.09-11.68,1.76A51.75,51.75,0,0,0,323-3.55a9.69,9.69,0,0,0,.53,1.35c.38-.1.77-.23,1.13-.3.07,0,.14,0,.25,0a14.79,14.79,0,0,1,2.1-.12c4.87,0,9.26,2,13.3,4.76A6.5,6.5,0,0,0,340,6.11a11.23,11.23,0,0,0,4.42,6.76A24.6,24.6,0,0,0,353,17c1.47.43,3,.79,4.46,1.07,1.94.38,4,.15,5.87.69.54.12.8-.59.24-.73-3.14-.75-5.54-3.54-7.78-5.84S351.93,7,350,4.3A7.91,7.91,0,0,0,345.22.86a5.64,5.64,0,0,0-3.71.3h-.17a1.91,1.91,0,0,0-.58.39c-3.87-2.56-8-4.54-12.55-4.9,2.92-.58,5.87-1,8.81-1.38,1.65-.22,3.32-.4,5-.59a.23.23,0,0,0,.2,0,2.29,2.29,0,0,0,.36-.07c3.12-.31,6.23-.58,9.31-1a10.08,10.08,0,0,0,2.44.37c1.81.26,3.57.76,5.35,1.12a56.18,56.18,0,0,0,10.7,1.73h2.82a.91.91,0,0,0,.21.18,6.86,6.86,0,0,0,1.41,2.23,10,10,0,0,0,3.78,3.5C382.56,4.86,386.34,5.86,390.6,4.81Z" transform="translate(115.03 59.71)" fill="url(#Безымянный_градиент_181-61)"/><path d="M94.73,132.89a4.39,4.39,0,0,1-1.1-1.56,4.14,4.14,0,0,1,.44-3.26,5.46,5.46,0,0,1-.95,1.19,4.17,4.17,0,0,1-2.46,1.16,6.55,6.55,0,0,1-2.78-1.31c1.23,1.2,2.44,2.74,2.13,4.64a9.27,9.27,0,0,1-.86,2.45,12.82,12.82,0,0,1,3.28-2,5.94,5.94,0,0,1,4.12.48A22,22,0,0,0,94.73,132.89Z" transform="translate(115.03 59.71)" fill="url(#Безымянный_градиент_240)"/><path d="M125.39,343.14l1,.89,31,26.86c-1.48,2.49-.14,5.24,2.92,6.39,1.78.67,3.78-1.87,4-3.64a3.74,3.74,0,0,0-.46-2.17l68.63-43.62a18.68,18.68,0,0,0-.78,6.93,33.31,33.31,0,0,1,2.46-6.4l6,3.84-5-5.19c2.31-.26,4.1-1.32,6.31-2.12h-6.21c1.12-2.33,2.23-4.65,3.35-7a42.53,42.53,0,0,0-5.14,7.21l-3.16-4.73c.21.84,1,3.15,1.47,4.56l-51.2-35.37c1.11-2.6-2.52-4.87-4-2.24a2.7,2.7,0,0,0-.35,1.07l-13.95,2.88a5.63,5.63,0,0,0-1.4-2.39,3.52,3.52,0,0,0-2-.94,4.58,4.58,0,0,0-3.31.93c-2.13,1.46-1.9,4-.67,5.94a6,6,0,0,0,.69.9l-6,8.24-24.73,34.18a2.33,2.33,0,0,0-3,1.12C120.26,342,123.37,344.51,125.39,343.14Zm20.39-32.56,10.32-14.23a4.12,4.12,0,0,0,2.87,1.09c2.91-.18,3.84-2.83,3.41-5.28l13.86-2.87A2.25,2.25,0,0,0,179,291h0a2.22,2.22,0,0,0,1.16-.68l51.93,35.87a45.41,45.41,0,0,1-4.88,2.06l3.61-.28-67.38,42.83a5.15,5.15,0,0,0-.53-.61c-1.35-1.27-3.37-1.75-4.75-.29a3,3,0,0,0-.27.35l-31-26.93-.88-.77a2.43,2.43,0,0,0,.3-.34,2.71,2.71,0,0,0-.75-3.65Z" transform="translate(115.03 59.71)" fill="url(#Безымянный_градиент_240-2)"/><path d="M163.4,89.46l-.31-.23c-3.08-2.29-6.46,2.69-3.37,5l.31.23a2.58,2.58,0,0,0,3.56-.31l46.73,34.63a2,2,0,0,0,.6,2.5l.21.16c2.1,1.55,4.4-1.84,2.3-3.39l-.21-.16a1.74,1.74,0,0,0-2.45.24L164.09,93.58a3.25,3.25,0,0,0,.5-1.77L247.19,74l-2.5,3.76,4.37-4.16,1-.21a39.07,39.07,0,0,0,1.47,6.13L252,73l6.34,3.94a41.11,41.11,0,0,0-6.44-5.85l4.7-3c-1.19.25-5.52,1.62-5.52,1.62a52.37,52.37,0,0,1-1.63-5.35v5.59a15.89,15.89,0,0,0-6.52-1.3,30.64,30.64,0,0,1,5.87,3L247.83,73,164.44,91A2.71,2.71,0,0,0,163.4,89.46Z" transform="translate(115.03 59.71)" fill="url(#Безымянный_градиент_240-3)"/><path d="M62.1,77.94c-1.65,2.84,2.44,5.52,4.09,2.67S63.75,75.08,62.1,77.94Z" transform="translate(115.03 59.71)" fill="url(#Безымянный_градиент_240-4)"/><path d="M168.34,151.81c-1.65,2.85,2.44,5.53,4.09,2.67S170,149,168.34,151.81Z" transform="translate(115.03 59.71)" fill="url(#Безымянный_градиент_240-5)"/><path d="M247.63,125.07c1-1.79-1.54-3.47-2.58-1.68S246.59,126.87,247.63,125.07Z" transform="translate(115.03 59.71)" fill="url(#Безымянный_градиент_240-6)"/><path d="M154.93,7.17c-1,1.79,1.53,3.48,2.57,1.68S156,5.38,154.93,7.17Z" transform="translate(115.03 59.71)" fill="url(#Безымянный_градиент_240-7)"/><path d="M101.52,244.13l.57.38c3.31,2.16,6.53-3.4,3.22-5.57l-.57-.37C101.43,236.41,98.2,242,101.52,244.13Z" transform="translate(115.03 59.71)" fill="url(#Безымянный_градиент_240-8)"/><path d="M105.17,380.72a3,3,0,0,0,1.43-1.25,3.21,3.21,0,0,0,.41-1.92c-.21-2.66-3.87-4.36-5.56-1.44a3.14,3.14,0,0,0,3.72,4.61Z" transform="translate(115.03 59.71)" fill="url(#Безымянный_градиент_240-9)"/><path d="M56.66,231.48l-6.32,44.81a2.7,2.7,0,0,0-2.54,1.47c-2.08,3.58,3.07,7,5.14,3.36a3.18,3.18,0,0,0-1-4.38,3.42,3.42,0,0,0-.81-.35l6.31-44.68A4.12,4.12,0,0,1,56.66,231.48Z" transform="translate(115.03 59.71)" fill="url(#Безымянный_градиент_240-10)"/><path d="M55.37,223,30.86,178.64a10.45,10.45,0,0,1,5.31,1,35.09,35.09,0,0,0-2.82-2.77,6.65,6.65,0,0,1-1.72-2.44,6.34,6.34,0,0,1,.68-5.08,9.11,9.11,0,0,1-1.48,1.85,8.43,8.43,0,0,1-1.28.94L26.86,93.46l-.3-.19c-.16.32-.28.66-.43,1l2.73,78.28A4,4,0,0,1,27,173c-1.38,0-3.2-1.29-4.33-2,1.93,1.87,3.81,4.26,3.33,7.24a15.24,15.24,0,0,1-1.35,3.82,20.16,20.16,0,0,1,5.12-3.16.52.52,0,0,0,.3-.06l24.75,44.72A4.23,4.23,0,0,1,55.37,223Z" transform="translate(115.03 59.71)" fill="url(#Безымянный_градиент_240-11)"/><path d="M25.73,88.65l-.62-.46.47.7C25.62,88.81,25.68,88.73,25.73,88.65Z" transform="translate(115.03 59.71)" fill="url(#Безымянный_градиент_240-12)"/><path d="M-31.64,48.66a1.91,1.91,0,0,0,1.74-.3L22.4,87.17l.48.41c-.08-.25-.17-.5-.26-.77l-.18-.55-51.7-38.37a4.89,4.89,0,0,0,1.39-2.64A4,4,0,0,0-29.21,42a4.19,4.19,0,0,0-1.6-.91l-1.84,3.21-.86,1.47-.61,1.12A5.54,5.54,0,0,0-31.64,48.66Z" transform="translate(115.03 59.71)" fill="url(#Безымянный_градиент_240-13)"/><path d="M319,364.07a4.3,4.3,0,0,1-1.1-1.56,4.14,4.14,0,0,1,.44-3.26,6,6,0,0,1-1,1.19,4.08,4.08,0,0,1-2.47,1.16,6.67,6.67,0,0,1-2.77-1.3c1.23,1.2,2.44,2.73,2.13,4.64a10.2,10.2,0,0,1-.86,2.45,13.11,13.11,0,0,1,3.28-2,5.81,5.81,0,0,1,4.11.49A21.48,21.48,0,0,0,319,364.07Z" transform="translate(115.03 59.71)" fill="url(#Безымянный_градиент_240-14)"/><path d="M229.25,461.78c4.31-3.85,6.54-8.55,10-13.33l-12.39,8.91q-1.08-9.41-2.17-18.81a110.48,110.48,0,0,0-1.11,21.88l-12.4-4.94c2.21,2,11,8.76,11,8.76s-6.06,10.33-7.27,11.33L225,467.17a44,44,0,0,0,7.29,15,83.25,83.25,0,0,1-3.24-16.4l17-.93Z" transform="translate(115.03 59.71)" fill="url(#Безымянный_градиент_240-15)"/><path d="M209.86,248.72c-1,1.79,1.54,3.48,2.57,1.68S210.86,246.93,209.86,248.72Z" transform="translate(115.03 59.71)" fill="url(#Безымянный_градиент_240-16)"/><path d="M224.79,377.67c-1,1.79,1.54,3.47,2.58,1.68S225.86,375.87,224.79,377.67Z" transform="translate(115.03 59.71)" fill="url(#Безымянный_градиент_240-17)"/><path d="M183.86,449.42c-2.07,3.58,3.07,7,5.15,3.36S185.86,445.83,183.86,449.42Z" transform="translate(115.03 59.71)" fill="url(#Безымянный_градиент_240-18)"/><path d="M305.53,275.84c-2.08,3.58,3.07,7,5.14,3.36S307.6,272.29,305.53,275.84Z" transform="translate(115.03 59.71)" fill="url(#Безымянный_градиент_240-19)"/><path d="M256.3,406.49c.11-2.07-2.74-3.51-4-1.31v.11a202.13,202.13,0,0,0-30.87-6.68c-.6-2.36-3.94-3.67-5.52-.93-.06.09,0,.18-.1.27a210.43,210.43,0,0,0-39.76-.5l.75.76a209.79,209.79,0,0,1,38.74.53c-.65,3.12,3.65,5.52,5.52,2.3a3.27,3.27,0,0,0,.43-1.59A199.72,199.72,0,0,1,252,406.11c-.37,2.21,2.68,3.86,4,1.57.06-.11.06-.21.11-.32A202.84,202.84,0,0,1,282,417.83a4.24,4.24,0,0,0-.21-1A203.59,203.59,0,0,0,256.3,406.49Z" transform="translate(115.03 59.71)" fill="url(#Безымянный_градиент_240-20)"/><path d="M154.86,400.14c-7,1.27-13.43,2.81-19.33,4.43-1.11-1.71-3.74-2.34-5.09,0a3.34,3.34,0,0,0-.44,1.6,200.34,200.34,0,0,0-27.74,10.59h1.89A203.28,203.28,0,0,1,130.07,407c.59,2.36,3.93,3.67,5.51.94a3.17,3.17,0,0,0,.28-2.65c5.82-1.6,12.19-3.1,19.07-4.36,4.24-.77,8.82-1.46,13.64-2-.49-.13-1.18-.34-2-.59C162.49,398.85,158.53,399.46,154.86,400.14Z" transform="translate(115.03 59.71)" fill="url(#Безымянный_градиент_240-21)"/><path d="M247.19,189.87a38.26,38.26,0,0,0-1.35-7.8c-.1,1.35-.68,7.78-.68,7.78a38.31,38.31,0,0,1-6.15-.34,23,23,0,0,0,5,2.86s-2.06,6.46-1.71,7.75c.43-1.22,4.41-6.13,4.41-6.13s5.46,3.07,7.12,3.83l-5-6.7,6.57-6Z" transform="translate(115.03 59.71)" fill="url(#Безымянный_градиент_240-22)"/><path d="M20,587.19c-1.65,2.85,2.44,5.53,4.09,2.68S21.64,584.34,20,587.19Z" transform="translate(115.03 59.71)" fill="url(#Безымянный_градиент_240-23)"/><path d="M112.86,516.43c-1,1.79,1.53,3.47,2.57,1.68S113.86,514.64,112.86,516.43Z" transform="translate(115.03 59.71)" fill="url(#Безымянный_градиент_240-24)"/><path d="M472.12,478.42l-.57-.38c-3.31-2.16-6.54,3.41-3.22,5.57l.57.37C472.21,486.15,475.44,480.58,472.12,478.42Z" transform="translate(115.03 59.71)" fill="url(#Безымянный_градиент_240-25)"/><path d="M423.47,471l-6.32,44.76a2.68,2.68,0,0,0-2.54,1.47c-2.08,3.58,3.07,7,5.14,3.36a3.18,3.18,0,0,0-1-4.38,3.42,3.42,0,0,0-.81-.35l6.31-44.68A5.19,5.19,0,0,1,423.47,471Z" transform="translate(115.03 59.71)" fill="url(#Безымянный_градиент_240-26)"/><path d="M331.86,61.29c1-1.79-1.53-3.47-2.57-1.68S330.86,63.08,331.86,61.29Z" transform="translate(115.03 59.71)" fill="url(#Безымянный_градиент_240-27)"/></g><path d="M258,223.81h-.15l.09-.08Z" transform="translate(115.03 59.71)" fill="url(#Безымянный_градиент_248-51)"/><path d="M243.72,314.15a14.52,14.52,0,0,1-1,2.06A19.62,19.62,0,0,0,243.72,314.15Z" transform="translate(115.03 59.71)"/><path d="M370.49,84.83a.8.8,0,0,0-.08.16v-.1Z" transform="translate(115.03 59.71)" fill="url(#Безымянный_градиент_243)"/><path d="M118.65,491.19C90.41,491,57,492.1,42.08,503.63c-4.61,3.56-6.7,8.22-2.74,12,2.74,2.58,7.91,4.35,13.14,5.79a198,198,0,0,0,56.05,6.41c-4.87,9.26,11.43,18.69,30.5,21.38s39.52.36,58.5-2.47,38.23-6.23,58.07-5.66c25.93.75,48.75,8.12,73.45,12,8,1.26,16.57,2.16,24.83,1.35s16.1-3.69,17.73-7.67c.71-1.72.27-3.58,1.84-5.16,2.14-2.17,7.34-3.17,12.17-3.78,16.22-2,33.33-1.85,49.73-3.54s33.26-6,39.2-13.51c4.81-6.11,1.22-13.23-6.78-18.51s-19.86-8.91-32.24-11.59a284,284,0,0,0-58.5-6.1c-46.33-.12-90.56,11.24-136.88,9.63C199.6,492.76,159.63,491.47,118.65,491.19Z" transform="translate(115.03 59.71)" opacity="0.45" fill="url(#Безымянный_градиент_248-52)" style="isolation:isolate"/><path d="M118.65,489.9c-28.24-.15-61.64.72-76.57,10-4.61,2.87-6.7,6.62-2.74,9.63,2.74,2.08,7.91,3.5,13.14,4.66a243.13,243.13,0,0,0,56.05,5.16c-4.87,7.47,11.43,15.06,30.5,17.22s39.52.29,58.5-2,38.23-5,58.07-4.56c25.93.61,48.75,6.54,73.45,9.67a122.55,122.55,0,0,0,24.81,1.11c8.26-.65,16.1-3,17.73-6.17.71-1.39.27-2.88,1.84-4.16,2.14-1.75,7.34-2.55,12.17-3,16.22-1.65,33.33-1.5,49.73-2.86s33.26-4.8,39.2-10.87c4.81-4.92,1.22-10.66-6.78-14.9s-19.89-7.25-32.24-9.38a350.73,350.73,0,0,0-58.5-4.91c-46.33-.1-90.56,9-136.88,7.75C199.6,491.16,159.63,490.12,118.65,489.9Z" transform="translate(115.03 59.71)" opacity="0.45" fill="url(#Безымянный_градиент_248-53)" style="isolation:isolate"/><path d="M373.42,367.94a69.13,69.13,0,0,0-16,.71c-8.67,1.41-65.34,12.74-73.34,12s-26-.7-41.33-.7-28.67-1.37-28.67-1.37-4,7.79-1.34,12.74c0,0,20,2.13,29.34,4.25a170,170,0,0,0,41.66,5C303.41,400.51,370.75,399.8,373.42,367.94Z" transform="translate(115.03 59.71)" fill="#fdb88e"/><path d="M214.08,378.58s-4-7.79-14.67-9.91-12-3.54-12.67-2.13,2.67,4.25,10,6.38c0,0-13.33-.71-14.66,0s22.66,18.37,30.66,18.37C212.74,391.29,216.75,384.22,214.08,378.58Z" transform="translate(115.03 59.71)" fill="#fdb88e"/><path d="M111.41,327.58s-20-14.87-24.67-22.66c-2.09-3.48-14-36.1-15.33-39.64-.7-1.86-5.34-.71-4.67,4.24A81.83,81.83,0,0,1,67.41,283c0,6.37.66,30.44,13.33,44.6S110.08,351,111.41,327.58Z" transform="translate(115.03 59.71)" fill="#fdb88e"/><path d="M104.08,338.91s-20-16.28-23.34-21.94S69.41,275.2,65.41,274.49s-6,5-6,15.57-9.34,45.31-8,48.85,4,5.67,16,5.67,25.33,14.16,25.33,14.16S104.74,357.29,104.08,338.91Z" transform="translate(115.03 59.71)" fill="#fdb88e"/><path d="M288.08,447.94l-6.67,2.12s-14-22.65-33.33-36.81-44-31.15-47.34-34.69-29.32-11.27-51.33-25.49-38-25.48-38-25.48a120.21,120.21,0,0,0-7.33,11.32s42,36.82,94.66,65.14,80.67,68,95.34,51C294.08,455,296.75,449.36,288.08,447.94Z" transform="translate(115.03 59.71)" fill="url(#Безымянный_градиент_248-54)"/><path d="M322.75,498.91s-8,22.79-28.67,22.16-26,4-44.67-20-54-70.8-69.33-81.42-29.34-7.79-52.67-28.32-30.67-29.75-34.67-32.59c0,0,0-11.33,11.34-19.83,0,0,47.33,31.15,58.66,36.11s34,7.79,38.67,14.16,58,31.15,82.67,67.26l10.31-1.74S322.08,461.39,322.75,498.91Z" transform="translate(115.03 59.71)" fill="url(#Безымянный_градиент_248-55)"/><path d="M300.75,429.58s-9.34,15.58-12.67,18.41a145.44,145.44,0,0,1,16,19.11C310.75,477,322.75,499,322.75,499s5.46-5.93,16.06-30.22S314.08,417.5,300.75,429.58Z" transform="translate(115.03 59.71)" fill="#fdb88e"/><path d="M377.42,299.29s-2.67-6.37,4.66-10.62S415.42,283,424.75,295s15.34,50.27-18,56.64S377.42,299.29,377.42,299.29Z" transform="translate(115.03 59.71)" fill="url(#Безымянный_градиент_248-56)"/><path d="M400.08,372.19s3.34,23.36-4.66,38.94c-7.14,13.89-44.67,47.43-52,60.88,0,0-34-23.36-42.67-42.48,0,0,15.33-29,16.66-39.64s7.34-14.87,17.34-15.58a347.57,347.57,0,0,0,38.78-6S398.08,367.23,400.08,372.19Z" transform="translate(115.03 59.71)" fill="url(#Безымянный_градиент_249)"/><path d="M407.42,341.75s-4,16.28-7.34,30.44c0,0-5.33-2.13-13.33,0s-24,0-15.33-2.83,6.22-17.58,6.22-17.58S390.75,338.21,407.42,341.75Z" transform="translate(115.03 59.71)" fill="#fdb88e"/><path d="M407.42,341.75c3.16-5,4.66-12,.66-14.16s-10.66,7.08-12,5-3.33-14.86-5.33-18.4,1.33-8.5,0-10.62-11.33-5-13.33-4.25c0,0-15.34,33.27-13.34,47.43.46,3.22,3.94,4,11.34,5C380.75,352.37,402.08,350.29,407.42,341.75Z" transform="translate(115.03 59.71)" fill="#fdb88e"/><path d="M380.08,414s-8-2.83-41.33,1.41-48,7.79-56.67,7.79-68.67-11.33-68.67-11.33-4.67-7.78,2-14.16c0,0,18.67,2.13,30,2.84s32.67,0,42,0,38.67-10.62,55.34-13.45,30-12.75,44.67-7.79S396.08,417.5,380.08,414Z" transform="translate(115.03 59.71)" fill="#fdb88e"/><path d="M215.41,397.67s-7.33-6.37-14.67-7.07-15.33-3.54-16-2.84,0,4.25,4,5.67,8.67,1.41,8.67,2.12-28.39-1.42-29.33-1.42c-1.34,0-2,.71-.67,2.84-.67.7-.67,1.41,1.33,3.54,0,.7.75,2.67,3.34,4.24,4.66,2.84,10,8.5,19.33,9.92,10.64,1.61,14.67-2.84,22-2.84C213.41,411.83,218.75,402.63,215.41,397.67Z" transform="translate(115.03 59.71)" fill="#fdb88e"/><path d="M193.41,403.84h-.11c-.21,0-20.89-5.23-25.75-6.5a.52.52,0,0,1-.35-.61.45.45,0,0,1,.53-.37h0c4.86,1.27,25.54,6.45,25.75,6.5a.5.5,0,0,1,.35.6A.47.47,0,0,1,193.41,403.84Z" transform="translate(115.03 59.71)" fill="#ff8d6a"/><path d="M192.08,409.51h-.16c-.76-.28-18.66-6.81-23.33-9.07a.54.54,0,0,1-.24-.67.47.47,0,0,1,.61-.26h0c4.63,2.24,23.07,9,23.25,9a.54.54,0,0,1,.3.65A.51.51,0,0,1,192.08,409.51Z" transform="translate(115.03 59.71)" fill="#ff8d6a"/><path d="M191.41,413.75a.38.38,0,0,1-.21-.05c-.16-.08-16.19-8.33-19-9.09a.5.5,0,0,1-.34-.61.48.48,0,0,1,.55-.38h0c2.91.79,18.52,8.83,19.19,9.17a.52.52,0,0,1,.22.67A.49.49,0,0,1,191.41,413.75Z" transform="translate(115.03 59.71)" fill="#ff8d6a"/></g></g></g></svg>