<svg xmlns="http://www.w3.org/2000/svg" xmlns:xlink="http://www.w3.org/1999/xlink" viewBox="0 0 596.64 587.18"><defs><linearGradient id="Безымянный_градиент_30" x1="314.47" y1="307.51" x2="310.5" y2="110.18" gradientTransform="translate(0.68 94.76)" gradientUnits="userSpaceOnUse"><stop offset="0" stop-color="#381a96"/><stop offset="1" stop-color="#350e71"/></linearGradient><linearGradient id="Безымянный_градиент_30-2" x1="40" y1="56.11" x2="232.79" y2="56.11" xlink:href="#Безымянный_градиент_30"/><linearGradient id="Безымянный_градиент_30-3" x1="159.15" y1="96.1" x2="410.71" y2="96.1" xlink:href="#Безымянный_градиент_30"/><linearGradient id="Безымянный_градиент_30-4" x1="324.28" y1="57.7" x2="514.78" y2="57.7" xlink:href="#Безымянный_градиент_30"/><linearGradient id="Безымянный_градиент_30-5" x1="441.67" y1="20.61" x2="574.98" y2="20.61" xlink:href="#Безымянный_градиент_30"/><linearGradient id="Безымянный_градиент_8" x1="216.82" y1="143.6" x2="238.63" y2="143.6" gradientTransform="translate(0.68 94.76)" gradientUnits="userSpaceOnUse"><stop offset="0" stop-color="#feb73d"/><stop offset="1" stop-color="#fd9326"/></linearGradient><linearGradient id="Безымянный_градиент_8-2" x1="303.56" y1="208.17" x2="325.38" y2="208.17" xlink:href="#Безымянный_градиент_8"/><linearGradient id="Безымянный_градиент_8-3" x1="426.15" y1="35.77" x2="447.96" y2="35.77" xlink:href="#Безымянный_градиент_8"/><linearGradient id="Безымянный_градиент_12" x1="210.78" y1="224.78" x2="255.69" y2="224.78" gradientTransform="translate(0.68 94.76)" gradientUnits="userSpaceOnUse"><stop offset="0" stop-color="#fbab3d"/><stop offset="1" stop-color="#dd5db6"/></linearGradient><linearGradient id="Безымянный_градиент_10" x1="230.88" y1="231.19" x2="217" y2="217.3" gradientTransform="translate(0.68 94.76)" gradientUnits="userSpaceOnUse"><stop offset="0.48" stop-color="#fbab3d"/><stop offset="0.81" stop-color="#dd5db6"/></linearGradient><linearGradient id="Безымянный_градиент_12-2" x1="356.63" y1="180.93" x2="400.06" y2="180.93" xlink:href="#Безымянный_градиент_12"/><linearGradient id="Безымянный_градиент_12-3" x1="423.59" y1="180.43" x2="343.05" y2="183.19" xlink:href="#Безымянный_градиент_12"/><linearGradient id="Безымянный_градиент_15" x1="277.66" y1="133.68" x2="313.92" y2="133.68" gradientTransform="translate(0.68 94.76)" gradientUnits="userSpaceOnUse"><stop offset="0" stop-color="#7f70fe"/><stop offset="1" stop-color="#501ea4"/></linearGradient><linearGradient id="Безымянный_градиент_15-2" x1="306.01" y1="47.89" x2="284.07" y2="47.89" gradientTransform="translate(0 173.91)" xlink:href="#Безымянный_градиент_15"/><linearGradient id="Безымянный_градиент_15-3" x1="297.42" y1="121.09" x2="294.94" y2="119.02" xlink:href="#Безымянный_градиент_15"/><linearGradient id="Безымянный_градиент_30-6" x1="177.11" y1="-18.36" x2="188.5" y2="-18.36" xlink:href="#Безымянный_градиент_30"/><linearGradient id="Безымянный_градиент_30-7" x1="179" y1="465.83" x2="427.28" y2="465.83" xlink:href="#Безымянный_градиент_30"/><linearGradient id="Безымянный_градиент_30-8" x1="171.66" y1="461.44" x2="419.91" y2="461.44" xlink:href="#Безымянный_градиент_30"/><linearGradient id="Безымянный_градиент_19" x1="383.78" y1="153.32" x2="387.02" y2="155.19" gradientTransform="translate(0.68 94.76)" gradientUnits="userSpaceOnUse"><stop offset="0" stop-color="#f85982"/><stop offset="1" stop-color="#2a2182"/></linearGradient><linearGradient id="Безымянный_градиент_33" x1="248.32" y1="214.22" x2="305.64" y2="239.2" gradientTransform="translate(0.68 94.76)" gradientUnits="userSpaceOnUse"><stop offset="0" stop-color="#edb39d"/><stop offset="1" stop-color="#ed825e"/></linearGradient><linearGradient id="Безымянный_градиент_30-9" x1="265.2" y1="250.34" x2="292.49" y2="250.34" xlink:href="#Безымянный_градиент_30"/><linearGradient id="Безымянный_градиент_33-2" x1="257.9" y1="192.22" x2="315.22" y2="217.2" xlink:href="#Безымянный_градиент_33"/><linearGradient id="Безымянный_градиент_33-3" x1="311.91" y1="231.22" x2="316.13" y2="259.71" xlink:href="#Безымянный_градиент_33"/><linearGradient id="Безымянный_градиент_33-4" x1="257.41" y1="329.85" x2="290.74" y2="328.04" xlink:href="#Безымянный_градиент_33"/><linearGradient id="Безымянный_градиент_33-5" x1="261.27" y1="272.29" x2="281.57" y2="272.29" xlink:href="#Безымянный_градиент_33"/><linearGradient id="Безымянный_градиент_33-6" x1="366.07" y1="267.01" x2="336.25" y2="286.05" xlink:href="#Безымянный_градиент_33"/><linearGradient id="Безымянный_градиент_33-7" x1="278.43" y1="453.75" x2="315.18" y2="453.75" xlink:href="#Безымянный_градиент_33"/><linearGradient id="Безымянный_градиент_28" x1="240.77" y1="276.96" x2="287.13" y2="292.59" gradientTransform="translate(0.68 94.76)" gradientUnits="userSpaceOnUse"><stop offset="0" stop-color="#f85982"/><stop offset="1" stop-color="#f981ac"/></linearGradient><linearGradient id="Безымянный_градиент_30-10" x1="261.72" y1="410" x2="321.23" y2="388.63" xlink:href="#Безымянный_градиент_30"/><linearGradient id="Безымянный_градиент_30-11" x1="312.58" y1="286.95" x2="329.36" y2="360.5" xlink:href="#Безымянный_градиент_30"/><linearGradient id="Безымянный_градиент_33-8" x1="339.89" y1="227.16" x2="344.1" y2="255.51" xlink:href="#Безымянный_градиент_33"/><linearGradient id="Безымянный_градиент_33-9" x1="154.95" y1="342.64" x2="173.68" y2="329.33" gradientTransform="translate(64.36 38.99) rotate(-7.48)" xlink:href="#Безымянный_градиент_33"/></defs><g id="Слой_2" data-name="Слой 2"><g id="Слой_1-2" data-name="Слой 1"><path d="M40.68,62.71c.65-16.68,38-44.31,165.06-57.1,179.14-18,367.16,10.47,370,47.09.8,10.5-13.34,25.44-21.86,32.45C537,99,525.94,95.15,513,104.44c-29.63,21.25.45,61.79-27.59,92.33C463.89,220.23,436,208,422.1,233.15c-11.4,20.66,4.75,35.08-8,55.56s-33,11.94-48.42,34.18c-13.33,19.18-4.23,33.87-19.33,46.86-9.07,7.79-22.94,9.17-34.72,10.82a121.4,121.4,0,0,1-21.81,1.07c-10,.07-23.68-1.55-35-10.41-18.51-14.56-10.38-32.89-26-54.29-21.41-29.28-52.7-16.9-66.93-43.9-11.28-21.34,4.42-36.55-8.93-52.8-14.17-17.26-37.52-7-48.34-23.8-10.32-16,6.1-32.94-4.36-46.21-12-15.28-38-3.29-49.67-16.65" fill="url(#Безымянный_градиент_30)"/><path d="M40.68,62.71c.61-15.82,34.11-41.38,145.4-54.92,2.86,1.27,5.7,2.61,8.44,4.13,8.6,4.76,16.64,12,18.81,21.56,1.75,7.73-.62,15.92-4.75,22.69A97.24,97.24,0,0,1,193.51,75c-6.69.58-13.5,1.2-19.7,3.78s-11.78,7.51-13.45,14c-2.74,10.69,5.95,21.24,15.79,26.25s21.16,6.59,31,11.65a48.53,48.53,0,0,1,8.51,80.7c-6.3,5.15-13.92,8.74-19.32,14.81-9.2,10.34-10.11,25.61-8.43,39.33,1.17,9.47,3.34,18.93,4.07,28.39-12-3.86-23.09-7.62-30.07-20.84-11.27-21.34,4.42-36.55-8.93-52.8-14.17-17.26-37.52-7-48.34-23.8-10.32-16,6.1-33-4.36-46.21-12-15.28-38-3.29-49.66-16.66" fill="url(#Безымянный_градиент_30-2)"/><path d="M366.91,41c-9.75,15.93-9.05,36.52-2.79,54.13s17.44,33,28.17,48.24c7.26,10.35,14.72,22.13,12.95,34.64-1.9,13.25-13.7,22.89-25.87,28.47s-25.56,8.55-36.86,15.73-20.37,20.55-16.83,33.46c3,10.85,13.73,17.73,24.42,21.22s22.14,4.7,32.31,9.5a49.62,49.62,0,0,1,18,14.71c-11.15,5.72-24,6.34-34.73,21.72-13.33,19.18-4.23,33.87-19.33,46.85-9.07,7.8-22.94,9.18-34.72,10.83a121.4,121.4,0,0,1-21.81,1.07c-10,.07-23.68-1.54-35-10.41-18.51-14.56-10.39-32.89-26-54.29-10.91-14.92-24.39-19-36.86-23-.73-9.46-2.9-18.92-4.07-28.39-1.68-13.72-.77-29,8.43-39.33,5.4-6.07,13-9.66,19.32-14.81a48.52,48.52,0,0,0-8.51-80.7c-9.82-5.06-21.13-6.65-31-11.65s-18.53-15.56-15.79-26.25c1.67-6.51,7.26-11.43,13.45-14s13-3.2,19.7-3.78a96.69,96.69,0,0,0,15.07-18.83c4.13-6.77,6.5-15,4.75-22.69-2.15-9.62-10.19-16.83-18.79-21.62-2.74-1.52-5.58-2.86-8.44-4.13q9.45-1.16,19.65-2.18A1154.82,1154.82,0,0,1,411.11,3.69a23.35,23.35,0,0,1-2.61,14.84c-5.29,9.28-16.34,13.3-26.5,16.61C377.1,36.77,371.82,39.47,366.91,41Z" fill="url(#Безымянный_градиент_30-3)"/><path d="M515.46,19.47a66.75,66.75,0,0,0-34.76,23c-5,6.41-8.82,14-9.55,22-1.33,14.78,7.65,30,2.49,44-2.7,7.3-8.86,12.7-13,19.27-7.85,12.35-8.24,28-6.1,42.49,2,13.74,6.15,27.2,7.34,41-15.47,5-30.67,5.38-39.79,21.91-11.41,20.66,4.74,35.08-8,55.56a33,33,0,0,1-13.57,12.46,49.62,49.62,0,0,0-18-14.71c-10.17-4.8-21.62-6-32.31-9.5s-21.48-10.41-24.48-21.26c-3.53-12.91,5.55-26.28,16.84-33.46s24.7-10.15,36.86-15.73,24-15.22,25.87-28.47c1.77-12.51-5.69-24.29-12.95-34.64-10.73-15.29-21.91-30.64-28.17-48.24s-7-38.2,2.79-54.13c4.91-1.6,10.19-4.3,15.09-5.9,10.16-3.31,21.21-7.33,26.5-16.61a23.35,23.35,0,0,0,2.61-14.84C451.68,7,487.6,12.55,515.46,19.47Z" fill="url(#Безымянный_градиент_30-4)"/><path d="M553.82,85.15c-16.89,13.91-28,10-40.86,19.29-29.63,21.24.45,61.79-27.58,92.32-7.37,8-15.49,11.88-23.54,14.48a40.36,40.36,0,0,0-3.35-20.54c-5.27-11.26-12.22-10.68-15.15-18.92-4.08-11.47,4.93-25.22,17.26-44,9.45-14.43,10.69-12.92,13-19.27,5.16-13.91-3.82-29.18-2.49-44,.73-8.09,4.57-15.64,9.55-22a66.75,66.75,0,0,1,34.76-23h0c36.57,9.1,59.25,20.69,60.2,33.23C576.47,63.19,562.33,78.14,553.82,85.15Z" fill="url(#Безымянный_градиент_30-5)"/><g id="meteor"><path d="M238.31,230.61l-18.7,8.72h0a4.31,4.31,0,0,0-.47.26,3.68,3.68,0,0,0,4.08,6.12,3.57,3.57,0,0,0,.38-.3h0l15.33-13.85C239.68,230.89,239.22,230.17,238.31,230.61Z" fill="url(#Безымянный_градиент_8)"/></g><g id="meteor-2"><path d="M325.05,295.13l-18.71,8.76h0a3,3,0,0,0-.46.26,3.67,3.67,0,1,0,4.07,6.11h0l.38-.29h0L325.68,296C326.42,295.41,326,294.69,325.05,295.13Z" fill="url(#Безымянный_градиент_8-2)"/></g><g id="meteor-3"><path d="M447.68,122.77,429,131.49h0a4.31,4.31,0,0,0-.47.26,3.68,3.68,0,0,0,4.08,6.12,3.57,3.57,0,0,0,.38-.3h0l15.33-13.85C449,123,448.55,122.34,447.68,122.77Z" fill="url(#Безымянный_градиент_8-3)"/></g><path d="M124.06,100.27l.66,1.21a.2.2,0,0,0,.09.09l1.21.67a.22.22,0,0,1,.08.3l-.08.08-1.21.66a.2.2,0,0,0-.09.09l-.66,1.21a.22.22,0,0,1-.3.09h0a.2.2,0,0,1-.09-.09l-.66-1.21a.2.2,0,0,0-.09-.09l-1.21-.66a.23.23,0,0,1-.08-.3l.08-.08,1.21-.67a.2.2,0,0,0,.09-.09l.66-1.21a.23.23,0,0,1,.32-.07h0A.23.23,0,0,1,124.06,100.27Z" fill="#fff"/><path d="M311.89,331.61l.67,1.22.08.08,1.22.67a.22.22,0,0,1,.08.3.3.3,0,0,1-.08.08l-1.22.66a.24.24,0,0,0-.08.09l-.67,1.22a.23.23,0,0,1-.3.08l-.08-.08-.67-1.22a.24.24,0,0,0-.08-.09l-1.22-.66a.24.24,0,0,1-.08-.3l.08-.08,1.22-.67a.3.3,0,0,0,.08-.08l.67-1.22a.22.22,0,0,1,.3-.08Z" fill="#fff"/><path d="M244.91,201.67l.66,1.22a.24.24,0,0,0,.09.08l1.21.67a.21.21,0,0,1,.1.28h0a.24.24,0,0,1-.1.1l-1.21.67a.18.18,0,0,0-.09.08l-.66,1.22a.23.23,0,0,1-.3.08l-.08-.08-.67-1.22a.18.18,0,0,0-.09-.08l-1.21-.67a.23.23,0,0,1-.08-.3l.08-.08,1.21-.67a.24.24,0,0,0,.09-.08l.67-1.22a.22.22,0,0,1,.3-.08Z" fill="#fff"/><path d="M282.05,262.89l.66,1.21a.2.2,0,0,0,.09.09l1.21.66a.23.23,0,0,1,.07.32h0a.23.23,0,0,1-.07.07l-1.21.66a.2.2,0,0,0-.09.09l-.66,1.21a.23.23,0,0,1-.32.07h0l-.07-.07L281,266a.2.2,0,0,0-.09-.09l-1.21-.66a.23.23,0,0,1-.07-.32h0l.07-.07,1.21-.66a.2.2,0,0,0,.09-.09l.68-1.21a.24.24,0,0,1,.32-.05S282,262.87,282.05,262.89Z" fill="#fff"/><path d="M338.47,315.26l.66,1.21a.2.2,0,0,0,.09.09l1.21.66a.23.23,0,0,1,.07.32h0l-.07.07-1.21.66a.2.2,0,0,0-.09.09l-.66,1.21a.23.23,0,0,1-.32.07h0l-.07-.07-.66-1.21a.2.2,0,0,0-.09-.09l-1.21-.66a.23.23,0,0,1-.07-.32h0a.23.23,0,0,1,.07-.07l1.21-.66a.2.2,0,0,0,.09-.09l.66-1.21a.23.23,0,0,1,.32-.07h0Z" fill="#fff"/><path d="M387.4,232.25l.66,1.21a.2.2,0,0,0,.09.09l1.22.66a.23.23,0,0,1,.07.32h0a.23.23,0,0,1-.07.07l-1.22.66a.2.2,0,0,0-.09.09l-.66,1.21a.23.23,0,0,1-.3.08.3.3,0,0,1-.08-.08l-.67-1.21a.24.24,0,0,0-.08-.09l-1.22-.66a.23.23,0,0,1-.07-.32h0a.23.23,0,0,1,.07-.07l1.22-.66a.34.34,0,0,0,.08-.09l.67-1.21a.22.22,0,0,1,.3-.08A.3.3,0,0,1,387.4,232.25Z" fill="#fff"/><path d="M394.61,142l.67,1.22a.3.3,0,0,0,.08.08l1.22.67a.23.23,0,0,1,.08.3.3.3,0,0,1-.08.08l-1.22.66a.24.24,0,0,0-.08.09l-.67,1.22a.23.23,0,0,1-.3.08.3.3,0,0,1-.08-.08l-.67-1.22a.24.24,0,0,0-.08-.09l-1.22-.66a.23.23,0,0,1-.08-.3.3.3,0,0,1,.08-.08l1.22-.67a.3.3,0,0,0,.08-.08l.67-1.22a.22.22,0,0,1,.3-.08Z" fill="#fff"/><path d="M467.53,152.63l.66,1.22a.24.24,0,0,0,.09.08l1.21.67a.23.23,0,0,1,.08.3l-.08.08-1.21.67a.18.18,0,0,0-.09.08l-.66,1.22a.23.23,0,0,1-.32.07h0l-.07-.07-.66-1.22a.18.18,0,0,0-.09-.08l-1.21-.67a.23.23,0,0,1-.08-.3.3.3,0,0,1,.08-.08l1.21-.67a.24.24,0,0,0,.09-.08l.66-1.22a.23.23,0,0,1,.32-.07h0A.23.23,0,0,1,467.53,152.63Z" fill="#fff"/><path d="M499.1,89l.66,1.22a.2.2,0,0,0,.09.09l1.21.66a.22.22,0,0,1,.08.3.3.3,0,0,1-.08.08l-1.21.67a.18.18,0,0,0-.09.08l-.66,1.22a.23.23,0,0,1-.32.07h0l-.07-.07-.66-1.22A.31.31,0,0,0,498,92l-1.21-.67a.23.23,0,0,1-.08-.3.3.3,0,0,1,.08-.08l1.21-.65a.2.2,0,0,0,.09-.09l.66-1.22a.23.23,0,0,1,.32-.07h0A.19.19,0,0,1,499.1,89Z" fill="#fff"/><path d="M300.16,99.74l.66,1.22a.24.24,0,0,0,.09.08l1.22.67a.22.22,0,0,1,.08.3.3.3,0,0,1-.08.08l-1.22.66a.2.2,0,0,0-.09.09l-.66,1.22a.23.23,0,0,1-.3.08.3.3,0,0,1-.08-.08l-.67-1.22a.24.24,0,0,0-.08-.09l-1.22-.66a.24.24,0,0,1-.08-.3.3.3,0,0,1,.08-.08L299,101a.3.3,0,0,0,.08-.08l.67-1.22a.22.22,0,0,1,.3-.08A.28.28,0,0,1,300.16,99.74Z" fill="#fff"/><path d="M278.17,325l.66,1.22a.24.24,0,0,0,.09.08l1.21.67a.22.22,0,0,1,.08.3.3.3,0,0,1-.08.08l-1.21.66a.2.2,0,0,0-.09.09l-.66,1.22a.23.23,0,0,1-.32.07h0a.23.23,0,0,1-.07-.07l-.66-1.22a.17.17,0,0,0-.12-.1l-1.21-.66a.23.23,0,0,1-.08-.3l.08-.08,1.21-.67a.24.24,0,0,0,.09-.08l.66-1.22a.23.23,0,0,1,.32-.07h0Z" fill="#fff"/><circle cx="290.41" cy="181.37" r="1.65" fill="#fff" opacity="0.5" style="isolation:isolate"/><circle cx="182.79" cy="210.37" r="1.65" fill="#fff" opacity="0.5" style="isolation:isolate"/><circle cx="426.07" cy="197.48" r="1.65" fill="#fff" opacity="0.5" style="isolation:isolate"/><circle cx="234.28" cy="277.64" r="1.65" fill="#fff" opacity="0.5" style="isolation:isolate"/><circle cx="409.87" cy="99.97" r="1.65" fill="#fff" opacity="0.5" style="isolation:isolate"/><circle cx="457.8" cy="91.38" r="1.65" fill="#fff" opacity="0.5" style="isolation:isolate"/><circle cx="76.03" cy="106.58" r="1.65" fill="#fff" opacity="0.5" style="isolation:isolate"/><path d="M256.38,319.52a22.46,22.46,0,1,1-34-19.24l.77-.44a23.15,23.15,0,0,1,2.72-1.27,22.49,22.49,0,0,1,30.56,21Z" fill="url(#Безымянный_градиент_12)"/><g opacity="0.2"><path d="M247.09,301.36a22.43,22.43,0,0,1-31.33,31.33,22.44,22.44,0,1,0,31.33-31.33Z"/></g><path d="M225.16,317a2.5,2.5,0,1,1-2.51-2.49h0a2.5,2.5,0,0,1,2.51,2.49Z" fill="url(#Безымянный_градиент_10)"/><path d="M388.37,256.1a22.09,22.09,0,1,0,.06,0Z" fill="url(#Безымянный_градиент_12-2)"/><g opacity="0.2"><path d="M392.68,258.83a21.69,21.69,0,0,1-27.36,31.67,21.17,21.17,0,0,1-4.27-2.72,21.68,21.68,0,1,0,31.63-28.95Z"/></g><path d="M418,295.89c-.75,1.57-2.8,2.25-5.79,2.25-4.89,0-12.29-1.85-20.51-4.82a192,192,0,0,1-17.89-7.51C368,283.05,362.37,280,357.32,277c-12.34-7.45-21.1-15-19.09-19.24,2.38-5,16.85-.78,25.72,2.35a19.52,19.52,0,0,0-1.64,1.76c-14.82-5.12-21.33-4.74-22.09-3.16-.88,1.84,4.43,7.91,17.1,15.72a185.43,185.43,0,0,0,17.44,9.43,190.51,190.51,0,0,0,18.91,7.9c13.65,4.72,21.49,5,22.35,3.21.74-1.54-2.92-6.74-15.79-14.86a14.92,14.92,0,0,0,.34-2.4C408.39,282.47,420.38,291,418,295.89Z" fill="url(#Безымянный_градиент_12-3)"/><g id="Mercury"><path d="M314.6,228.46a18.14,18.14,0,0,1-17.18,18.11h-.94a18.13,18.13,0,1,1,18.12-18.14h0Z" fill="url(#Безымянный_градиент_15)"/></g><circle cx="289.95" cy="221.8" r="2.08" fill="url(#Безымянный_градиент_15-2)"/><path d="M297.19,214.25a1,1,0,1,1-1-1A1,1,0,0,1,297.19,214.25Z" fill="url(#Безымянный_градиент_15-3)"/><g opacity="0.2"><path d="M306.44,213.33a18.11,18.11,0,0,1-13.61,28.88h-.94a18.13,18.13,0,0,1-10-3,18.09,18.09,0,0,0,14.56,7.35h.94a18.12,18.12,0,0,0,9-33.24Z"/></g><path d="M40.68,62.71c.65-16.68,38-44.31,165.06-57.1,179.14-18,367.16,10.47,370,47.09.8,10.5-13.34,25.44-21.86,32.45C537,99,525.94,95.15,513,104.44c-29.63,21.25.45,61.79-27.59,92.33C463.89,220.23,436,208,422.1,233.15c-11.4,20.66,4.75,35.08-8,55.56s-33,11.94-48.42,34.18c-13.33,19.18-4.23,33.87-19.33,46.86-9.07,7.79-22.94,9.17-34.72,10.82a121.4,121.4,0,0,1-21.81,1.07c-10,.07-23.68-1.55-35-10.41-18.51-14.56-10.38-32.89-26-54.29-21.41-29.28-52.7-16.9-66.93-43.9-11.28-21.34,4.42-36.55-8.93-52.8-14.17-17.26-37.52-7-48.34-23.8-10.32-16,6.1-32.94-4.36-46.21-12-15.28-38-3.29-49.67-16.65" fill="none"/><path d="M177.79,77.4a65.62,65.62,0,0,1,11.39-2A65.62,65.62,0,0,0,177.79,77.4Z" fill="url(#Безымянный_градиент_30-6)"/><path d="M40.68,62.71c.65-16.68,38-44.31,165.06-57.1,179.14-18,367.16,10.47,370,47.09.8,10.5-13.34,25.44-21.86,32.45C537,99,525.94,95.15,513,104.44c-29.63,21.25.45,61.79-27.59,92.33C463.89,220.23,436,208,422.1,233.15c-11.4,20.66,4.75,35.08-8,55.56s-33,11.94-48.42,34.18c-13.33,19.18-4.23,33.87-19.33,46.86-9.07,7.79-22.94,9.17-34.72,10.82a121.4,121.4,0,0,1-21.81,1.07c-10,.07-23.68-1.55-35-10.41-18.51-14.56-10.38-32.89-26-54.29-21.41-29.28-52.7-16.9-66.93-43.9-11.28-21.34,4.42-36.55-8.93-52.8-14.17-17.26-37.52-7-48.34-23.8-10.32-16,6.1-32.94-4.36-46.21-12-15.28-38-3.29-49.67-16.65" fill="none"/><line x1="1.67" y1="78.99" x2="596.64" y2="78.99" fill="none"/><path d="M225.68,539c-16-.14-34.84.69-43.27,9.44-2.61,2.7-3.79,6.24-1.55,9.07,1.55,2,4.47,3.31,7.43,4.4A85.14,85.14,0,0,0,220,566.82c-2.75,7,6.46,14.19,17.23,16.23s22.33.27,33.06-1.88,21.6-4.73,32.81-4.29c14.65.57,27.55,6.16,41.5,9.11a42.28,42.28,0,0,0,14,1c4.66-.61,9.09-2.8,10-5.82.4-1.3.15-2.71,1-3.91,1.21-1.65,4.15-2.41,6.88-2.87,9.17-1.56,18.84-1.41,28.1-2.69s18.8-4.52,22.15-10.25c2.72-4.63.69-10-3.83-14s-11.22-6.77-18.22-8.8a121.54,121.54,0,0,0-33-4.65c-26.18-.09-51.18,8.53-77.35,7.31C271.45,540.24,248.86,539.26,225.68,539Z" opacity="0.29" fill="url(#Безымянный_градиент_30-7)" style="isolation:isolate"/><path d="M218.34,534.66c-16-.14-34.83.69-43.27,9.44-2.6,2.7-3.78,6.24-1.55,9.07,1.55,2,4.47,3.31,7.43,4.4a85.1,85.1,0,0,0,31.67,4.86c-2.75,7,6.46,14.19,17.23,16.23s22.34.27,33.06-1.88,21.6-4.73,32.81-4.29c14.65.57,27.55,6.16,41.51,9.11a41.76,41.76,0,0,0,14,1c4.66-.61,9.1-2.8,10-5.82.4-1.3.15-2.71,1-3.91,1.21-1.65,4.15-2.41,6.88-2.87,9.17-1.56,18.84-1.41,28.1-2.69S416,562.79,419.36,557c2.72-4.63.7-10-3.82-14s-11.23-6.77-18.22-8.8a121.18,121.18,0,0,0-33.06-4.63c-26.18-.09-51.17,8.53-77.34,7.31C264.08,535.89,241.49,534.89,218.34,534.66Z" opacity="0.45" fill="url(#Безымянный_градиент_30-8)" style="isolation:isolate"/><path d="M301.49,348.65h-.14l.07-.06Z" fill="#231f20"/><path d="M386.81,249.36a.75.75,0,0,1-.07.12v-.07Z" fill="url(#Безымянный_градиент_19)"/><path d="M274.75,337.71c8.58,2.43,6.6-6.82,7-11.9.36-4.88.19-13.26,1.27-19,.39-2.06-5.54-.33-6.08,1.59-1.43,5.08-3.27,10.93-4.7,16S267.29,335.6,274.75,337.71Z" fill="url(#Безымянный_градиент_33)"/><path d="M266.29,338s-1.62-2.64,1.55-5,15.22-4.56,20.28.14,10.11,21.13-5.07,26S266.29,338,266.29,338Z" fill="url(#Безымянный_градиент_30-9)"/><path d="M291.29,293.15s-1.14-5-3.74-2.59-2.6,2.7-2.6,2.39,1.77-7.58,1.66-9.66-1.45,0-1.45,0h-.24a3.2,3.2,0,0,0-1.21.4c-.73.41-1.25,2.9-1.25,2.9a3.47,3.47,0,0,0-1-.83c-.72-.41-2.07,4.36-3.32,6.86a15.34,15.34,0,0,0-1.14,8.51c.37,2.06-.61,8.71-.8,10v.2a10.59,10.59,0,0,0,1.78-.05,8.8,8.8,0,0,0,1.68-.35,4.15,4.15,0,0,0,3-2.71,6.21,6.21,0,0,1,.6-1.31c1.78-3,6.13-5.39,6.67-6.48s2.29-1.56,2.39-5.09S291.29,293.15,291.29,293.15Zm-1.51,3.17c.21,1-1.76,2.08-2.07,2s-1.61-1.19-1.41-2.12a9.18,9.18,0,0,1,2.6-3.53c.62-.32.21.51,1.5,1.09A5,5,0,0,0,289.78,296.32Z" fill="url(#Безымянный_градиент_33-2)"/><path d="M340.28,341c-7.47-3-26.8-10.5-29-11.28a70.82,70.82,0,0,0-7.15-2,1.37,1.37,0,0,0-.77.44c-1.2,1.09-8.84,11.31-13.18,17.83-1.56,2.35,3.59,13.66,6.83,12.94,1.52-3.14,10.32-20.06,10.43-20.08a11.84,11.84,0,0,1,2.79,0c2.16.21,27.73,6.49,28.61,6.68C339.56,345.69,342,341.67,340.28,341Z" fill="url(#Безымянный_градиент_33-3)"/><path d="M283,438.33c-4.37-1-15.6-15.7-15.95-16.54,3.43-1.87,14.2-9.76,18.69-13.76,2.65,5.87,6,5.83,6.25,5.87C291.68,421.44,288.34,430.13,283,438.33Z" fill="url(#Безымянный_градиент_33-4)"/><path d="M281.58,355.32c-1.45.27-8.41,3.54-9.31,4.61,1,3.61,1.05,7.93-.63,10.79h0a109.79,109.79,0,0,0-9.69,8.06c4.54-.1,11.73-3,15.32-6.21C280.31,369.82,283.73,360,281.58,355.32Z" fill="url(#Безымянный_градиент_33-5)"/><path d="M353.38,366.15c.1-1.46-1.15-9.14-1.56-11.63s-.21-5.5-.93-5.71-1-.83-3.85,10.9-3.73,9.55-7.16,13.29-1.45,5.81,1.87,7.79A5.66,5.66,0,0,1,344,383c-.15,2-.19,7.42-.2,7.88l10.49,2.24C354.13,392.69,353.28,367.55,353.38,366.15Z" fill="url(#Безымянный_градиент_33-6)"/><path d="M314.68,559.79a9.85,9.85,0,0,1-8.2,1.56,20.22,20.22,0,0,0-10.91.31,18.43,18.43,0,0,1-11,0c-1.14-.41-2.7.31-3.64-.21a4.23,4.23,0,0,1-1.27-1.39h0c-.53-.88-.79-1.91-.07-2.33a1.48,1.48,0,0,1,.68-.19c.81,0,1.71.56,2.82.57a3.06,3.06,0,0,0,1.23-.23c2.08-.83,12.46-6.11,15.57-7.27,3.29-1.21,3.53-16.09,3.53-16.09H314s-1.8,12.67-.72,15.58C313.87,552,317.87,557.51,314.68,559.79Z" fill="url(#Безымянный_градиент_33-7)"/><path d="M297,358.89c-1.49,4-3.38,8.07-4.63,12.19-1.15,3.78-1.29,7.36-2.83,11.06-1,2.39-.94,21.6-1.86,23.8a9.36,9.36,0,0,1-2,2.07c-4.49,4-15.26,11.89-18.69,13.76a2.3,2.3,0,0,1-1,.4c-1.55-.34-7.32-10.52-8.17-13.18-5.07-16-5.07-25.3,3.56-30l.49-.25c3.64-1.78,9.75-3,11.91-6.63a15.48,15.48,0,0,0,1.34-3.52,17.54,17.54,0,0,1,.7-2c1-2.24,13.23-19.2,14.31-20.64A26.73,26.73,0,0,0,297,358.89Z" fill="url(#Безымянный_градиент_28)"/><path d="M288.26,482A62.09,62.09,0,0,0,292.68,494c1.29,2.84,1.36,6.47,1.71,9.53.8,6.9,7.52,30.41,8.42,34.7A26.83,26.83,0,0,0,314,539.32c8.63-31.26,6-59.44,4.06-68.5-.65-3-1.16-6-1.6-9-.3-2.07-2.53-10.94-.42-12.54h.1c-10.11-2-20.71-2.6-30.36-6C286.18,445.82,286.56,474.55,288.26,482Z" fill="url(#Безымянный_градиент_30-10)"/><path d="M367.79,434.68c-1-8.1-2.53-16.14-5.59-23.73-2.06-5.1-6.9-17.51-7.68-17.84-1-.41-11-2.56-11.13-2.57-.72.71.69,30.12.19,30.77-1.46,1.88-20.24-1.62-23.74-3.4-2.94-1.5-5.67-3.24-8.75-4.52-6.51-2.73-15.86-1.29-19.09.51-1.27,1.23-9,22.64-9,24.43.36,1.44,2.68,4.84,2.69,4.91,9.65,3.42,20.25,4,30.36,6,2.3-1,28.64,3,42.08-1,3.13-.94,9.2-2.52,10.3-5.93C369.09,440.27,368,436.6,367.79,434.68Z" fill="url(#Безымянный_градиент_30-11)"/><path d="M338.11,340.19c3.79,1.51,8,1.87,9.35,2.91s4.2,5.45,5.24,8.87-2.59.94-2.9.21-3.29-2.86-5.82-3.42c-5.35-1.2-7.73-3.9-7.73-3.9S335.68,339.23,338.11,340.19Z" fill="url(#Безымянный_градиент_33-8)"/><path d="M282.78,354.89c1.18-2.41,1.47-5.58-.52-6.26s-4.62,3.35-5.36,2.5-1-3.26-2.19-4.69-.94-5.36-1.69-6.21-5.84-2.57-6.73-2.13c0,0-5.2,15.57-3.44,21.67.4,1.38,2.07,1.5,5.58,1.47C271,361.17,280.79,358.89,282.78,354.89Z" fill="url(#Безымянный_градиент_33-9)"/><path d="M0,179.39H577.45a11.29,11.29,0,0,1,11.23,11.24" fill="none"/></g></g></svg>