<svg xmlns="http://www.w3.org/2000/svg" xmlns:xlink="http://www.w3.org/1999/xlink" viewBox="0 0 214.51 220.23"><defs><linearGradient id="New_Gradient_Swatch_copy_3" x1="22.87" y1="31.03" x2="40.86" y2="31.03" gradientUnits="userSpaceOnUse"><stop offset="0" stop-color="#724bcc"/><stop offset="1" stop-color="#3253a1"/></linearGradient><linearGradient id="New_Gradient_Swatch_copy_3-2" x1="53.1" y1="31.03" x2="71.09" y2="31.03" xlink:href="#New_Gradient_Swatch_copy_3"/><linearGradient id="New_Gradient_Swatch_copy_3-3" x1="83.33" y1="31.03" x2="101.32" y2="31.03" xlink:href="#New_Gradient_Swatch_copy_3"/><linearGradient id="New_Gradient_Swatch_copy_3-4" x1="113.57" y1="31.03" x2="131.56" y2="31.03" xlink:href="#New_Gradient_Swatch_copy_3"/><linearGradient id="New_Gradient_Swatch_copy_3-5" x1="22.87" y1="78.04" x2="40.86" y2="78.04" xlink:href="#New_Gradient_Swatch_copy_3"/><linearGradient id="New_Gradient_Swatch_copy_3-6" x1="53.1" y1="78.04" x2="71.09" y2="78.04" xlink:href="#New_Gradient_Swatch_copy_3"/><linearGradient id="New_Gradient_Swatch_copy_6" x1="83.33" y1="78.04" x2="101.32" y2="78.04" gradientUnits="userSpaceOnUse"><stop offset="0" stop-color="#3ca9fa"/><stop offset="1" stop-color="#84d5f7"/></linearGradient><linearGradient id="New_Gradient_Swatch_copy_6-2" x1="113.57" y1="78.04" x2="131.56" y2="78.04" xlink:href="#New_Gradient_Swatch_copy_6"/><linearGradient id="New_Gradient_Swatch_copy_3-7" x1="22.87" y1="172.04" x2="40.86" y2="172.04" xlink:href="#New_Gradient_Swatch_copy_3"/><linearGradient id="New_Gradient_Swatch_copy_3-8" x1="53.1" y1="172.04" x2="71.09" y2="172.04" xlink:href="#New_Gradient_Swatch_copy_3"/><linearGradient id="New_Gradient_Swatch_copy_6-3" x1="83.33" y1="172.04" x2="101.32" y2="172.04" xlink:href="#New_Gradient_Swatch_copy_6"/><linearGradient id="New_Gradient_Swatch_copy_6-4" x1="113.57" y1="172.04" x2="131.56" y2="172.04" xlink:href="#New_Gradient_Swatch_copy_6"/><linearGradient id="New_Gradient_Swatch_copy_3-9" x1="22.87" y1="31.03" x2="40.86" y2="31.03" xlink:href="#New_Gradient_Swatch_copy_3"/><linearGradient id="New_Gradient_Swatch_copy_3-10" x1="53.1" y1="31.03" x2="71.09" y2="31.03" xlink:href="#New_Gradient_Swatch_copy_3"/><linearGradient id="New_Gradient_Swatch_copy_3-11" x1="83.33" y1="31.03" x2="101.32" y2="31.03" xlink:href="#New_Gradient_Swatch_copy_3"/><linearGradient id="New_Gradient_Swatch_copy_3-12" x1="113.56" y1="31.03" x2="131.55" y2="31.03" xlink:href="#New_Gradient_Swatch_copy_3"/><linearGradient id="New_Gradient_Swatch_copy_3-13" x1="53.1" y1="78.03" x2="71.09" y2="78.03" xlink:href="#New_Gradient_Swatch_copy_3"/><linearGradient id="New_Gradient_Swatch_copy_3-14" x1="22.87" y1="125.03" x2="40.86" y2="125.03" xlink:href="#New_Gradient_Swatch_copy_3"/><linearGradient id="New_Gradient_Swatch_copy_3-15" x1="53.1" y1="125.03" x2="71.09" y2="125.03" xlink:href="#New_Gradient_Swatch_copy_3"/><linearGradient id="New_Gradient_Swatch_copy_6-5" x1="83.33" y1="125.03" x2="101.32" y2="125.03" xlink:href="#New_Gradient_Swatch_copy_6"/><linearGradient id="New_Gradient_Swatch_copy_6-6" x1="113.57" y1="125.03" x2="131.56" y2="125.03" xlink:href="#New_Gradient_Swatch_copy_6"/><linearGradient id="New_Gradient_Swatch_copy_3-16" x1="22.87" y1="172.04" x2="40.86" y2="172.04" xlink:href="#New_Gradient_Swatch_copy_3"/><linearGradient id="New_Gradient_Swatch_copy_3-17" x1="53.1" y1="172.04" x2="71.09" y2="172.04" xlink:href="#New_Gradient_Swatch_copy_3"/><linearGradient id="New_Gradient_Swatch_copy_3-18" x1="123.41" y1="188.76" x2="163.47" y2="188.76" xlink:href="#New_Gradient_Swatch_copy_3"/><linearGradient id="New_Gradient_Swatch_copy_7" x1="118.38" y1="165.37" x2="168.47" y2="165.37" gradientUnits="userSpaceOnUse"><stop offset="0" stop-color="#381a96"/><stop offset="1" stop-color="#350e71"/></linearGradient><linearGradient id="New_Gradient_Swatch_copy_6-7" x1="93.34" y1="90.93" x2="109.92" y2="90.93" xlink:href="#New_Gradient_Swatch_copy_6"/><linearGradient id="New_Gradient_Swatch_copy_6-8" x1="121.2" y1="90.93" x2="137.78" y2="90.93" xlink:href="#New_Gradient_Swatch_copy_6"/><linearGradient id="New_Gradient_Swatch_copy_6-9" x1="149.07" y1="90.93" x2="165.65" y2="90.93" xlink:href="#New_Gradient_Swatch_copy_6"/><linearGradient id="New_Gradient_Swatch_copy_6-10" x1="176.92" y1="90.93" x2="193.5" y2="90.93" xlink:href="#New_Gradient_Swatch_copy_6"/><linearGradient id="New_Gradient_Swatch_copy_6-11" x1="93.34" y1="133.91" x2="109.92" y2="133.91" xlink:href="#New_Gradient_Swatch_copy_6"/><linearGradient id="New_Gradient_Swatch_copy_6-12" x1="121.2" y1="133.91" x2="137.78" y2="133.91" xlink:href="#New_Gradient_Swatch_copy_6"/><linearGradient id="New_Gradient_Swatch_copy_6-13" x1="149.07" y1="133.91" x2="165.65" y2="133.91" xlink:href="#New_Gradient_Swatch_copy_6"/><linearGradient id="New_Gradient_Swatch_copy_6-14" x1="176.92" y1="133.91" x2="193.5" y2="133.91" xlink:href="#New_Gradient_Swatch_copy_6"/><linearGradient id="New_Gradient_Swatch_copy_6-15" x1="176.92" y1="176.45" x2="193.5" y2="176.45" xlink:href="#New_Gradient_Swatch_copy_6"/><linearGradient id="New_Gradient_Swatch_copy_6-16" x1="93.34" y1="176.45" x2="109.92" y2="176.45" xlink:href="#New_Gradient_Swatch_copy_6"/><linearGradient id="New_Gradient_Swatch_copy_7-2" x1="0" y1="214.51" x2="214.51" y2="214.51" xlink:href="#New_Gradient_Swatch_copy_7"/><linearGradient id="New_Gradient_Swatch_copy_3-19" x1="22.87" y1="125.04" x2="40.86" y2="125.04" xlink:href="#New_Gradient_Swatch_copy_3"/><linearGradient id="New_Gradient_Swatch_copy_3-20" x1="53.1" y1="125.04" x2="71.09" y2="125.04" xlink:href="#New_Gradient_Swatch_copy_3"/></defs><g id="Слой_2" data-name="Слой 2"><g id="Layer_1" data-name="Layer 1"><rect x="7.13" width="140.16" height="208.78" style="fill:#a7a6c4"/><rect x="22.87" y="16.15" width="17.99" height="29.76" style="fill:url(#New_Gradient_Swatch_copy_3)"/><rect x="53.1" y="16.15" width="17.99" height="29.76" style="fill:url(#New_Gradient_Swatch_copy_3-2)"/><rect x="83.33" y="16.15" width="17.99" height="29.76" style="fill:url(#New_Gradient_Swatch_copy_3-3)"/><rect x="113.57" y="16.15" width="17.99" height="29.76" style="fill:url(#New_Gradient_Swatch_copy_3-4)"/><rect x="22.87" y="63.16" width="17.99" height="29.76" style="fill:url(#New_Gradient_Swatch_copy_3-5)"/><rect x="53.1" y="63.16" width="17.99" height="29.76" style="fill:url(#New_Gradient_Swatch_copy_3-6)"/><rect x="83.33" y="63.16" width="17.99" height="29.76" style="fill:url(#New_Gradient_Swatch_copy_6)"/><rect x="113.57" y="63.16" width="17.99" height="29.76" style="fill:url(#New_Gradient_Swatch_copy_6-2)"/><polygon points="101.32 139.92 83.33 139.92 101.32 110.16 101.32 139.92" style="fill:#3ca9fa"/><polygon points="131.55 139.92 113.56 139.92 131.55 110.16 131.55 139.92" style="fill:#3ca9fa"/><rect x="22.87" y="157.16" width="17.99" height="29.76" style="fill:url(#New_Gradient_Swatch_copy_3-7)"/><rect x="53.1" y="157.16" width="17.99" height="29.76" style="fill:url(#New_Gradient_Swatch_copy_3-8)"/><rect x="83.33" y="157.16" width="17.99" height="29.76" style="fill:url(#New_Gradient_Swatch_copy_6-3)"/><rect x="113.57" y="157.16" width="17.99" height="29.76" style="fill:url(#New_Gradient_Swatch_copy_6-4)"/><polygon points="40.86 45.91 22.87 45.91 40.86 16.15 40.86 45.91" style="fill:url(#New_Gradient_Swatch_copy_3-9)"/><polygon points="71.09 45.91 53.1 45.91 71.09 16.15 71.09 45.91" style="fill:url(#New_Gradient_Swatch_copy_3-10)"/><polygon points="101.32 45.91 83.33 45.91 101.32 16.15 101.32 45.91" style="fill:url(#New_Gradient_Swatch_copy_3-11)"/><polygon points="131.55 45.91 113.56 45.91 131.55 16.15 131.55 45.91" style="fill:url(#New_Gradient_Swatch_copy_3-12)"/><text transform="translate(31.64 86.07)" style="font-size:12px;font-family:MyriadPro-Regular, Myriad Pro">С </text><polygon points="71.09 92.92 53.1 92.92 71.09 63.15 71.09 92.92" style="fill:url(#New_Gradient_Swatch_copy_3-13)"/><polygon points="101.32 92.92 83.33 92.92 101.32 63.15 101.32 92.92" style="fill:#3ca9fa"/><polygon points="131.55 92.92 113.56 92.92 131.55 63.15 131.55 92.92" style="fill:#3ca9fa"/><rect x="22.87" y="110.15" width="17.99" height="29.76" style="fill:url(#New_Gradient_Swatch_copy_3-14)"/><rect x="53.1" y="110.15" width="17.99" height="29.76" style="fill:url(#New_Gradient_Swatch_copy_3-15)"/><rect x="83.33" y="110.15" width="17.99" height="29.76" style="fill:url(#New_Gradient_Swatch_copy_6-5)"/><rect x="113.57" y="110.15" width="17.99" height="29.76" style="fill:url(#New_Gradient_Swatch_copy_6-6)"/><polygon points="40.86 186.92 22.87 186.92 40.86 157.16 40.86 186.92" style="fill:url(#New_Gradient_Swatch_copy_3-16)"/><polygon points="71.09 186.92 53.1 186.92 71.09 157.16 71.09 186.92" style="fill:url(#New_Gradient_Swatch_copy_3-17)"/><polygon points="101.32 186.92 83.33 186.92 101.32 157.16 101.32 186.92" style="fill:#3ca9fa"/><polygon points="131.55 186.92 113.56 186.92 131.55 157.16 131.55 186.92" style="fill:#3ca9fa"/><rect x="83.33" y="62.85" width="120.19" height="145.94" style="fill:#d5d6db"/><rect x="123.41" y="168.74" width="40.06" height="40.06" style="fill:url(#New_Gradient_Swatch_copy_3-18)"/><rect x="118.38" y="161.99" width="50.1" height="6.74" style="fill:url(#New_Gradient_Swatch_copy_7)"/><rect x="93.34" y="76.47" width="16.58" height="28.92" style="fill:url(#New_Gradient_Swatch_copy_6-7)"/><rect x="121.2" y="76.47" width="16.58" height="28.92" style="fill:url(#New_Gradient_Swatch_copy_6-8)"/><rect x="149.07" y="76.47" width="16.58" height="28.92" style="fill:url(#New_Gradient_Swatch_copy_6-9)"/><rect x="176.92" y="76.47" width="16.58" height="28.92" style="fill:url(#New_Gradient_Swatch_copy_6-10)"/><polygon points="109.92 105.39 93.34 105.39 109.92 76.47 109.92 105.39" style="fill:#3ca9fa"/><polygon points="137.78 105.39 121.2 105.39 137.78 76.47 137.78 105.39" style="fill:#3ca9fa"/><polygon points="165.64 105.39 149.06 105.39 165.64 76.47 165.64 105.39" style="fill:#3ca9fa"/><polygon points="193.5 105.39 176.92 105.39 193.5 76.47 193.5 105.39" style="fill:#3ca9fa"/><rect x="93.34" y="119.45" width="16.58" height="28.92" style="fill:url(#New_Gradient_Swatch_copy_6-11)"/><rect x="121.2" y="119.45" width="16.58" height="28.92" style="fill:url(#New_Gradient_Swatch_copy_6-12)"/><rect x="149.07" y="119.45" width="16.58" height="28.92" style="fill:url(#New_Gradient_Swatch_copy_6-13)"/><rect x="176.92" y="119.45" width="16.58" height="28.92" style="fill:url(#New_Gradient_Swatch_copy_6-14)"/><rect x="176.92" y="161.99" width="16.58" height="28.92" style="fill:url(#New_Gradient_Swatch_copy_6-15)"/><rect x="93.34" y="161.99" width="16.58" height="28.92" style="fill:url(#New_Gradient_Swatch_copy_6-16)"/><text transform="translate(101.18 142.38)" style="font-size:12px;font-family:MyriadPro-Regular, Myriad Pro">С </text><polygon points="137.78 148.38 121.2 148.38 137.78 119.46 137.78 148.38" style="fill:#3ca9fa"/><polygon points="165.64 148.38 149.06 148.38 165.64 119.46 165.64 148.38" style="fill:#3ca9fa"/><polygon points="193.5 148.38 176.92 148.38 193.5 119.46 193.5 148.38" style="fill:#3ca9fa"/><polygon points="193.5 190.91 176.92 190.91 193.5 161.99 193.5 190.91" style="fill:#3ca9fa"/><polygon points="109.92 190.91 93.34 190.91 109.92 161.99 109.92 190.91" style="fill:#3ca9fa"/><path d="M211.58,220.23H2.94A2.93,2.93,0,0,1,0,217.3v-5.57a2.94,2.94,0,0,1,2.94-2.94H211.58a2.94,2.94,0,0,1,2.93,2.94v5.57A2.93,2.93,0,0,1,211.58,220.23Z" style="fill:url(#New_Gradient_Swatch_copy_7-2)"/><polygon points="40.86 139.92 22.87 139.92 40.86 110.16 40.86 139.92" style="fill:url(#New_Gradient_Swatch_copy_3-19)"/><polygon points="71.09 139.92 53.1 139.92 71.09 110.16 71.09 139.92" style="fill:url(#New_Gradient_Swatch_copy_3-20)"/></g></g></svg>