<svg xmlns="http://www.w3.org/2000/svg" xmlns:xlink="http://www.w3.org/1999/xlink" viewBox="0 0 180.05 180.05"><defs><linearGradient id="New_Gradient_Swatch_copy_6" y1="16.54" x2="94.47" y2="16.54" gradientUnits="userSpaceOnUse"><stop offset="0" stop-color="#3ca9fa"/><stop offset="1" stop-color="#84d5f7"/></linearGradient><linearGradient id="New_Gradient_Swatch_copy_4" y1="164.17" x2="180.05" y2="164.17" gradientUnits="userSpaceOnUse"><stop offset="0" stop-color="#f67b80"/><stop offset="1" stop-color="#f1b267"/></linearGradient><linearGradient id="New_Gradient_Swatch_copy_3" x1="10.44" y1="106.62" x2="64.08" y2="106.62" gradientUnits="userSpaceOnUse"><stop offset="0" stop-color="#724bcc"/><stop offset="1" stop-color="#3253a1"/></linearGradient><linearGradient id="New_Gradient_Swatch_copy_3-2" x1="115.97" y1="106.62" x2="169.61" y2="106.62" xlink:href="#New_Gradient_Swatch_copy_3"/><linearGradient id="New_Gradient_Swatch_copy_6-2" x1="77.85" y1="107.84" x2="102.2" y2="107.84" xlink:href="#New_Gradient_Swatch_copy_6"/></defs><g id="Слой_2" data-name="Слой 2"><g id="Layer_1" data-name="Layer 1"><path d="M180.05,18.3A18.3,18.3,0,1,1,161.75,0,18.3,18.3,0,0,1,180.05,18.3Z" style="fill:#f1b267"/><path d="M94.47,30.7a21.26,21.26,0,0,0-28.58-20A26,26,0,0,0,21.6,14.4,18.86,18.86,0,0,0,0,33.08H94.33A20.83,20.83,0,0,0,94.47,30.7Z" style="fill:url(#New_Gradient_Swatch_copy_6)"/><path d="M42.45,148.28H0v31.77H180.05V148.28H137.41" style="fill:url(#New_Gradient_Swatch_copy_4)"/><path d="M90,73.66,46.9,105.34v58.82h86.25V105.34Z" style="fill:#f7f6fb"/><path d="M78.07,135H102v29.14H78.07Z" style="fill:#f85982"/><path d="M140.07,110.43,90,73.66,40,110.43v-20L90,53.62l50.05,36.77Z" style="fill:#f85982"/><path d="M46.9,105.34,40,110.43v-20l24.1-17.71L53.56,65,10.44,96.64v51.64H46.9Z" style="fill:url(#New_Gradient_Swatch_copy_3)"/><path d="M64.08,72.68l13.64-10L53.56,44.92l-50,36.76v20L53.56,65Z" style="fill:#f85982"/><path d="M126.48,44.92,102.33,62.66l13.64,10L126.48,65l50.05,36.76v-20Z" style="fill:#f85982"/><path d="M140.07,90.39v20l-6.92-5.09v42.94h36.46V96.64L126.48,65,116,72.68Z" style="fill:url(#New_Gradient_Swatch_copy_3-2)"/><path d="M102.2,107.84A12.18,12.18,0,1,1,90,95.67,12.18,12.18,0,0,1,102.2,107.84Z" style="fill:url(#New_Gradient_Swatch_copy_6-2)"/></g></g></svg>